# Blender 3.6.1
# www.blender.org
mtllib kuka.mtl
o kuka
v -0.006327 -0.039901 0.054964
v -0.007754 -0.040388 0.054578
v -0.007754 -0.045043 0.050865
v -0.004900 -0.039134 0.055527
v -0.001380 -0.038189 0.056139
v -0.001380 -0.038156 0.056161
v -0.004900 -0.039412 0.055348
v -0.007749 -0.029522 0.061196
v -0.004899 -0.030604 0.060662
v -0.007752 -0.025776 0.062805
v -0.007753 -0.024019 0.063560
v -0.004900 -0.035115 0.058111
v -0.001380 -0.035065 0.058028
v -0.001379 -0.031935 0.059918
v 0.001544 -0.037154 0.056816
v 0.008513 -0.039666 0.055162
v 0.004469 -0.036119 0.057493
v 0.008513 -0.039125 0.055513
v 0.004469 -0.035110 0.058102
v 0.008513 -0.035116 0.058112
v 0.004469 -0.034097 0.058715
v 0.008514 -0.030321 0.060806
v 0.001544 -0.033016 0.059316
v 0.000369 -0.027200 0.062210
v 0.000355 -0.027195 0.062213
v -0.001375 0.031948 -0.059978
v -0.004896 0.030609 -0.060667
v -0.004895 0.033278 -0.059189
v -0.001375 0.035093 -0.058077
v -0.007750 0.029527 -0.061200
v -0.007750 0.024021 -0.063513
v 0.000383 0.027172 -0.062134
v 0.004474 0.034107 -0.058777
v 0.004474 0.035125 -0.058131
v 0.008518 0.033529 -0.059047
v 0.008517 0.030321 -0.060757
v -0.001375 0.038192 -0.056205
v -0.007749 0.045045 -0.050871
v 0.001549 0.037156 -0.056852
v 0.008518 0.039671 -0.055165
v 0.004474 0.036120 -0.057499
v 0.008518 0.036641 -0.057168
v 0.008518 0.035104 -0.058097
v -0.004895 0.035105 -0.058097
v -0.004895 0.036398 -0.057324
v -0.004895 0.039414 -0.055293
v -0.006322 0.039902 -0.054938
v -0.007749 0.040391 -0.054584
v 0.005528 0.012907 -0.066597
v 0.005468 0.012838 -0.066611
v 0.000562 0.013828 -0.066480
v -0.004625 0.012834 -0.066583
v -0.004628 0.012837 -0.066582
v -0.001669 0.016430 -0.065885
v -0.003581 0.018614 -0.065214
v -0.007750 0.016361 -0.065903
v -0.007750 0.023377 -0.063752
v 0.006381 0.020854 -0.064621
v 0.008517 0.023377 -0.063752
v 0.008517 0.016360 -0.065903
v 0.004527 0.018615 -0.065214
v 0.002539 0.007039 -0.067587
v -0.001505 0.007039 -0.067587
v 0.002539 0.009452 -0.067293
v -0.001505 0.009313 -0.067261
v -0.007751 0.007039 -0.067587
v -0.007751 0.001861 -0.067878
v 0.008516 0.001861 -0.067928
v 0.005528 0.007039 -0.067537
v 0.008516 0.007038 -0.067587
v -0.001988 -0.018447 -0.065349
v -0.004296 -0.023280 -0.063787
v -0.002979 -0.018014 -0.065469
v -0.005735 -0.022533 -0.064053
v -0.005960 -0.022417 -0.064095
v 0.008515 -0.018569 -0.065315
v 0.008514 -0.023503 -0.063705
v -0.001006 -0.018560 -0.065367
v -0.002084 -0.023503 -0.063705
v -0.003317 -0.023378 -0.063751
v 0.008515 -0.002674 -0.067851
v 0.008515 -0.007848 -0.067448
v -0.002082 -0.002672 -0.067900
v -0.001006 -0.007844 -0.067499
v -0.003485 -0.002767 -0.067846
v -0.002529 -0.008108 -0.067417
v -0.003338 -0.008735 -0.067338
v -0.006100 -0.004025 -0.067780
v -0.005443 -0.003434 -0.067816
v -0.007192 -0.020967 -0.064584
v -0.007362 -0.020500 -0.064728
v -0.003606 -0.017228 -0.065681
v -0.007914 -0.018978 -0.065196
v -0.003879 -0.015757 -0.066101
v -0.008054 -0.016874 -0.065824
v -0.003879 -0.013238 -0.066600
v -0.008054 -0.013238 -0.066600
v -0.003879 -0.010714 -0.067103
v -0.008054 -0.009581 -0.067273
v -0.003783 -0.009724 -0.067203
v -0.007711 -0.006608 -0.067581
v -0.006796 -0.004651 -0.067743
v 0.002536 -0.039887 -0.055014
v 0.008513 -0.039888 -0.055014
v 0.008513 -0.043972 -0.051741
v -0.004587 -0.034963 -0.058155
v -0.006554 -0.033028 -0.059316
v -0.003618 -0.029681 -0.060979
v -0.005507 -0.027670 -0.062008
v -0.007753 -0.031847 -0.060024
v -0.007753 -0.025196 -0.063055
v 0.005446 -0.034955 -0.058139
v 0.000560 -0.034127 -0.058704
v 0.005526 -0.034875 -0.058185
v 0.002688 -0.031802 -0.059995
v 0.008514 -0.031856 -0.059966
v 0.004559 -0.029680 -0.060977
v 0.008514 -0.025265 -0.063028
v -0.007754 -0.039887 -0.055014
v -0.004631 -0.039887 -0.054951
v -0.007754 -0.043971 -0.051807
v -0.001508 -0.039887 -0.055014
v -0.001508 -0.037995 -0.056337
v 0.002536 -0.037893 -0.056405
v -0.007753 -0.019885 0.064919
v -0.007753 -0.023371 0.063800
v -0.001663 -0.016394 0.065888
v 0.005527 -0.012905 0.066592
v 0.005467 -0.012837 0.066605
v 0.000561 -0.013824 0.066526
v -0.004637 -0.012841 0.066626
v -0.007753 -0.016355 0.065949
v 0.006378 -0.020853 0.064615
v 0.008514 -0.023376 0.063746
v 0.008514 -0.016359 0.065897
v 0.004524 -0.018613 0.065225
v 0.002538 -0.007037 0.067581
v -0.001506 -0.007037 0.067531
v 0.002538 -0.009451 0.067287
v -0.001506 -0.009309 0.067306
v -0.003138 -0.011151 0.066951
v 0.008515 -0.007038 0.067581
v 0.008515 -0.001860 0.067922
v -0.007752 -0.007037 0.067581
v -0.007752 -0.001859 0.067922
v 0.000381 -0.001859 0.067872
v -0.001987 0.018449 0.065343
v -0.004267 0.023290 0.063778
v -0.002978 0.018017 0.065463
v -0.005734 0.022546 0.064045
v -0.005913 0.022454 0.064077
v 0.008517 0.018570 0.065309
v 0.008517 0.023504 0.063700
v -0.001004 0.018562 0.065361
v -0.002081 0.023505 0.063700
v -0.003318 0.023383 0.063744
v -0.002082 0.002676 0.067845
v 0.008516 0.002675 0.067894
v 0.008516 0.004025 0.067790
v -0.002469 0.008102 0.067412
v -0.003852 0.002804 0.067839
v -0.001736 0.007975 0.067427
v -0.001005 0.007849 0.067442
v 0.008516 0.007848 0.067493
v -0.002819 0.008376 0.067378
v -0.005560 0.003523 0.067806
v -0.004844 0.003221 0.067819
v -0.008053 0.009589 0.067217
v -0.007858 0.007412 0.067484
v -0.003545 0.009251 0.067262
v -0.003310 0.008759 0.067330
v -0.006907 0.004891 0.067720
v -0.006683 0.004665 0.067735
v -0.007158 0.021023 0.064561
v -0.007354 0.020500 0.064722
v -0.003605 0.017230 0.065675
v -0.007900 0.019042 0.065173
v -0.003878 0.015761 0.066094
v -0.008053 0.016878 0.065766
v -0.003878 0.013253 0.066591
v -0.008053 0.013253 0.066591
v -0.003878 0.010722 0.067045
v -0.003805 0.009791 0.067188
v 0.005530 0.039889 0.054946
v 0.008518 0.039888 0.055008
v 0.008518 0.043972 0.051801
v -0.007749 0.043973 0.051735
v -0.007749 0.039890 0.054946
v -0.001503 0.039889 0.054946
v 0.002541 0.039889 0.055008
v 0.002541 0.037895 0.056399
v -0.001503 0.038012 0.056260
v 0.005463 0.034988 0.058188
v -0.004627 0.034934 0.058110
v -0.007750 0.031793 0.059995
v 0.000563 0.034129 0.058698
v -0.004622 0.034940 0.058108
v -0.007750 0.025198 0.063049
v -0.005503 0.027673 0.062002
v -0.003615 0.029683 0.060973
v 0.008517 0.025198 0.063103
v 0.008517 0.031856 0.060017
v 0.004562 0.029681 0.060989
v 0.005552 0.034899 0.058242
v 0.002690 0.031804 0.059989
v 0.005536 0.034915 0.058233
vn 0.0025 -0.6237 0.7817
vn 0.0018 -0.6236 0.7818
vn -0.0083 -0.5972 0.8021
vn -0.0011 -0.5409 0.8411
vn 0.0472 -0.6360 0.7702
vn 0.0086 -0.5328 0.8462
vn 0.0420 -0.6334 0.7727
vn 0.0223 -0.3945 0.9186
vn 0.0373 -0.4142 0.9094
vn 0.0218 -0.3947 0.9185
vn -0.0052 -0.4209 0.9071
vn 0.0203 -0.5094 0.8603
vn 0.0204 -0.5072 0.8616
vn -0.0005 -0.4489 0.8936
vn -0.0159 -0.5864 0.8098
vn -0.0174 -0.5832 0.8122
vn 0.0090 -0.5409 0.8411
vn 0.0016 -0.5428 0.8398
vn 0.0019 -0.5336 0.8457
vn 0.0018 -0.5180 0.8554
vn 0.0026 -0.4900 0.8717
vn -0.0093 -0.4635 0.8861
vn -0.0080 -0.4527 0.8916
vn -0.0117 -0.4474 0.8943
vn -0.0185 -0.4302 0.9025
vn 0.0137 0.4291 -0.9032
vn 0.0251 0.4014 -0.9156
vn -0.0015 0.5039 -0.8638
vn 0.0064 0.5165 -0.8563
vn 0.0256 0.3871 -0.9217
vn 0.0062 0.4026 -0.9153
vn -0.0012 0.4207 -0.9072
vn -0.0028 0.4499 -0.8931
vn 0.0100 0.5291 -0.8485
vn 0.0091 0.4842 -0.8749
vn -0.0164 0.4497 -0.8931
vn 0.0345 0.6119 -0.7902
vn -0.0090 0.5985 -0.8011
vn -0.0133 0.5897 -0.8075
vn -0.0143 0.5828 -0.8125
vn 0.0040 0.5438 -0.8392
vn 0.0003 0.5427 -0.8400
vn 0.0100 0.5168 -0.8560
vn 0.0066 0.5131 -0.8583
vn -0.0042 0.5338 -0.8456
vn 0.0064 0.6088 -0.7933
vn 0.0190 0.6234 -0.7817
vn 0.0194 0.6235 -0.7816
vn 0.0116 0.1878 -0.9821
vn -0.0048 0.1862 -0.9825
vn -0.0078 0.1842 -0.9829
vn -0.0073 0.1889 -0.9820
vn 0.0129 0.2281 -0.9735
vn -0.0434 0.2246 -0.9735
vn -0.0001 0.2664 -0.9639
vn 0.0193 0.2594 -0.9656
vn -0.0005 0.2931 -0.9561
vn 0.0243 0.2849 -0.9583
vn 0.0428 0.2928 -0.9552
vn -0.0016 0.2534 -0.9674
vn -0.0151 0.2675 -0.9634
vn -0.0016 0.0676 -0.9977
vn -0.0013 0.0692 -0.9976
vn -0.0113 0.1834 -0.9830
vn -0.0053 0.1807 -0.9835
vn -0.0000 0.0560 -0.9984
vn -0.0017 0.0593 -0.9982
vn -0.0032 0.0641 -0.9979
vn 0.0056 0.0784 -0.9969
vn -0.0167 0.0656 -0.9977
vn -0.0282 -0.3046 -0.9520
vn 0.0102 -0.3080 -0.9513
vn -0.0049 -0.2918 -0.9565
vn 0.0166 -0.3081 -0.9512
vn 0.0160 -0.3077 -0.9514
vn 0.0050 -0.3101 -0.9507
vn 0.0034 -0.3129 -0.9498
vn -0.0028 -0.3159 -0.9488
vn -0.0002 -0.3175 -0.9482
vn 0.0038 -0.3093 -0.9510
vn 0.0046 -0.0776 -0.9970
vn 0.0048 -0.0772 -0.9970
vn -0.0007 -0.0779 -0.9970
vn -0.0002 -0.0776 -0.9970
vn -0.0075 -0.0809 -0.9967
vn -0.0221 -0.0903 -0.9957
vn -0.0064 -0.1106 -0.9938
vn 0.0153 -0.0800 -0.9967
vn 0.0124 -0.0773 -0.9969
vn 0.0138 -0.3049 -0.9523
vn 0.0070 -0.2897 -0.9571
vn -0.0007 -0.2740 -0.9617
vn 0.0104 -0.2871 -0.9579
vn -0.0059 -0.2252 -0.9743
vn 0.0043 -0.2436 -0.9699
vn -0.0031 -0.1992 -0.9800
vn -0.0029 -0.1974 -0.9803
vn -0.0012 -0.1704 -0.9854
vn 0.0020 -0.1429 -0.9897
vn 0.0057 -0.1126 -0.9936
vn 0.0118 -0.0967 -0.9952
vn 0.0155 -0.0856 -0.9962
vn 0.0024 -0.6190 -0.7854
vn -0.0000 -0.6254 -0.7803
vn 0.0021 -0.6234 -0.7819
vn -0.0001 -0.4890 -0.8723
vn 0.0453 -0.4694 -0.8818
vn 0.0010 -0.4621 -0.8868
vn -0.0173 -0.4260 -0.9046
vn 0.0396 -0.4461 -0.8941
vn -0.0328 -0.4144 -0.9095
vn 0.0016 -0.5152 -0.8571
vn -0.0035 -0.5072 -0.8618
vn 0.0041 -0.5048 -0.8632
vn 0.0062 -0.4824 -0.8759
vn -0.0001 -0.4501 -0.8930
vn 0.0003 -0.4208 -0.9071
vn -0.0000 -0.4212 -0.9070
vn 0.0155 -0.6175 -0.7864
vn -0.0056 -0.6075 -0.7943
vn 0.0030 -0.6196 -0.7849
vn -0.0022 -0.6069 -0.7947
vn 0.0014 -0.5232 -0.8522
vn -0.0011 -0.5285 -0.8489
vn 0.0186 -0.2972 0.9546
vn 0.0238 -0.3057 0.9518
vn -0.0012 -0.2360 0.9718
vn 0.0203 -0.1804 0.9834
vn 0.0015 -0.1813 0.9834
vn -0.0042 -0.1771 0.9842
vn 0.0007 -0.1964 0.9805
vn 0.0081 -0.2504 0.9681
vn 0.0260 -0.2856 0.9580
vn 0.0427 -0.2928 0.9552
vn 0.0037 -0.2535 0.9673
vn -0.0099 -0.2699 0.9628
vn -0.0035 -0.0684 0.9977
vn -0.0058 -0.0867 0.9962
vn -0.0043 -0.1721 0.9851
vn 0.0013 -0.1671 0.9859
vn 0.0021 -0.1908 0.9816
vn -0.0000 -0.0656 0.9978
vn -0.0033 -0.0619 0.9981
vn 0.0080 -0.0656 0.9978
vn 0.0055 -0.0633 0.9980
vn 0.0015 -0.0554 0.9985
vn -0.0283 0.3047 0.9520
vn 0.0106 0.3080 0.9513
vn -0.0048 0.2919 0.9564
vn 0.0165 0.3079 0.9513
vn 0.0159 0.3075 0.9514
vn 0.0050 0.3101 0.9507
vn 0.0034 0.3129 0.9498
vn -0.0028 0.3159 0.9488
vn -0.0002 0.3175 0.9483
vn 0.0040 0.3093 0.9509
vn -0.0035 0.0785 0.9969
vn -0.0046 0.0770 0.9970
vn -0.0049 0.0774 0.9970
vn -0.0077 0.0867 0.9962
vn 0.0064 0.0780 0.9969
vn -0.0047 0.0800 0.9968
vn -0.0051 0.0784 0.9969
vn -0.0052 0.0775 0.9970
vn -0.0071 0.0987 0.9951
vn 0.0150 0.0781 0.9968
vn 0.0128 0.0769 0.9970
vn -0.0033 0.1494 0.9888
vn 0.0030 0.1060 0.9944
vn -0.0026 0.1296 0.9916
vn -0.0027 0.1094 0.9940
vn 0.0067 0.0932 0.9956
vn 0.0166 0.0785 0.9968
vn 0.0138 0.3049 0.9523
vn 0.0073 0.2904 0.9569
vn -0.0008 0.2737 0.9618
vn 0.0043 0.2797 0.9601
vn -0.0157 0.2228 0.9747
vn -0.0059 0.2390 0.9710
vn -0.0060 0.1947 0.9808
vn -0.0018 0.1978 0.9802
vn -0.0023 0.1681 0.9858
vn -0.0001 0.1448 0.9895
vn 0.0056 0.6076 0.7943
vn -0.0163 0.6175 0.7864
vn -0.0039 0.6166 0.7873
vn -0.0032 0.6181 0.7861
vn -0.0029 0.6173 0.7867
vn -0.0027 0.6070 0.7947
vn -0.0081 0.6137 0.7895
vn -0.0139 0.5327 0.8462
vn -0.0100 0.5307 0.8475
vn -0.0101 0.5228 0.8524
vn -0.0148 0.5251 0.8509
vn 0.0002 0.4602 0.8878
vn -0.0013 0.5075 0.8617
vn -0.0093 0.5235 0.8519
vn -0.0403 0.4199 0.9067
vn -0.0222 0.4282 0.9034
vn 0.0148 0.4446 0.8956
vn -0.0084 0.4205 0.9073
vn -0.0257 0.4463 0.8945
vn -0.0086 0.4399 0.8980
vn -0.0185 0.4686 0.8832
vn 0.0268 0.4724 0.8810
vn 0.0039 0.4902 0.8716
s 1
usemtl black
f 1//1 2//2 3//3
f 4//4 5//5 6//6
f 1//1 3//3 7//7
f 8//8 9//9 10//10
f 10//10 9//9 11//11
f 4//4 6//6 12//12
f 12//12 6//6 13//13
f 12//12 13//13 9//9
f 9//9 13//13 14//14
f 9//9 14//14 11//11
f 4//4 7//7 5//5
f 5//5 7//7 3//3
f 5//5 3//3 15//15
f 15//15 3//3 16//16
f 15//15 16//16 17//17
f 17//17 16//16 18//18
f 17//17 18//18 19//19
f 19//19 18//18 20//20
f 19//19 20//20 21//21
f 21//21 20//20 22//22
f 21//21 22//22 23//23
f 23//23 22//22 24//24
f 23//23 24//24 14//14
f 14//14 24//24 25//25
f 14//14 25//25 11//11
f 26//26 27//27 28//28
f 26//26 28//28 29//29
f 30//30 27//27 31//31
f 31//31 27//27 26//26
f 31//31 26//26 32//32
f 32//32 26//26 33//33
f 34//34 35//35 33//33
f 33//33 35//35 36//36
f 33//33 36//36 32//32
f 37//37 38//38 39//39
f 39//39 38//38 40//40
f 39//39 40//40 41//41
f 41//41 40//40 42//42
f 41//41 42//42 34//34
f 34//34 42//42 43//43
f 34//34 43//43 35//35
f 28//28 44//44 29//29
f 29//29 44//44 45//45
f 29//29 45//45 37//37
f 37//37 45//45 46//46
f 37//37 46//46 38//38
f 38//38 46//46 47//47
f 38//38 47//47 48//48
f 49//49 50//50 51//51
f 52//52 53//53 54//54
f 54//54 53//53 55//55
f 55//55 53//53 56//56
f 55//55 56//56 57//57
f 58//58 59//59 60//60
f 49//49 51//51 60//60
f 60//60 51//51 61//61
f 60//60 61//61 58//58
f 62//62 63//63 64//64
f 64//64 63//63 65//65
f 64//64 65//65 50//50
f 50//50 65//65 52//52
f 50//50 52//52 51//51
f 51//51 52//52 54//54
f 66//66 63//63 67//67
f 67//67 63//63 62//62
f 67//67 62//62 68//68
f 68//68 62//62 69//69
f 68//68 69//69 70//70
f 71//71 72//72 73//73
f 73//73 72//72 74//74
f 73//73 74//74 75//75
f 76//76 77//77 78//78
f 78//78 77//77 79//79
f 78//78 79//79 71//71
f 71//71 79//79 80//80
f 71//71 80//80 72//72
f 81//81 82//82 83//83
f 83//83 82//82 84//84
f 83//83 84//84 85//85
f 85//85 84//84 86//86
f 87//87 88//88 86//86
f 86//86 88//88 89//89
f 86//86 89//89 85//85
f 75//75 90//90 73//73
f 73//73 90//90 91//91
f 73//73 91//91 92//92
f 92//92 91//91 93//93
f 92//92 93//93 94//94
f 94//94 93//93 95//95
f 94//94 95//95 96//96
f 96//96 95//95 97//97
f 96//96 97//97 98//98
f 98//98 97//97 99//99
f 98//98 99//99 100//100
f 100//100 99//99 101//101
f 100//100 101//101 87//87
f 87//87 101//101 102//102
f 87//87 102//102 88//88
f 103//103 104//104 105//105
f 106//106 107//107 108//108
f 108//108 107//107 109//109
f 109//109 107//107 110//110
f 109//109 110//110 111//111
f 112//112 113//113 114//114
f 114//114 113//113 115//115
f 114//114 115//115 116//116
f 116//116 115//115 117//117
f 116//116 117//117 118//118
f 119//119 120//120 121//121
f 121//121 120//120 122//122
f 108//108 113//113 106//106
f 106//106 113//113 112//112
f 106//106 112//112 123//123
f 123//123 112//112 124//124
f 123//123 124//124 122//122
f 122//122 124//124 103//103
f 122//122 103//103 121//121
f 121//121 103//103 105//105
f 125//125 126//126 127//127
f 128//128 129//129 130//130
f 130//130 129//129 131//131
f 130//130 131//131 127//127
f 127//127 131//131 132//132
f 127//127 132//132 125//125
f 133//133 134//134 135//135
f 128//128 130//130 135//135
f 135//135 130//130 136//136
f 135//135 136//136 133//133
f 137//137 138//138 139//139
f 139//139 138//138 140//140
f 139//139 140//140 129//129
f 129//129 140//140 141//141
f 129//129 141//141 131//131
f 137//137 142//142 143//143
f 144//144 138//138 145//145
f 145//145 138//138 137//137
f 145//145 137//137 146//146
f 146//146 137//137 143//143
f 147//147 148//148 149//149
f 149//149 148//148 150//150
f 149//149 150//150 151//151
f 152//152 153//153 154//154
f 154//154 153//153 155//155
f 154//154 155//155 147//147
f 147//147 155//155 156//156
f 147//147 156//156 148//148
f 157//157 158//158 159//159
f 160//160 161//161 162//162
f 162//162 161//161 157//157
f 162//162 157//157 163//163
f 163//163 157//157 159//159
f 163//163 159//159 164//164
f 165//165 166//166 160//160
f 160//160 166//166 167//167
f 160//160 167//167 161//161
f 168//168 169//169 170//170
f 170//170 169//169 171//171
f 171//171 169//169 172//172
f 171//171 172//172 165//165
f 165//165 172//172 173//173
f 165//165 173//173 166//166
f 151//151 174//174 149//149
f 149//149 174//174 175//175
f 149//149 175//175 176//176
f 176//176 175//175 177//177
f 176//176 177//177 178//178
f 178//178 177//177 179//179
f 178//178 179//179 180//180
f 180//180 179//179 181//181
f 180//180 181//181 182//182
f 182//182 181//181 168//168
f 182//182 168//168 183//183
f 183//183 168//168 170//170
f 184//184 185//185 186//186
f 187//187 188//188 186//186
f 186//186 188//188 189//189
f 184//184 186//186 190//190
f 190//190 186//186 189//189
f 190//190 189//189 191//191
f 191//191 189//189 192//192
f 191//191 192//192 193//193
f 194//194 195//195 196//196
f 194//194 196//196 197//197
f 198//198 199//199 195//195
f 195//195 199//199 200//200
f 195//195 200//200 196//196
f 201//201 202//202 203//203
f 203//203 202//202 204//204
f 203//203 204//204 205//205
f 205//205 204//204 206//206
f 205//205 206//206 196//196
f 196//196 206//206 193//193
f 196//196 193//193 197//197
f 197//197 193//193 192//192
