# Blender 3.6.1
# www.blender.org
mtllib Base_007.mtl
o Base_007
v -0.134236 0.079870 0.715176
v -0.145323 0.056255 0.714883
v -0.159738 -0.000724 0.702005
v -0.149618 -0.048174 0.712984
v -0.155487 0.022630 0.712159
v -0.126004 -0.099630 0.699177
v -0.124398 -0.081792 0.142134
v -0.124398 0.071290 0.142134
v -0.017887 -0.179643 0.153971
v -0.049043 -0.174368 0.153971
v 0.013268 -0.180844 0.153971
v -0.084511 -0.159398 0.153971
v 0.026239 -0.179083 0.153971
v -0.119978 -0.136093 0.590329
v -0.119979 -0.136093 0.153971
v 0.035982 -0.167304 0.153971
v -0.152118 -0.097902 0.590329
v -0.152119 -0.097902 0.153971
v 0.035747 0.166826 0.153971
v -0.154229 0.092974 0.590329
v -0.175143 -0.055448 0.590330
v -0.175144 -0.055448 0.153971
v 0.025974 0.178474 0.153971
v -0.181334 -0.005698 0.590330
v -0.181334 -0.005698 0.153971
v 0.007928 0.180679 0.153971
v -0.177150 0.044051 0.590329
v -0.177150 0.044051 0.153971
v -0.020763 0.178148 0.153971
v -0.124857 0.133371 0.590329
v -0.154229 0.092974 0.153971
v -0.049455 0.173454 0.153971
v -0.124858 0.133371 0.153971
v -0.087156 0.157652 0.153971
v 0.035500 0.071290 0.153971
v 0.035500 -0.081792 0.153971
v -0.124398 -0.081792 0.142134
v -0.124398 0.071290 0.142134
v -0.124398 0.071290 0.590329
v -0.017887 -0.179643 0.589329
v -0.017772 -0.178526 0.590329
v -0.049043 -0.174368 0.589329
v -0.048727 -0.173285 0.590329
v 0.013268 -0.180844 0.589329
v 0.013214 -0.179720 0.590329
v -0.084510 -0.159398 0.589329
v -0.085309 -0.157845 0.590329
v -0.085447 -0.158783 0.590329
v 0.026239 -0.179083 0.589329
v 0.025655 -0.178032 0.590329
v 0.035982 -0.167304 0.589329
v 0.034859 -0.166903 0.590329
v 0.034379 -0.081792 0.590329
v 0.035500 -0.081792 0.589329
v 0.035747 0.166826 0.589329
v 0.034626 0.166419 0.590329
v 0.025974 0.178474 0.589329
v 0.025400 0.177415 0.590329
v 0.007929 0.180679 0.589329
v 0.007910 0.179553 0.590329
v -0.087156 0.157652 0.589329
v -0.088116 0.157033 0.590329
v -0.087608 0.156603 0.590329
v -0.020762 0.178148 0.589329
v -0.020623 0.177036 0.590329
v -0.049454 0.173454 0.589329
v -0.049143 0.172369 0.590329
v 0.035500 0.071290 0.589329
v 0.034379 0.071290 0.590329
v -0.092813 0.147111 0.626613
v -0.092622 0.146585 0.627157
v -0.117243 0.103713 0.702118
v -0.115276 0.105510 0.700009
v -0.115567 0.107035 0.697995
v -0.115677 0.106268 0.699692
v -0.114159 -0.102639 0.698884
v -0.114013 -0.103073 0.698566
v -0.103100 0.128780 0.664670
v -0.103076 0.127841 0.666005
v -0.124664 -0.087101 0.717864
v -0.123964 -0.085189 0.718951
v -0.125517 -0.084328 0.719513
v -0.100391 -0.135765 0.655845
v -0.099961 -0.134759 0.657254
v -0.102266 -0.132393 0.661582
v -0.100426 -0.135323 0.656953
v -0.125524 0.074764 0.719804
v -0.124072 0.079402 0.719166
v -0.125511 0.079825 0.719589
v -0.125315 0.078934 0.719888
v -0.125394 -0.080464 0.719804
v -0.124398 -0.081792 0.719080
v -0.124398 0.071290 0.719080
v -0.125394 0.066571 0.719804
v -0.085124 -0.158232 0.590625
v -0.085487 -0.158767 0.590277
v -0.087594 0.156637 0.590373
v -0.086217 0.157801 0.591286
v -0.087208 0.157542 0.590140
v -0.134236 0.079870 0.715176
v -0.145323 0.056255 0.714883
v -0.159738 -0.000724 0.702005
v -0.149618 -0.048174 0.712984
v -0.155487 0.022630 0.712159
v -0.126004 -0.099630 0.699177
v -0.124398 -0.081792 0.142134
v -0.124398 0.071290 0.142134
v -0.017887 -0.179643 0.153971
v -0.049043 -0.174368 0.153971
v 0.013268 -0.180844 0.153971
v -0.084511 -0.159398 0.153971
v 0.026239 -0.179083 0.153971
v -0.119978 -0.136093 0.590329
v -0.119979 -0.136093 0.153971
v 0.035982 -0.167304 0.153971
v -0.152118 -0.097902 0.590329
v -0.152119 -0.097902 0.153971
v 0.035747 0.166826 0.153971
v -0.154229 0.092974 0.590329
v -0.175143 -0.055448 0.590330
v -0.175144 -0.055448 0.153971
v 0.025974 0.178474 0.153971
v -0.181334 -0.005698 0.590330
v -0.181334 -0.005698 0.153971
v 0.007928 0.180679 0.153971
v -0.177150 0.044051 0.590329
v -0.177150 0.044051 0.153971
v -0.020763 0.178148 0.153971
v -0.124857 0.133371 0.590329
v -0.154229 0.092974 0.153971
v -0.049455 0.173454 0.153971
v -0.124858 0.133371 0.153971
v -0.087156 0.157652 0.153971
v 0.035500 0.071290 0.153971
v 0.035500 -0.081792 0.153971
v -0.124398 -0.081792 0.142134
v -0.124398 0.071290 0.142134
v -0.124398 0.071290 0.590329
v -0.017887 -0.179643 0.589329
v -0.017772 -0.178526 0.590329
v -0.049043 -0.174368 0.589329
v -0.048727 -0.173285 0.590329
v 0.013268 -0.180844 0.589329
v 0.013214 -0.179720 0.590329
v -0.084510 -0.159398 0.589329
v -0.085309 -0.157845 0.590329
v -0.085447 -0.158783 0.590329
v 0.026239 -0.179083 0.589329
v 0.025655 -0.178032 0.590329
v 0.035982 -0.167304 0.589329
v 0.034859 -0.166903 0.590329
v 0.034379 -0.081792 0.590329
v 0.035500 -0.081792 0.589329
v 0.035747 0.166826 0.589329
v 0.034626 0.166419 0.590329
v 0.025974 0.178474 0.589329
v 0.025400 0.177415 0.590329
v 0.007929 0.180679 0.589329
v 0.007910 0.179553 0.590329
v -0.087156 0.157652 0.589329
v -0.088116 0.157033 0.590329
v -0.087608 0.156603 0.590329
v -0.020762 0.178148 0.589329
v -0.020623 0.177036 0.590329
v -0.049454 0.173454 0.589329
v -0.049143 0.172369 0.590329
v 0.035500 0.071290 0.589329
v 0.034379 0.071290 0.590329
v -0.092813 0.147111 0.626613
v -0.092622 0.146585 0.627157
v -0.117243 0.103713 0.702118
v -0.115276 0.105510 0.700009
v -0.115567 0.107035 0.697995
v -0.115677 0.106268 0.699692
v -0.114159 -0.102639 0.698884
v -0.114013 -0.103073 0.698566
v -0.103100 0.128780 0.664670
v -0.103076 0.127841 0.666005
v -0.124664 -0.087101 0.717864
v -0.123964 -0.085189 0.718951
v -0.125517 -0.084328 0.719513
v -0.100391 -0.135765 0.655845
v -0.099961 -0.134759 0.657254
v -0.102266 -0.132393 0.661582
v -0.100426 -0.135323 0.656953
v -0.125524 0.074764 0.719804
v -0.124072 0.079402 0.719166
v -0.125511 0.079825 0.719589
v -0.125315 0.078934 0.719888
v -0.125394 -0.080464 0.719804
v -0.124398 -0.081792 0.719080
v -0.124398 0.071290 0.719080
v -0.125394 0.066571 0.719804
v -0.085124 -0.158232 0.590625
v -0.085487 -0.158767 0.590277
v -0.087594 0.156637 0.590373
v -0.086217 0.157801 0.591286
v -0.087208 0.157542 0.590140
v -0.124398 -0.081792 0.590329
v -0.124398 0.071290 0.590329
v -0.017772 -0.178526 0.590329
v -0.048727 -0.173285 0.590329
v 0.013214 -0.179720 0.590329
v -0.085309 -0.157845 0.590329
v 0.025655 -0.178032 0.590329
v 0.034859 -0.166903 0.590329
v 0.034379 -0.081792 0.590329
v 0.034626 0.166419 0.590329
v 0.025400 0.177415 0.590329
v 0.007910 0.179553 0.590329
v -0.087608 0.156603 0.590329
v -0.020623 0.177036 0.590329
v -0.049143 0.172369 0.590329
v 0.034379 0.071290 0.590329
v -0.092622 0.146585 0.627157
v -0.115276 0.105510 0.700009
v -0.114013 -0.103073 0.698566
v -0.103076 0.127841 0.666005
v -0.099961 -0.134759 0.657254
v -0.124072 0.079402 0.719166
v -0.124398 -0.081792 0.719080
v -0.124398 0.071290 0.719080
vn 0.9617 -0.2570 -0.0952
vn 0.8551 -0.5090 -0.0983
vn 0.6974 -0.2194 -0.6823
vn 0.9464 0.0419 -0.3203
vn 0.7306 -0.0925 -0.6765
vn 0.7304 0.2026 -0.6523
vn 0.6289 -0.6586 -0.4133
vn -0.0310 -0.8682 -0.4952
vn 0.9949 0.0235 -0.0984
vn 0.5936 -0.5726 -0.5655
vn -0.1306 -0.3186 -0.9389
vn -0.8669 0.3093 -0.3910
vn -0.4859 0.8740 0.0003
vn -0.4472 0.8045 -0.3909
vn 0.6636 -0.4781 -0.5754
vn 0.9475 0.3024 -0.1037
vn 0.5892 0.6991 -0.4050
vn 0.8208 0.5624 -0.1000
vn 0.4544 -0.8896 -0.0464
vn 0.6868 -0.7268 0.0002
vn 0.4661 -0.8847 -0.0001
vn 0.0258 0.9154 -0.4016
vn 0.8371 0.5468 -0.0141
vn 0.0745 0.8426 -0.5334
vn 0.0697 -0.8917 -0.4473
vn 0.3687 -0.8153 -0.4464
vn 0.6676 0.7377 -0.1007
vn 0.1466 0.9147 -0.3765
vn -0.1296 0.0178 -0.9914
vn -0.0689 -0.1501 -0.9863
vn 0.2997 0.3440 -0.8899
vn -0.1392 0.0368 -0.9896
vn 0.1106 0.9939 0.0002
vn 0.2565 0.8802 -0.3994
vn 0.0942 0.9103 -0.4031
vn -0.0482 0.9988 -0.0000
vn -0.0441 0.9148 -0.4014
vn -0.5700 -0.6662 -0.4810
vn 0.2379 0.6689 -0.7043
vn -0.9995 0.0303 -0.0009
vn -0.9285 -0.0052 -0.3713
vn 0.8263 0.5633 -0.0000
vn 0.9522 0.3055 0.0001
vn 0.5199 -0.5825 -0.6248
vn -0.3344 -0.4497 -0.8282
vn -0.1148 -0.3118 -0.9432
vn 0.1178 -0.9930 -0.0000
vn -0.0154 -0.9163 -0.4001
vn 0.1140 -0.9070 -0.4053
vn 1.0000 0.0076 0.0001
vn 0.2760 -0.9612 -0.0000
vn 0.2458 -0.8854 -0.3946
vn 0.8613 -0.5082 -0.0000
vn -0.1008 -0.9287 -0.3570
vn 0.5589 -0.0000 -0.8292
vn 0.6307 -0.6621 -0.4048
vn -0.1284 -0.3279 -0.9359
vn -0.4769 -0.8790 0.0001
vn -0.4390 -0.8090 -0.3909
vn 0.0790 -0.4432 -0.8930
vn 0.2039 -0.7160 -0.6676
vn -0.9081 -0.3062 -0.2855
vn -0.1849 0.0016 -0.9828
vn -0.6169 -0.0179 -0.7869
vn 0.9722 0.2012 0.1196
vn -0.5822 0.2217 -0.7823
vn 0.2889 0.9574 -0.0000
vn 0.3812 0.8501 -0.3634
vn -0.9993 -0.0363 -0.0013
vn -0.8653 -0.3136 -0.3910
vn -0.9401 -0.3408 0.0001
vn 0.1947 0.6483 -0.7361
vn -0.0372 0.6781 -0.7341
vn 0.0719 0.6763 -0.7331
vn -0.3300 0.5498 -0.7674
vn -0.6016 0.2326 -0.7642
vn -0.7277 -0.0060 -0.6859
vn -0.3055 -0.5628 -0.7681
vn -0.6117 -0.2036 -0.7644
vn -0.0166 -0.6776 -0.7353
vn 0.1727 -0.6481 -0.7417
vn 0.0841 -0.6768 -0.7313
vn -0.9251 0.0107 -0.3795
vn -0.7358 0.0019 -0.6772
vn 0.6640 0.7477 0.0001
vn 0.3719 -0.1777 0.9111
vn 0.4709 0.8822 -0.0000
vn -0.4705 -0.5629 -0.6795
vn -0.5335 0.6862 -0.4944
vn -0.4280 -0.3069 -0.8501
vn 0.6023 -0.5892 -0.5386
vn 0.3013 0.2635 -0.9164
vn -0.1115 -0.8305 -0.5458
vn -0.6211 -0.6563 -0.4284
vn -0.5698 0.0063 -0.8218
vn -0.9798 0.1968 0.0348
vn 0.2750 0.3238 -0.9053
vn 0.1974 0.2331 -0.9522
vn -0.1241 -0.3166 -0.9404
vn -0.3476 -0.4932 -0.7975
vn -0.9418 0.3361 -0.0000
vn 0.0835 -0.9136 0.3979
vn -0.0167 -0.9999 0.0001
vn 0.9661 -0.2580 0.0001
vn -0.0000 -0.0000 -1.0000
vn 0.5588 -0.0000 -0.8293
vn -0.9484 0.1178 -0.2944
vn 0.5894 -0.6144 -0.5246
vn 0.3961 0.2070 -0.8946
vn -0.3472 -0.5077 -0.7885
vn 0.5222 -0.5923 -0.6136
vn -0.9617 0.2570 0.0952
vn -0.6974 0.2194 0.6823
vn -0.8551 0.5090 0.0983
vn -0.9464 -0.0419 0.3203
vn -0.7304 -0.2026 0.6523
vn -0.7306 0.0925 0.6765
vn -0.6281 0.6577 0.4159
vn 0.0310 0.8682 0.4952
vn -0.9949 -0.0235 0.0984
vn -0.5952 0.5686 0.5678
vn 0.1299 0.3174 0.9394
vn 0.8669 -0.3093 0.3910
vn 0.4472 -0.8045 0.3909
vn 0.4826 -0.8758 -0.0002
vn -0.6636 0.4781 0.5754
vn -0.9475 -0.3024 0.1037
vn -0.8208 -0.5624 0.1000
vn -0.5892 -0.6991 0.4050
vn -0.4527 0.8910 0.0329
vn -0.4658 0.8849 -0.0001
vn -0.6944 0.7196 -0.0006
vn -0.0258 -0.9154 0.4016
vn -0.8371 -0.5468 0.0141
vn -0.0745 -0.8426 0.5334
vn -0.0697 0.8917 0.4473
vn -0.3687 0.8153 0.4464
vn -0.6676 -0.7377 0.1007
vn -0.1466 -0.9147 0.3765
vn 0.1296 -0.0178 0.9914
vn 0.0689 0.1501 0.9863
vn -0.2997 -0.3440 0.8899
vn 0.1392 -0.0368 0.9896
vn -0.1026 -0.9947 -0.0002
vn -0.0942 -0.9103 0.4031
vn -0.2565 -0.8802 0.3994
vn 0.0441 -0.9148 0.4014
vn 0.0449 -0.9990 -0.0000
vn 0.2397 0.4118 0.8792
vn -0.2379 -0.6689 0.7043
vn 1.0000 0.0054 -0.0014
vn 0.9185 0.0052 0.3953
vn -0.8329 -0.5535 -0.0002
vn -0.9556 -0.2947 -0.0005
vn -0.5226 0.5839 0.6212
vn 0.1150 0.3118 0.9432
vn 0.3493 0.5003 0.7923
vn -0.1248 0.9922 -0.0000
vn -0.1140 0.9070 0.4053
vn 0.0154 0.9163 0.4001
vn -0.9998 -0.0196 -0.0002
vn -0.2458 0.8854 0.3946
vn -0.2665 0.9638 -0.0002
vn -0.8546 0.5193 -0.0001
vn 0.1008 0.9287 0.3570
vn 0.3224 0.4563 0.8294
vn 0.1285 0.3279 0.9360
vn 0.9144 -0.0000 0.4048
vn 0.4390 0.8090 0.3909
vn 0.4807 0.8769 -0.0002
vn -0.0790 0.4432 0.8930
vn -0.2039 0.7160 0.6676
vn 0.9081 0.3062 0.2855
vn 0.1849 -0.0016 0.9828
vn 0.6184 -0.0203 0.7856
vn 0.5822 -0.2217 0.7823
vn -0.9532 -0.2738 -0.1281
vn -0.2797 -0.9601 -0.0002
vn -0.3812 -0.8501 0.3634
vn 1.0000 -0.0026 -0.0016
vn 0.9401 0.3408 -0.0001
vn 0.8653 0.3136 0.3910
vn -0.1911 -0.6558 0.7304
vn 0.0326 -0.6834 0.7293
vn -0.0705 -0.6812 0.7287
vn 0.3190 -0.5765 0.7523
vn 0.6905 0.0039 0.7233
vn 0.6243 -0.2212 0.7492
vn 0.3164 0.5774 0.7526
vn 0.6225 0.2256 0.7494
vn 0.0115 0.6834 0.7299
vn -0.1692 0.6554 0.7361
vn -0.0855 0.6800 0.7282
vn 0.6924 -0.0007 0.7215
vn 0.9194 -0.0028 0.3934
vn -0.6715 -0.7410 -0.0002
vn -0.3719 0.1777 -0.9111
vn -0.4709 -0.8822 -0.0000
vn 0.4417 0.5880 0.6776
vn 0.5124 -0.6977 0.5007
vn 0.4457 0.2900 0.8469
vn -0.6011 0.5861 0.5433
vn -0.3000 -0.2624 0.9171
vn 0.1463 0.8262 0.5440
vn 0.5981 0.6762 0.4300
vn 0.5746 0.0006 0.8184
vn 0.9798 -0.1968 -0.0348
vn -0.2457 -0.3440 0.9063
vn 0.3145 0.4475 0.8372
vn 0.1291 0.3103 0.9418
vn 0.3408 0.4983 0.7972
vn 0.9419 -0.3360 0.0001
vn -0.5193 0.5897 0.6185
vn 0.0168 0.9999 -0.0001
vn -0.9661 0.2580 -0.0000
vn -0.0000 -0.0000 1.0000
vn 0.3223 0.4563 0.8294
vn -0.9144 0.0001 0.4048
vn 0.9496 -0.0948 0.2988
vn -0.5884 0.6165 0.5231
vn -0.0063 0.0195 0.9998
vn -0.3784 -0.2001 0.9038
vn -0.0084 0.0171 0.9998
vn -0.5237 0.5917 0.6129
vn 0.9874 0.1585 -0.0000
vn 0.9143 0.2122 0.3449
vn 0.9131 -0.1790 0.3663
vn 0.3820 0.1964 0.9030
vn 0.9933 -0.0955 0.0644
vn 0.9026 0.4306 -0.0019
vn 0.9028 0.4299 0.0106
vn 0.4326 -0.1865 0.8821
vn 0.9524 -0.3029 0.0348
vn 0.9281 -0.0412 0.3699
vn 0.9149 -0.4023 0.0331
vn 0.9097 -0.4121 0.0516
s 1
usemtl Material_003
f 27//1 20//2 2//3
f 3//4 5//5 4//6
f 30//7 75//8 20//2
f 4//6 24//9 3//4
f 97//10 30//7 62//11
f 27//1 3//4 24//9
f 5//5 3//4 27//1
f 51//12 13//13 49//14
f 4//6 5//5 2//3
f 2//3 20//2 1//15
f 21//16 6//17 17//18
f 61//19 33//20 34//21
f 6//17 86//22 17//18
f 76//23 85//24 6//17
f 27//1 2//3 5//5
f 78//25 74//26 30//7
f 14//27 86//22 83//28
f 87//29 2//3 90//30
f 82//31 6//17 4//6
f 21//16 24//9 4//6
f 21//16 4//6 6//17
f 91//32 82//31 4//6
f 9//33 42//34 40//35
f 49//14 11//36 44//37
f 61//19 62//38 30//7
f 80//39 76//23 6//17
f 36//40 51//12 54//41
f 14//27 18//42 17//18
f 17//18 22//43 21//16
f 99//44 63//45 62//46
f 22//43 24//9 21//16
f 29//47 59//48 64//49
f 25//50 27//1 24//9
f 61//19 32//51 66//52
f 27//1 31//53 20//2
f 70//54 78//25 30//7
f 20//2 33//20 30//7
f 63//55 30//56 62//57
f 59//48 23//58 57//59
f 89//60 1//15 72//61
f 96//62 14//27 83//28
f 87//29 94//63 4//6
f 32//51 64//49 66//52
f 91//32 4//6 94//63
f 1//15 75//8 72//61
f 92//64 77//65 81//66
f 10//67 46//68 42//34
f 35//69 55//70 19//71
f 43//72 40//35 42//34
f 45//73 40//35 41//74
f 46//68 43//72 42//34
f 50//75 44//37 45//73
f 50//75 51//12 49//14
f 54//41 52//76 53//77
f 11//36 40//35 44//37
f 57//59 55//70 58//78
f 58//78 55//70 56//79
f 58//78 59//48 57//59
f 60//80 64//49 59//48
f 67//81 64//49 65//82
f 56//79 68//83 69//84
f 57//59 19//71 55//70
f 90//30 1//15 89//60
f 14//27 46//68 15//85
f 46//68 14//27 48//86
f 15//85 46//68 12//87
f 73//88 75//8 74//26
f 80//39 82//31 81//66
f 84//89 86//22 85//24
f 88//90 90//30 89//60
f 97//91 99//44 98//92
f 85//24 77//65 84//89
f 72//61 88//90 89//60
f 77//65 80//39 81//66
f 79//93 74//26 78//25
f 78//25 71//94 79//93
f 92//64 82//31 91//32
f 87//29 93//95 94//63
f 92//64 94//63 93//95
f 83//28 95//96 96//62
f 98//97 70//54 97//10
f 63//98 71//94 62//99
f 74//26 75//8 30//7
f 30//7 97//10 70//54
f 97//10 62//11 63//100
f 16//101 13//13 51//12
f 30//7 33//20 61//19
f 85//24 86//22 6//17
f 17//18 86//22 14//27
f 4//6 2//3 87//29
f 80//39 6//17 82//31
f 10//67 42//34 9//33
f 13//13 11//36 49//14
f 16//101 51//12 36//40
f 15//85 18//42 14//27
f 18//42 22//43 17//18
f 63//45 99//44 97//91
f 99//102 62//38 61//19
f 25//50 24//9 22//43
f 26//103 59//48 29//47
f 28//104 27//1 25//50
f 34//21 32//51 61//19
f 28//104 31//53 27//1
f 31//53 33//20 20//2
f 39//105 30//56 63//106
f 26//103 23//58 59//48
f 48//86 14//27 96//62
f 29//47 64//49 32//51
f 20//2 75//8 1//15
f 12//87 46//68 10//67
f 84//89 47//107 95//96
f 68//83 55//70 35//69
f 97//108 98//109 63//110
f 63//110 98//109 67//81
f 41//74 40//35 43//72
f 44//37 40//35 45//73
f 47//107 43//72 46//68
f 49//14 44//37 50//75
f 52//76 51//12 50//75
f 51//12 52//76 54//41
f 9//33 40//35 11//36
f 61//19 66//52 98//109
f 61//19 98//109 99//102
f 98//109 66//52 67//81
f 60//80 59//48 58//78
f 65//82 64//49 60//80
f 66//52 64//49 67//81
f 55//70 68//83 56//79
f 23//58 19//71 57//59
f 2//3 1//15 90//30
f 95//96 47//107 96//62
f 96//62 46//68 48//86
f 96//62 47//107 46//68
f 72//61 75//8 73//88
f 83//28 86//22 84//89
f 87//29 90//30 88//90
f 76//23 77//65 85//24
f 73//88 88//90 72//61
f 76//23 80//39 77//65
f 73//88 74//26 79//93
f 70//54 71//94 78//25
f 81//66 82//31 92//64
f 88//90 93//95 87//29
f 91//32 94//63 92//64
f 84//89 95//96 83//28
f 71//94 70//54 98//97
f 71//94 98//97 62//99
f 62//99 98//97 99//111
f 126//112 101//113 119//114
f 102//115 103//116 104//117
f 129//118 119//114 174//119
f 103//116 102//115 123//120
f 196//121 161//122 129//118
f 126//112 123//120 102//115
f 104//117 126//112 102//115
f 150//123 148//124 112//125
f 103//116 101//113 104//117
f 101//113 100//126 119//114
f 120//127 116//128 105//129
f 160//130 133//131 132//132
f 105//129 116//128 185//133
f 175//134 105//129 184//135
f 126//112 104//117 101//113
f 177//136 129//118 173//137
f 113//138 182//139 185//133
f 186//140 189//141 101//113
f 181//142 103//116 105//129
f 120//127 103//116 123//120
f 120//127 105//129 103//116
f 190//143 103//116 181//142
f 108//144 139//145 141//146
f 148//124 143//147 110//148
f 160//130 129//118 161//149
f 179//150 105//129 175//134
f 135//151 153//152 150//123
f 113//138 116//128 117//153
f 116//128 120//127 121//154
f 198//155 161//156 162//157
f 121//154 120//127 123//120
f 128//158 163//159 158//160
f 124//161 123//120 126//112
f 160//130 165//162 131//163
f 126//112 119//114 130//164
f 169//165 129//118 177//136
f 119//114 129//118 132//132
f 162//166 161//167 129//168
f 158//160 156//169 122//170
f 188//171 171//172 100//126
f 195//173 182//139 113//138
f 186//140 103//116 193//174
f 131//163 165//162 163//159
f 190//143 193//174 103//116
f 100//126 171//172 174//119
f 191//175 180//176 176//177
f 109//178 141//146 145//179
f 134//180 118//181 154//182
f 142//183 141//146 139//145
f 144//184 140//185 139//145
f 145//179 141//146 142//183
f 149//186 144//184 143//147
f 149//186 148//124 150//123
f 153//152 152//187 151//188
f 110//148 143//147 139//145
f 156//169 157//189 154//182
f 157//189 155//190 154//182
f 157//189 156//169 158//160
f 159//191 158//160 163//159
f 166//192 164//193 163//159
f 155//190 168//194 167//195
f 156//169 154//182 118//181
f 189//141 188//171 100//126
f 113//138 114//196 145//179
f 145//179 147//197 113//138
f 114//196 111//198 145//179
f 172//199 173//137 174//119
f 179//150 180//176 181//142
f 183//200 184//135 185//133
f 187//201 188//171 189//141
f 196//202 197//203 198//155
f 184//135 183//200 176//177
f 171//172 188//171 187//201
f 176//177 180//176 179//150
f 178//204 177//136 173//137
f 177//136 178//204 170//205
f 191//175 190//143 181//142
f 186//140 193//174 192//206
f 191//175 192//206 193//174
f 182//139 195//173 194//207
f 197//208 196//121 169//165
f 162//209 161//210 170//205
f 173//137 129//118 174//119
f 129//118 169//165 196//121
f 196//121 162//211 161//122
f 115//212 150//123 112//125
f 129//118 160//130 132//132
f 184//135 105//129 185//133
f 116//128 113//138 185//133
f 103//116 186//140 101//113
f 179//150 181//142 105//129
f 109//178 108//144 141//146
f 112//125 148//124 110//148
f 115//212 135//151 150//123
f 114//196 113//138 117//153
f 117//153 116//128 121//154
f 162//157 196//202 198//155
f 198//213 160//130 161//149
f 124//161 121//154 123//120
f 125//214 128//158 158//160
f 127//215 124//161 126//112
f 133//131 160//130 131//163
f 127//215 126//112 130//164
f 130//164 119//114 132//132
f 138//216 162//217 129//218
f 125//214 158//160 122//170
f 147//197 195//173 113//138
f 128//158 131//163 163//159
f 119//114 100//126 174//119
f 111//198 109//178 145//179
f 183//200 194//207 146//219
f 167//195 134//180 154//182
f 196//220 162//221 197//222
f 162//223 166//192 197//222
f 140//185 142//183 139//145
f 143//147 144//184 139//145
f 146//219 145//179 142//183
f 148//124 149//186 143//147
f 151//188 149//186 150//123
f 150//123 153//152 151//188
f 108//144 110//148 139//145
f 160//130 197//222 165//162
f 160//130 198//213 197//222
f 197//222 166//192 165//162
f 159//191 157//189 158//160
f 164//193 159//191 163//159
f 165//162 166//192 163//159
f 154//182 155//190 167//195
f 122//170 156//169 118//181
f 101//113 189//141 100//126
f 194//207 195//173 146//219
f 195//173 147//197 145//179
f 195//173 145//179 146//219
f 171//172 172//199 174//119
f 182//139 183//200 185//133
f 186//140 187//201 189//141
f 175//134 184//135 176//177
f 172//199 171//172 187//201
f 175//134 176//177 179//150
f 172//199 178//204 173//137
f 169//165 177//136 170//205
f 180//176 191//175 181//142
f 187//201 186//140 192//206
f 190//143 191//175 193//174
f 183//200 182//139 194//207
f 170//205 197//208 169//165
f 170//205 161//210 197//208
f 161//210 198//224 197//208
f 28//104 25//50 124//161
f 77//65 92//64 191//175
f 16//101 36//40 135//151
f 38//216 8//216 107//216
f 19//71 23//58 122//170
f 10//67 9//33 108//144
f 71//94 63//105 162//209
f 93//95 88//90 187//201
f 26//103 29//47 128//158
f 13//13 16//101 115//212
f 79//93 71//94 170//205
f 36//40 54//41 153//152
f 25//50 22//43 121//154
f 50//75 45//73 144//184
f 56//79 69//84 168//194
f 45//73 41//74 140//185
f 60//80 58//78 157//189
f 47//107 84//89 183//200
f 69//84 68//83 167//195
f 67//81 65//82 164//193
f 12//87 10//67 109//178
f 52//76 50//75 149//186
f 53//77 52//76 151//188
f 33//20 31//53 130//164
f 32//51 34//21 133//131
f 7//216 37//216 136//216
f 34//21 33//20 132//132
f 11//36 13//13 112//125
f 68//83 35//69 134//180
f 63//110 67//81 166//192
f 15//85 12//87 111//198
f 9//33 11//36 110//148
f 41//74 43//72 142//183
f 84//89 77//65 176//177
f 58//78 56//79 155//190
f 18//42 15//85 114//196
f 92//64 93//95 192//206
f 73//88 79//93 178//204
f 30//56 39//105 138//216
f 65//82 60//80 159//191
f 88//90 73//88 172//199
f 35//69 19//71 118//181
f 29//47 32//51 131//163
f 39//105 63//105 162//217
f 54//41 53//77 152//187
f 22//43 18//42 117//153
f 31//53 28//104 127//215
f 23//58 26//103 125//214
f 43//72 47//107 146//219
f 127//215 28//104 124//161
f 176//177 77//65 191//175
f 115//212 16//101 135//151
f 137//216 38//216 107//216
f 118//181 19//71 122//170
f 109//178 10//67 108//144
f 170//205 71//94 162//209
f 192//206 93//95 187//201
f 125//214 26//103 128//158
f 112//125 13//13 115//212
f 178//204 79//93 170//205
f 135//151 36//40 153//152
f 124//161 25//50 121//154
f 149//186 50//75 144//184
f 155//190 56//79 168//194
f 144//184 45//73 140//185
f 159//191 60//80 157//189
f 146//219 47//107 183//200
f 168//194 69//84 167//195
f 166//192 67//81 164//193
f 111//198 12//87 109//178
f 151//188 52//76 149//186
f 152//187 53//77 151//188
f 132//132 33//20 130//164
f 131//163 32//51 133//131
f 106//216 7//216 136//216
f 133//131 34//21 132//132
f 110//148 11//36 112//125
f 167//195 68//83 134//180
f 162//216 63//110 166//192
f 114//196 15//85 111//198
f 108//144 9//33 110//148
f 140//185 41//74 142//183
f 183//200 84//89 176//177
f 157//189 58//78 155//190
f 117//153 18//42 114//196
f 191//175 92//64 192//206
f 172//199 73//88 178//204
f 129//216 30//56 138//216
f 164//193 65//82 159//191
f 187//201 88//90 172//199
f 134//180 35//69 118//181
f 128//158 29//47 131//163
f 138//216 39//105 162//217
f 153//152 54//41 152//187
f 121//154 22//43 117//153
f 130//164 31//53 127//215
f 122//170 23//58 125//214
f 142//183 43//72 146//219
f 221//225 199//226 200//227
f 207//216 204//228 202//216
f 208//216 210//216 212//216
f 222//229 221//225 200//227
f 201//216 207//216 202//216
f 205//216 206//216 203//216
f 207//216 201//216 206//216
f 207//216 199//226 204//228
f 206//216 201//216 203//216
f 221//225 217//230 199//226
f 217//230 219//231 199//226
f 219//231 204//228 199//226
f 213//216 214//216 212//216
f 211//232 200//227 214//216
f 209//216 210//216 208//216
f 214//216 208//216 212//216
f 213//216 211//232 214//216
f 216//233 220//234 222//229
f 200//227 215//235 218//236
f 216//233 200//227 218//236
f 200//227 211//232 215//235
f 216//233 222//229 200//227
