# Blender 3.6.1
# www.blender.org
mtllib Torso_Base.mtl
o Torso_Base
v 0.032000 0.013620 0.140929
v 0.033000 0.013568 0.140968
v 0.032000 -0.013587 0.140958
v 0.032000 -0.053154 0.471474
v 0.033000 -0.052424 0.472073
v 0.032000 -0.052399 0.472389
v 0.031249 -0.062486 0.133000
v 0.006715 -0.062500 0.469105
v 0.007913 -0.062500 0.470244
v 0.033000 -0.055760 0.472658
v 0.032000 -0.055431 0.474064
v 0.033000 -0.054997 0.474461
v 0.031984 -0.061913 0.133000
v 0.032002 -0.053767 0.169702
v 0.032000 -0.054825 0.169523
v 0.006881 -0.063500 0.469093
v -0.017000 -0.063500 0.176000
v 0.004901 -0.063500 0.171889
v 0.033000 -0.054345 0.169708
v 0.033000 -0.052779 0.169255
v 0.032002 -0.055580 0.472136
v 0.033000 0.038331 0.471414
v 0.032000 0.038345 0.471474
v 0.032002 0.037267 0.471299
v 0.033000 -0.013578 0.140947
v 0.032000 0.014825 0.139981
v 0.032000 0.015000 0.136000
v 0.033000 0.014922 0.139745
v 0.032001 0.036301 0.166726
v 0.032001 0.037267 0.166299
v 0.005000 -0.062500 0.136000
v 0.005000 -0.063500 0.136000
v 0.004987 -0.062500 0.171336
v 0.033000 0.015000 0.136000
v 0.033000 0.036279 0.166745
v 0.033000 -0.053655 0.166292
v 0.032002 -0.054232 0.166299
v 0.033000 -0.055221 0.166745
v 0.004202 -0.062500 0.172771
v 0.003622 -0.063500 0.172953
v 0.031988 0.045246 0.133000
v 0.031421 0.045959 0.133000
v 0.032943 0.045825 0.133000
v 0.032002 0.037425 0.474752
v 0.032001 0.038729 0.474239
v 0.033000 0.038433 0.474441
v 0.032000 -0.014922 0.139745
v 0.032000 -0.015000 0.136000
v 0.033000 0.037845 0.166292
v 0.032000 0.038325 0.166477
v 0.033000 0.039162 0.167322
v 0.033000 -0.018000 0.133000
v 0.033000 -0.014825 0.139981
v 0.031479 -0.063482 0.513000
v 0.011000 -0.063500 0.513000
v 0.008000 -0.063500 0.510000
v 0.032000 -0.053174 0.166477
v 0.032000 0.035735 0.168166
v 0.008000 -0.063500 0.133000
v 0.033001 -0.054563 0.471306
v 0.032002 -0.054233 0.471299
v 0.013500 0.046000 0.136000
v 0.016500 0.046000 0.133000
v 0.033000 0.038721 0.169255
v 0.007971 -0.063500 0.470411
v 0.008000 -0.062500 0.510000
v 0.011000 -0.062500 0.513000
v 0.033000 0.037155 0.169708
v 0.033000 -0.015000 0.136000
v -0.014000 -0.062500 0.469000
v -0.014000 -0.063500 0.469000
v 0.016500 0.047000 0.513000
v 0.013500 0.047000 0.510000
v 0.013500 0.046000 0.510000
v 0.016500 0.046000 0.513000
v 0.016500 0.047000 0.133000
v 0.033000 0.018000 0.133000
v 0.033000 -0.055662 0.168678
v 0.013500 0.047000 0.136000
v 0.033000 0.035759 0.472887
v 0.032001 0.036199 0.471824
v 0.032000 0.035834 0.473569
v 0.032978 0.045660 0.513000
v 0.033000 0.036661 0.474566
v 0.033000 0.035838 0.168678
v 0.033000 0.039260 0.473342
v 0.032960 -0.062073 0.133000
v 0.031883 -0.063378 0.133000
v 0.032000 -0.052336 0.473520
v 0.032970 -0.062263 0.513000
v 0.033002 -0.052946 0.474417
v 0.033000 0.036483 0.471607
v 0.032000 0.039265 0.167834
v -0.017000 -0.063500 0.466000
v 0.032000 0.018000 0.133000
v 0.032001 -0.055199 0.166726
v -0.017000 -0.062500 0.466000
v 0.031879 -0.062194 0.513000
v -0.014000 -0.062500 0.173000
v 0.008000 -0.062500 0.133000
v 0.031961 0.045682 0.513000
v 0.032000 -0.055765 0.168166
v 0.033000 -0.052338 0.167322
v -0.017000 -0.062500 0.176000
v -0.014000 -0.063500 0.173000
v 0.031514 0.046969 0.133000
v 0.031683 0.046911 0.513000
v 0.032000 -0.018000 0.133000
v 0.032000 -0.053626 0.474712
v 0.032000 0.036674 0.169523
v 0.032000 0.039265 0.472834
v 0.032000 -0.052801 0.169274
v 0.032000 -0.052235 0.167834
v 0.032001 0.038699 0.169274
v 0.032002 0.037733 0.169702
vn -0.7828 -0.2115 -0.5852
vn 0.7965 -0.1977 -0.5714
vn -0.7937 0.2059 -0.5723
vn -0.8278 -0.2451 0.5046
vn 0.8500 -0.4583 0.2598
vn 0.6706 -0.7058 0.2283
vn -0.2002 0.5822 -0.7880
vn -0.2126 0.7804 0.5880
vn -0.5544 0.7974 0.2384
vn -0.6030 0.7905 0.1077
vn -0.8387 0.4455 -0.3134
vn 0.8385 0.2840 -0.4650
vn -0.5140 0.2511 -0.8202
vn -0.7857 -0.1001 -0.6104
vn 0.6316 0.4091 -0.6586
vn -0.2395 -0.8249 0.5121
vn -0.7173 -0.6303 -0.2971
vn -0.5370 -0.8091 -0.2385
vn 0.7993 0.1140 -0.5900
vn 0.8152 -0.4191 -0.3996
vn -0.8276 0.4925 0.2692
vn 0.8364 -0.2718 0.4761
vn -0.7960 -0.3324 0.5059
vn -0.8009 0.0825 0.5931
vn 0.7837 0.2008 -0.5878
vn -0.8144 -0.5055 -0.2849
vn -0.6318 -0.7124 -0.3054
vn 0.8058 -0.5507 -0.2178
vn -0.8028 0.4275 0.4155
vn -0.7859 0.1000 0.6102
vn -0.7173 0.6301 -0.2973
vn -0.7172 -0.6303 -0.2972
vn -0.6367 0.7632 -0.1102
vn 0.6320 -0.7129 -0.3040
vn 0.8153 0.4191 0.3996
vn 0.7995 -0.1143 0.5896
vn -0.7855 0.1001 0.6107
vn 0.8161 0.4178 0.3993
vn -0.4219 -0.6017 -0.6782
vn -0.1841 0.6223 -0.7609
vn -0.5798 -0.2025 -0.7892
vn -0.2500 -0.5169 -0.8187
vn 0.7055 0.3401 -0.6217
vn -0.8253 0.0359 -0.5635
vn -0.7956 -0.4260 -0.4307
vn 0.7868 -0.3049 -0.5366
vn -0.8053 0.5516 -0.2173
vn -0.6319 0.7129 -0.3040
vn 0.7998 -0.1133 0.5895
vn -0.7953 -0.3205 0.5146
vn -0.6105 -0.7316 0.3033
vn 0.6303 0.2970 -0.7173
vn -0.6198 0.6836 -0.3854
vn 0.2588 -0.7245 0.6388
vn -0.2968 -0.6307 0.7170
vn -0.7169 -0.6306 0.2973
vn -0.7954 -0.3204 0.5144
vn -0.8309 0.5560 -0.0222
vn -0.2954 -0.6313 -0.7171
vn -0.6115 0.2277 0.7577
vn -0.7847 0.0771 0.6150
vn -0.7179 -0.6295 -0.2972
vn -0.2982 -0.6288 -0.7181
vn -0.6339 -0.5592 -0.5342
vn -0.7342 0.6374 0.2338
vn -0.7171 0.6303 0.2974
vn -0.3018 0.6275 0.7178
vn 0.7993 0.1139 -0.5901
vn 0.6318 0.7124 -0.3054
vn -0.2986 0.6306 0.7163
vn -0.2986 -0.6306 0.7163
vn -0.2952 0.6314 0.7171
vn -0.7173 0.6303 0.2971
vn -0.7173 -0.6302 0.2971
vn -0.3037 -0.6263 0.7180
vn -0.2964 0.6307 -0.7172
vn 0.6305 -0.2966 -0.7173
vn 0.8374 0.5066 -0.2051
vn -0.7173 0.6303 -0.2971
vn 0.8210 0.5699 0.0341
vn -0.8089 0.4578 0.3690
vn -0.8363 0.5117 -0.1968
vn 0.7156 0.3036 0.6290
vn 0.8472 0.2648 -0.4606
vn -0.6051 0.7388 -0.2968
vn 0.8288 -0.5536 -0.0816
vn 0.7240 -0.2607 -0.6386
vn 0.3352 -0.7067 -0.6230
vn -0.8504 -0.5003 -0.1629
vn 0.7072 -0.3352 0.6225
vn 0.8437 -0.3355 -0.4190
vn 0.7934 0.3410 0.5043
vn 0.5996 -0.7997 0.0311
vn -0.7173 -0.6303 0.2971
vn -0.6302 -0.2972 -0.7173
vn -0.8025 0.4284 0.4153
vn -0.3067 0.3029 0.9023
vn -0.2981 0.6305 -0.7167
vn -0.2973 0.6300 -0.7175
vn -0.5825 -0.5706 -0.5789
vn 0.6004 0.7990 -0.0323
vn 0.8358 -0.5095 0.2046
vn -0.2980 -0.6305 -0.7167
vn 0.2552 0.7249 -0.6398
vn 0.2925 0.7174 0.6322
vn -0.6301 0.2972 -0.7174
vn -0.8379 -0.0903 -0.5383
vn -0.7956 0.3207 -0.5140
vn -0.8311 -0.5468 0.1009
vn -0.8028 -0.4278 -0.4153
vn -0.8309 -0.5559 0.0224
vn -0.8016 -0.4298 -0.4157
vn -0.7857 -0.1007 -0.6104
s 1
usemtl Material_001
f 1//1 2//2 3//3
f 4//4 5//5 6//6
f 7//7 8//8 9//9
f 10//10 11//11 12//12
f 13//13 14//14 15//15
f 16//16 17//17 18//18
f 19//19 14//14 20//20
f 21//21 11//11 10//10
f 22//22 23//23 24//24
f 2//2 25//25 3//3
f 26//26 27//27 28//28
f 3//3 29//29 30//30
f 31//31 32//32 33//33
f 28//28 27//27 34//34
f 35//35 30//30 29//29
f 36//36 37//37 38//38
f 39//39 18//18 40//40
f 41//41 42//42 43//43
f 2//2 1//1 26//26
f 44//44 45//45 46//46
f 13//13 47//47 48//48
f 28//28 34//34 49//49
f 50//50 49//49 51//51
f 52//52 53//53 25//25
f 54//54 55//55 56//56
f 13//13 57//57 3//3
f 29//29 58//58 35//35
f 32//32 31//31 59//59
f 60//60 4//4 61//61
f 42//42 62//62 63//63
f 5//5 19//19 20//20
f 64//64 51//51 5//5
f 9//9 16//16 65//65
f 7//7 66//66 67//67
f 66//66 7//7 9//9
f 53//53 3//3 25//25
f 5//5 68//68 64//64
f 69//69 47//47 53//53
f 16//16 70//70 71//71
f 48//48 47//47 69//69
f 49//49 2//2 28//28
f 72//72 73//73 74//74
f 75//75 72//72 74//74
f 63//63 62//62 76//76
f 49//49 34//34 77//77
f 15//15 19//19 78//78
f 49//49 77//77 43//43
f 72//72 79//79 73//73
f 80//80 81//81 82//82
f 4//4 60//60 5//5
f 83//83 84//84 46//46
f 35//35 58//58 85//85
f 16//16 18//18 59//59
f 83//83 46//46 86//86
f 87//87 88//88 7//7
f 89//89 6//6 5//5
f 83//83 86//86 43//43
f 83//83 90//90 12//12
f 83//83 12//12 91//91
f 22//22 24//24 92//92
f 41//41 93//93 4//4
f 41//41 4//4 24//24
f 16//16 71//71 94//94
f 27//27 95//95 34//34
f 83//83 91//91 5//5
f 13//13 96//96 37//37
f 94//94 97//73 17//17
f 7//7 98//97 13//13
f 65//65 54//54 56//56
f 99//98 39//39 40//40
f 50//50 51//51 93//93
f 88//88 59//59 100//99
f 41//41 101//100 42//42
f 13//13 37//37 57//57
f 2//2 5//5 20//20
f 38//38 102//101 78//78
f 62//62 74//74 79//79
f 2//2 20//20 103//102
f 39//39 99//98 104//79
f 46//46 45//45 86//86
f 79//79 72//72 76//76
f 2//2 103//102 36//36
f 54//54 65//65 16//16
f 2//2 36//36 25//25
f 90//90 5//5 60//60
f 54//54 88//88 90//90
f 41//41 24//24 23//23
f 105//103 40//40 17//17
f 90//90 60//60 10//10
f 87//87 7//7 13//13
f 84//84 44//44 46//46
f 106//104 72//72 107//105
f 8//8 104//79 97//73
f 90//90 10//10 12//12
f 97//73 94//94 70//70
f 13//13 48//48 108//106
f 98//97 67//67 90//90
f 87//87 36//36 38//38
f 19//19 15//15 14//14
f 67//67 66//66 55//55
f 105//103 99//98 40//40
f 36//36 57//57 37//37
f 87//87 38//38 78//78
f 59//59 18//18 32//32
f 90//90 87//87 78//78
f 74//74 73//73 79//79
f 16//16 94//94 17//17
f 90//90 78//78 19//19
f 8//8 31//31 33//33
f 60//60 21//21 10//10
f 90//90 19//19 5//5
f 83//83 98//97 90//90
f 43//43 86//86 22//22
f 70//70 94//94 71//71
f 9//9 65//65 66//66
f 3//3 58//58 29//29
f 61//61 21//21 60//60
f 43//43 22//22 5//5
f 24//24 81//81 92//92
f 43//43 5//5 51//51
f 52//52 48//48 69//69
f 101//100 82//82 4//4
f 89//89 91//91 109//107
f 43//43 51//51 49//49
f 76//76 62//62 79//79
f 3//3 110//108 58//58
f 5//5 22//22 92//92
f 43//43 77//77 41//41
f 96//96 102//101 38//38
f 98//97 83//83 101//100
f 5//5 92//92 80//80
f 83//83 43//43 107//105
f 75//75 83//83 107//105
f 83//83 5//5 80//80
f 83//83 80//80 84//84
f 34//34 95//95 77//77
f 108//106 48//48 52//52
f 55//55 66//66 56//56
f 2//2 49//49 35//35
f 18//18 39//39 33//33
f 39//39 104//79 33//33
f 101//100 75//75 42//42
f 41//41 77//77 95//95
f 2//2 35//35 85//85
f 67//67 54//54 90//90
f 41//41 23//23 111//109
f 97//73 104//79 17//17
f 2//2 85//85 68//68
f 2//2 68//68 5//5
f 104//79 99//98 17//17
f 108//106 52//52 13//13
f 63//63 76//76 106//104
f 110//108 85//85 58//58
f 52//52 69//69 53//53
f 112//110 113//111 20//20
f 87//87 52//52 36//36
f 8//8 97//73 70//70
f 52//52 25//25 36//36
f 88//88 16//16 59//59
f 1//1 3//3 30//30
f 13//13 15//15 102//101
f 91//91 89//89 5//5
f 30//30 27//27 26//26
f 110//108 68//68 85//85
f 3//3 47//47 13//13
f 109//107 91//91 12//12
f 26//26 28//28 2//2
f 86//86 111//109 22//22
f 23//23 22//22 111//109
f 31//31 7//7 100//99
f 112//110 14//14 4//4
f 11//11 109//107 12//12
f 63//63 106//104 42//42
f 93//93 114//112 4//4
f 66//66 65//65 56//56
f 49//49 50//50 30//30
f 114//112 115//113 4//4
f 7//7 67//67 98//97
f 88//88 100//99 7//7
f 54//54 16//16 88//88
f 68//68 115//113 64//64
f 82//82 44//44 84//84
f 26//26 1//1 30//30
f 83//83 75//75 101//100
f 67//67 55//55 54//54
f 30//30 50//50 41//41
f 30//30 41//41 95//95
f 30//30 95//95 27//27
f 38//38 37//37 96//96
f 101//100 41//41 111//109
f 8//8 33//33 104//79
f 101//100 111//109 45//45
f 42//42 75//75 74//74
f 64//64 115//113 114//112
f 101//100 45//45 44//44
f 80//80 82//82 84//84
f 72//72 106//104 76//76
f 3//3 4//4 110//108
f 101//100 4//4 89//89
f 57//57 36//36 103//102
f 101//100 89//89 109//107
f 20//20 113//111 103//102
f 49//49 30//30 35//35
f 57//57 103//102 113//111
f 75//75 107//105 72//72
f 101//100 109//107 98//97
f 92//92 81//81 80//80
f 3//3 53//53 47//47
f 4//4 115//113 110//108
f 90//90 88//88 87//87
f 64//64 93//93 51//51
f 107//105 43//43 106//104
f 4//4 6//6 89//89
f 52//52 87//87 13//13
f 18//18 17//17 40//40
f 8//8 16//16 9//9
f 99//98 105//103 17//17
f 3//3 57//57 113//111
f 33//33 32//32 18//18
f 4//4 82//82 81//81
f 45//45 111//109 86//86
f 3//3 113//111 112//110
f 8//8 70//70 16//16
f 3//3 112//110 4//4
f 101//100 44//44 82//82
f 100//99 59//59 31//31
f 13//13 4//4 14//14
f 114//112 93//93 64//64
f 20//20 14//14 112//110
f 13//13 21//21 61//61
f 15//15 78//78 102//101
f 13//13 61//61 4//4
f 98//97 109//107 11//11
f 68//68 110//108 115//113
f 4//4 81//81 24//24
f 42//42 106//104 43//43
f 98//97 11//11 21//21
f 98//97 21//21 13//13
f 41//41 50//50 93//93
f 7//7 31//31 8//8
f 13//13 102//101 96//96
f 42//42 74//74 62//62
