# Blender 3.6.1
# www.blender.org
mtllib PeelerBlade.mtl
o PeelerBlade
v 0.106405 -0.009079 0.000049
v 0.105638 -0.008604 0.000120
v 0.106607 -0.008762 -0.000106
v 0.106405 -0.009079 -0.000049
v 0.106211 -0.009397 0.000000
v 0.105161 -0.009092 0.000000
v 0.100694 -0.007737 0.000000
v 0.105638 -0.008604 -0.000120
v 0.102441 -0.006716 -0.000170
v 0.103103 -0.007085 0.000160
v 0.105871 -0.007952 -0.000122
v 0.103742 -0.005666 -0.000162
v 0.026235 -0.003288 0.000732
v 0.034055 -0.000386 0.000718
v 0.043046 0.002136 0.000691
v 0.052402 0.003878 0.000651
v 0.060887 0.004620 0.000603
v 0.068036 0.004468 0.000554
v 0.074288 0.003791 0.000504
v 0.080524 0.002687 0.000447
v 0.087151 0.000744 0.000377
v 0.097913 -0.004174 0.000238
v 0.093699 -0.001965 0.000297
v 0.094461 -0.005941 0.000000
v 0.097249 -0.003825 -0.000247
v 0.099078 -0.001881 -0.000240
v 0.093745 0.001554 -0.000317
v 0.029489 0.017452 -0.000733
v 0.036593 0.017247 -0.000722
v 0.043936 0.016712 -0.000702
v 0.051425 0.015830 -0.000674
v 0.058989 0.014479 -0.000636
v 0.066565 0.012628 -0.000588
v 0.073976 0.010347 -0.000530
v 0.081051 0.007700 -0.000465
v 0.087682 0.004750 -0.000393
v 0.093699 -0.001965 -0.000297
v 0.088314 -0.004401 0.000000
v 0.087151 0.000744 -0.000377
v 0.081881 -0.003051 0.000000
v 0.080524 0.002687 -0.000447
v 0.075665 -0.002012 0.000000
v 0.074288 0.003791 -0.000504
v 0.069414 -0.001335 0.000000
v 0.068036 0.004468 -0.000554
v 0.062314 -0.001119 0.000000
v 0.060887 0.004620 -0.000603
v 0.054148 -0.001657 0.000000
v 0.052402 0.003878 -0.000651
v 0.045491 -0.003028 0.000000
v 0.043046 0.002136 -0.000691
v 0.037437 -0.004869 0.000000
v 0.034055 -0.000386 -0.000718
v 0.030564 -0.006758 0.000000
v 0.026235 -0.003288 -0.000732
v 0.024487 -0.008484 0.000000
v 0.018794 -0.009631 0.000000
v -0.038279 -0.002155 -0.000737
v -0.038278 0.013870 -0.000737
v 0.051425 0.015830 0.000674
v 0.051425 0.015830 0.000000
v 0.012552 0.016482 0.000000
v 0.058989 0.014479 0.000636
v 0.058989 0.014479 0.000000
v 0.012113 0.016130 0.000000
v 0.066565 0.012628 0.000587
v 0.066565 0.012628 0.000000
v 0.010515 0.014710 0.000000
v 0.073976 0.010347 0.000530
v 0.073976 0.010347 0.000000
v 0.009987 0.014359 0.000000
v 0.081051 0.007700 0.000465
v 0.081051 0.007700 0.000000
v 0.009307 0.014042 0.000000
v 0.087682 0.004750 0.000393
v 0.087682 0.004750 0.000000
v 0.008537 0.013790 0.000000
v 0.093745 0.001554 0.000317
v 0.093745 0.001554 0.000000
v 0.099078 -0.001881 0.000240
v 0.099078 -0.001881 0.000000
v 0.012045 -0.008254 0.000000
v 0.022327 0.017371 0.000000
v 0.014718 0.017214 0.000000
v 0.029489 0.017452 0.000733
v 0.029489 0.017452 0.000000
v 0.014223 0.017179 0.000000
v 0.036593 0.017247 0.000722
v 0.043936 0.016712 0.000702
v 0.043936 0.016712 0.000000
v 0.036593 0.017247 0.000000
v 0.013662 0.017034 0.000000
v 0.013087 0.016794 0.000000
v 0.103742 -0.005666 0.000162
v 0.105871 -0.007952 0.000122
v 0.105871 -0.007952 0.000000
v 0.103742 -0.005666 0.000000
v 0.007757 0.013629 0.000000
v -0.038278 0.013870 0.000000
v 0.019285 -0.006375 0.000737
v 0.022327 0.017371 0.000737
v 0.022327 0.017371 -0.000737
v 0.019285 -0.006375 -0.000737
v 0.014718 0.017214 0.000737
v 0.014718 0.017214 -0.000737
v 0.012609 -0.009366 -0.000737
v 0.013662 0.017034 0.000737
v 0.011328 -0.007751 0.000737
v 0.012045 -0.008254 0.000737
v 0.014223 0.017179 0.000737
v 0.014223 0.017179 -0.000737
v 0.012045 -0.008254 -0.000737
v 0.011328 -0.007751 0.000000
v -0.038279 -0.002155 0.000000
v 0.010909 -0.007704 0.000000
v 0.010476 -0.007655 0.000000
v 0.010044 -0.007607 0.000000
v 0.009612 -0.007558 0.000000
v 0.009179 -0.007509 0.000000
v 0.008747 -0.007460 0.000000
v 0.007883 -0.007363 0.000000
v 0.008315 -0.007411 0.000000
v 0.013087 0.016794 0.000737
v 0.010909 -0.007704 0.000737
v 0.013662 0.017034 -0.000737
v 0.011328 -0.007751 -0.000737
v 0.013087 0.016794 -0.000737
v 0.010909 -0.007704 -0.000737
v 0.012552 0.016482 0.000737
v 0.010476 -0.007655 0.000737
v 0.012552 0.016482 -0.000737
v 0.010476 -0.007655 -0.000737
v 0.012113 0.016130 0.000737
v 0.010044 -0.007607 0.000737
v 0.012113 0.016130 -0.000737
v 0.010044 -0.007607 -0.000737
v 0.010515 0.014710 0.000737
v 0.009612 -0.007558 0.000737
v 0.010515 0.014710 -0.000737
v 0.009612 -0.007558 -0.000737
v 0.009987 0.014359 0.000737
v 0.009179 -0.007509 0.000737
v 0.009987 0.014359 -0.000737
v 0.009179 -0.007509 -0.000737
v 0.009307 0.014042 0.000737
v 0.008747 -0.007460 0.000737
v 0.009307 0.014042 -0.000737
v 0.008747 -0.007460 -0.000737
v 0.008537 0.013790 0.000737
v 0.008315 -0.007411 0.000737
v 0.007883 -0.007363 -0.000737
v 0.007757 0.013629 -0.000737
v 0.008537 0.013790 -0.000737
v 0.008315 -0.007411 -0.000737
v 0.007883 -0.007363 0.000737
v 0.007757 0.013629 0.000737
v -0.038278 0.013870 0.000737
v -0.038279 -0.002155 0.000737
v 0.013346 -0.009901 0.000000
v 0.012609 -0.009366 0.000737
v 0.012609 -0.009366 0.000000
v 0.106607 -0.008762 0.000000
v 0.106607 -0.008762 0.000106
v 0.106940 -0.009410 0.000000
vn -0.0028 -0.1518 -0.9884
vn -0.0132 -0.1682 -0.9857
vn -0.0028 -0.1518 0.9884
vn -0.0132 -0.1683 0.9857
vn -0.5878 -0.8090 -0.0000
vn 0.8897 0.4566 -0.0000
vn 0.0114 -0.0068 0.9999
vn 0.0117 -0.0067 0.9999
vn 0.0118 -0.0067 0.9999
vn 0.0111 -0.0069 0.9999
vn 0.1164 0.9932 -0.0000
vn 0.1163 0.9932 -0.0000
vn 0.1162 0.9932 -0.0000
vn -0.0458 -0.1265 0.9909
vn -0.5042 0.8636 -0.0000
vn -0.0303 -0.0897 -0.9955
vn -0.0307 -0.0892 -0.9955
vn -0.0285 -0.0852 -0.9960
vn 0.1758 0.9844 -0.0000
vn -0.0307 -0.0901 0.9955
vn -0.0307 -0.0911 0.9954
vn -0.0280 -0.0863 0.9959
vn -0.6252 0.7804 -0.0000
vn -0.0198 -0.0779 0.9968
vn -0.0211 -0.0781 0.9967
vn 0.2379 0.9713 -0.0000
vn 0.2380 0.9713 -0.0000
vn -0.0189 -0.0790 0.9967
vn -0.0170 -0.0794 0.9967
vn -0.6641 0.7476 -0.0000
vn -0.0156 -0.0853 0.9962
vn -0.0065 -0.0827 0.9966
vn 0.2947 0.9556 -0.0000
vn 0.2946 0.9556 -0.0000
vn -0.5542 0.8324 -0.0000
vn -0.0024 -0.0919 0.9958
vn -0.0013 -0.0913 0.9958
vn 0.3509 0.9364 -0.0000
vn 0.3507 0.9365 -0.0000
vn 0.3508 0.9364 -0.0000
vn -0.4228 0.9062 -0.0000
vn 0.0045 -0.0995 0.9950
vn 0.0022 -0.0960 0.9954
vn 0.4061 0.9138 -0.0000
vn 0.4060 0.9139 -0.0000
vn -0.3107 0.9505 -0.0000
vn 0.0141 -0.1076 0.9941
vn 0.0098 -0.1052 0.9944
vn 0.4664 0.8846 -0.0000
vn -0.2028 0.9792 -0.0000
vn 0.0240 -0.1167 0.9929
vn 0.0198 -0.1149 0.9932
vn 0.5419 0.8404 -0.0000
vn 0.5418 0.8405 -0.0000
vn 0.5415 0.8407 -0.0000
vn 0.0270 -0.1200 0.9924
vn 0.0267 -0.1200 0.9924
vn -0.5741 -0.8188 -0.0000
vn 0.6301 0.7765 -0.0000
vn 0.0383 -0.1300 0.9908
vn 0.0383 -0.1299 0.9908
vn 0.0380 -0.1301 0.9908
vn 0.0382 -0.1301 0.9908
vn -0.8919 -0.4523 -0.0000
vn -0.0206 0.9998 -0.0000
vn -0.0160 0.9999 -0.0000
vn -0.0114 0.9999 -0.0000
vn 0.0499 -0.1463 0.9880
vn 0.0497 -0.1464 0.9880
vn 0.0111 -0.0061 -0.9999
vn 0.0119 -0.0067 -0.9999
vn 0.0114 -0.0068 -0.9999
vn 0.0111 -0.0064 -0.9999
vn -0.0700 0.9975 -0.0000
vn 0.0628 -0.1872 0.9803
vn 0.0288 0.9996 -0.0000
vn 0.7398 0.6729 -0.0000
vn 0.7358 0.6772 -0.0000
vn -0.2497 0.9683 -0.0000
vn 0.0954 -0.3554 0.9298
vn 0.0727 0.9974 -0.0000
vn 0.0723 0.9974 -0.0000
vn 0.0724 0.9974 -0.0000
vn -0.3858 0.9226 -0.0000
vn -0.3853 0.9228 -0.0000
vn -0.3855 0.9227 -0.0000
vn 0.0046 -0.0622 0.9981
vn -0.0366 -0.1761 0.9837
vn 0.0046 -0.0622 -0.9981
vn -0.0374 -0.1761 -0.9837
vn -0.0458 -0.1232 -0.9913
vn 0.0118 -0.0067 -0.9999
vn 0.0117 -0.0067 -0.9999
vn 0.0109 -0.0063 0.9999
vn 0.0108 -0.0059 0.9999
vn 0.7318 0.6815 -0.0000
vn 0.0011 -0.0002 1.0000
vn 0.0019 -0.0004 1.0000
vn 0.0007 -0.0001 1.0000
vn 0.0003 -0.0000 1.0000
vn 0.0017 -0.0006 1.0000
vn 0.0030 -0.0008 1.0000
vn 0.0030 -0.0010 1.0000
vn 0.0040 -0.0012 1.0000
vn 0.0048 -0.0016 1.0000
vn 0.0047 -0.0015 1.0000
vn 0.0058 -0.0023 1.0000
vn 0.0054 -0.0020 1.0000
vn 0.0076 -0.0028 1.0000
vn 0.0071 -0.0028 1.0000
vn 0.0074 -0.0037 1.0000
vn 0.0075 -0.0034 1.0000
vn 0.0076 -0.0044 1.0000
vn 0.0074 -0.0040 1.0000
vn 0.0094 -0.0053 0.9999
vn 0.0087 -0.0051 0.9999
vn 0.0102 -0.0053 0.9999
vn 0.0097 -0.0055 0.9999
vn -0.0198 -0.0777 -0.9968
vn -0.0211 -0.0780 -0.9967
vn 0.0103 -0.0060 -0.9999
vn 0.0096 -0.0055 -0.9999
vn 0.0094 -0.0053 -0.9999
vn 0.0090 -0.0045 -0.9999
vn 0.0007 -0.0001 -1.0000
vn 0.0019 -0.0004 -1.0000
vn 0.0011 -0.0002 -1.0000
vn 0.0003 -0.0000 -1.0000
vn 0.0028 -0.0010 -1.0000
vn 0.0018 -0.0007 -1.0000
vn 0.0042 -0.0012 -1.0000
vn 0.0029 -0.0011 -1.0000
vn 0.0047 -0.0015 -1.0000
vn 0.0048 -0.0016 -1.0000
vn 0.0058 -0.0022 -1.0000
vn 0.0057 -0.0022 -1.0000
vn 0.0064 -0.0026 -1.0000
vn 0.0074 -0.0024 -1.0000
vn 0.0079 -0.0034 -1.0000
vn 0.0073 -0.0035 -1.0000
vn 0.0074 -0.0039 -1.0000
vn 0.0080 -0.0040 -1.0000
vn -0.0189 -0.0791 -0.9967
vn -0.0170 -0.0794 -0.9967
vn -0.0156 -0.0850 -0.9963
vn -0.0074 -0.0821 -0.9966
vn -0.0024 -0.0922 -0.9957
vn -0.0012 -0.0912 -0.9958
vn 0.0045 -0.0995 -0.9950
vn 0.0023 -0.0960 -0.9954
vn 0.0142 -0.1075 -0.9941
vn 0.0099 -0.1050 -0.9944
vn 0.0240 -0.1166 -0.9929
vn 0.0198 -0.1149 -0.9932
vn 0.0267 -0.1201 -0.9924
vn 0.0269 -0.1199 -0.9924
vn 0.0383 -0.1300 -0.9908
vn 0.0382 -0.1300 -0.9908
vn 0.0382 -0.1301 -0.9908
vn 0.0497 -0.1464 -0.9880
vn 0.0499 -0.1463 -0.9880
vn 0.0629 -0.1872 -0.9803
vn 0.0954 -0.3555 -0.9298
vn 0.0954 -0.3554 -0.9298
vn -0.0000 -0.0000 1.0000
vn -0.0000 -0.0000 -1.0000
vn -0.1121 -0.9937 -0.0000
vn -0.7049 0.7093 -0.0000
vn -1.0000 0.0001 -0.0000
vn -0.7052 0.7090 -0.0000
vn 0.0052 1.0000 -0.0000
vn 0.1160 0.9932 -0.0000
vn 0.2381 0.9712 -0.0000
vn 0.2948 0.9556 -0.0000
vn 0.3504 0.9366 -0.0000
vn 0.4058 0.9139 -0.0000
vn 0.4668 0.8844 -0.0000
vn -0.7049 0.7093 0.0002
vn -0.1122 -0.9937 -0.0000
vt 0.528365 0.985250
vt 0.526715 0.989143
vt 0.526121 0.984211
vt 0.530618 0.986313
vt 0.422186 0.980155
vt 0.421398 0.985052
vt 0.419874 0.981109
vt 0.417580 0.982151
vt 0.526230 0.362283
vt 0.528682 0.356707
vt 0.532176 0.359286
vt 0.531040 0.986874
vt 0.408875 0.957910
vt 0.417305 0.975687
vt 0.412822 0.976801
vt 0.399118 0.961365
vt 0.699894 0.569074
vt 0.704534 0.569652
vt 0.697106 0.619473
vt 0.692691 0.618689
vt 0.420953 0.972867
vt 0.414576 0.942293
vt 0.702351 0.358380
vt 0.706387 0.355841
vt 0.708572 0.359815
vt 0.704259 0.361959
vt 0.560603 0.922663
vt 0.542583 0.957906
vt 0.535302 0.946566
vt 0.546068 0.904422
vt 0.686779 0.669680
vt 0.682661 0.668704
vt 0.392150 0.922082
vt 0.405238 0.899747
vt 0.700197 0.355436
vt 0.704101 0.352592
vt 0.378939 0.893446
vt 0.396471 0.858122
vt 0.673342 0.719862
vt 0.669594 0.718743
vt 0.362408 0.849401
vt 0.388410 0.814754
vt 0.691441 0.344669
vt 0.695464 0.341834
vt 0.350273 0.805172
vt 0.381848 0.772970
vt 0.657253 0.768875
vt 0.653934 0.767680
vt 0.689194 0.341088
vt 0.693474 0.338630
vt 0.343142 0.763698
vt 0.377245 0.731038
vt 0.639020 0.815666
vt 0.636172 0.814460
vt 0.687114 0.336466
vt 0.691625 0.334504
vt 0.338423 0.722162
vt 0.375246 0.683446
vt 0.619082 0.859592
vt 0.616736 0.858434
vt 0.685468 0.331229
vt 0.690180 0.329769
vt 0.336739 0.674601
vt 0.377698 0.628632
vt 0.597758 0.899856
vt 0.595933 0.898793
vt 0.684409 0.325922
vt 0.689259 0.324972
vt 0.340363 0.617968
vt 0.385165 0.570388
vt 0.575194 0.935387
vt 0.573885 0.934467
vt 0.349975 0.555301
vt 0.395647 0.516106
vt 0.538570 0.355540
vt 0.534637 0.352228
vt 0.537231 0.348688
vt 0.541703 0.350770
vt 0.550765 0.966900
vt 0.549944 0.966201
vt 0.364567 0.494928
vt 0.406680 0.469710
vt 0.706977 0.372909
vt 0.711844 0.372268
vt 0.713504 0.424686
vt 0.708588 0.424861
vt 0.381820 0.442432
vt 0.416709 0.428522
vt 0.712686 0.473030
vt 0.707804 0.472904
vt 0.706650 0.369567
vt 0.711349 0.368450
vt 0.400027 0.395960
vt 0.422186 0.389828
vt 0.709706 0.520642
vt 0.704913 0.520274
vt 0.535604 0.981202
vt 0.536179 0.981775
vt 0.705744 0.365810
vt 0.710278 0.364164
vt 0.414777 0.353119
vt 0.420787 0.355713
vt 0.531167 0.979896
vt 0.527665 0.976935
vt 0.376479 0.928917
vt 0.243264 0.468963
vt 0.241059 0.421099
vt 0.247215 0.516100
vt 0.253006 0.564538
vt 0.260679 0.613766
vt 0.270932 0.663392
vt 0.284032 0.713094
vt 0.299526 0.761776
vt 0.316909 0.808388
vt 0.335710 0.852330
vt 0.355560 0.892885
vt 0.572536 0.898803
vt 0.555853 0.863124
vt 0.590072 0.855032
vt 0.568107 0.448623
vt 0.548512 0.402432
vt 0.586659 0.500922
vt 0.602415 0.561071
vt 0.612860 0.623595
vt 0.616840 0.680193
vt 0.615177 0.727796
vt 0.610296 0.769388
vt 0.602827 0.810885
vt 0.564541 0.820020
vt 0.571466 0.778417
vt 0.576260 0.736624
vt 0.578266 0.689182
vt 0.575501 0.634605
vt 0.567334 0.576685
vt 0.555963 0.522750
vt 0.544026 0.476704
vt 0.532889 0.435968
vt 0.526121 0.397049
vt 0.243663 0.357727
vt 0.404644 0.342195
vt 0.405153 0.344880
vt 0.242282 0.361640
vt 0.561039 0.028341
vt 0.663602 0.016090
vt 0.543961 0.328256
vt 0.539059 0.327656
vt 0.557356 0.025331
vt 0.667040 0.012938
vt 0.248381 0.565166
vt 0.256275 0.614570
vt 0.241329 0.351658
vt 0.245490 0.354081
vt 0.239267 0.355739
vt 0.266823 0.664368
vt 0.243575 0.348280
vt 0.247584 0.351077
vt 0.280288 0.714196
vt 0.252108 0.337259
vt 0.256219 0.340057
vt 0.296204 0.762942
vt 0.254053 0.333974
vt 0.258393 0.336395
vt 0.314051 0.809554
vt 0.255821 0.329803
vt 0.260356 0.331667
vt 0.333345 0.853438
vt 0.257119 0.325029
vt 0.261832 0.326299
vt 0.353710 0.893897
vt 0.257795 0.320213
vt 0.262654 0.320850
vt 0.375142 0.929791
vt 0.412169 0.346355
vt 0.408420 0.349520
vt 0.409824 0.342717
vt 0.398272 0.962031
vt 0.418023 0.350304
vt 0.236353 0.368311
vt 0.241231 0.368835
vt 0.236158 0.421047
vt 0.238395 0.469198
vt 0.236787 0.364511
vt 0.241469 0.365451
vt 0.242438 0.516547
vt 0.412222 0.977347
vt 0.417137 0.982689
vt 0.237705 0.360175
vt 0.409286 0.340609
vt 0.374157 0.013385
vt 0.370559 0.016501
vt 0.266672 0.018472
vt 0.262965 0.015606
vt 0.542176 0.348030
vt 0.537556 0.346511
vt 0.402327 0.322926
vt 0.407176 0.322223
vt 0.543786 0.331073
vt 0.538888 0.330476
vt 0.404197 0.339423
vt 0.408893 0.338215
vt 0.543589 0.333889
vt 0.538708 0.333279
vt 0.543374 0.336706
vt 0.538521 0.336060
vt 0.543139 0.339526
vt 0.538329 0.338805
vt 0.542864 0.342359
vt 0.538121 0.341492
vt 0.542549 0.345195
vt 0.537881 0.344083
vt 0.403806 0.336652
vt 0.408566 0.335686
vt 0.403456 0.333886
vt 0.408267 0.333071
vt 0.403148 0.331137
vt 0.407987 0.330406
vt 0.402859 0.328394
vt 0.407716 0.327705
vt 0.402588 0.325659
vt 0.407450 0.324978
s 1
usemtl M_PeelerBlade
f 4/1/1 164/2/1 5/3/1
f 3/4/2 164/2/2 4/1/2
f 5/5/3 164/6/3 1/7/3
f 1/7/4 164/6/4 163/8/4
f 159/9/5 161/10/5 106/11/5
f 3/4/6 162/12/6 164/2/6
f 10/13/7 2/14/8 95/15/9
f 95/15/9 94/16/10 10/13/7
f 30/17/11 90/18/12 61/19/13
f 61/19/13 31/20/12 30/17/11
f 6/21/14 2/14/14 10/13/14
f 10/13/14 7/22/14 6/21/14
f 131/23/15 62/24/15 93/25/15
f 93/25/15 127/26/15 131/23/15
f 25/27/16 9/28/17 7/29/17
f 7/29/17 24/30/18 25/27/16
f 31/20/19 61/19/19 64/31/19
f 64/31/19 32/32/19 31/20/19
f 7/22/20 10/13/20 22/33/21
f 22/33/21 24/34/22 7/22/20
f 135/35/23 65/36/23 62/24/23
f 62/24/23 131/23/23 135/35/23
f 24/34/22 22/33/21 23/37/24
f 23/37/24 38/38/25 24/34/22
f 32/32/26 64/31/27 67/39/27
f 67/39/27 33/40/27 32/32/26
f 38/38/25 23/37/24 21/41/28
f 21/41/28 40/42/29 38/38/25
f 139/43/30 68/44/30 65/36/30
f 65/36/30 135/35/30 139/43/30
f 40/42/29 21/41/28 20/45/31
f 20/45/31 42/46/32 40/42/29
f 33/40/33 67/39/34 70/47/33
f 70/47/33 34/48/34 33/40/33
f 143/49/35 71/50/35 68/44/35
f 68/44/35 139/43/35 143/49/35
f 42/46/32 20/45/31 19/51/36
f 19/51/36 44/52/37 42/46/32
f 34/48/38 70/47/39 73/53/40
f 73/53/40 35/54/38 34/48/38
f 147/55/41 74/56/41 71/50/41
f 71/50/41 143/49/41 147/55/41
f 44/52/37 19/51/36 18/57/42
f 18/57/42 46/58/43 44/52/37
f 35/54/44 73/53/45 76/59/45
f 76/59/45 36/60/45 35/54/44
f 153/61/46 77/62/46 74/56/46
f 74/56/46 147/55/46 153/61/46
f 46/58/43 18/57/42 17/63/47
f 17/63/47 48/64/48 46/58/43
f 36/60/49 76/59/49 79/65/49
f 79/65/49 27/66/49 36/60/49
f 152/67/50 98/68/50 77/62/50
f 77/62/50 153/61/50 152/67/50
f 48/64/48 17/63/47 16/69/51
f 16/69/51 50/70/52 48/64/48
f 27/66/53 79/65/53 81/71/54
f 81/71/54 26/72/55 27/66/53
f 50/70/52 16/69/51 15/73/56
f 15/73/56 52/74/57 50/70/52
f 112/75/58 82/76/58 113/77/58
f 113/77/58 126/78/58 112/75/58
f 26/72/59 81/71/59 97/79/59
f 97/79/59 12/80/59 26/72/59
f 52/74/60 15/73/61 14/81/62
f 14/81/62 54/82/63 52/74/60
f 106/11/64 161/10/64 82/76/64
f 82/76/64 112/75/64 106/11/64
f 105/83/65 84/84/65 83/85/66
f 83/85/66 102/86/67 105/83/65
f 54/82/68 14/81/69 13/87/69
f 13/87/69 56/88/69 54/82/68
f 102/86/67 83/85/66 86/89/67
f 86/89/67 28/90/67 102/86/67
f 26/72/70 12/80/71 9/28/72
f 9/28/72 25/27/73 26/72/70
f 111/91/74 87/92/74 84/84/74
f 84/84/74 105/83/74 111/91/74
f 56/88/75 13/87/75 100/93/75
f 100/93/75 57/94/75 56/88/75
f 28/90/76 86/89/76 91/95/76
f 91/95/76 29/96/76 28/90/76
f 11/97/77 96/98/78 162/12/77
f 162/12/77 3/4/77 11/97/77
f 125/99/79 92/100/79 87/92/79
f 87/92/79 111/91/79 125/99/79
f 57/94/80 100/93/80 160/101/80
f 160/101/80 159/102/80 57/94/80
f 29/96/81 91/95/82 90/18/83
f 90/18/83 30/17/82 29/96/81
f 127/26/84 93/25/85 92/100/86
f 92/100/86 125/99/84 127/26/84
f 2/14/87 1/7/87 163/8/87
f 163/8/87 95/15/87 2/14/87
f 5/5/88 1/7/88 2/14/88
f 2/14/88 6/21/88 5/5/88
f 3/4/89 4/1/89 8/103/89
f 8/103/89 11/97/89 3/4/89
f 8/103/90 4/1/90 5/3/90
f 5/3/90 6/104/90 8/103/90
f 9/28/91 8/103/91 6/104/91
f 6/104/91 7/29/91 9/28/91
f 12/80/71 11/97/92 8/103/93
f 8/103/93 9/28/72 12/80/71
f 22/33/94 10/13/7 94/16/10
f 94/16/10 80/105/95 22/33/94
f 12/80/96 97/79/96 96/98/78
f 96/98/78 11/97/77 12/80/96
f 13/87/97 85/106/98 101/107/99
f 101/107/99 100/93/100 13/87/97
f 14/81/101 88/108/102 85/106/98
f 85/106/98 13/87/97 14/81/101
f 15/73/103 89/109/104 88/108/102
f 88/108/102 14/81/101 15/73/103
f 16/69/105 60/110/106 89/109/104
f 89/109/104 15/73/103 16/69/105
f 16/69/105 17/63/107 63/111/108
f 63/111/108 60/110/106 16/69/105
f 17/63/107 18/57/109 66/112/110
f 66/112/110 63/111/108 17/63/107
f 18/57/109 19/51/111 69/113/112
f 69/113/112 66/112/110 18/57/109
f 19/51/111 20/45/113 72/114/114
f 72/114/114 69/113/112 19/51/111
f 20/45/113 21/41/115 75/115/116
f 75/115/116 72/114/114 20/45/113
f 21/41/115 23/37/117 78/116/118
f 78/116/118 75/115/116 21/41/115
f 23/37/117 22/33/94 80/105/95
f 80/105/95 78/116/118 23/37/117
f 37/117/119 25/27/16 24/30/18
f 24/30/18 38/118/120 37/117/119
f 26/72/70 25/27/73 37/117/121
f 37/117/121 27/66/122 26/72/70
f 27/66/122 37/117/121 39/119/123
f 39/119/123 36/60/124 27/66/122
f 102/86/125 28/90/126 55/120/127
f 55/120/127 103/121/128 102/86/125
f 28/90/126 29/96/129 53/122/130
f 53/122/130 55/120/127 28/90/126
f 29/96/129 30/17/131 51/123/132
f 51/123/132 53/122/130 29/96/129
f 30/17/131 31/20/133 49/124/134
f 49/124/134 51/123/132 30/17/131
f 32/32/135 47/125/136 49/124/134
f 49/124/134 31/20/133 32/32/135
f 33/40/137 45/126/138 47/125/136
f 47/125/136 32/32/135 33/40/137
f 34/48/139 43/127/140 45/126/138
f 45/126/138 33/40/137 34/48/139
f 35/54/141 41/128/142 43/127/140
f 43/127/140 34/48/139 35/54/141
f 36/60/124 39/119/123 41/128/142
f 41/128/142 35/54/141 36/60/124
f 39/119/143 37/117/119 38/118/120
f 38/118/120 40/129/144 39/119/143
f 41/128/145 39/119/143 40/129/144
f 40/129/144 42/130/146 41/128/145
f 43/127/147 41/128/145 42/130/146
f 42/130/146 44/131/148 43/127/147
f 45/126/149 43/127/147 44/131/148
f 44/131/148 46/132/150 45/126/149
f 47/125/151 45/126/149 46/132/150
f 46/132/150 48/133/152 47/125/151
f 49/124/153 47/125/151 48/133/152
f 48/133/152 50/134/154 49/124/153
f 51/123/155 49/124/153 50/134/154
f 50/134/154 52/135/156 51/123/155
f 53/122/157 51/123/158 52/135/159
f 52/135/159 54/136/159 53/122/157
f 55/120/160 53/122/160 54/136/161
f 54/136/161 56/137/160 55/120/160
f 103/121/162 55/120/162 56/137/162
f 56/137/162 57/138/162 103/121/162
f 106/11/163 103/121/164 57/138/163
f 57/138/163 159/9/163 106/11/163
f 123/139/165 124/140/165 108/141/165
f 108/141/165 107/142/165 123/139/165
f 58/143/166 59/144/166 152/67/166
f 152/67/166 151/145/166 58/143/166
f 58/143/167 151/145/167 121/146/167
f 121/146/167 114/147/167 58/143/167
f 59/144/168 58/143/169 114/147/169
f 114/147/169 99/148/170 59/144/168
f 59/144/168 99/148/170 98/68/171
f 98/68/171 152/67/171 59/144/168
f 90/149/12 89/109/172 60/110/13
f 60/110/13 61/150/13 90/149/12
f 62/151/15 129/152/15 123/139/15
f 123/139/15 93/153/15 62/151/15
f 61/150/19 60/110/19 63/111/19
f 63/111/19 64/154/19 61/150/19
f 65/155/23 133/156/23 129/152/23
f 129/152/23 62/151/23 65/155/23
f 64/154/27 63/111/173 66/112/27
f 66/112/27 67/157/27 64/154/27
f 68/158/30 137/159/30 133/156/30
f 133/156/30 65/155/30 68/158/30
f 67/157/34 66/112/34 69/113/174
f 69/113/174 70/160/33 67/157/34
f 71/161/35 141/162/35 137/159/35
f 137/159/35 68/158/35 71/161/35
f 70/160/39 69/113/175 72/114/175
f 72/114/175 73/163/40 70/160/39
f 74/164/41 145/165/41 141/162/41
f 141/162/41 71/161/41 74/164/41
f 73/163/45 72/114/176 75/115/45
f 75/115/45 76/166/45 73/163/45
f 77/167/46 149/168/46 145/165/46
f 145/165/46 74/164/46 77/167/46
f 76/166/49 75/115/177 78/116/177
f 78/116/177 79/169/49 76/166/49
f 98/170/50 156/171/50 149/168/50
f 149/168/50 77/167/50 98/170/50
f 79/169/53 78/116/55 80/105/54
f 80/105/54 81/172/54 79/169/53
f 82/173/58 109/174/58 108/141/58
f 108/141/58 113/175/58 82/173/58
f 81/172/59 80/105/59 94/16/59
f 94/16/59 97/176/59 81/172/59
f 161/177/64 160/101/64 109/174/64
f 109/174/64 82/173/64 161/177/64
f 84/178/65 104/179/65 101/107/65
f 101/107/65 83/180/66 84/178/65
f 83/180/66 101/107/65 85/106/67
f 85/106/67 86/181/67 83/180/66
f 87/182/74 110/183/74 104/179/74
f 104/179/74 84/178/74 87/182/74
f 86/181/76 85/106/76 88/108/76
f 88/108/76 91/184/76 86/181/76
f 96/185/78 95/15/96 163/8/77
f 163/8/77 162/186/77 96/185/78
f 92/187/79 107/142/79 110/183/79
f 110/183/79 87/182/79 92/187/79
f 91/184/82 88/108/83 89/109/82
f 89/109/82 90/149/83 91/184/82
f 93/153/85 123/139/84 107/142/84
f 107/142/84 92/187/86 93/153/85
f 97/176/96 94/16/96 95/15/96
f 95/15/96 96/185/78 97/176/96
f 113/175/167 108/141/167 124/140/167
f 124/140/167 115/188/167 113/175/167
f 114/189/169 158/190/169 157/191/178
f 157/191/178 99/192/170 114/189/169
f 99/192/170 157/191/178 156/171/171
f 156/171/171 98/170/171 99/192/170
f 104/179/165 160/101/165 100/93/100
f 100/93/100 101/107/99 104/179/165
f 103/121/128 106/11/166 105/83/166
f 105/83/166 102/86/125 103/121/128
f 104/179/165 110/183/165 109/174/165
f 109/174/165 160/101/165 104/179/165
f 112/75/166 111/91/166 105/83/166
f 105/83/166 106/11/166 112/75/166
f 110/183/165 107/142/165 108/141/165
f 108/141/165 109/174/165 110/183/165
f 126/78/166 125/99/166 111/91/166
f 111/91/166 112/75/166 126/78/166
f 128/193/167 126/78/167 113/77/167
f 113/77/167 115/194/167 128/193/167
f 155/195/167 158/190/167 114/189/167
f 114/189/167 121/196/167 155/195/167
f 154/197/179 122/198/179 121/146/167
f 121/146/167 151/145/167 154/197/179
f 130/199/167 116/200/167 115/188/167
f 115/188/167 124/140/167 130/199/167
f 148/201/179 120/202/179 122/198/179
f 122/198/179 154/197/179 148/201/179
f 144/203/167 119/204/167 120/202/179
f 120/202/179 148/201/179 144/203/167
f 140/205/167 118/206/167 119/204/167
f 119/204/167 144/203/167 140/205/167
f 136/207/167 117/208/167 118/206/167
f 118/206/167 140/205/167 136/207/167
f 132/209/167 116/210/167 117/208/167
f 117/208/167 136/207/167 132/209/167
f 128/193/167 115/194/167 116/210/167
f 116/210/167 132/209/167 128/193/167
f 134/211/167 117/212/167 116/200/167
f 116/200/167 130/199/167 134/211/167
f 138/213/167 118/214/167 117/212/167
f 117/212/167 134/211/167 138/213/167
f 142/215/167 119/216/167 118/214/167
f 118/214/167 138/213/167 142/215/167
f 146/217/179 120/218/179 119/216/167
f 119/216/167 142/215/167 146/217/179
f 150/219/179 122/220/179 120/218/179
f 120/218/179 146/217/179 150/219/179
f 155/195/167 121/196/167 122/220/179
f 122/220/179 150/219/179 155/195/167
f 124/140/165 123/139/165 129/152/165
f 129/152/165 130/199/165 124/140/165
f 126/78/166 128/193/166 127/26/166
f 127/26/166 125/99/166 126/78/166
f 128/193/166 132/209/166 131/23/166
f 131/23/166 127/26/166 128/193/166
f 130/199/165 129/152/165 133/156/165
f 133/156/165 134/211/165 130/199/165
f 132/209/166 136/207/166 135/35/166
f 135/35/166 131/23/166 132/209/166
f 134/211/165 133/156/165 137/159/165
f 137/159/165 138/213/165 134/211/165
f 136/207/166 140/205/166 139/43/166
f 139/43/166 135/35/166 136/207/166
f 138/213/165 137/159/165 141/162/165
f 141/162/165 142/215/165 138/213/165
f 140/205/166 144/203/166 143/49/166
f 143/49/166 139/43/166 140/205/166
f 142/215/165 141/162/165 145/165/165
f 145/165/165 146/217/165 142/215/165
f 144/203/166 148/201/166 147/55/166
f 147/55/166 143/49/166 144/203/166
f 146/217/165 145/165/165 149/168/165
f 149/168/165 150/219/165 146/217/165
f 148/201/166 154/197/166 153/61/166
f 153/61/166 147/55/166 148/201/166
f 150/219/165 149/168/165 156/171/165
f 156/171/165 155/195/165 150/219/165
f 154/197/166 151/145/166 152/67/166
f 152/67/166 153/61/166 154/197/166
f 158/190/165 155/195/165 156/171/165
f 156/171/165 157/191/165 158/190/165
f 159/102/5 160/101/5 161/177/5
f 162/186/6 163/8/6 164/6/6
