# Blender 3.6.1
# www.blender.org
mtllib base_0.mtl
o base_0
v -0.000098 0.005822 -0.033276
v -0.000096 -0.018726 -0.033274
v -0.000098 0.005823 -0.009744
v -0.000096 -0.018725 -0.009742
v -0.000097 -0.003353 0.008220
v -0.000096 -0.022347 0.008221
v -0.000097 -0.003352 0.028194
v -0.000096 -0.022346 0.028195
v -0.000099 0.025780 0.040882
v -0.000099 0.025780 0.040882
v -0.000099 0.025775 -0.040888
v -0.000099 0.025674 -0.041691
v -0.000099 0.025674 -0.041691
v -0.000099 0.025672 0.041710
v -0.000099 0.025672 0.041710
v -0.000099 0.025363 -0.042472
v -0.000099 0.025363 -0.042472
v -0.000099 0.025358 0.042483
v -0.000099 0.025358 0.042483
v -0.000099 0.024862 -0.043146
v -0.000099 0.024856 0.043151
v -0.000099 0.024205 -0.043670
v -0.000100 0.024202 0.043669
v -0.000100 0.024202 0.043669
v -0.000099 0.023435 -0.044007
v -0.000099 0.023435 -0.044007
v -0.000100 0.023435 0.044003
v -0.000099 0.022611 0.044130
v -0.000099 0.022605 -0.044136
v -0.000099 0.022605 -0.044136
v -0.000098 0.005822 -0.033276
v -0.000098 0.005822 -0.033276
v -0.000098 0.005823 -0.009744
v -0.000098 0.005823 -0.009744
v -0.000098 0.005823 -0.009744
v -0.000097 -0.003353 0.008220
v -0.000097 -0.003352 0.028194
v -0.000096 -0.018726 -0.033274
v -0.000096 -0.018726 -0.033274
v -0.000096 -0.018725 -0.009742
v -0.000096 -0.022347 0.008221
v -0.000096 -0.022346 0.028195
v -0.000095 -0.022622 -0.045257
v -0.000095 -0.022617 0.045257
v -0.000095 -0.022617 0.045257
v -0.000095 -0.023359 -0.045191
v -0.000095 -0.023353 0.045191
v -0.000095 -0.023353 0.045191
v -0.000096 -0.024056 0.044961
v -0.000096 -0.024056 0.044961
v -0.000096 -0.024061 -0.044961
v -0.000096 -0.024061 -0.044961
v -0.000095 -0.024693 -0.044577
v -0.000095 -0.024693 -0.044577
v -0.000095 -0.024688 0.044578
v -0.000095 -0.024688 0.044578
v -0.000095 -0.024688 0.044578
v -0.000095 -0.025217 0.044061
v -0.000095 -0.025222 -0.044061
v -0.000095 -0.025222 -0.044061
v -0.000096 -0.025620 -0.043439
v -0.000096 -0.025620 -0.043439
v -0.000096 -0.025615 0.043439
v -0.000096 -0.025615 0.043439
v -0.000095 -0.025868 -0.042742
v -0.000095 -0.025863 0.042743
v -0.000095 -0.025863 0.042743
v -0.000095 -0.025863 0.042743
v -0.000095 -0.025863 0.042743
v -0.000095 -0.025863 0.042743
v -0.000095 -0.025952 -0.042008
v -0.000095 -0.025948 0.042008
v 0.000160 -0.022622 -0.045257
v -0.000095 -0.022622 -0.045257
v 0.000164 0.022606 -0.044136
v -0.000099 0.022605 -0.044136
v 0.000160 -0.022622 -0.045257
v 0.000160 -0.023359 -0.045191
v 0.000159 -0.024061 -0.044961
v 0.000160 -0.024692 -0.044577
v 0.000160 -0.025222 -0.044061
v 0.000159 -0.025621 -0.043439
v 0.000160 -0.025869 -0.042742
v 0.000160 -0.025953 -0.042008
v -0.000095 -0.022622 -0.045257
v -0.000095 -0.023359 -0.045191
v -0.000096 -0.024061 -0.044961
v -0.000095 -0.024693 -0.044577
v -0.000095 -0.025222 -0.044061
v -0.000096 -0.025620 -0.043439
v -0.000095 -0.025868 -0.042742
v -0.000095 -0.025952 -0.042008
v 0.000160 -0.025948 0.042008
v -0.000095 -0.025948 0.042008
v -0.000095 -0.025948 0.042008
v 0.000160 -0.025953 -0.042008
v 0.000160 -0.025953 -0.042008
v -0.000095 -0.025952 -0.042008
v 0.000160 -0.022617 0.045257
v 0.000160 -0.023353 0.045191
v 0.000159 -0.024055 0.044961
v 0.000160 -0.024687 0.044578
v 0.000160 -0.025216 0.044061
v 0.000159 -0.025616 0.043439
v 0.000160 -0.025864 0.042743
v 0.000160 -0.025948 0.042008
v -0.000095 -0.022617 0.045257
v -0.000095 -0.023353 0.045191
v -0.000096 -0.024056 0.044961
v -0.000095 -0.024688 0.044578
v -0.000095 -0.025217 0.044061
v -0.000096 -0.025615 0.043439
v -0.000095 -0.025863 0.042743
v -0.000095 -0.025948 0.042008
v 0.000164 0.022611 0.044130
v -0.000099 0.022611 0.044130
v 0.000160 -0.022617 0.045257
v -0.000095 -0.022617 0.045257
v 0.000164 0.025780 0.040882
v 0.000165 0.025673 0.041710
v 0.000164 0.025358 0.042483
v 0.000164 0.024856 0.043151
v 0.000164 0.024202 0.043669
v 0.000165 0.023435 0.044003
v 0.000164 0.022611 0.044130
v -0.000099 0.025780 0.040882
v -0.000099 0.025672 0.041710
v -0.000099 0.025358 0.042483
v -0.000099 0.024856 0.043151
v -0.000100 0.024202 0.043669
v -0.000100 0.023435 0.044003
v -0.000099 0.022611 0.044130
v 0.000164 0.025775 -0.040888
v -0.000099 0.025775 -0.040888
v 0.000164 0.025780 0.040882
v -0.000099 0.025780 0.040882
v 0.000164 0.025775 -0.040888
v 0.000165 0.025674 -0.041691
v 0.000165 0.025363 -0.042472
v 0.000164 0.024862 -0.043146
v 0.000164 0.024205 -0.043670
v 0.000164 0.023435 -0.044007
v 0.000164 0.022606 -0.044136
v -0.000099 0.025775 -0.040888
v -0.000099 0.025674 -0.041691
v -0.000099 0.025363 -0.042472
v -0.000099 0.024862 -0.043146
v -0.000099 0.024205 -0.043670
v -0.000099 0.023435 -0.044007
v -0.000099 0.022605 -0.044136
v -0.000096 -0.025620 -0.043439
v 0.000159 -0.025621 -0.043439
v 0.000159 -0.025621 -0.043439
v -0.000096 -0.025615 0.043439
v -0.000096 -0.025615 0.043439
v 0.000159 -0.025616 0.043439
v -0.000099 0.025358 0.042483
v 0.000164 0.025358 0.042483
v 0.000164 0.025358 0.042483
v -0.000099 0.025363 -0.042472
v -0.000099 0.025363 -0.042472
v 0.000165 0.025363 -0.042472
vn -1.0000 -0.0001 -0.0000
vn -1.0000 -0.0000 -0.0000
vn -1.0000 -0.0001 -0.0001
vn -1.0000 -0.0000 -0.0002
vn -1.0000 -0.0001 -0.0002
vn -1.0000 -0.0000 0.0001
vn -1.0000 -0.0006 0.0005
vn -1.0000 -0.0003 0.0001
vn -1.0000 -0.0002 -0.0002
vn -1.0000 0.0002 0.0004
vn -1.0000 0.0001 -0.0001
vn -1.0000 -0.0002 0.0002
vn -1.0000 0.0002 -0.0001
vn -1.0000 -0.0002 0.0001
vn -1.0000 -0.0002 -0.0000
vn -0.0000 0.0248 -0.9997
vn -0.0001 0.0248 -0.9997
vn 0.0003 -1.0000 0.0001
vn -0.0001 -1.0000 0.0001
vn -0.0000 0.0249 0.9997
vn -0.0001 0.0249 0.9997
vn -0.0001 1.0000 -0.0001
vn 0.0004 1.0000 -0.0001
vn -0.0000 -0.9935 -0.1136
vn 0.0003 -0.9741 -0.2259
vn -0.0000 -0.9422 -0.3352
vn -0.0002 -0.9422 -0.3352
vn -0.0001 -0.8420 -0.5394
vn -0.0000 -0.7752 -0.6317
vn 0.0001 -0.8420 -0.5395
vn -0.0001 -0.7752 -0.6317
vn -0.0000 -0.6124 -0.7906
vn -0.0003 -0.4182 -0.9084
vn -0.0002 -0.4180 -0.9084
vn -0.0002 -0.2015 -0.9795
vn -0.0002 -0.2017 -0.9795
vn 0.0002 -0.0892 -0.9960
vn 0.0002 -0.0892 0.9960
vn 0.0002 -0.2016 0.9795
vn 0.0003 -0.2015 0.9795
vn 0.0003 -0.4178 0.9086
vn 0.0003 -0.4177 0.9086
vn 0.0003 -0.6123 0.7906
vn 0.0004 -0.6123 0.7906
vn 0.0003 -0.7752 0.6318
vn 0.0002 -0.7751 0.6318
vn 0.0003 -0.8420 0.5395
vn -0.0000 -0.8419 0.5396
vn -0.0001 -0.9421 0.3354
vn -0.0000 -0.9741 0.2260
vn 0.0001 -0.9741 0.2260
vn 0.0003 -0.9935 0.1138
vn 0.0004 -0.9935 0.1138
vn -0.0000 0.9917 0.1283
vn -0.0001 0.9917 0.1284
vn -0.0001 0.9670 0.2548
vn -0.0001 0.9263 0.3769
vn -0.0002 0.9263 0.3769
vn 0.0001 0.7995 0.6006
vn -0.0001 0.7159 0.6982
vn 0.0003 0.7994 0.6008
vn -0.0001 0.7159 0.6983
vn 0.0003 0.7159 0.6982
vn 0.0001 0.5145 0.8575
vn 0.0001 0.2784 0.9605
vn -0.0000 0.2788 0.9604
vn -0.0000 0.1532 0.9882
vn -0.0000 0.1531 0.9882
vn -0.0002 0.1537 -0.9881
vn -0.0002 0.1538 -0.9881
vn -0.0000 0.2801 -0.9600
vn 0.0002 0.5167 -0.8562
vn -0.0001 0.5170 -0.8560
vn 0.0002 0.7189 -0.6951
vn -0.0001 0.7190 -0.6950
vn -0.0000 0.8027 -0.5964
vn -0.0001 0.7191 -0.6950
vn -0.0000 0.8028 -0.5962
vn -0.0001 0.9288 -0.3705
vn 0.0003 0.9684 -0.2495
vn -0.0002 0.9288 -0.3706
vn 0.0003 0.9684 -0.2496
vn -0.0002 0.9922 -0.1246
vn -0.0001 0.9922 -0.1247
s 1
usemtl black
f 1//1 2//1 3//1
f 2//1 4//1 3//1
f 5//1 6//1 7//1
f 6//1 8//1 7//1
f 65//1 71//2 38//1
f 35//2 9//2 31//2
f 9//2 11//3 31//2
f 48//4 45//4 67//4
f 36//1 35//1 41//1
f 35//1 40//1 41//1
f 38//1 71//2 40//1
f 68//2 44//1 72//3
f 11//3 12//1 31//2
f 13//5 16//5 32//5
f 31//6 17//3 20//5
f 64//7 58//7 55//7
f 31//3 30//3 38//1
f 30//3 43//8 38//1
f 40//1 71//2 41//1
f 71//2 72//3 41//1
f 41//1 72//3 42//1
f 72//3 44//1 42//1
f 42//1 44//1 37//1
f 44//1 28//2 37//1
f 37//1 28//2 36//1
f 28//2 27//1 36//1
f 36//1 27//1 35//1
f 27//1 23//1 35//1
f 34//1 24//1 21//1
f 21//1 19//8 34//1
f 18//2 14//2 33//2
f 34//1 15//1 10//1
f 20//5 22//9 31//6
f 22//9 26//9 31//6
f 32//10 25//10 29//10
f 63//1 56//1 66//1
f 57//11 49//11 69//11
f 70//12 50//12 47//12
f 43//8 46//13 38//1
f 46//13 51//2 38//1
f 39//14 52//14 53//14
f 54//11 60//11 38//11
f 59//15 62//15 39//15
f 38//1 61//2 65//1
f 73//16 74//16 75//17
f 74//16 76//17 75//17
f 93//18 94//18 97//18
f 95//19 98//19 96//19
f 115//20 116//20 117//21
f 116//20 118//21 117//21
f 133//22 134//23 135//23
f 134//23 136//22 135//23
f 84//24 92//24 91//25
f 84//24 91//25 83//25
f 91//25 90//26 83//25
f 83//25 90//26 82//27
f 151//28 89//29 152//28
f 153//30 89//31 81//31
f 89//31 88//32 81//31
f 81//31 88//32 80//32
f 88//32 87//33 80//32
f 80//32 87//33 79//34
f 87//33 86//35 79//34
f 79//34 86//35 78//36
f 86//35 85//37 78//36
f 78//36 85//37 77//37
f 99//38 107//38 108//39
f 99//38 108//39 100//40
f 108//39 109//41 100//40
f 100//40 109//41 101//42
f 109//41 110//43 101//42
f 101//42 110//43 102//44
f 110//43 111//45 102//44
f 102//44 111//45 103//46
f 111//45 154//47 103//46
f 103//46 155//48 156//48
f 112//49 113//50 104//49
f 104//49 113//50 105//51
f 113//50 114//52 105//51
f 105//51 114//52 106//53
f 119//54 126//55 127//56
f 119//54 127//56 120//56
f 127//56 128//57 120//56
f 120//56 128//57 121//58
f 157//59 129//60 158//59
f 159//61 129//62 122//63
f 129//62 130//64 122//63
f 122//63 130//64 123//64
f 130//64 131//65 123//64
f 123//64 131//65 124//66
f 131//65 132//67 124//66
f 124//66 132//67 125//68
f 143//69 150//70 149//71
f 143//69 149//71 142//71
f 149//71 148//72 142//71
f 142//71 148//72 141//73
f 148//72 147//74 141//73
f 141//73 147//74 140//75
f 147//74 160//76 140//75
f 140//77 161//78 162//78
f 146//79 145//80 139//81
f 139//81 145//80 138//82
f 145//80 144//83 138//82
f 138//82 144//83 137//84
