# Blender 3.6.1
# www.blender.org
mtllib head_2.mtl
o head_2
v 0.007632 0.007387 -0.026445
v 0.007697 0.007236 -0.026917
v 0.007567 0.008076 -0.026673
v 0.007632 0.007926 -0.027146
v 0.007343 0.008728 -0.026912
v 0.007408 0.008577 -0.027384
v 0.006972 0.009309 -0.027148
v 0.007037 0.009158 -0.027621
v 0.006471 0.009791 -0.027371
v 0.006536 0.009640 -0.027843
v 0.005866 0.010149 -0.027568
v 0.005931 0.009998 -0.028040
v 0.005189 0.010364 -0.027730
v 0.005253 0.010214 -0.028202
v -0.006573 -0.003741 -0.064013
v -0.006943 -0.003755 -0.063996
v -0.007542 -0.003881 -0.064009
v -0.007535 -0.003894 -0.064096
v -0.007723 -0.003919 -0.064014
v -0.008439 -0.004252 -0.064106
v -0.034329 -0.036220 -0.057463
v -0.034372 -0.038068 -0.056880
v -0.034412 -0.036545 -0.057307
v -0.034459 -0.037119 -0.057102
v -0.034459 -0.037119 -0.057102
v -0.034459 -0.037120 -0.057102
v -0.034459 -0.037120 -0.057102
v -0.034473 -0.037294 -0.057040
v -0.034461 -0.037148 -0.057186
v -0.034461 -0.037148 -0.057186
v 0.003899 -0.035168 0.032666
v 0.003840 -0.035091 0.033099
v 0.003954 -0.035356 0.032268
v 0.003783 -0.035129 0.033537
v 0.004004 -0.035642 0.031932
v 0.003731 -0.035281 0.033951
v 0.004043 -0.036005 0.031680
v 0.003689 -0.035535 0.034312
v 0.004070 -0.036422 0.031531
v 0.003657 -0.035874 0.034596
v 0.004083 -0.036864 0.031494
v 0.003640 -0.036276 0.034783
v 0.003860 -0.036789 0.033178
v 0.004081 -0.037301 0.031572
v 0.003638 -0.036713 0.034861
v 0.004063 -0.037703 0.031759
v 0.003650 -0.037156 0.034824
v 0.004032 -0.038043 0.032043
v 0.003677 -0.037572 0.034675
v 0.003989 -0.038297 0.032404
v 0.003717 -0.037936 0.034424
v 0.003938 -0.038448 0.032818
v 0.003766 -0.038222 0.034088
v 0.003881 -0.038487 0.033256
v 0.003822 -0.038409 0.033689
v 0.005327 0.013804 0.015123
v 0.005268 0.013881 0.015556
v 0.005382 0.013616 0.014725
v 0.005211 0.013842 0.015995
v 0.005432 0.013330 0.014389
v 0.005160 0.013691 0.016409
v 0.005471 0.012967 0.014138
v 0.005117 0.013437 0.016770
v 0.005498 0.012550 0.013989
v 0.005085 0.013097 0.017054
v 0.005511 0.012108 0.013951
v 0.005068 0.012695 0.017241
v 0.005288 0.012183 0.015635
v 0.005509 0.011671 0.014029
v 0.005066 0.012258 0.017319
v 0.005491 0.011269 0.014216
v 0.005078 0.011816 0.017281
v 0.005460 0.010929 0.014500
v 0.005105 0.011399 0.017132
v 0.005417 0.010675 0.014861
v 0.005145 0.011036 0.016881
v 0.005366 0.010523 0.015275
v 0.005194 0.010750 0.016545
v 0.005309 0.010485 0.015714
v 0.005250 0.010562 0.016147
v 0.002084 0.021337 0.038740
v 0.002026 0.021414 0.039173
v 0.002140 0.021149 0.038341
v 0.001969 0.021376 0.039611
v 0.002189 0.020863 0.038005
v 0.001917 0.021224 0.040025
v 0.002229 0.020500 0.037754
v 0.001874 0.020970 0.040386
v 0.002256 0.020083 0.037605
v 0.001843 0.020631 0.040670
v 0.002269 0.019641 0.037568
v 0.001825 0.020229 0.040857
v 0.002046 0.019716 0.039251
v 0.002266 0.019204 0.037645
v 0.001823 0.019792 0.040935
v 0.002249 0.018802 0.037833
v 0.001836 0.019350 0.040898
v 0.002218 0.018462 0.038117
v 0.001863 0.018933 0.040749
v 0.002175 0.018208 0.038478
v 0.001903 0.018569 0.040497
v 0.002123 0.018057 0.038892
v 0.001952 0.018283 0.040161
v 0.002066 0.018018 0.039330
v 0.002008 0.018096 0.039763
v -0.001158 0.028870 0.062356
v -0.001217 0.028948 0.062789
v -0.001103 0.028683 0.061958
v -0.001274 0.028909 0.063228
v -0.001053 0.028397 0.061622
v -0.001326 0.028758 0.063641
v -0.001014 0.028033 0.061370
v -0.001368 0.028504 0.064002
v -0.000987 0.027616 0.061221
v -0.001400 0.028164 0.064286
v -0.000974 0.027174 0.061184
v -0.001417 0.027762 0.064474
v -0.001197 0.027250 0.062868
v -0.000976 0.026737 0.061262
v -0.001419 0.027325 0.064551
v -0.000994 0.026335 0.061449
v -0.001407 0.026883 0.064514
v -0.001025 0.025996 0.061733
v -0.001380 0.026466 0.064365
v -0.001068 0.025742 0.062094
v -0.001340 0.026102 0.064114
v -0.001119 0.025590 0.062508
v -0.001291 0.025817 0.063778
v -0.001176 0.025552 0.062946
v -0.001235 0.025629 0.063380
v -0.002068 -0.021307 0.076120
v -0.002126 -0.021229 0.076553
v -0.002012 -0.021494 0.075722
v -0.002183 -0.021268 0.076992
v -0.001962 -0.021780 0.075386
v -0.002235 -0.021419 0.077405
v -0.001923 -0.022144 0.075134
v -0.002278 -0.021673 0.077766
v -0.001896 -0.022560 0.074985
v -0.002309 -0.022013 0.078050
v -0.001883 -0.023003 0.074948
v -0.002326 -0.022415 0.078238
v -0.002106 -0.022927 0.076632
v -0.001885 -0.023440 0.075026
v -0.002329 -0.022852 0.078315
v -0.001903 -0.023842 0.075213
v -0.002316 -0.023294 0.078278
v -0.001934 -0.024181 0.075497
v -0.002289 -0.023711 0.078129
v -0.001977 -0.024435 0.075858
v -0.002249 -0.024074 0.077878
v -0.002029 -0.024587 0.076272
v -0.002200 -0.024360 0.077542
v -0.002086 -0.024625 0.076710
v -0.002144 -0.024548 0.077143
v 0.006039 -0.013997 0.013503
v 0.005981 -0.013920 0.013936
v 0.006095 -0.014185 0.013105
v 0.005924 -0.013958 0.014375
v 0.006144 -0.014470 0.012769
v 0.005872 -0.014109 0.014789
v 0.006184 -0.014834 0.012518
v 0.005829 -0.014364 0.015150
v 0.006211 -0.015251 0.012369
v 0.005798 -0.014703 0.015434
v 0.006224 -0.015693 0.012332
v 0.006001 -0.015618 0.014015
v 0.006222 -0.016130 0.012409
v 0.005781 -0.015105 0.015621
v 0.005778 -0.015542 0.015699
v 0.006204 -0.016532 0.012596
v 0.005791 -0.015984 0.015661
v 0.006173 -0.016872 0.012880
v 0.005818 -0.016401 0.015512
v 0.006130 -0.017126 0.013241
v 0.005858 -0.016765 0.015261
v 0.006078 -0.017277 0.013655
v 0.005907 -0.017050 0.014925
v 0.006021 -0.017316 0.014094
v 0.005963 -0.017238 0.014527
v -0.003040 0.007097 0.079629
v -0.003094 0.007173 0.080028
v -0.002984 0.006909 0.079231
v -0.003147 0.007149 0.080434
v -0.002935 0.006623 0.078895
v -0.003196 0.007028 0.080823
v -0.002895 0.006260 0.078644
v -0.003238 0.006818 0.081172
v -0.002868 0.005843 0.078495
v -0.003271 0.006530 0.081461
v -0.002855 0.005401 0.078457
v -0.003292 0.006180 0.081674
v -0.002857 0.004964 0.078535
v -0.003301 0.005789 0.081797
v -0.002875 0.004562 0.078722
v -0.003298 0.005380 0.081825
v -0.002906 0.004222 0.079006
v -0.003281 0.004977 0.081753
v -0.002949 0.003968 0.079367
v -0.003253 0.004603 0.081589
v -0.003001 0.003816 0.079781
v -0.003214 0.004279 0.081340
v -0.003058 0.003778 0.080220
v -0.003168 0.004025 0.081022
v -0.003116 0.003855 0.080653
v 0.007343 0.008728 -0.026912
v 0.007343 0.008728 -0.026912
v 0.007408 0.008577 -0.027384
vn -0.9988 0.0441 0.0208
vn -0.9988 0.0440 0.0208
vn -0.9913 -0.0178 -0.1304
vn 0.3461 0.9065 -0.2417
vn 0.4482 0.8677 -0.2152
vn 0.6340 0.7577 -0.1546
vn 0.7883 0.6092 -0.0861
vn 0.7881 0.6095 -0.0862
vn 0.8507 0.5233 -0.0501
vn 0.9428 0.3325 0.0234
vn 0.9713 0.2300 0.0600
vn 0.9714 0.2298 0.0601
vn 0.9875 0.1248 0.0958
vn -0.0669 0.7582 -0.6486
vn -0.0603 0.7418 -0.6679
vn -0.2150 0.9483 -0.2334
vn -0.3182 0.8170 -0.4809
vn -0.3031 0.8464 -0.4379
vn -0.1984 0.9662 -0.1646
vn -0.8485 -0.0361 -0.5280
vn -0.9978 0.0407 -0.0514
vn -0.8618 -0.0305 -0.5063
vn -0.9979 0.0640 0.0139
vn -0.9517 -0.1766 -0.2513
vn -0.9667 -0.1390 -0.2148
vn -0.9978 0.0648 0.0139
s 1
usemtl off_white
f 29//1 27//1 25//2
f 39//3 41//3 43//3
f 41//3 44//3 43//3
f 43//3 44//3 46//3
f 33//3 35//3 43//3
f 35//3 37//3 43//3
f 43//3 37//3 39//3
f 34//3 32//3 43//3
f 32//3 31//3 43//3
f 43//3 31//3 33//3
f 40//3 38//3 43//3
f 38//3 36//3 43//3
f 43//3 36//3 34//3
f 47//3 45//3 43//3
f 45//3 42//3 43//3
f 43//3 42//3 40//3
f 53//3 51//3 43//3
f 51//3 49//3 43//3
f 43//3 49//3 47//3
f 52//3 54//3 43//3
f 54//3 55//3 43//3
f 43//3 55//3 53//3
f 46//3 48//3 43//3
f 48//3 50//3 43//3
f 43//3 50//3 52//3
f 64//3 66//3 68//3
f 66//3 69//3 68//3
f 68//3 69//3 71//3
f 58//3 60//3 68//3
f 60//3 62//3 68//3
f 68//3 62//3 64//3
f 59//3 57//3 68//3
f 57//3 56//3 68//3
f 68//3 56//3 58//3
f 65//3 63//3 68//3
f 63//3 61//3 68//3
f 68//3 61//3 59//3
f 72//3 70//3 68//3
f 70//3 67//3 68//3
f 68//3 67//3 65//3
f 78//3 76//3 68//3
f 76//3 74//3 68//3
f 68//3 74//3 72//3
f 77//3 79//3 68//3
f 79//3 80//3 68//3
f 68//3 80//3 78//3
f 71//3 73//3 68//3
f 73//3 75//3 68//3
f 68//3 75//3 77//3
f 89//3 91//3 93//3
f 91//3 94//3 93//3
f 93//3 94//3 96//3
f 83//3 85//3 93//3
f 85//3 87//3 93//3
f 93//3 87//3 89//3
f 84//3 82//3 93//3
f 82//3 81//3 93//3
f 93//3 81//3 83//3
f 90//3 88//3 93//3
f 88//3 86//3 93//3
f 93//3 86//3 84//3
f 97//3 95//3 93//3
f 95//3 92//3 93//3
f 93//3 92//3 90//3
f 103//3 101//3 93//3
f 101//3 99//3 93//3
f 93//3 99//3 97//3
f 102//3 104//3 93//3
f 104//3 105//3 93//3
f 93//3 105//3 103//3
f 96//3 98//3 93//3
f 98//3 100//3 93//3
f 93//3 100//3 102//3
f 109//3 107//3 118//3
f 107//3 106//3 118//3
f 118//3 106//3 108//3
f 115//3 113//3 118//3
f 113//3 111//3 118//3
f 118//3 111//3 109//3
f 122//3 120//3 118//3
f 120//3 117//3 118//3
f 118//3 117//3 115//3
f 128//3 126//3 118//3
f 126//3 124//3 118//3
f 118//3 124//3 122//3
f 127//3 129//3 118//3
f 129//3 130//3 118//3
f 118//3 130//3 128//3
f 121//3 123//3 118//3
f 123//3 125//3 118//3
f 118//3 125//3 127//3
f 114//3 116//3 118//3
f 116//3 119//3 118//3
f 118//3 119//3 121//3
f 108//3 110//3 118//3
f 110//3 112//3 118//3
f 118//3 112//3 114//3
f 134//3 132//3 143//3
f 132//3 131//3 143//3
f 143//3 131//3 133//3
f 140//3 138//3 143//3
f 138//3 136//3 143//3
f 143//3 136//3 134//3
f 147//3 145//3 143//3
f 145//3 142//3 143//3
f 143//3 142//3 140//3
f 153//3 151//3 143//3
f 151//3 149//3 143//3
f 143//3 149//3 147//3
f 152//3 154//3 143//3
f 154//3 155//3 143//3
f 143//3 155//3 153//3
f 146//3 148//3 143//3
f 148//3 150//3 143//3
f 143//3 150//3 152//3
f 139//3 141//3 143//3
f 141//3 144//3 143//3
f 143//3 144//3 146//3
f 133//3 135//3 143//3
f 135//3 137//3 143//3
f 143//3 137//3 139//3
f 159//3 157//3 167//3
f 157//3 156//3 167//3
f 167//3 156//3 158//3
f 165//3 163//3 167//3
f 163//3 161//3 167//3
f 167//3 161//3 159//3
f 172//3 170//3 167//3
f 170//3 169//3 167//3
f 167//3 169//3 165//3
f 178//3 176//3 167//3
f 176//3 174//3 167//3
f 167//3 174//3 172//3
f 177//3 179//3 167//3
f 179//3 180//3 167//3
f 167//3 180//3 178//3
f 171//3 173//3 167//3
f 173//3 175//3 167//3
f 167//3 175//3 177//3
f 164//3 166//3 167//3
f 166//3 168//3 167//3
f 167//3 168//3 171//3
f 158//3 160//3 167//3
f 160//3 162//3 167//3
f 167//3 162//3 164//3
f 203//3 182//3 181//3
f 203//3 205//3 182//3
f 205//3 204//3 182//3
f 182//3 204//3 202//3
f 202//3 200//3 182//3
f 200//3 198//3 182//3
f 182//3 198//3 196//3
f 196//3 194//3 182//3
f 194//3 192//3 182//3
f 182//3 192//3 190//3
f 190//3 188//3 182//3
f 188//3 186//3 182//3
f 182//3 186//3 184//3
f 193//3 195//3 203//3
f 195//3 197//3 203//3
f 203//3 197//3 201//3
f 197//3 199//3 201//3
f 181//3 183//3 203//3
f 183//3 185//3 203//3
f 203//3 185//3 187//3
f 187//3 189//3 203//3
f 189//3 191//3 203//3
f 203//3 191//3 193//3
f 14//4 13//4 11//5
f 14//4 11//5 12//5
f 11//5 9//6 12//5
f 12//5 9//6 10//6
f 9//6 7//7 10//6
f 10//6 7//7 8//8
f 7//7 206//9 8//8
f 8//8 207//9 208//9
f 5//10 3//11 6//10
f 6//10 3//11 4//12
f 3//11 1//13 4//12
f 4//12 1//13 2//13
f 16//14 15//15 18//16
f 20//17 19//18 18//16
f 19//18 17//19 18//16
f 18//16 17//19 16//14
f 21//20 30//21 23//22
f 30//21 24//23 23//22
f 22//24 28//25 30//21
f 28//25 26//26 30//21
