# Blender 3.6.1
# www.blender.org
mtllib head_3.mtl
o head_3
v -0.001210 -0.027737 -0.066253
v -0.001211 -0.027696 -0.066751
v -0.001446 -0.028425 -0.066309
v -0.001448 -0.028384 -0.066807
v -0.001830 -0.029043 -0.066358
v -0.001831 -0.029002 -0.066857
v -0.002343 -0.029560 -0.066399
v -0.002344 -0.029519 -0.066898
v -0.002958 -0.029951 -0.066430
v -0.002960 -0.029910 -0.066928
v -0.003646 -0.030194 -0.066448
v -0.003647 -0.030154 -0.066946
v -0.001662 0.041050 -0.060623
v -0.001133 -0.027014 -0.066194
v -0.001663 0.041091 -0.061121
v -0.001135 -0.026973 -0.066693
v 0.001119 -0.026696 -0.066927
v 0.000594 0.040890 -0.061395
v 0.001113 -0.026716 -0.066678
v 0.000589 0.040870 -0.061145
v -0.002236 -0.031086 -0.067026
v -0.002234 -0.031073 -0.067276
v -0.001666 -0.030893 -0.067012
v -0.001666 -0.030879 -0.067262
v -0.001491 -0.030793 -0.067004
v -0.001491 -0.030793 -0.067004
v -0.001489 -0.030779 -0.067254
v -0.001489 -0.030779 -0.067254
v -0.000776 -0.030388 -0.066973
v -0.000776 -0.030388 -0.066973
v -0.000776 -0.030388 -0.066973
v -0.000773 -0.030373 -0.067223
v -0.000773 -0.030373 -0.067223
v -0.000714 -0.030353 -0.066970
v -0.000712 -0.030338 -0.067220
v -0.000358 -0.030062 -0.066947
v -0.000354 -0.030047 -0.067197
v -0.000138 -0.029812 -0.066928
v -0.000133 -0.029795 -0.067177
v 0.000333 -0.029276 -0.066885
v 0.000338 -0.029260 -0.067135
v 0.000388 -0.029187 -0.066878
v 0.000392 -0.029169 -0.067127
v 0.000598 -0.028837 -0.066850
v 0.000602 -0.028822 -0.067099
v 0.000741 -0.028461 -0.066819
v 0.000746 -0.028443 -0.067069
v 0.000978 -0.027840 -0.066769
v 0.000984 -0.027822 -0.067019
v 0.001010 -0.027683 -0.066756
v 0.001015 -0.027663 -0.067006
v 0.001061 -0.027432 -0.066736
v 0.001066 -0.027414 -0.066985
v 0.001100 -0.026898 -0.066692
v 0.001106 -0.026877 -0.066942
v 0.001106 -0.026877 -0.066942
v 0.001113 -0.026716 -0.066678
v 0.001113 -0.026716 -0.066678
v 0.001119 -0.026696 -0.066927
v 0.000541 0.041467 -0.061096
v 0.000547 0.041488 -0.061346
v 0.000488 0.041662 -0.061080
v 0.000488 0.041662 -0.061080
v 0.000494 0.041684 -0.061329
v 0.000494 0.041684 -0.061329
v 0.000494 0.041684 -0.061329
v 0.000271 0.042453 -0.061015
v 0.000271 0.042453 -0.061015
v 0.000271 0.042453 -0.061015
v 0.000277 0.042475 -0.061264
v 0.000277 0.042475 -0.061264
v 0.000253 0.042521 -0.061009
v 0.000258 0.042542 -0.061258
v 0.000058 0.042938 -0.060975
v 0.000064 0.042960 -0.061224
v -0.000131 0.043212 -0.060952
v -0.000125 0.043236 -0.061201
v -0.000534 0.043799 -0.060903
v -0.000529 0.043824 -0.061151
v -0.000608 0.043873 -0.060896
v -0.000604 0.043899 -0.061145
v -0.000895 0.044163 -0.060872
v -0.000890 0.044187 -0.061121
v -0.001225 0.044395 -0.060852
v -0.001222 0.044421 -0.061101
v -0.001770 0.044778 -0.060819
v -0.001767 0.044803 -0.061068
v -0.001914 0.044848 -0.060813
v -0.001913 0.044874 -0.061062
v -0.002145 0.044958 -0.060803
v -0.002143 0.044985 -0.061052
v -0.002656 0.045129 -0.060788
v -0.002656 0.045129 -0.060788
v -0.002654 0.045155 -0.061037
v -0.002654 0.045155 -0.061037
v -0.002654 0.045155 -0.061037
v -0.002828 0.045186 -0.060783
v -0.002828 0.045186 -0.060783
v -0.002827 0.045214 -0.061031
v -0.000752 -0.038432 0.073339
v -0.001281 0.029632 0.078910
v -0.000751 -0.038473 0.073837
v -0.001279 0.029591 0.079409
v -0.000827 -0.039196 0.073778
v -0.000828 -0.039156 0.073280
v -0.001064 -0.039884 0.073723
v -0.001065 -0.039843 0.073224
v -0.001447 -0.040502 0.073673
v -0.001448 -0.040461 0.073175
v -0.001960 -0.041019 0.073632
v -0.001961 -0.040979 0.073134
v -0.002576 -0.041410 0.073602
v -0.002577 -0.041369 0.073104
v -0.003263 -0.041654 0.073584
v -0.003264 -0.041613 0.073085
v -0.001367 0.030313 0.079468
v -0.001368 0.030354 0.078970
v -0.001614 0.030997 0.079525
v -0.001615 0.031038 0.079026
v -0.002007 0.031609 0.079576
v -0.002008 0.031649 0.079077
v -0.002528 0.032118 0.079619
v -0.002529 0.032159 0.079120
v -0.003150 0.032499 0.079652
v -0.003151 0.032539 0.079153
v -0.003841 0.032731 0.079673
v -0.003842 0.032772 0.079174
v 0.001655 -0.020228 -0.022001
v 0.001657 -0.020349 -0.021440
v 0.001654 -0.020256 -0.022574
v 0.001660 -0.020612 -0.020929
v 0.001654 -0.020432 -0.023121
v 0.001664 -0.020997 -0.020503
v 0.001656 -0.020743 -0.023604
v 0.001669 -0.021480 -0.020192
v 0.001658 -0.021169 -0.023989
v 0.001673 -0.022027 -0.020016
v 0.001662 -0.021680 -0.024252
v 0.001678 -0.022600 -0.019988
v 0.001672 -0.022420 -0.022180
v 0.001666 -0.022241 -0.024373
v 0.001682 -0.023161 -0.020109
v 0.001671 -0.022814 -0.024345
v 0.001686 -0.023672 -0.020371
v 0.001675 -0.023361 -0.024169
v 0.001688 -0.024098 -0.020756
v 0.001680 -0.023844 -0.023858
v 0.001690 -0.024409 -0.021239
v 0.001684 -0.024229 -0.023432
v 0.001690 -0.024585 -0.021787
v 0.001687 -0.024492 -0.022921
v 0.001689 -0.024613 -0.022360
v 0.001247 0.031760 -0.019752
v 0.001249 0.031639 -0.019191
v 0.001246 0.031732 -0.020325
v 0.001252 0.031377 -0.018680
v 0.001246 0.031556 -0.020872
v 0.001256 0.030992 -0.018254
v 0.001248 0.031245 -0.021355
v 0.001261 0.030509 -0.017943
v 0.001250 0.030819 -0.021740
v 0.001266 0.029962 -0.017767
v 0.001254 0.030308 -0.022003
v 0.001270 0.029388 -0.017739
v 0.001264 0.029568 -0.019932
v 0.001258 0.029747 -0.022124
v 0.001274 0.028827 -0.017860
v 0.001263 0.029174 -0.022096
v 0.001278 0.028316 -0.018123
v 0.001267 0.028627 -0.021920
v 0.001280 0.027890 -0.018508
v 0.001272 0.028144 -0.021609
v 0.001282 0.027579 -0.018991
v 0.001276 0.027759 -0.021183
v 0.001282 0.027404 -0.019538
v 0.001279 0.027496 -0.020672
v 0.001281 0.027375 -0.020111
v 0.001315 0.029721 0.005165
v 0.001317 0.029600 0.005726
v 0.001314 0.029693 0.004591
v 0.001320 0.029338 0.006237
v 0.001314 0.029517 0.004044
v 0.001324 0.028953 0.006663
v 0.001316 0.029206 0.003561
v 0.001329 0.028470 0.006973
v 0.001319 0.028780 0.003176
v 0.001334 0.027923 0.007149
v 0.001322 0.028269 0.002914
v 0.001338 0.027349 0.007178
v 0.001332 0.027529 0.004985
v 0.001326 0.027708 0.002792
v 0.001342 0.026788 0.007057
v 0.001331 0.027135 0.002821
v 0.001346 0.026277 0.006794
v 0.001336 0.026588 0.002997
v 0.001348 0.025851 0.006409
v 0.001340 0.026105 0.003307
v 0.001350 0.025540 0.005926
v 0.001344 0.025720 0.003733
v 0.001350 0.025365 0.005379
v 0.001347 0.025457 0.004245
v 0.001349 0.025336 0.004806
v 0.001383 0.027682 0.030081
v 0.001385 0.027561 0.030642
v 0.001382 0.027654 0.029508
v 0.001389 0.027299 0.031153
v 0.001383 0.027478 0.028961
v 0.001393 0.026914 0.031579
v 0.001384 0.027167 0.028478
v 0.001397 0.026431 0.031890
v 0.001387 0.026741 0.028093
v 0.001402 0.025884 0.032066
v 0.001390 0.026230 0.027830
v 0.001406 0.025310 0.032094
v 0.001400 0.025490 0.029902
v 0.001394 0.025669 0.027709
v 0.001411 0.024749 0.031973
v 0.001399 0.025096 0.027737
v 0.001414 0.024238 0.031711
v 0.001404 0.024549 0.027913
v 0.001417 0.023812 0.031326
v 0.001408 0.024066 0.028224
v 0.001418 0.023501 0.030843
v 0.001412 0.023681 0.028650
v 0.001418 0.023325 0.030295
v 0.001415 0.023418 0.029161
v 0.001417 0.023297 0.029722
v 0.001780 -0.023980 0.023846
v 0.001782 -0.024101 0.024407
v 0.001779 -0.024008 0.023272
v 0.001786 -0.024363 0.024918
v 0.001780 -0.024184 0.022725
v 0.001790 -0.024748 0.025344
v 0.001781 -0.024495 0.022242
v 0.001794 -0.025231 0.025655
v 0.001784 -0.024921 0.021857
v 0.001799 -0.025778 0.025831
v 0.001787 -0.025432 0.021595
v 0.001803 -0.026352 0.025859
v 0.001797 -0.026172 0.023666
v 0.001791 -0.025993 0.021474
v 0.001808 -0.026913 0.025738
v 0.001796 -0.026566 0.021502
v 0.001811 -0.027424 0.025475
v 0.001801 -0.027113 0.021678
v 0.001814 -0.027850 0.025090
v 0.001805 -0.027596 0.021988
v 0.001815 -0.028161 0.024607
v 0.001809 -0.027981 0.022414
v 0.001815 -0.028336 0.024060
v 0.001812 -0.028244 0.022926
v 0.001814 -0.028365 0.023487
v 0.001379 0.029567 0.035252
v 0.001216 0.034460 -0.024548
v 0.001386 0.029178 0.037230
v 0.001212 0.034344 -0.026894
v 0.001397 0.028360 0.039071
v 0.001213 0.033626 -0.029131
v 0.001393 0.027723 0.035101
v 0.001230 0.032617 -0.024699
v 0.001410 0.027152 0.040684
v 0.001400 0.027329 0.036926
v 0.001227 0.032524 -0.026563
v 0.001219 0.032352 -0.031106
v 0.001411 0.026477 0.038586
v 0.001228 0.031953 -0.028340
v 0.001424 0.025615 0.041988
v 0.001423 0.025224 0.039969
v 0.001232 0.030942 -0.029909
v 0.001229 0.030611 -0.032683
v 0.001441 0.023828 0.042918
v 0.001438 0.023655 0.040981
v 0.001241 0.029559 -0.031162
v 0.001244 0.028521 -0.033756
v 0.001457 0.021878 0.043426
v 0.001453 0.021879 0.041552
v 0.001252 0.027899 -0.032014
v 0.001473 0.019863 0.043488
v 0.001468 0.020014 0.041644
v 0.001266 0.026074 -0.032408
v 0.001261 0.026225 -0.034252
v 0.001612 0.000954 0.037927
v 0.001421 0.006663 -0.031840
v 0.001614 0.000848 0.038446
v 0.001611 0.000926 0.037354
v 0.001423 0.006542 -0.031279
v 0.001420 0.006635 -0.032413
v 0.001617 0.000620 0.038925
v 0.001611 0.000750 0.036806
v 0.001426 0.006280 -0.030768
v 0.001420 0.006459 -0.032960
v 0.001620 0.000284 0.039336
v 0.001613 0.000439 0.036323
v 0.001430 0.005895 -0.030342
v 0.001422 0.006149 -0.033443
v 0.001624 -0.000140 0.039654
v 0.001615 0.000013 0.035938
v 0.001435 0.005412 -0.030031
v 0.001424 0.005723 -0.033828
v 0.001628 -0.000629 0.039861
v 0.001619 -0.000498 0.035676
v 0.001440 0.004865 -0.029855
v 0.001428 0.005211 -0.034091
v 0.001631 -0.000948 0.039928
v 0.001429 0.005112 -0.034124
v 0.001623 -0.001059 0.035555
v 0.001444 0.004291 -0.029827
v 0.001638 -0.001879 0.039852
v 0.001436 0.004181 -0.034200
v 0.001627 -0.001632 0.035583
v 0.001448 0.003730 -0.029948
v 0.001437 0.004077 -0.034184
v 0.001640 -0.002184 0.039734
v 0.001632 -0.002179 0.035759
v 0.001452 0.003219 -0.030210
v 0.001441 0.003530 -0.034008
v 0.001643 -0.002632 0.039450
v 0.001637 -0.002662 0.036070
v 0.001454 0.002793 -0.030595
v 0.001446 0.003047 -0.033697
v 0.001646 -0.002999 0.039067
v 0.001641 -0.003047 0.036496
v 0.001456 0.002483 -0.031078
v 0.001450 0.002662 -0.033271
v 0.001647 -0.003263 0.038607
v 0.001644 -0.003310 0.037007
v 0.001456 0.002307 -0.031626
v 0.001453 0.002399 -0.032760
v 0.001647 -0.003410 0.038097
v 0.001646 -0.003431 0.037568
v 0.001455 0.002278 -0.032199
v 0.001806 -0.022992 0.039980
v 0.001801 -0.022841 0.038136
v 0.001599 -0.016781 -0.035916
v 0.001594 -0.016631 -0.037760
v 0.001612 -0.018382 -0.035867
v 0.001815 -0.024666 0.037742
v 0.001821 -0.024970 0.039591
v 0.001613 -0.018977 -0.037644
v 0.001625 -0.019931 -0.035463
v 0.001826 -0.026326 0.036890
v 0.001834 -0.026812 0.038773
v 0.001637 -0.021352 -0.034725
v 0.001632 -0.021214 -0.036925
v 0.001835 -0.027710 0.035637
v 0.001649 -0.022572 -0.033689
v 0.001844 -0.028424 0.037565
v 0.001839 -0.028721 0.034068
v 0.001650 -0.023188 -0.035652
v 0.001660 -0.023532 -0.032407
v 0.001840 -0.029292 0.032291
v 0.001668 -0.024182 -0.030944
v 0.001851 -0.029728 0.036028
v 0.001837 -0.029384 0.030427
v 0.001674 -0.024491 -0.029373
v 0.001666 -0.024765 -0.033911
v 0.001855 -0.030659 0.034240
v 0.001679 -0.025838 -0.031820
v 0.001855 -0.031166 0.032291
v 0.001851 -0.031228 0.030276
v 0.001688 -0.026334 -0.029524
v -0.001135 -0.026973 -0.066693
v -0.001133 -0.027014 -0.066194
v -0.001135 -0.026973 -0.066693
v 0.001100 -0.026898 -0.066692
v 0.001106 -0.026877 -0.066942
v 0.001100 -0.026898 -0.066692
v 0.000589 0.040870 -0.061145
v 0.000594 0.040890 -0.061395
v 0.000594 0.040890 -0.061395
v -0.000752 -0.038432 0.073339
v -0.000752 -0.038432 0.073339
v -0.000751 -0.038473 0.073837
v -0.001279 0.029591 0.079409
v -0.001281 0.029632 0.078910
v -0.001279 0.029591 0.079409
vn 1.0000 0.0079 -0.0021
vn 0.9997 0.0058 0.0240
vn 0.4945 -0.8679 -0.0465
vn 0.4944 -0.8680 -0.0462
vn 0.9970 -0.0748 0.0172
vn 0.9970 -0.0750 0.0173
vn 0.9644 0.2608 0.0449
vn 0.9644 0.2607 0.0452
vn 0.3179 0.9426 0.1021
vn 0.3187 0.9422 0.1028
vn 0.9945 -0.1041 -0.0112
vn 0.9765 -0.2145 -0.0202
vn 0.9766 -0.2143 -0.0202
vn 0.9039 -0.4262 -0.0373
vn 0.7859 -0.6161 -0.0526
vn 0.6279 -0.7756 -0.0652
vn 0.4386 -0.8956 -0.0745
vn 0.3350 -0.9390 -0.0778
vn 0.3229 -0.9450 -0.0516
vn 0.4109 -0.9104 -0.0493
vn 0.4104 -0.9106 -0.0494
vn 0.4946 -0.8679 -0.0464
vn 0.4951 -0.8676 -0.0462
vn 0.4943 -0.8681 -0.0458
vn 0.5661 -0.8233 -0.0425
vn 0.5649 -0.8241 -0.0419
vn 0.6948 -0.7183 -0.0344
vn 0.6943 -0.7188 -0.0342
vn 0.7521 -0.6584 -0.0298
vn 0.7519 -0.6586 -0.0297
vn 0.8079 -0.5888 -0.0243
vn 0.8076 -0.5893 -0.0241
vn 0.8571 -0.5148 -0.0186
vn 0.8570 -0.5150 -0.0183
vn 0.8994 -0.4369 -0.0121
vn 0.8991 -0.4376 -0.0122
vn 0.9345 -0.3559 -0.0061
vn 0.9345 -0.3560 -0.0059
vn 0.9604 -0.2785 0.0009
vn 0.9603 -0.2788 0.0010
vn 0.9799 -0.1992 0.0070
vn 0.9799 -0.1995 0.0074
vn 0.9905 -0.1372 0.0123
vn 0.9904 -0.1377 0.0124
vn 0.9971 -0.0747 0.0172
vn 0.9970 -0.0748 0.0173
vn 0.9967 0.0760 0.0297
vn 0.9848 0.1693 0.0378
vn 0.9967 0.0757 0.0303
vn 0.9850 0.1686 0.0378
vn 0.9644 0.2607 0.0449
vn 0.9643 0.2609 0.0451
vn 0.9644 0.2607 0.0453
vn 0.9388 0.3405 0.0516
vn 0.9390 0.3399 0.0518
vn 0.8688 0.4911 0.0638
vn 0.8691 0.4905 0.0637
vn 0.8247 0.5612 0.0699
vn 0.8248 0.5611 0.0697
vn 0.7709 0.6324 0.0759
vn 0.7714 0.6318 0.0761
vn 0.7112 0.6982 0.0815
vn 0.7115 0.6979 0.0816
vn 0.6458 0.7586 0.0864
vn 0.6465 0.7580 0.0866
vn 0.5761 0.8123 0.0911
vn 0.5762 0.8122 0.0911
vn 0.5070 0.8567 0.0951
vn 0.5075 0.8564 0.0953
vn 0.4349 0.8951 0.0982
vn 0.4350 0.8950 0.0983
vn 0.3771 0.9207 0.1004
vn 0.3775 0.9205 0.1006
vn 0.3182 0.9425 0.1022
vn 0.3184 0.9424 0.1024
vn 0.7857 -0.6164 -0.0526
vn 0.9765 -0.2143 -0.0202
vn 0.9928 0.1199 0.0071
vn 0.9731 0.2300 0.0162
vn 0.9731 0.2299 0.0162
vn 0.8971 0.4405 0.0336
vn 0.7760 0.6288 0.0493
vn 0.6158 0.7854 0.0626
vn 0.4246 0.9024 0.0727
vn 0.3204 0.9442 0.0764
s 1
usemtl Mtl7
f 13//1 14//1 15//1
f 14//1 16//1 15//1
f 17//2 18//2 19//2
f 18//2 20//2 19//2
f 26//3 27//3 29//3
f 28//4 33//4 31//4
f 54//5 55//5 57//5
f 56//6 59//6 58//6
f 63//7 66//7 69//7
f 65//8 71//8 67//8
f 93//9 96//9 98//9
f 95//10 99//10 97//10
f 100//1 101//1 102//1
f 101//1 103//1 102//1
f 132//1 130//1 140//1
f 130//1 128//1 140//1
f 140//1 128//1 129//1
f 138//1 136//1 140//1
f 136//1 134//1 140//1
f 140//1 134//1 132//1
f 145//1 143//1 140//1
f 143//1 141//1 140//1
f 140//1 141//1 138//1
f 151//1 149//1 140//1
f 149//1 147//1 140//1
f 140//1 147//1 145//1
f 148//1 150//1 140//1
f 150//1 152//1 140//1
f 140//1 152//1 151//1
f 142//1 144//1 140//1
f 144//1 146//1 140//1
f 140//1 146//1 148//1
f 135//1 137//1 140//1
f 137//1 139//1 140//1
f 140//1 139//1 142//1
f 129//1 131//1 140//1
f 131//1 133//1 140//1
f 140//1 133//1 135//1
f 157//1 155//1 165//1
f 155//1 153//1 165//1
f 165//1 153//1 154//1
f 163//1 161//1 165//1
f 161//1 159//1 165//1
f 165//1 159//1 157//1
f 170//1 168//1 165//1
f 168//1 166//1 165//1
f 165//1 166//1 163//1
f 176//1 174//1 165//1
f 174//1 172//1 165//1
f 165//1 172//1 170//1
f 173//1 175//1 165//1
f 175//1 177//1 165//1
f 165//1 177//1 176//1
f 167//1 169//1 165//1
f 169//1 171//1 165//1
f 165//1 171//1 173//1
f 160//1 162//1 165//1
f 162//1 164//1 165//1
f 165//1 164//1 167//1
f 154//1 156//1 165//1
f 156//1 158//1 165//1
f 165//1 158//1 160//1
f 182//1 180//1 190//1
f 180//1 178//1 190//1
f 190//1 178//1 179//1
f 188//1 186//1 190//1
f 186//1 184//1 190//1
f 190//1 184//1 182//1
f 195//1 193//1 190//1
f 193//1 191//1 190//1
f 190//1 191//1 188//1
f 201//1 199//1 190//1
f 199//1 197//1 190//1
f 190//1 197//1 195//1
f 198//1 200//1 190//1
f 200//1 202//1 190//1
f 190//1 202//1 201//1
f 192//1 194//1 190//1
f 194//1 196//1 190//1
f 190//1 196//1 198//1
f 185//1 187//1 190//1
f 187//1 189//1 190//1
f 190//1 189//1 192//1
f 179//1 181//1 190//1
f 181//1 183//1 190//1
f 190//1 183//1 185//1
f 207//1 205//1 215//1
f 205//1 203//1 215//1
f 215//1 203//1 204//1
f 213//1 211//1 215//1
f 211//1 209//1 215//1
f 215//1 209//1 207//1
f 220//1 218//1 215//1
f 218//1 216//1 215//1
f 215//1 216//1 213//1
f 226//1 224//1 215//1
f 224//1 222//1 215//1
f 215//1 222//1 220//1
f 223//1 225//1 215//1
f 225//1 227//1 215//1
f 215//1 227//1 226//1
f 217//1 219//1 215//1
f 219//1 221//1 215//1
f 215//1 221//1 223//1
f 210//1 212//1 215//1
f 212//1 214//1 215//1
f 215//1 214//1 217//1
f 204//1 206//1 215//1
f 206//1 208//1 215//1
f 215//1 208//1 210//1
f 232//1 230//1 240//1
f 230//1 228//1 240//1
f 240//1 228//1 229//1
f 238//1 236//1 240//1
f 236//1 234//1 240//1
f 240//1 234//1 232//1
f 245//1 243//1 240//1
f 243//1 241//1 240//1
f 240//1 241//1 238//1
f 251//1 249//1 240//1
f 249//1 247//1 240//1
f 240//1 247//1 245//1
f 248//1 250//1 240//1
f 250//1 252//1 240//1
f 240//1 252//1 251//1
f 242//1 244//1 240//1
f 244//1 246//1 240//1
f 240//1 246//1 248//1
f 235//1 237//1 240//1
f 237//1 239//1 240//1
f 240//1 239//1 242//1
f 229//1 231//1 240//1
f 231//1 233//1 240//1
f 240//1 233//1 235//1
f 298//1 302//1 295//1
f 316//1 312//1 319//1
f 308//1 278//1 332//1
f 341//1 337//1 338//1
f 295//1 302//1 299//1
f 335//1 281//1 305//1
f 281//1 280//1 305//1
f 307//1 312//1 302//1
f 312//1 309//1 302//1
f 338//1 337//1 332//1
f 337//1 333//1 332//1
f 332//1 333//1 308//1
f 307//1 311//1 312//1
f 311//1 315//1 312//1
f 312//1 315//1 319//1
f 323//1 327//1 319//1
f 327//1 331//1 319//1
f 319//1 331//1 328//1
f 291//1 287//1 295//1
f 287//1 283//1 295//1
f 295//1 283//1 286//1
f 306//1 301//1 282//1
f 284//1 288//1 314//1
f 288//1 292//1 314//1
f 314//1 329//1 330//1
f 328//1 324//1 319//1
f 324//1 320//1 319//1
f 319//1 320//1 316//1
f 286//1 290//1 295//1
f 290//1 294//1 295//1
f 295//1 294//1 298//1
f 349//1 344//1 340//1
f 292//1 296//1 314//1
f 296//1 300//1 314//1
f 314//1 300//1 304//1
f 317//1 321//1 314//1
f 321//1 325//1 314//1
f 314//1 325//1 329//1
f 280//1 281//1 277//1
f 281//1 274//1 277//1
f 277//1 274//1 273//1
f 274//1 270//1 273//1
f 273//1 270//1 269//1
f 270//1 264//1 269//1
f 269//1 264//1 266//1
f 264//1 258//1 266//1
f 266//1 258//1 263//1
f 258//1 256//1 263//1
f 263//1 256//1 260//1
f 256//1 254//1 260//1
f 260//1 254//1 259//1
f 254//1 253//1 259//1
f 259//1 253//1 262//1
f 253//1 255//1 262//1
f 262//1 255//1 265//1
f 284//1 314//1 282//1
f 314//1 310//1 282//1
f 282//1 310//1 306//1
f 301//1 297//1 282//1
f 297//1 293//1 282//1
f 282//1 293//1 285//1
f 293//1 289//1 285//1
f 255//1 257//1 265//1
f 257//1 261//1 265//1
f 265//1 261//1 268//1
f 261//1 267//1 268//1
f 268//1 267//1 272//1
f 267//1 271//1 272//1
f 272//1 271//1 276//1
f 271//1 275//1 276//1
f 276//1 275//1 279//1
f 275//1 278//1 279//1
f 279//1 278//1 304//1
f 278//1 308//1 304//1
f 304//1 308//1 314//1
f 308//1 313//1 314//1
f 314//1 313//1 317//1
f 330//1 326//1 314//1
f 326//1 322//1 314//1
f 314//1 322//1 318//1
f 340//1 344//1 336//1
f 344//1 339//1 336//1
f 336//1 339//1 334//1
f 339//1 335//1 334//1
f 334//1 335//1 309//1
f 335//1 305//1 309//1
f 309//1 305//1 302//1
f 305//1 303//1 302//1
f 302//1 303//1 299//1
f 338//1 342//1 341//1
f 342//1 347//1 341//1
f 341//1 347//1 345//1
f 347//1 353//1 345//1
f 345//1 353//1 348//1
f 353//1 357//1 348//1
f 348//1 357//1 351//1
f 357//1 359//1 351//1
f 351//1 359//1 354//1
f 359//1 360//1 354//1
f 354//1 360//1 355//1
f 360//1 361//1 355//1
f 355//1 361//1 352//1
f 361//1 358//1 352//1
f 352//1 358//1 350//1
f 358//1 356//1 350//1
f 350//1 356//1 346//1
f 356//1 349//1 346//1
f 346//1 349//1 343//1
f 349//1 340//1 343//1
f 362//11 363//11 1//12
f 364//11 1//12 2//13
f 1//12 3//14 2//13
f 2//13 3//14 4//14
f 3//14 5//15 4//14
f 4//14 5//15 6//15
f 5//15 7//16 6//15
f 6//15 7//16 8//16
f 7//16 9//17 8//16
f 8//16 9//17 10//17
f 9//17 11//18 10//17
f 10//17 11//18 12//18
f 21//19 22//19 23//20
f 22//19 24//21 23//20
f 23//20 24//21 25//22
f 24//21 27//3 25//22
f 30//23 32//24 34//25
f 32//24 35//26 34//25
f 34//25 35//26 36//27
f 35//26 37//28 36//27
f 36//27 37//28 38//29
f 37//28 39//30 38//29
f 38//29 39//30 40//31
f 39//30 41//32 40//31
f 40//31 41//32 42//33
f 41//32 43//34 42//33
f 42//33 43//34 44//35
f 43//34 45//36 44//35
f 44//35 45//36 46//37
f 45//36 47//38 46//37
f 46//37 47//38 48//39
f 47//38 49//40 48//39
f 48//39 49//40 50//41
f 49//40 51//42 50//41
f 50//41 51//42 52//43
f 51//42 53//44 52//43
f 52//43 53//44 365//45
f 53//44 366//46 367//46
f 368//47 369//47 60//48
f 370//49 61//50 60//48
f 60//48 61//50 62//51
f 61//50 64//51 62//51
f 68//52 70//53 72//54
f 70//53 73//55 72//54
f 72//54 73//55 74//56
f 73//55 75//57 74//56
f 74//56 75//57 76//58
f 75//57 77//59 76//58
f 76//58 77//59 78//60
f 77//59 79//61 78//60
f 78//60 79//61 80//62
f 79//61 81//63 80//62
f 80//62 81//63 82//64
f 81//63 83//65 82//64
f 82//64 83//65 84//66
f 83//65 85//67 84//66
f 84//66 85//67 86//68
f 85//67 87//69 86//68
f 86//68 87//69 88//70
f 87//69 89//71 88//70
f 88//70 89//71 90//72
f 89//71 91//73 90//72
f 90//72 91//73 92//74
f 91//73 94//75 92//74
f 114//18 115//18 113//17
f 114//18 113//17 112//17
f 113//17 111//16 112//17
f 112//17 111//16 110//16
f 111//16 109//76 110//16
f 110//16 109//76 108//76
f 109//76 107//14 108//76
f 108//76 107//14 106//14
f 107//14 105//77 106//14
f 106//14 105//77 104//12
f 105//77 371//11 104//12
f 104//12 372//11 373//11
f 374//78 375//78 117//79
f 376//78 117//79 116//80
f 117//79 119//81 116//80
f 116//80 119//81 118//81
f 119//81 121//82 118//81
f 118//81 121//82 120//82
f 121//82 123//83 120//82
f 120//82 123//83 122//83
f 123//83 125//84 122//83
f 122//83 125//84 124//84
f 125//84 127//85 124//84
f 124//84 127//85 126//85
