# Blender 3.6.1
# www.blender.org
mtllib head_9.mtl
o head_9
v 0.000050 0.000354 -0.093290
v 0.000050 0.000251 -0.093356
v 0.000050 0.000145 -0.093399
v 0.000050 0.000028 -0.093415
v 0.000050 -0.000025 -0.093413
v 0.000050 -0.000133 -0.093389
v 0.000050 -0.000238 -0.093338
v 0.000050 -0.000352 -0.093245
v -0.000050 0.000354 -0.093290
v -0.000050 0.000251 -0.093356
v -0.000050 0.000145 -0.093399
v -0.000050 0.000028 -0.093415
v -0.000050 -0.000025 -0.093413
v -0.000050 -0.000133 -0.093389
v -0.000050 -0.000238 -0.093338
v -0.000050 -0.000352 -0.093245
v 0.000150 -0.000423 0.078051
v 0.000150 0.000422 0.078794
v -0.000150 -0.000423 0.078051
v -0.000150 0.000422 0.078794
v 0.000050 -0.000133 -0.093389
v -0.000050 -0.000133 -0.093389
v -0.000050 -0.000133 -0.093389
vn 0.0005 -0.6606 0.7507
vn 0.0004 -0.6606 0.7507
vn 0.0004 0.6330 0.7741
vn 0.0005 0.6328 0.7744
vn 0.0005 0.5394 0.8420
vn 0.0005 0.4380 0.8990
vn 0.0005 0.4381 0.8989
vn 0.0006 0.2158 0.9764
vn 0.0006 0.1310 0.9914
vn 0.0006 0.2157 0.9765
vn 0.0007 0.1310 0.9914
vn 0.0006 -0.0483 0.9988
vn 0.0006 -0.2562 0.9666
vn 0.0006 -0.2563 0.9666
vn 0.0005 -0.4592 0.8883
vn 0.0005 -0.5458 0.8379
vn 0.0005 -0.5459 0.8379
s 1
usemtl Mtl5_001
f 17//1 18//2 19//1
f 18//2 20//2 19//1
f 16//3 8//4 7//5
f 16//3 7//5 15//5
f 7//5 6//6 15//5
f 15//5 6//6 14//7
f 21//8 5//9 22//8
f 23//10 5//11 13//9
f 5//11 4//12 13//9
f 13//9 4//12 12//12
f 4//12 3//13 12//12
f 12//12 3//13 11//14
f 3//13 2//15 11//14
f 11//14 2//15 10//15
f 2//15 1//16 10//15
f 10//15 1//16 9//17
