# Blender 3.6.1
# www.blender.org
mtllib l0_4.mtl
o l0_4
v 0.000547 -0.001242 -0.010990
v 0.000554 -0.001261 -0.011011
v 0.000015 -0.001242 -0.010859
v 0.000021 -0.001261 -0.010880
v -0.001714 0.008785 -0.000233
v -0.001220 0.008785 -0.000354
v -0.001715 0.008773 -0.000245
v -0.001220 0.008773 -0.000366
v 0.000635 -0.001756 0.009784
v 0.000635 -0.001738 0.009803
v 0.000142 -0.001756 0.009905
v 0.000143 -0.001738 0.009924
v 0.000004 0.001407 0.006761
v 0.000004 0.001389 0.006742
v -0.000489 0.001407 0.006882
v -0.000489 0.001389 0.006863
v 0.000926 -0.006080 -0.001591
v 0.000931 -0.006098 -0.001611
v 0.000409 -0.006080 -0.001464
v 0.000414 -0.006098 -0.001484
vn -0.1676 0.7116 -0.6823
vn -0.1676 0.7116 -0.6822
vn -0.1676 0.7117 -0.6822
vn 0.1676 -0.7116 0.6823
s 1
usemtl Mtl3
f 1//1 2//1 3//1
f 2//1 4//1 3//1
f 5//1 6//2 7//1
f 6//2 8//3 7//1
f 9//4 10//4 11//4
f 10//4 12//4 11//4
f 13//1 14//1 15//1
f 14//1 16//1 15//1
f 17//1 18//1 19//1
f 18//1 20//1 19//1
