# Blender 3.6.1
# www.blender.org
mtllib l2_2.mtl
o l2_2
v 0.000632 -0.051007 0.204240
v 0.000106 -0.050980 0.200986
v -0.000099 -0.050970 0.199719
v 0.000800 -0.050925 0.205277
v -0.000508 -0.050724 0.197188
v 0.001362 -0.050649 0.208749
v 0.001404 -0.050604 0.209011
v -0.000817 -0.050538 0.195280
v -0.001186 -0.050110 0.193002
v 0.002091 -0.049887 0.213256
v -0.001523 -0.049718 0.190917
v -0.001796 -0.049240 0.189227
v 0.002676 -0.048943 0.216877
v 0.002808 -0.048731 0.217687
v -0.002209 -0.048519 0.186676
v -0.002439 -0.047973 0.185253
v 0.003332 -0.047570 0.220931
v 0.003501 -0.047196 0.221978
v -0.002869 -0.046955 0.182597
v -0.003039 -0.046437 0.181545
v 0.003892 -0.046081 0.224394
v 0.004168 -0.045295 0.226100
v -0.003506 -0.045017 0.178660
v -0.003617 -0.044597 0.177974
v 0.004508 -0.044089 0.228201
v 0.004806 -0.043034 0.230041
v -0.004114 -0.042714 0.174897
v -0.004168 -0.042465 0.174562
v 0.005091 -0.041806 0.231804
v 0.005412 -0.040422 0.233790
v -0.004686 -0.040082 0.171361
v 0.005640 -0.039243 0.235197
v 0.005975 -0.037506 0.237272
v -0.005180 -0.037346 0.168309
v -0.005216 -0.037146 0.168086
v 0.006070 -0.036924 0.237853
v -0.005640 -0.034328 0.165467
v 0.006494 -0.034295 0.240477
v -0.005701 -0.033917 0.165085
v 0.006549 -0.033884 0.240820
v -0.006056 -0.031076 0.162892
v 0.006964 -0.030815 0.243380
v 0.006999 -0.030503 0.243597
v -0.006143 -0.030381 0.162355
v -0.006428 -0.027618 0.160594
v 0.007382 -0.027087 0.245968
v -0.006535 -0.026584 0.159934
v -0.006750 -0.024020 0.158605
v 0.007726 -0.023358 0.248095
v 0.007745 -0.023154 0.248212
v -0.006870 -0.022579 0.157859
v -0.007030 -0.020161 0.156869
v 0.008014 -0.019524 0.249873
v 0.008048 -0.019068 0.250081
v -0.007151 -0.018346 0.156126
v -0.007276 -0.015836 0.155349
v 0.008241 -0.015688 0.251279
v 0.008290 -0.014843 0.251578
v -0.007371 -0.013949 0.154764
v 0.008425 -0.011583 0.252416
v -0.007460 -0.011392 0.154212
v 0.008471 -0.010490 0.252696
v -0.007532 -0.009339 0.153769
v 0.008552 -0.007430 0.253203
v -0.007583 -0.006867 0.153453
v 0.008589 -0.006052 0.253431
v -0.007628 -0.004688 0.153174
v 0.008624 -0.003242 0.253643
v -0.007645 -0.002293 0.153072
v 0.008644 -0.001571 0.253769
v -0.007660 0.000000 0.152976
v 0.008648 0.000000 0.253794
v -0.007654 0.002007 0.153012
v 0.008632 0.002293 0.253692
v -0.007632 0.003774 0.153150
v 0.008616 0.004476 0.253596
v -0.007595 0.006661 0.153377
v -0.007572 0.007533 0.153520
v 0.008522 0.008814 0.253015
v 0.008520 0.008933 0.252999
v -0.007474 0.011218 0.154125
v -0.007463 0.011499 0.154196
v 0.008361 0.013316 0.252017
v 0.008346 0.013611 0.251923
v -0.007293 0.015666 0.155246
v 0.008165 0.017099 0.250810
v -0.007200 0.017322 0.155819
v 0.008140 0.017591 0.250653
v -0.007056 0.019897 0.156710
v 0.007859 0.021721 0.248918
v 0.007824 0.022138 0.248697
v -0.006838 0.022920 0.158060
v -0.006759 0.024003 0.158545
v 0.007520 0.025684 0.246823
v -0.006537 0.026472 0.159922
v 0.007390 0.026932 0.246014
v -0.006409 0.027891 0.160714
v 0.007123 0.029476 0.244366
v -0.006191 0.029864 0.162057
v 0.007011 0.030368 0.243671
v -0.006004 0.031571 0.163216
v 0.006673 0.033044 0.241582
v -0.005804 0.033073 0.164449
v 0.006588 0.033602 0.241061
v -0.005552 0.034977 0.166011
v -0.005375 0.036085 0.167101
v 0.006175 0.036340 0.238503
v 0.006126 0.036612 0.238200
v -0.005053 0.038109 0.169095
v -0.004908 0.038865 0.169989
v 0.005633 0.039341 0.235154
v 0.005357 0.040621 0.233446
v -0.004509 0.040954 0.172459
v -0.004404 0.041409 0.173109
v 0.005046 0.042059 0.231524
v -0.003924 0.043485 0.176072
v -0.003867 0.043687 0.176425
v 0.004522 0.044068 0.228284
v 0.004421 0.044452 0.227665
v -0.003308 0.045667 0.179883
v 0.003929 0.045986 0.224620
v 0.003765 0.046496 0.223609
v -0.002656 0.047506 0.183912
v 0.003314 0.047605 0.220821
v -0.002381 0.048100 0.185613
v 0.003087 0.048165 0.219413
v -0.001980 0.048964 0.188088
v 0.002383 0.049466 0.215062
v 0.002335 0.049527 0.214767
v -0.001418 0.049830 0.191563
v -0.001273 0.050054 0.192461
v 0.001659 0.050388 0.210585
v 0.001583 0.050441 0.210118
v -0.000727 0.050576 0.195834
v -0.000553 0.050744 0.196915
v 0.001010 0.050851 0.206575
v 0.000925 0.050911 0.206052
v 0.000140 0.051014 0.201196
v 0.000184 0.051032 0.201471
v -0.000131 -0.052750 -0.058803
v 0.008911 -0.051949 -0.060266
v -0.009174 -0.051949 -0.057340
v 0.017679 -0.049569 -0.061684
v -0.017942 -0.049569 -0.055922
v 0.025905 -0.045683 -0.063015
v -0.026168 -0.045683 -0.054592
v 0.033341 -0.040409 -0.064218
v -0.033603 -0.040409 -0.053389
v 0.039759 -0.033907 -0.065256
v -0.040022 -0.033907 -0.052351
v 0.044965 -0.026375 -0.066098
v -0.045228 -0.026375 -0.051508
v 0.048802 -0.018042 -0.066719
v -0.049064 -0.018042 -0.050888
v 0.051151 -0.009160 -0.067099
v -0.051414 -0.009160 -0.050508
v 0.051942 0.000000 -0.067227
v -0.052204 0.000000 -0.050380
v 0.051151 0.009160 -0.067099
v -0.051414 0.009160 -0.050508
v 0.048802 0.018042 -0.066719
v -0.049064 0.018042 -0.050888
v 0.044965 0.026375 -0.066098
v -0.045228 0.026375 -0.051508
v 0.039759 0.033907 -0.065256
v -0.040022 0.033907 -0.052351
v 0.033341 0.040409 -0.064218
v -0.033603 0.040409 -0.053389
v 0.025905 0.045683 -0.063015
v -0.026168 0.045683 -0.054592
v 0.017679 0.049569 -0.061684
v -0.017942 0.049569 -0.055922
v 0.008911 0.051949 -0.060266
v -0.009174 0.051949 -0.057340
v -0.000131 0.052750 -0.058803
vn -0.9872 -0.0000 0.1597
vn -0.9872 -0.0000 0.1596
vn -0.1597 -0.0000 -0.9872
s 1
usemtl white
f 42//1 43//1 41//1
f 46//1 49//1 93//1
f 49//1 50//1 93//1
f 50//1 53//1 93//1
f 53//1 54//1 93//1
f 93//1 54//1 57//1
f 41//1 43//1 44//1
f 80//1 83//1 93//1
f 83//1 84//1 93//1
f 93//1 84//1 86//1
f 89//1 87//1 43//1
f 74//1 76//1 93//1
f 76//1 79//1 93//1
f 93//1 79//1 80//1
f 111//1 112//1 93//1
f 46//1 93//1 43//1
f 93//1 92//1 43//1
f 43//1 92//1 89//1
f 57//1 58//1 93//1
f 58//1 60//1 93//1
f 93//1 60//1 62//1
f 62//1 64//1 93//1
f 64//1 66//1 93//1
f 93//1 66//1 68//1
f 68//1 70//1 93//1
f 70//1 72//1 93//1
f 93//1 72//1 74//1
f 86//1 88//1 93//1
f 88//1 90//1 93//1
f 93//1 90//1 91//1
f 87//1 85//1 43//1
f 85//1 82//1 43//1
f 43//1 82//1 81//1
f 112//1 115//1 93//1
f 115//1 118//1 93//1
f 93//1 118//1 119//1
f 81//1 78//1 43//1
f 78//1 77//1 43//1
f 43//1 77//1 75//1
f 43//1 69//1 67//1
f 67//1 65//1 43//1
f 65//1 63//1 43//1
f 43//1 63//1 61//1
f 21//1 22//1 25//1
f 39//1 32//1 41//1
f 32//1 33//1 41//1
f 41//1 33//1 36//1
f 36//1 38//1 41//1
f 38//1 40//1 41//1
f 41//1 40//1 42//1
f 119//1 121//1 93//1
f 121//1 122//1 93//1
f 93//1 122//1 124//1
f 93//1 136//1 137//1
f 75//1 73//1 43//1
f 73//1 71//1 43//1
f 43//1 71//1 69//1
f 61//1 59//1 43//1
f 59//1 56//1 43//1
f 43//1 56//1 55//1
f 55//1 52//1 43//1
f 52//1 51//1 43//1
f 43//1 51//1 48//1
f 48//1 47//1 43//1
f 47//1 45//1 43//1
f 43//1 45//1 44//1
f 15//1 12//1 32//1
f 12//1 11//1 32//1
f 91//1 94//1 93//1
f 94//1 96//1 93//1
f 93//1 96//1 98//1
f 124//1 126//1 93//1
f 126//1 128//1 93//1
f 93//1 128//1 129//1
f 129//1 132//1 93//1
f 132//1 133//1 93//1
f 93//1 133//1 136//1
f 127//1 125//1 95//1
f 6//1 25//1 4//1
f 25//1 26//1 4//1
f 4//1 26//1 29//1
f 29//1 30//1 4//1
f 30//1 32//1 4//1
f 4//1 32//1 1//1
f 98//1 100//1 93//1
f 100//1 102//1 93//1
f 93//1 102//1 104//1
f 104//1 107//1 93//1
f 107//1 108//1 93//1
f 93//1 108//1 111//1
f 103//1 101//1 99//1
f 27//1 24//1 32//1
f 24//1 23//1 32//1
f 32//1 23//1 20//1
f 20//1 19//1 32//1
f 19//1 16//1 32//1
f 32//1 16//1 15//1
f 11//1 9//1 32//1
f 9//1 8//1 32//1
f 32//1 8//1 5//1
f 5//1 3//1 32//1
f 3//1 2//1 32//1
f 32//1 2//1 1//1
f 6//1 7//2 25//1
f 7//2 10//1 25//1
f 25//1 10//1 13//1
f 125//1 123//1 95//1
f 123//1 120//1 95//1
f 95//1 120//1 117//1
f 39//1 37//1 32//1
f 37//1 35//1 32//1
f 32//1 35//1 34//1
f 34//1 31//1 32//1
f 31//1 28//1 32//1
f 32//1 28//1 27//1
f 137//1 139//1 93//1
f 139//1 138//1 93//1
f 93//1 138//1 95//1
f 138//1 135//1 95//1
f 95//1 135//1 134//1
f 134//1 131//1 95//1
f 131//1 130//1 95//1
f 95//1 130//1 127//1
f 117//1 116//1 95//1
f 116//1 114//1 95//1
f 95//1 114//1 113//1
f 113//1 110//1 95//1
f 110//1 109//1 95//1
f 95//1 109//1 106//1
f 97//1 95//1 99//1
f 95//1 106//1 99//1
f 99//1 106//1 103//1
f 106//1 105//1 103//1
f 13//1 14//1 25//1
f 14//1 17//1 25//1
f 25//1 17//1 21//1
f 17//1 18//2 21//1
f 146//3 148//3 173//3
f 142//3 171//3 169//3
f 171//3 142//3 173//3
f 142//3 144//3 173//3
f 173//3 144//3 146//3
f 148//3 150//3 173//3
f 150//3 152//3 173//3
f 173//3 152//3 154//3
f 169//3 167//3 142//3
f 167//3 165//3 142//3
f 142//3 165//3 163//3
f 154//3 156//3 173//3
f 156//3 158//3 173//3
f 173//3 158//3 175//3
f 158//3 174//3 175//3
f 158//3 160//3 162//3
f 163//3 161//3 142//3
f 161//3 159//3 142//3
f 142//3 159//3 140//3
f 159//3 157//3 140//3
f 140//3 157//3 141//3
f 157//3 155//3 141//3
f 162//3 164//3 158//3
f 164//3 166//3 158//3
f 158//3 166//3 168//3
f 168//3 170//3 158//3
f 170//3 172//3 158//3
f 158//3 172//3 174//3
f 155//3 153//3 141//3
f 153//3 151//3 141//3
f 141//3 151//3 143//3
f 151//3 149//3 143//3
f 143//3 149//3 145//3
f 149//3 147//3 145//3
