# Blender 3.6.1
# www.blender.org
mtllib l5_0.mtl
o l5_0
v 0.000046 0.010589 -0.000288
v 0.000046 0.010571 -0.001240
v 0.000046 0.010571 -0.001240
v 0.000046 0.010547 0.000109
v 0.000046 0.010547 0.000109
v 0.000046 0.010535 -0.001491
v 0.000046 0.010535 -0.001491
v 0.000046 0.010535 -0.001491
v 0.000046 0.010482 -0.001852
v 0.000046 0.010482 -0.001852
v 0.000045 0.010464 0.000891
v 0.000045 0.010464 0.000891
v 0.000045 0.010421 0.001303
v 0.000045 0.010336 -0.002858
v 0.000045 0.010336 -0.002858
v 0.000044 0.010158 -0.003437
v 0.000044 0.010158 -0.003437
v 0.000044 0.010158 -0.003437
v 0.000044 0.010103 0.002510
v 0.000044 0.010103 0.002510
v 0.000043 0.010007 0.002873
v 0.000043 0.010007 0.002873
v 0.000043 0.009850 -0.004440
v 0.000043 0.009850 -0.004440
v 0.000042 0.009769 0.003501
v 0.000042 0.009769 0.003501
v 0.000042 0.009755 -0.004675
v 0.000042 0.009755 -0.004675
v 0.000042 0.009602 -0.004978
v 0.000042 0.009602 -0.004978
v 0.000041 0.009484 0.004073
v 0.000041 0.009484 0.004073
v 0.000041 0.009450 -0.000528
v 0.000041 0.009450 -0.000528
v 0.000041 0.009450 -0.000528
v 0.000041 0.009450 -0.000528
v 0.000041 0.009359 0.000707
v 0.000041 0.009359 0.000707
v 0.000041 0.009359 0.000707
v 0.000040 0.009261 -0.005654
v 0.000040 0.009215 0.004614
v 0.000040 0.009215 0.004614
v 0.000040 0.009183 -0.002764
v 0.000040 0.009183 -0.002764
v 0.000040 0.009183 -0.002764
v 0.000039 0.009005 0.005034
v 0.000039 0.009005 0.005034
v 0.000039 0.009005 0.005034
v 0.000039 0.008954 -0.006262
v 0.000038 0.008782 0.002891
v 0.000038 0.008782 0.002891
v 0.000038 0.008782 0.002891
v 0.000036 0.008384 -0.004925
v 0.000036 0.008384 -0.004925
v 0.000036 0.008384 -0.004925
v 0.000036 0.008384 -0.004925
v 0.000036 0.008330 -0.007160
v 0.000036 0.008330 -0.007160
v 0.000036 0.008230 0.004080
v 0.000036 0.008230 0.004080
v 0.000036 0.008230 0.004080
v 0.000036 0.008216 0.006199
v 0.000036 0.008216 0.006199
v 0.000035 0.008021 0.006485
v 0.000035 0.008021 0.006485
v 0.000034 0.007905 -0.007773
v 0.000034 0.007905 -0.007773
v 0.000034 0.007905 -0.007773
v 0.000033 0.007613 -0.006238
v 0.000033 0.007613 -0.006238
v 0.000033 0.007613 -0.006238
v 0.000033 0.007549 0.005191
v 0.000033 0.007549 0.005191
v 0.000033 0.007549 0.005191
v 0.000033 0.007549 0.005191
v 0.000033 0.007549 0.005191
v 0.000032 0.007321 0.007324
v 0.000032 0.007321 0.007324
v 0.000031 0.007188 -0.008562
v 0.000031 0.007188 -0.008562
v 0.000030 0.006961 0.007681
v 0.000030 0.006961 0.007681
v 0.000030 0.006961 0.007681
v 0.000029 0.006693 -0.007445
v 0.000029 0.006693 -0.007445
v 0.000029 0.006693 -0.007445
v 0.000028 0.006509 -0.009307
v 0.000028 0.006509 -0.009307
v 0.000028 0.006509 -0.009307
v 0.000028 0.006446 0.006586
v 0.000028 0.006446 0.006586
v 0.000027 0.006270 0.008365
v 0.000027 0.006270 0.008365
v 0.000027 0.006132 -0.009632
v 0.000027 0.006132 -0.009632
v 0.000026 0.005909 0.008722
v 0.000022 0.005189 0.007830
v 0.000022 0.005189 0.007830
v 0.000022 0.005189 0.007830
v 0.000021 0.004870 -0.010716
v 0.000021 0.004870 -0.010716
v 0.000020 0.004534 0.009810
v 0.000020 0.004534 0.009810
v 0.000020 0.004534 0.009810
v 0.000019 0.004521 -0.010961
v 0.000019 0.004521 -0.010961
v 0.000019 0.004521 -0.010961
v 0.000019 0.004462 -0.009581
v 0.000019 0.004462 -0.009581
v 0.000019 0.004462 -0.009581
v 0.000019 0.004462 -0.009581
v 0.000019 0.004308 0.009990
v 0.000019 0.004308 0.009990
v 0.000016 0.003765 0.008969
v 0.000016 0.003765 0.008969
v 0.000015 0.003576 -0.011627
v 0.000015 0.003576 -0.011627
v 0.000015 0.003576 -0.011627
v 0.000015 0.003544 0.010508
v 0.000015 0.003544 0.010508
v 0.000013 0.002991 -0.010640
v 0.000013 0.002991 -0.010640
v 0.000013 0.002991 -0.010640
v 0.000012 0.002722 -0.012117
v 0.000011 0.002563 0.011074
v 0.000011 0.002563 0.011074
v 0.000010 0.002231 0.009974
v 0.000010 0.002231 0.009974
v 0.000008 0.001928 -0.012572
v 0.000008 0.001928 -0.012572
v 0.000006 0.001516 0.011677
v 0.000006 0.001422 -0.011516
v 0.000006 0.001422 -0.011516
v 0.000006 0.001381 -0.012886
v 0.000006 0.001381 -0.012886
v 0.000006 0.001381 -0.012886
v 0.000002 0.000581 0.012103
v 0.000002 0.000581 0.012103
v 0.000001 0.000332 -0.012124
v 0.000001 0.000332 -0.012124
v 0.000001 0.000332 -0.012124
v 0.000001 0.000206 0.011042
v 0.000001 0.000206 0.011042
v 0.000001 0.000206 0.011042
v -0.000002 -0.000310 -0.013637
v -0.000002 -0.000310 -0.013637
v -0.000003 -0.000663 0.012671
v -0.000003 -0.000663 0.012671
v -0.000005 -0.001015 -0.013950
v -0.000005 -0.001015 -0.013950
v -0.000005 -0.001015 -0.013950
v -0.000008 -0.001748 -0.013004
v -0.000008 -0.001748 -0.013004
v -0.000008 -0.001748 -0.013004
v -0.000008 -0.001748 -0.013004
v -0.000008 -0.001903 0.011918
v -0.000008 -0.001903 0.011918
v -0.000009 -0.001956 0.013129
v -0.000012 -0.002679 -0.014508
v -0.000012 -0.002679 -0.014508
v -0.000013 -0.002984 0.013493
v -0.000013 -0.002984 0.013493
v -0.000013 -0.002984 0.013493
v -0.000016 -0.003585 -0.014812
v -0.000016 -0.003585 -0.014812
v -0.000017 -0.003899 -0.013708
v -0.000017 -0.003899 -0.013708
v -0.000017 -0.003899 -0.013708
v -0.000017 -0.003899 -0.013708
v -0.000018 -0.004115 0.012627
v -0.000018 -0.004115 0.012627
v -0.000019 -0.004282 -0.015002
v -0.000020 -0.004634 0.013932
v -0.000023 -0.005167 -0.015190
v -0.000023 -0.005298 0.014109
v -0.000023 -0.005298 0.014109
v -0.000027 -0.006174 -0.014262
v -0.000027 -0.006174 -0.014262
v -0.000028 -0.006373 0.013162
v -0.000031 -0.006982 -0.015577
v -0.000031 -0.006982 -0.015577
v -0.000031 -0.006982 -0.015577
v -0.000031 -0.007131 -0.015609
v -0.000031 -0.007131 -0.015609
v -0.000033 -0.007447 0.014499
v -0.000035 -0.008070 0.014612
v -0.000037 -0.008477 -0.014650
v -0.000037 -0.008477 -0.014650
v -0.000037 -0.008477 -0.014650
v -0.000037 -0.008477 -0.014650
v -0.000040 -0.009010 0.013574
v -0.000040 -0.009010 0.013574
v -0.000040 -0.009050 0.014708
v -0.000040 -0.009050 0.014708
v -0.000043 -0.009853 -0.015946
v -0.000043 -0.009853 -0.015946
v -0.000044 -0.010062 -0.015971
v -0.000044 -0.010062 -0.015971
v -0.000044 -0.010062 -0.015971
v -0.000048 -0.010917 0.014890
v -0.000048 -0.010917 0.014890
v -0.000051 -0.011676 0.013775
v -0.000051 -0.011676 0.013775
v -0.000053 -0.012014 0.014921
v -0.000053 -0.012014 0.014921
v -0.000056 -0.012769 -0.016081
v -0.000056 -0.012769 -0.016081
v -0.000057 -0.012917 -0.014937
v -0.000057 -0.012917 -0.014937
v -0.000057 -0.012917 -0.014937
v -0.000057 -0.012917 0.013797
v -0.000057 -0.012917 -0.016087
v -0.000057 -0.012917 0.014947
vn -1.0000 0.0047 -0.0002
vn -1.0000 0.0048 -0.0000
vn -1.0000 0.0046 -0.0002
vn -1.0000 0.0044 -0.0003
vn -1.0000 0.0043 0.0002
vn -1.0000 0.0044 0.0001
vn -1.0000 0.0043 0.0005
vn -1.0000 0.0043 -0.0000
vn -1.0000 0.0041 -0.0001
vn -1.0000 0.0041 -0.0003
vn -1.0000 0.0043 -0.0001
vn -1.0000 0.0042 0.0001
vn -1.0000 0.0044 -0.0000
vn -1.0000 0.0045 -0.0001
vn -1.0000 0.0046 -0.0001
vn -1.0000 0.0044 -0.0002
vn -1.0000 0.0045 0.0002
vn -1.0000 0.0044 0.0002
vn -1.0000 0.0044 -0.0001
vn -1.0000 0.0041 -0.0006
vn -1.0000 0.0043 0.0001
vn -1.0000 0.0036 -0.0000
vn -1.0000 0.0045 -0.0000
vn -1.0000 0.0044 0.0004
vn -1.0000 0.0043 0.0003
vn -1.0000 0.0045 -0.0002
vn -1.0000 0.0040 0.0001
vn -1.0000 0.0042 -0.0000
vn -1.0000 0.0048 -0.0002
vn -1.0000 0.0041 0.0002
vn -1.0000 0.0041 -0.0002
vn -1.0000 0.0046 -0.0000
vn -1.0000 0.0047 -0.0001
vn -1.0000 0.0045 -0.0003
vn -1.0000 0.0045 0.0001
vn -1.0000 0.0040 0.0002
vn -1.0000 0.0042 -0.0001
vn -1.0000 0.0042 -0.0003
vn -1.0000 0.0039 0.0002
vn -1.0000 0.0042 0.0002
vn -1.0000 0.0043 0.0004
vn -1.0000 0.0042 0.0003
vn -1.0000 0.0042 -0.0005
vn -1.0000 0.0043 -0.0004
vn -1.0000 0.0042 -0.0002
vn -1.0000 0.0043 -0.0002
vn -1.0000 0.0047 0.0001
vn -1.0000 0.0046 0.0003
s 1
usemtl Mtl5_001
f 202//1 211//2 213//3
f 28//4 30//4 55//4
f 1//5 36//6 4//7
f 35//8 38//9 5//10
f 5//10 38//9 12//11
f 66//12 84//12 69//12
f 29//13 40//14 53//15
f 40//14 49//16 53//15
f 53//15 49//16 70//14
f 49//16 57//17 70//14
f 71//18 58//18 68//18
f 1//5 3//19 36//6
f 2//20 8//20 33//20
f 34//21 6//21 43//21
f 7//19 10//19 44//19
f 21//13 20//13 50//13
f 206//22 212//22 210//22
f 95//16 111//16 89//16
f 110//6 86//6 87//6
f 88//21 85//21 80//21
f 86//23 67//23 79//23
f 9//24 15//24 45//24
f 14//24 16//24 44//24
f 45//25 17//25 56//25
f 18//14 24//14 53//14
f 54//25 23//25 27//25
f 50//13 20//13 39//26
f 19//27 13//28 37//28
f 37//28 13//28 11//12
f 64//29 62//29 75//29
f 63//30 47//30 74//30
f 73//31 46//31 61//31
f 65//8 72//8 77//8
f 76//32 90//33 78//13
f 78//13 90//33 81//13
f 91//34 98//34 82//34
f 83//17 97//17 93//17
f 133//35 130//35 139//17
f 129//18 136//18 140//18
f 141//19 135//19 155//19
f 94//23 100//23 110//23
f 101//35 105//35 109//35
f 108//36 107//36 123//36
f 106//37 117//37 121//37
f 122//18 118//18 132//18
f 116//13 124//19 133//35
f 133//35 124//19 130//35
f 48//38 41//38 60//38
f 42//8 32//13 59//13
f 59//13 32//13 50//8
f 31//39 26//39 51//39
f 52//19 25//19 22//19
f 114//23 128//13 119//13
f 207//4 208//4 199//4
f 209//14 187//14 197//14
f 198//40 190//40 195//40
f 134//18 145//18 152//18
f 146//12 149//12 154//12
f 153//12 151//12 168//12
f 150//12 159//12 169//12
f 119//13 112//13 114//23
f 113//17 104//17 115//17
f 114//6 102//6 99//6
f 103//18 96//21 98//18
f 98//18 96//21 92//21
f 143//19 131//13 128//16
f 131//13 125//6 128//16
f 127//37 126//37 120//37
f 177//41 181//41 187//41
f 180//10 183//10 189//10
f 188//19 184//19 196//19
f 160//28 165//28 166//28
f 164//42 172//13 167//25
f 167//25 172//13 178//41
f 172//13 174//6 178//41
f 178//41 174//6 182//6
f 157//43 148//44 142//45
f 147//32 137//32 144//32
f 143//19 138//11 131//13
f 170//14 163//14 156//14
f 162//45 158//46 157//43
f 157//43 158//46 148//44
f 193//5 191//5 201//5
f 192//9 203//6 200//46
f 200//46 203//6 205//19
f 202//1 213//3 204//11
f 194//47 186//13 192//48
f 186//13 185//25 192//48
f 192//48 185//25 179//32
f 185//25 176//35 179//32
f 179//32 176//35 170//17
f 175//6 173//8 171//5
f 171//5 173//8 161//5
