# Blender 3.6.1
# www.blender.org
mtllib l6_0.mtl
o l6_0
v 0.002728 0.000101 0.002404
v 0.002728 -0.000073 0.007371
v 0.002723 -0.000077 0.007496
v 0.002708 -0.000082 0.007622
v 0.002679 0.000114 0.001997
v 0.002621 0.000119 0.001805
v 0.002415 0.000128 0.001406
v 0.002320 0.000130 0.001278
v 0.001947 0.000129 0.000912
v 0.001855 0.000128 0.000844
v 0.001323 0.000112 0.000560
v 0.001191 0.000107 0.000513
v 0.000545 0.000069 0.000380
v 0.000290 0.000050 0.000369
v -0.000367 -0.000010 0.000443
v -0.000575 -0.000038 0.000670
v -0.000644 -0.000040 0.000524
v -0.001184 -0.000108 0.000783
v -0.001409 -0.000375 0.007622
v -0.001437 -0.000144 0.000970
v -0.001468 -0.000149 0.000993
v -0.001793 -0.000214 0.001687
v -0.001793 -0.000214 0.001687
v -0.001793 -0.000214 0.001687
v -0.001802 -0.000203 0.001357
v -0.001802 -0.000203 0.001357
v -0.001907 -0.000223 0.001519
v -0.001907 -0.000223 0.001519
v -0.002076 -0.000259 0.001907
v -0.002076 -0.000259 0.001907
v -0.002129 -0.000468 0.007622
v -0.002133 -0.000276 0.002172
v -0.002149 -0.000287 0.002404
v -0.002149 -0.000462 0.007371
v 0.002470 0.000280 -0.002903
v 0.002418 0.000262 -0.002427
v 0.002410 0.000296 -0.003416
v 0.002358 0.000253 -0.002210
v 0.002349 0.000302 -0.003624
v 0.002138 0.000229 -0.001745
v 0.002123 0.000310 -0.004086
v 0.002123 0.000310 -0.004086
v 0.002018 0.000304 -0.004022
v 0.002018 0.000304 -0.004022
v 0.002015 0.000219 -0.001568
v 0.001994 0.000312 -0.004265
v 0.001994 0.000312 -0.004265
v 0.001652 0.000190 -0.001198
v 0.001627 0.000309 -0.004627
v 0.001474 0.000177 -0.001070
v 0.001450 0.000305 -0.004751
v 0.001011 0.000143 -0.000843
v 0.000988 0.000286 -0.004970
v 0.000803 0.000128 -0.000781
v 0.000774 0.000274 -0.005031
v 0.000290 0.000241 -0.005084
v 0.000290 0.000088 -0.000720
v -0.000207 0.000048 -0.000777
v -0.000224 0.000195 -0.005023
v -0.000421 0.000030 -0.000839
v -0.000434 0.000173 -0.004961
v -0.000885 -0.000009 -0.001063
v -0.000899 0.000118 -0.004733
v -0.001056 -0.000024 -0.001185
v -0.001076 0.000094 -0.004605
v -0.001423 -0.000054 -0.001551
v -0.001440 0.000039 -0.004234
v -0.001447 -0.000055 -0.001585
v -0.001458 0.000035 -0.004207
v -0.001548 -0.000063 -0.001726
v -0.001564 0.000017 -0.004055
v -0.001772 -0.000075 -0.002187
v -0.001781 -0.000026 -0.003591
v -0.001832 -0.000075 -0.002394
v -0.001842 -0.000042 -0.003369
v -0.001892 -0.000065 -0.002903
vn -0.1299 0.9909 0.0348
vn -0.1314 0.9907 0.0358
vn -0.0368 0.9987 0.0349
vn -0.0995 0.9944 0.0347
vn -0.0891 0.9948 0.0496
vn -0.1276 0.9912 0.0352
vn -0.1155 0.9925 0.0394
vn -0.1259 0.9914 0.0347
vn -0.1314 0.9907 0.0357
vn -0.1316 0.9907 0.0356
vn -0.1318 0.9906 0.0354
vn -0.1287 0.9911 0.0347
vn -0.1284 0.9911 0.0341
vn -0.0709 0.9971 0.0293
vn -0.0708 0.9970 0.0312
vn -0.0707 0.9969 0.0339
vn -0.0714 0.9968 0.0370
vn -0.0735 0.9963 0.0444
vn -0.0757 0.9957 0.0538
vn -0.0775 0.9949 0.0638
vn -0.0784 0.9943 0.0728
vn -0.0789 0.9936 0.0812
vn -0.0787 0.9930 0.0875
vn -0.0784 0.9926 0.0931
vn -0.0781 0.9947 0.0668
vn -0.0842 0.9921 0.0933
vn -0.0746 0.9941 0.0790
vn -0.0771 0.9923 0.0969
vn -0.1032 0.9932 0.0534
vn -0.0878 0.9952 0.0433
vn -0.1024 0.9941 0.0357
vn -0.0420 0.9984 0.0368
vn -0.0662 0.9972 0.0341
vn -0.0321 0.9989 0.0344
vn -0.0341 0.9988 0.0357
vn -0.0365 0.9986 0.0370
vn -0.0363 0.9987 0.0357
vn -0.0421 0.9985 0.0354
vn -0.0520 0.9978 0.0401
vn -0.0593 0.9973 0.0430
vn -0.0667 0.9967 0.0469
vn -0.0729 0.9960 0.0508
vn -0.0798 0.9952 0.0561
vn -0.0845 0.9946 0.0604
vn -0.0867 0.9942 0.0629
vn -0.0874 0.9941 0.0635
vn -0.0872 0.9942 0.0632
vn -0.0860 0.9945 0.0606
vn -0.0875 0.9946 0.0552
vn -0.0679 0.9975 0.0209
vn -0.0731 0.9972 0.0172
vn -0.0905 0.9944 0.0539
vn -0.0880 0.9949 0.0493
vn -0.0858 0.9953 0.0439
vn -0.0829 0.9959 0.0357
vn -0.0807 0.9964 0.0260
vn -0.0795 0.9967 0.0177
vn -0.0789 0.9968 0.0099
vn -0.0789 0.9969 0.0044
vn -0.0790 0.9969 0.0025
vn -0.0794 0.9968 -0.0025
vn -0.0801 0.9968 -0.0063
vn -0.0806 0.9967 -0.0083
vn -0.0804 0.9967 -0.0088
vn -0.0740 0.9972 0.0075
vn -0.0764 0.9971 0.0004
vn -0.0781 0.9969 -0.0102
vn -0.0752 0.9972 -0.0031
vn -0.0778 0.9970 -0.0062
vn -0.0790 0.9968 -0.0133
s 1
usemtl Mtl4
f 26//1 28//1 22//1
f 27//2 30//2 24//2
f 42//3 47//3 44//3
f 19//4 20//5 23//6
f 20//5 21//7 23//6
f 23//6 21//7 25//8
f 29//9 32//10 23//6
f 32//10 33//11 23//6
f 23//6 33//11 19//4
f 33//11 34//12 19//4
f 19//4 34//12 31//13
f 4//14 3//15 19//4
f 3//15 2//16 19//4
f 19//4 2//16 20//5
f 2//16 1//17 20//5
f 20//5 1//17 5//18
f 5//18 6//19 20//5
f 6//19 7//20 20//5
f 20//5 7//20 8//21
f 8//21 9//22 20//5
f 9//22 10//23 20//5
f 20//5 10//23 11//24
f 14//25 16//26 13//27
f 16//26 12//28 13//27
f 11//24 12//28 20//5
f 12//28 16//26 20//5
f 20//5 16//26 18//29
f 14//25 15//30 16//26
f 15//30 17//31 16//26
f 16//26 17//31 18//29
f 43//32 36//33 35//34
f 35//34 37//35 43//32
f 37//35 39//36 43//32
f 43//32 39//36 41//37
f 46//38 49//39 43//32
f 43//32 49//39 36//33
f 49//39 51//40 36//33
f 36//33 51//40 53//41
f 53//41 55//42 36//33
f 55//42 56//43 36//33
f 36//33 56//43 59//44
f 59//44 61//45 36//33
f 61//45 63//46 36//33
f 36//33 63//46 65//47
f 65//47 67//48 36//33
f 67//48 69//49 36//33
f 36//33 69//49 38//50
f 38//50 69//49 40//51
f 69//49 71//52 40//51
f 40//51 71//52 73//53
f 73//53 75//54 40//51
f 75//54 76//55 40//51
f 40//51 76//55 74//56
f 74//56 72//57 40//51
f 72//57 70//58 40//51
f 40//51 70//58 68//59
f 68//59 66//60 40//51
f 66//60 64//61 40//51
f 40//51 64//61 62//62
f 62//62 60//63 40//51
f 60//63 58//64 40//51
f 40//51 58//64 45//65
f 58//64 48//66 45//65
f 54//67 52//68 50//69
f 48//66 58//64 50//69
f 58//64 57//70 50//69
f 50//69 57//70 54//67
