# Blender 3.6.1
# www.blender.org
mtllib TableKnife.mtl
o TableKnife
v 0.142093 0.007402 0.000269
v 0.142371 0.007402 0.000002
v -0.002434 -0.006182 0.000002
v -0.131243 -0.005425 -0.002720
v -0.002573 -0.005656 -0.002676
v -0.131243 -0.006015 0.000002
v -0.130269 0.011793 -0.002730
v 0.110934 -0.008840 -0.000403
v -0.002573 0.008879 -0.002689
v -0.132355 0.009418 -0.003464
v -0.132355 -0.003152 -0.003464
v 0.135555 0.012898 -0.000413
v 0.129295 0.013141 0.000389
v 0.135555 0.012898 0.000413
v 0.008277 0.009302 0.000002
v 0.141814 0.004603 0.000002
v 0.141397 0.004770 0.000416
v -0.130408 0.012384 0.000002
v -0.137224 0.010548 0.003104
v -0.137224 0.011408 0.000002
v 0.140145 0.002279 -0.000420
v 0.137780 -0.000263 -0.000413
v 0.134581 -0.002497 -0.000413
v 0.074489 -0.011524 -0.000399
v 0.096606 -0.010342 -0.000403
v -0.137363 -0.005515 0.000002
v -0.130269 0.011793 0.002730
v -0.139450 0.009932 -0.002227
v -0.137224 0.010548 -0.003104
v -0.139450 -0.004321 0.002031
v -0.142371 0.002574 0.001585
v -0.141675 -0.001059 0.001678
v -0.137363 -0.005091 -0.002723
v -0.139450 -0.004321 -0.002031
v -0.141814 0.006426 0.001743
v -0.139450 0.009932 0.002227
v -0.140702 0.002716 0.003193
v -0.137363 -0.005091 0.002724
v 0.003269 -0.006503 0.001664
v 0.008138 -0.008827 0.000711
v -0.137363 -0.002382 -0.003464
v -0.137224 0.008275 -0.003464
v -0.137363 -0.002382 0.003464
v -0.132355 0.009418 0.003464
v -0.137224 0.008275 0.003464
v -0.002434 0.007428 0.003509
v 0.003269 -0.001432 0.001465
v 0.003408 0.003987 0.001465
v 0.008277 0.001290 0.000756
v 0.008277 0.009148 0.000639
v 0.012171 -0.011858 0.000571
v 0.014397 -0.012654 0.000571
v 0.022743 -0.013141 0.000002
v 0.022743 -0.012654 0.000379
v 0.074489 -0.012037 0.000002
v 0.022743 -0.012654 -0.000379
v 0.139032 0.011960 0.000351
v 0.096606 -0.010856 0.000002
v -0.132355 -0.003152 0.003464
v -0.002573 -0.005656 0.002675
v -0.002434 -0.004154 0.003509
v -0.131243 -0.005425 0.002720
v 0.129295 -0.004873 -0.000410
v 0.120949 -0.007055 -0.000403
v 0.129295 0.013141 -0.000389
v 0.141675 0.009135 0.000266
v 0.140702 0.010856 0.000362
v 0.141954 0.009277 0.000002
v 0.111073 -0.009354 0.000002
v 0.121088 -0.007556 0.000002
v 0.129295 -0.004873 0.000410
v 0.120949 -0.007055 0.000403
v 0.129434 -0.005373 0.000002
v -0.002434 -0.004154 -0.003509
v -0.002434 0.007428 -0.003509
v 0.003269 -0.001432 -0.001465
v 0.134581 -0.002497 0.000413
v 0.134859 -0.002960 0.000002
v 0.140563 0.001984 0.000002
v 0.137780 -0.000263 0.000413
v 0.138059 -0.000661 0.000002
v 0.140145 0.002279 0.000420
v 0.003408 0.009405 0.000002
v -0.002573 0.008879 0.002689
v 0.003408 0.009058 0.001664
v -0.002434 0.009469 0.000002
v 0.014397 -0.013000 0.000002
v 0.012171 -0.011858 -0.000571
v 0.014397 -0.012654 -0.000571
v 0.012171 -0.012204 0.000002
v 0.142093 0.007402 -0.000269
v 0.141397 0.004770 -0.000417
v 0.141675 0.009135 -0.000262
v 0.003269 -0.006863 0.000002
v 0.008138 -0.008827 -0.000711
v 0.008138 -0.008827 0.000002
v 0.003269 -0.006503 -0.001664
v 0.003408 0.003987 -0.001465
v 0.008277 0.009148 -0.000639
v 0.008277 0.001290 -0.000756
v 0.003408 0.009058 -0.001664
v 0.139032 0.011935 -0.000485
v 0.140841 0.010933 0.000002
v 0.140702 0.010856 -0.000362
v 0.096606 -0.010342 0.000403
v 0.074489 -0.011524 0.000399
v 0.110934 -0.008840 0.000403
v -0.140702 0.002716 -0.003193
v -0.142371 0.002574 -0.001585
v -0.141814 0.006426 -0.001743
v -0.141675 -0.001059 -0.001678
v 0.105787 0.011870 -0.000413
v 0.013145 0.009123 0.000478
v 0.105787 0.011870 0.000413
v 0.013145 0.009123 -0.000478
vn 0.2244 0.0451 -0.9735
vn 0.1406 0.2427 -0.9599
vn 0.1512 0.1240 -0.9807
vn 0.1511 0.1240 -0.9807
vn 0.2384 0.0126 -0.9711
vn 0.2244 0.0450 -0.9735
vn 0.2096 -0.0361 -0.9771
vn 0.0774 -0.0004 -0.9970
vn 0.1036 0.0024 -0.9946
vn 0.1036 0.0023 -0.9946
vn 0.2354 -0.0164 -0.9718
vn -0.0061 0.1481 -0.9890
vn 0.0015 0.3414 -0.9399
vn -0.1870 0.1993 -0.9619
vn -0.1806 0.1250 -0.9756
vn -0.1873 0.1993 0.9619
vn -0.1806 0.1250 0.9756
vn -0.4061 0.1747 0.8970
vn -0.4285 -0.0112 -0.9035
vn -0.1807 0.1250 -0.9756
vn -0.4064 0.1744 -0.8969
vn -0.4775 0.1480 -0.8661
vn -0.4285 -0.0113 -0.9035
vn -0.4286 -0.0112 -0.9034
vn -0.4912 -0.1802 -0.8522
vn -0.4120 -0.2304 -0.8816
vn -0.1861 -0.1624 -0.9690
vn -0.4119 -0.2304 0.8816
vn -0.1862 -0.1624 0.9690
vn -0.1926 -0.2742 0.9422
vn -0.1922 -0.2745 -0.9422
vn -0.0112 -0.3533 -0.9355
vn -0.0112 -0.3533 -0.9354
vn -0.0104 -0.1715 -0.9851
vn -0.0112 -0.3532 -0.9355
vn 0.1383 -0.2449 -0.9596
vn 0.1485 -0.1289 -0.9805
vn 0.1486 -0.1290 -0.9805
vn 0.2244 0.0450 0.9735
vn 0.2383 0.0125 0.9711
vn 0.1512 0.1239 0.9807
vn 0.1539 0.1239 0.9803
vn 0.1406 0.2426 0.9599
vn 0.1486 -0.1289 -0.9805
vn 0.0774 -0.0004 0.9970
vn 0.1036 0.0024 0.9946
vn -0.0904 -0.3032 0.9486
vn -0.4288 -0.0114 0.9033
vn -0.1807 0.1250 0.9756
vn 0.0077 -0.3717 -0.9283
vn -0.0852 -0.4806 -0.8728
vn -0.1385 -0.7948 -0.5908
vn -0.1385 -0.7949 -0.5908
vn 0.0072 -0.6869 -0.7267
vn -0.0104 -0.1714 -0.9851
vn 0.1405 0.2427 -0.9599
vn 0.2354 -0.0164 0.9718
vn 0.2384 0.0125 0.9711
vn 0.0455 -0.3256 0.9444
vn 0.0003 -0.0008 1.0000
vn -0.0008 0.0004 1.0000
vn -0.0010 0.0005 1.0000
vn 0.0709 -0.3219 0.9441
vn 0.0125 -0.3277 0.9447
vn 0.0077 -0.3699 0.9290
vn 0.0259 0.0027 0.9997
vn 0.3785 -0.1121 0.9188
vn 0.3067 -0.2076 0.9289
vn 0.3853 0.3956 0.8337
vn 0.3854 0.3956 0.8337
vn 0.4204 0.1702 0.8912
vn 0.3785 -0.1122 0.9188
vn 0.0254 0.9871 -0.1582
vn -0.0009 0.9988 -0.0485
vn -0.0015 0.9994 -0.0348
vn 0.0225 0.9993 0.0301
vn 0.0254 0.9871 -0.1583
vn 0.4532 0.0164 0.8913
vn 0.4204 0.1701 0.8912
vn 0.6821 0.2875 0.6724
vn 0.6767 0.0080 0.7362
vn -0.9821 -0.1881 -0.0000
vn -0.9206 -0.3905 -0.0000
vn -0.0343 -0.9807 -0.1927
vn -0.2502 -0.9598 -0.1271
vn -0.2533 -0.9674 -0.0011
vn -0.2533 -0.9674 -0.0012
vn -0.0344 -0.9994 -0.0000
vn 0.0263 -0.3300 -0.9436
vn 0.0457 -0.3276 -0.9437
vn -0.0000 -0.0005 -1.0000
vn 0.0002 -0.0006 -1.0000
vn 0.0125 -0.3299 -0.9439
vn 0.0004 -0.0006 -1.0000
vn 0.0003 -0.0006 -1.0000
vn 0.0259 0.0027 -0.9997
vn 0.0078 -0.3717 -0.9283
vn -0.8291 0.5591 -0.0000
vn -0.6478 0.7596 -0.0583
vn -0.6147 0.7866 0.0576
vn -0.9289 0.3703 -0.0000
vn -0.8291 0.5592 -0.0000
vn 0.0711 -0.3243 -0.9433
vn -0.0009 0.0004 -1.0000
vn 0.0006 -0.0007 -1.0000
vn 0.0458 -0.3276 -0.9437
vn 0.0710 -0.3243 -0.9433
vn 0.1126 -0.3195 0.9409
vn 0.1694 -0.3015 -0.9383
vn -0.0060 -0.0004 -1.0000
vn -0.0008 0.0004 -1.0000
vn -0.0008 0.0001 -1.0000
vn 0.1135 -0.3217 -0.9400
vn 0.3809 -0.1130 -0.9177
vn 0.3220 -0.2114 -0.9228
vn 0.5355 -0.3696 -0.7594
vn 0.6384 -0.2169 -0.7385
vn -0.0625 0.9716 -0.2281
vn -0.0671 0.9977 -0.0000
vn -0.2973 0.9548 -0.0035
vn -0.3077 0.9346 -0.1782
vn -0.0624 0.9716 -0.2281
vn -0.6210 -0.7832 0.0297
vn -0.6384 -0.7690 -0.0320
vn 0.0228 -0.6162 -0.7873
vn 0.0228 -0.6162 -0.7872
vn 0.2365 -0.2701 -0.9333
vn 0.0382 0.0458 -0.9982
vn -0.6477 0.7596 -0.0583
vn 0.4067 0.3938 -0.8243
vn 0.3221 -0.2114 -0.9228
vn 0.4220 0.1708 -0.8904
vn 0.4067 0.3938 -0.8244
vn 0.6370 0.5733 -0.5153
vn 0.4220 0.1710 -0.8903
vn 0.4220 0.1709 -0.8903
vn 0.6834 0.2887 -0.6705
vn 0.6371 0.5732 -0.5153
vn 0.4538 0.0168 -0.8909
vn 0.6795 0.0080 -0.7336
vn 0.4539 0.0168 -0.8909
vn 0.0152 0.9773 -0.2114
vn 0.0225 0.9993 0.0302
vn 0.0165 0.9999 0.0004
vn -0.0600 -0.9982 -0.0000
vn -0.2607 -0.9654 0.0004
vn -0.2317 -0.9574 -0.1725
vn -0.0512 -0.9785 -0.1997
vn 0.6296 0.5821 0.5146
vn 0.0360 0.0528 0.9980
vn 0.2387 -0.2664 0.9338
vn 0.1712 -0.2991 0.9387
vn 0.0033 0.0011 1.0000
vn 0.0032 0.0011 1.0000
vn 0.2387 -0.2664 0.9339
vn -0.0010 0.0004 1.0000
vn 0.1712 -0.2991 0.9388
vn -0.0008 0.0001 1.0000
vn -0.5093 -0.8606 0.0004
vn -0.2316 -0.9574 0.1727
vn -0.4947 -0.8518 0.1726
vn -0.0512 -0.9785 0.1999
vn -0.0344 -0.9806 0.1931
vn 0.3716 0.9282 -0.0206
vn 0.1519 0.9884 -0.0076
vn 0.1529 0.9882 -0.0076
vn 0.3724 0.9279 -0.0206
vn 0.3717 0.9281 -0.0206
vn 0.6355 -0.2159 0.7413
vn -0.6061 -0.7677 0.2082
vn -0.6195 -0.7850 0.0004
vn -0.5094 -0.8606 0.0004
vn -0.2150 -0.9624 0.1662
vn 0.0015 0.3414 0.9399
vn -0.0060 0.1482 0.9889
vn 0.0475 -0.6148 -0.7872
vn 0.0872 -0.6067 -0.7901
vn -0.0512 -0.9785 -0.1996
vn 0.0158 0.9999 -0.0000
vn -0.0670 0.9978 -0.0000
vn 0.0161 0.9772 -0.2117
vn 0.0873 -0.6067 -0.7901
vn 0.1323 -0.5996 -0.7893
vn -0.2429 0.9381 0.2471
vn 0.3091 -0.5401 -0.7828
vn 0.4157 -0.4823 -0.7711
vn 0.0163 0.9999 0.0003
vn 0.0161 0.9999 0.0001
vn 0.0157 0.9772 -0.2116
vn 0.0187 0.9745 0.2234
vn -0.0015 0.9994 -0.0347
vn -0.0419 0.9991 -0.0000
vn -0.0072 1.0000 -0.0000
vn -0.0072 1.0000 0.0002
vn 0.1511 0.1239 0.9807
vn 0.1485 -0.1290 0.9805
vn -0.0104 -0.1715 0.9851
vn -0.0060 0.1481 0.9890
vn -0.9897 0.1431 -0.0000
vn 0.3723 0.9279 -0.0206
vn 0.4897 0.8715 -0.0268
vn 0.0153 0.9772 0.2117
vn 0.0153 0.9772 0.2118
vn 0.5329 -0.3682 0.7619
vn 0.3068 -0.2076 0.9289
vn 0.0161 0.9771 0.2122
vn -0.0623 0.9716 0.2284
vn 0.4066 0.3938 -0.8244
vn 0.2029 -0.5824 -0.7872
vn -0.2501 -0.9598 -0.1271
vn -0.0907 -0.3041 -0.9483
vn 0.1107 -0.0004 -0.9939
vn -0.4909 -0.1805 0.8523
vn -0.4118 -0.2304 0.8816
vn -0.4910 -0.1805 0.8523
vn -0.6924 -0.0188 0.7212
vn -0.4773 0.1481 0.8662
vn -0.4910 -0.1804 0.8523
vn -0.6061 -0.7679 -0.2072
vn -0.4948 -0.8519 -0.1716
vn -0.0112 -0.3532 0.9355
vn 0.1485 -0.1291 0.9805
vn 0.2096 -0.0361 0.9771
vn 0.1384 -0.2449 0.9596
vn -0.4286 -0.0113 -0.9034
vn 0.1485 -0.1291 0.9804
vn 0.2383 0.0126 -0.9711
vn 0.2244 0.0451 0.9735
vn 0.1107 -0.0004 0.9939
vn -0.0850 -0.4794 0.8735
vn -0.0850 -0.4795 0.8734
vn -0.1383 -0.7928 0.5935
vn -0.2922 -0.8168 0.4975
vn 0.0072 -0.6839 0.7295
vn 0.0228 -0.6127 0.7900
vn 0.0292 -0.3278 0.9443
vn 0.0191 -0.3275 0.9446
vn 0.0475 -0.6116 0.7897
vn -0.0851 -0.4806 -0.8728
vn 0.2386 -0.2664 0.9338
vn 0.0360 0.0529 0.9980
vn 0.0454 -0.3256 0.9444
vn 0.0865 -0.6035 0.7927
vn 0.0476 -0.6116 0.7898
vn 0.0258 -0.3281 0.9443
vn 0.0454 -0.3257 0.9444
vn -0.0112 -0.3533 0.9355
vn -0.0010 0.0008 -1.0000
vn 0.4204 0.1701 0.8913
vn 0.3075 -0.5370 0.7855
vn 0.2014 -0.5796 0.7896
vn 0.0710 -0.3219 0.9441
vn 0.1319 -0.5967 0.7916
vn 0.1318 -0.5967 0.7916
vn 0.2355 -0.0164 -0.9717
vn 0.1711 -0.2991 0.9388
vn 0.4140 -0.4794 0.7738
vn 0.4139 -0.4795 0.7738
vn 0.0157 0.9772 0.2120
vn -0.2926 -0.8179 -0.4953
vn -0.2926 -0.8180 -0.4952
vn 0.4220 0.1709 -0.8904
vn -0.0001 -0.0005 1.0000
vn -0.4775 0.1479 -0.8661
vn -0.6929 -0.0191 -0.7208
vt 0.498341 0.496072
vt 0.498358 0.516618
vt 0.503728 0.496109
vt 0.515378 0.516740
vt 0.558584 0.532822
vt 0.550874 0.515988
vt 0.524545 0.533266
vt 0.533765 0.516345
vt 0.489039 0.066444
vt 0.497259 0.059410
vt 0.493352 0.042954
vt 0.501044 0.043075
vt 0.696342 0.046381
vt 0.704033 0.046260
vt 0.702188 0.037957
vt 0.519760 0.031800
vt 0.495198 0.034651
vt 0.507225 0.026198
vt 0.532691 0.026740
vt 0.543915 0.034572
vt 0.536885 0.042645
vt 0.660501 0.045951
vt 0.653471 0.037878
vt 0.651103 0.045676
vt 0.546283 0.042370
vt 0.547380 0.063124
vt 0.539379 0.059384
vt 0.547947 0.495912
vt 0.542569 0.496071
vt 0.682007 0.520045
vt 0.699027 0.519923
vt 0.693657 0.499414
vt 0.699044 0.499377
vt 0.672840 0.536571
vt 0.638801 0.536127
vt 0.628645 0.549700
vt 0.677626 0.035106
vt 0.571321 0.553863
vt 0.571271 0.581891
vt 0.573520 0.553723
vt 0.573155 0.581862
vt 0.663620 0.519650
vt 0.708013 0.864658
vt 0.637957 0.881341
vt 0.710201 0.944587
vt 0.643050 0.914886
vt 0.626110 0.585197
vt 0.629568 0.759117
vt 0.699158 0.552973
vt 0.672368 0.979832
vt 0.680543 0.984347
vt 0.700997 0.983335
vt 0.695096 0.986384
vt 0.443865 0.558848
vt 0.444386 0.542485
vt 0.440657 0.558860
vt 0.442180 0.542477
vt 0.689180 0.987419
vt 0.695608 0.987636
vt 0.689100 0.988729
vt 0.302146 0.764149
vt 0.302457 0.776586
vt 0.313428 0.764149
vt 0.313117 0.776586
vt 0.316981 0.743305
vt 0.317198 0.722568
vt 0.307787 0.742959
vt 0.307829 0.722453
vt 0.559437 0.878031
vt 0.564086 0.830044
vt 0.489376 0.861355
vt 0.567819 0.755810
vt 0.498226 0.549668
vt 0.448934 0.044905
vt 0.447645 0.030654
vt 0.433923 0.044524
vt 0.435930 0.030358
vt 0.487213 0.941295
vt 0.554354 0.911574
vt 0.649346 0.943054
vt 0.488821 0.962655
vt 0.540439 0.957529
vt 0.548071 0.939744
vt 0.525062 0.976524
vt 0.516896 0.981052
vt 0.526387 0.978312
vt 0.517710 0.982903
vt 0.441093 0.076269
vt 0.450506 0.076620
vt 0.441248 0.053381
vt 0.451898 0.052689
vt 0.300944 0.750894
vt 0.314630 0.750858
vt 0.569912 0.755766
vt 0.533287 0.968379
vt 0.492545 0.974534
vt 0.496434 0.980069
vt 0.502348 0.983113
vt 0.495755 0.981140
vt 0.501841 0.984367
vt 0.508347 0.985453
vt 0.508266 0.984136
vt 0.447865 0.526123
vt 0.442147 0.526112
vt 0.308892 0.270007
vt 0.308846 0.289441
vt 0.314617 0.270314
vt 0.318011 0.290034
vt 0.701695 0.984370
vt 0.704969 0.977826
vt 0.656981 0.960840
vt 0.664138 0.971689
vt 0.708602 0.965945
vt 0.308937 0.252280
vt 0.303177 0.270286
vt 0.306599 0.252274
vt 0.299690 0.289991
vt 0.298472 0.722524
vt 0.441617 0.970579
vt 0.441690 0.982686
vt 0.444394 0.970607
vt 0.444502 0.982740
vt 0.679734 0.986192
vt 0.308996 0.234596
vt 0.306937 0.235323
vt 0.298585 0.743263
vt 0.708346 0.069750
vt 0.700126 0.062716
vt 0.566267 0.829996
vt 0.561751 0.878486
vt 0.442120 0.506470
vt 0.451385 0.506027
vt 0.556524 0.912097
vt 0.430567 0.052499
vt 0.535044 0.969621
vt 0.542439 0.958661
vt 0.439976 0.542496
vt 0.444977 0.870400
vt 0.442200 0.870399
vt 0.444512 0.949546
vt 0.441897 0.949527
vt 0.654816 0.499376
vt 0.658006 0.062691
vt 0.436790 0.017293
vt 0.447445 0.017562
vt 0.442836 0.989682
vt 0.436440 0.526140
vt 0.671049 0.981615
vt 0.432865 0.506046
vt 0.431691 0.076571
vt 0.550411 0.940363
vt 0.568739 0.546394
vt 0.498106 0.533319
vt 0.664695 0.030046
vt 0.677036 0.027756
vt 0.690160 0.029504
vt 0.311061 0.235336
vt 0.311286 0.252287
vt 0.650006 0.066430
vt 0.646511 0.519293
vt 0.649438 0.499217
vt 0.699279 0.536624
vt 0.626062 0.557168
vt 0.626397 0.549390
vt 0.623872 0.557030
vt 0.624232 0.585168
vt 0.627480 0.759072
vt 0.633303 0.833352
vt 0.631129 0.833305
vt 0.635651 0.881796
vt 0.654988 0.961969
vt 0.647015 0.943672
vt 0.640887 0.915408
vt 0.662387 0.972927
vt 0.570997 0.546082
vt 0.520350 0.024450
s 1
usemtl M_TableKnife
f 9/1/1 101/2/2 75/3/3
f 98/4/4 75/3/5 101/2/6
f 95/5/7 97/6/8 100/7/9
f 76/8/10 100/7/11 97/6/7
f 7/9/12 10/10/13 29/11/14
f 42/12/14 29/11/15 10/10/12
f 45/13/16 19/14/17 36/15/18
f 42/12/19 108/16/20 28/17/21
f 110/18/21 28/17/22 108/16/23
f 111/19/24 108/16/25 34/20/26
f 41/21/26 34/20/27 108/16/19
f 43/22/28 30/23/29 38/24/30
f 33/25/27 41/21/31 4/26/32
f 11/27/33 4/26/34 41/21/27
f 5/28/35 4/26/36 74/29/37
f 11/27/38 74/29/34 4/26/35
f 48/30/39 85/31/40 46/32/41
f 84/33/42 46/32/43 85/31/39
f 5/28/44 74/29/36 97/6/7
f 76/8/7 97/6/11 74/29/38
f 49/34/45 40/35/46 51/36/47
f 45/13/48 37/37/49 43/22/29
f 89/38/50 56/39/51 87/40/52
f 53/41/53 87/40/54 56/39/50
f 74/29/34 11/27/38 75/3/3
f 10/10/4 75/3/12 11/27/55
f 75/3/12 10/10/4 9/1/2
f 7/9/56 9/1/13 10/10/12
f 48/30/57 47/42/58 49/34/46
f 114/43/59 107/44/60 13/45/61
f 72/46/62 13/45/63 107/44/59
f 54/47/64 106/48/65 113/49/66
f 114/43/66 113/49/60 106/48/64
f 82/50/67 17/51/68 67/52/69
f 66/53/70 67/52/71 17/51/72
f 115/54/73 99/55/74 113/56/75
f 15/57/75 113/56/76 99/55/77
f 66/53/78 1/58/79 68/59/80
f 2/60/80 68/59/81 1/58/78
f 32/61/82 31/62/83 111/63/83
f 109/64/83 111/63/82 31/62/82
f 33/65/84 4/66/85 26/67/86
f 6/68/87 26/67/88 4/66/84
f 8/69/89 25/70/90 112/71/91
f 24/72/92 112/71/93 25/70/89
f 24/72/50 56/39/93 112/71/94
f 115/73/95 112/71/96 56/39/97
f 28/74/98 110/75/99 36/76/100
f 35/77/100 36/76/101 110/75/102
f 65/78/103 64/79/104 112/71/95
f 8/69/105 112/71/106 64/79/107
f 13/45/63 72/46/62 71/80/108
f 12/81/109 23/82/110 65/78/111
f 63/83/112 65/78/113 23/82/109
f 21/84/114 92/85/115 79/86/116
f 16/87/116 79/86/117 92/85/114
f 18/88/118 7/89/119 20/90/120
f 29/91/120 20/90/121 7/89/122
f 32/61/83 111/63/83 30/92/123
f 34/93/123 30/92/124 111/63/83
f 53/41/97 56/39/54 55/94/125
f 24/72/126 55/94/93 56/39/50
f 22/95/109 23/82/127 102/96/128
f 12/81/128 102/96/110 23/82/109
f 20/90/121 29/91/120 36/76/100
f 28/74/100 36/76/129 29/91/121
f 21/84/130 104/97/131 92/85/114
f 93/98/114 92/85/132 104/97/133
f 104/97/134 103/99/133 93/98/135
f 68/100/136 93/98/137 103/99/138
f 2/101/139 91/102/140 68/100/137
f 93/98/137 68/100/136 91/102/141
f 16/87/114 92/85/117 2/101/140
f 91/102/140 2/101/139 92/85/114
f 99/55/142 101/103/77 15/57/143
f 83/104/143 15/57/144 101/103/142
f 94/105/145 3/106/146 97/107/147
f 5/108/147 97/107/148 3/106/145
f 67/52/149 103/109/70 57/110/150
f 17/51/78 1/58/72 66/53/71
f 77/111/151 80/112/152 14/113/153
f 57/110/154 14/113/150 80/112/155
f 14/113/156 13/45/154 77/111/157
f 71/80/152 77/111/108 13/45/158
f 94/105/159 96/114/146 39/115/160
f 40/116/160 39/115/161 96/114/159
f 60/117/145 3/106/162 39/115/160
f 94/105/160 39/115/146 3/106/145
f 3/106/162 60/117/145 6/68/88
f 62/118/88 6/68/163 60/117/162
f 14/119/164 57/120/165 12/121/166
f 102/122/166 12/121/167 57/120/168
f 1/58/72 17/51/78 2/60/81
f 16/123/81 2/60/169 17/51/67
f 90/124/170 51/125/171 96/114/159
f 40/116/172 96/114/161 51/125/170
f 6/68/163 62/118/88 26/67/87
f 38/126/86 26/67/173 62/118/163
f 27/127/16 19/14/174 44/128/175
f 45/13/175 44/128/49 19/14/16
f 58/129/89 25/70/176 69/130/177
f 8/69/177 69/130/90 25/70/89
f 3/106/88 6/68/145 5/108/178
f 4/66/178 5/108/84 6/68/88
f 18/88/179 86/131/180 7/89/118
f 9/132/118 7/89/181 86/131/179
f 30/92/86 26/67/123 38/126/173
f 70/133/182 69/130/183 64/79/107
f 8/69/107 64/79/106 69/130/177
f 36/76/184 19/134/100 20/90/120
f 81/135/185 78/136/186 22/95/127
f 23/82/127 22/95/109 78/136/185
f 86/131/187 83/104/188 9/132/189
f 101/103/181 9/132/189 83/104/188
f 81/135/127 22/95/186 79/86/116
f 21/84/116 79/86/131 22/95/127
f 15/57/190 50/137/143 113/56/191
f 41/21/20 42/12/27 11/27/34
f 10/10/34 11/27/12 42/12/20
f 112/138/192 114/139/192 65/140/193
f 13/141/193 65/140/193 114/139/192
f 12/121/194 65/140/166 14/119/165
f 13/141/165 14/119/193 65/140/193
f 61/142/195 46/32/196 59/143/197
f 44/128/197 59/143/198 46/32/41
f 31/144/101 35/77/199 109/145/199
f 110/75/199 109/145/199 35/77/101
f 102/122/164 57/120/200 103/146/201
f 83/104/202 85/147/144 15/57/76
f 50/137/143 15/57/190 85/147/203
f 82/50/204 79/148/205 17/51/72
f 16/123/72 17/51/169 79/148/204
f 84/149/179 86/131/206 27/150/207
f 18/88/207 27/150/180 86/131/179
f 18/88/120 20/90/119 27/150/207
f 19/134/207 27/150/184 20/90/120
f 102/96/208 104/97/128 22/95/127
f 21/84/127 22/95/131 104/97/130
f 23/82/185 78/136/109 63/83/113
f 73/151/113 63/83/209 78/136/185
f 24/72/89 25/70/93 55/94/125
f 58/129/125 55/94/176 25/70/89
f 33/65/86 26/67/210 34/93/124
f 30/92/124 34/93/123 26/67/87
f 84/33/174 27/127/43 46/32/41
f 44/128/195 46/32/198 27/127/174
f 88/152/10 100/7/211 115/73/96
f 99/153/96 115/73/212 100/7/10
f 28/17/14 29/11/21 42/12/20
f 32/154/28 30/23/213 37/37/48
f 43/22/48 37/37/29 30/23/214
f 31/155/215 32/154/216 35/156/217
f 37/37/217 35/156/48 32/154/218
f 90/124/159 96/114/171 88/157/219
f 95/158/219 88/157/220 96/114/172
f 33/25/26 34/20/31 41/21/27
f 35/156/48 37/37/217 36/15/18
f 45/13/18 36/15/49 37/37/48
f 62/159/197 59/143/221 38/24/30
f 43/22/30 38/24/29 59/143/197
f 47/42/222 61/142/57 39/160/223
f 60/161/223 39/160/224 61/142/222
f 39/160/45 40/35/223 47/42/57
f 49/34/57 47/42/46 40/35/45
f 88/152/8 95/5/211 100/7/10
f 41/21/225 108/16/27 42/12/20
f 43/22/197 59/143/29 45/13/49
f 44/128/49 45/13/175 59/143/197
f 63/83/209 73/151/113 64/79/107
f 70/133/107 64/79/183 73/151/209
f 46/32/196 61/142/195 48/30/58
f 47/42/58 48/30/57 61/142/226
f 100/7/11 76/8/10 98/4/227
f 48/30/46 49/34/58 85/31/228
f 50/162/39 85/31/229 49/34/46
f 113/49/229 50/162/66 51/36/47
f 49/34/47 51/36/46 50/162/229
f 54/47/66 113/49/65 52/163/230
f 51/36/231 52/163/47 113/49/66
f 90/164/232 87/165/233 51/36/47
f 52/163/47 51/36/231 87/165/232
f 54/47/230 52/163/65 53/166/234
f 87/165/234 53/166/232 52/163/230
f 106/48/65 54/47/64 55/167/235
f 53/166/235 55/167/234 54/47/65
f 105/168/236 106/48/237 58/169/238
f 55/167/238 58/169/235 106/48/64
f 88/152/96 115/73/211 89/38/239
f 56/39/51 89/38/50 115/73/96
f 80/112/68 82/50/240 57/110/241
f 67/52/241 57/110/69 82/50/68
f 69/170/242 107/44/243 58/169/244
f 105/168/238 58/169/245 107/44/246
f 59/143/221 62/159/197 61/142/222
f 60/161/196 61/142/224 62/159/247
f 63/83/103 64/79/113 65/78/248
f 66/53/80 68/59/249 67/52/70
f 103/109/70 67/52/149 68/59/80
f 77/111/108 71/80/152 78/171/250
f 73/172/250 78/171/251 71/80/108
f 72/46/59 107/44/252 70/173/253
f 69/170/254 70/173/243 107/44/242
f 70/173/251 73/172/253 72/46/63
f 71/80/252 72/46/108 73/172/251
f 98/4/11 76/8/5 75/3/3
f 74/29/3 75/3/44 76/8/255
f 77/111/250 78/171/256 80/112/151
f 81/174/151 80/112/257 78/171/250
f 79/148/205 82/50/204 81/174/258
f 80/112/257 81/174/151 82/50/68
f 83/104/188 86/131/187 85/147/259
f 84/149/203 85/147/259 86/131/187
f 87/40/260 90/175/52 89/38/51
f 88/152/51 89/38/211 90/175/261
f 91/102/114 92/85/141 93/98/262
f 94/105/147 97/107/146 96/114/159
f 95/158/159 96/114/220 97/107/147
f 98/4/1 101/2/5 100/7/9
f 99/153/10 100/7/212 101/2/6
f 102/96/134 103/99/128 104/97/208
f 105/168/236 107/44/245 106/48/237
f 114/43/64 106/48/263 107/44/59
f 108/16/25 111/19/24 110/18/264
f 109/176/264 110/18/265 111/19/25
f 112/138/74 115/54/192 114/139/192
f 113/56/192 114/139/75 115/54/74
