# Blender 3.6.1
# www.blender.org
mtllib base_5.mtl
o base_5
v -0.045413 -0.045005 0.365438
v -0.045413 -0.045005 0.365438
v -0.045413 -0.045005 0.365438
v 0.062929 -0.069633 0.241880
v 0.062929 -0.069633 0.241880
v 0.062929 -0.069633 0.241880
v -0.003424 -0.069633 0.244982
v -0.003424 -0.069633 0.244982
v -0.003424 -0.069633 0.244982
v -0.061169 0.034369 -0.449043
v -0.061169 0.034369 -0.449043
v -0.061169 0.034369 -0.449043
v -0.049639 0.032364 -0.449582
v -0.049639 0.032364 -0.449582
v -0.049639 0.032364 -0.449582
v 0.067453 -0.040502 0.360161
v 0.067453 -0.040502 0.360161
v 0.067453 -0.040502 0.360161
v 0.029348 -0.040502 0.361943
v 0.029348 -0.040502 0.361943
v 0.029348 -0.040502 0.361943
v 0.064894 -0.040502 0.283917
v 0.064894 -0.040502 0.283917
v 0.064894 -0.040502 0.283917
v 0.064894 -0.040502 0.283917
v 0.025786 -0.040502 0.285745
v 0.025786 -0.040502 0.285745
v 0.025786 -0.040502 0.285745
v 0.025786 -0.040502 0.285745
v -0.048976 -0.045005 0.289240
v -0.048976 -0.045005 0.289240
v -0.048976 -0.045005 0.289240
v -0.074326 -0.045005 0.366789
v -0.074326 -0.045005 0.366789
v -0.074326 -0.045005 0.366789
v 0.013721 -0.035358 0.286309
v 0.013721 -0.035358 0.286309
v 0.013721 -0.035358 0.286309
v 0.017283 -0.035357 0.362507
v 0.017283 -0.035357 0.362507
v 0.017283 -0.035357 0.362507
v 0.003961 -0.032364 0.363129
v 0.003961 -0.032364 0.363129
v 0.003961 -0.032364 0.363129
v -0.009689 -0.032030 0.363768
v -0.009689 -0.032030 0.363768
v -0.009689 -0.032030 0.363768
v -0.023142 -0.034369 0.364396
v -0.023142 -0.034369 0.364396
v -0.023142 -0.034369 0.364396
v -0.035881 -0.039290 0.364992
v -0.035881 -0.039290 0.364992
v -0.035881 -0.039290 0.364992
v -0.039443 -0.039290 0.288794
v -0.039443 -0.039290 0.288794
v -0.039443 -0.039290 0.288794
v -0.039443 -0.039290 0.288794
v -0.026704 -0.034369 0.288199
v -0.026704 -0.034369 0.288199
v -0.026704 -0.034369 0.288199
v -0.013252 -0.032030 0.287570
v -0.013252 -0.032030 0.287570
v -0.013252 -0.032030 0.287570
v 0.000399 -0.032364 0.286932
v 0.000399 -0.032364 0.286932
v 0.000399 -0.032364 0.286932
v 0.064894 -0.045005 0.283917
v 0.064894 -0.045005 0.283917
v 0.064894 -0.045005 0.283917
v 0.064894 -0.045005 0.283917
v 0.064180 -0.045005 0.268648
v 0.064180 -0.045005 0.268648
v 0.064180 -0.045005 0.268648
v -0.078602 -0.045005 0.275323
v -0.078602 -0.045005 0.275323
v -0.078602 -0.045005 0.275323
v -0.079853 -0.049951 0.248555
v -0.079853 -0.049951 0.248555
v -0.079853 -0.049951 0.248555
v -0.003424 -0.049951 0.244982
v -0.003424 -0.049951 0.244982
v -0.003424 -0.049951 0.244982
v -0.003424 -0.049951 0.244982
v -0.078602 -0.049951 0.275323
v -0.078602 -0.049951 0.275323
v -0.078602 -0.049951 0.275323
v 0.062929 -0.049951 0.241880
v 0.062929 -0.049951 0.241880
v 0.062929 -0.049951 0.241880
v 0.064180 -0.049951 0.268648
v 0.064180 -0.049951 0.268648
v 0.064180 -0.049951 0.268648
v 0.036650 -0.069633 -0.320256
v 0.036650 -0.069633 -0.320256
v 0.036650 -0.069633 -0.320256
v -0.029703 -0.069633 -0.317154
v -0.029703 -0.069633 -0.317154
v -0.029703 -0.069633 -0.317154
v 0.030120 -0.040502 -0.438443
v 0.030120 -0.040502 -0.438443
v 0.030120 -0.040502 -0.438443
v -0.007986 -0.040502 -0.436661
v -0.007986 -0.040502 -0.436661
v -0.007986 -0.040502 -0.436661
v 0.034685 -0.040502 -0.362292
v 0.034685 -0.040502 -0.362292
v 0.034685 -0.040502 -0.362292
v 0.034685 -0.040502 -0.362292
v -0.004424 -0.040502 -0.360464
v -0.004424 -0.040502 -0.360464
v -0.004424 -0.040502 -0.360464
v -0.004424 -0.040502 -0.360464
v -0.016488 -0.035358 -0.359899
v -0.016488 -0.035358 -0.359899
v -0.016488 -0.035358 -0.359899
v -0.020051 -0.035358 -0.436097
v -0.020051 -0.035358 -0.436097
v -0.020051 -0.035358 -0.436097
v -0.033373 -0.032364 -0.435474
v -0.033373 -0.032364 -0.435474
v -0.033373 -0.032364 -0.435474
v -0.048945 -0.032364 -0.434747
v -0.048945 -0.032364 -0.434747
v -0.048945 -0.032364 -0.434747
v -0.048945 -0.032364 -0.434747
v -0.060475 -0.034369 -0.434207
v -0.060475 -0.034369 -0.434207
v -0.056913 -0.034369 -0.358010
v -0.056913 -0.034369 -0.358010
v -0.056913 -0.034369 -0.358010
v -0.045383 -0.032365 -0.358549
v -0.045383 -0.032365 -0.358549
v -0.045383 -0.032365 -0.358549
v -0.029811 -0.032365 -0.359277
v -0.029811 -0.032365 -0.359277
v -0.029811 -0.032365 -0.359277
v 0.034685 -0.045005 -0.362292
v 0.034685 -0.045005 -0.362292
v 0.034685 -0.045005 -0.362292
v 0.034685 -0.045005 -0.362292
v 0.035398 -0.045005 -0.347023
v 0.035398 -0.045005 -0.347023
v 0.035398 -0.045005 -0.347023
v -0.029703 -0.049951 -0.317154
v -0.029703 -0.049951 -0.317154
v -0.029703 -0.049951 -0.317154
v -0.029703 -0.049951 -0.317154
v 0.036650 -0.049951 -0.320256
v 0.036650 -0.049951 -0.320256
v 0.036650 -0.049951 -0.320256
v 0.035398 -0.049951 -0.347023
v 0.035398 -0.049951 -0.347023
v 0.035398 -0.049951 -0.347023
v -0.045413 0.045005 0.365438
v -0.045413 0.045005 0.365438
v -0.045413 0.045005 0.365438
v 0.062929 0.069633 0.241880
v 0.062929 0.069633 0.241880
v 0.062929 0.069633 0.241880
v -0.003424 0.069633 0.244982
v -0.003424 0.069633 0.244982
v -0.003424 0.069633 0.244982
v -0.049639 -0.032364 -0.449582
v -0.049639 -0.032364 -0.449582
v -0.049639 -0.032364 -0.449582
v -0.061169 -0.034369 -0.449043
v -0.061169 -0.034369 -0.449043
v -0.061169 -0.034369 -0.449043
v 0.067453 0.040502 0.360161
v 0.067453 0.040502 0.360161
v 0.067453 0.040502 0.360161
v 0.029348 0.040502 0.361943
v 0.029348 0.040502 0.361943
v 0.029348 0.040502 0.361943
v 0.064894 0.040502 0.283917
v 0.064894 0.040502 0.283917
v 0.064894 0.040502 0.283917
v 0.064894 0.040502 0.283917
v 0.025786 0.040502 0.285745
v 0.025786 0.040502 0.285745
v 0.025786 0.040502 0.285745
v 0.025786 0.040502 0.285745
v -0.048976 0.045005 0.289240
v -0.048976 0.045005 0.289240
v -0.048976 0.045005 0.289240
v -0.074326 0.045005 0.366789
v -0.074326 0.045005 0.366789
v -0.074326 0.045005 0.366789
v 0.013721 0.035358 0.286309
v 0.013721 0.035358 0.286309
v 0.013721 0.035358 0.286309
v 0.017283 0.035358 0.362507
v 0.017283 0.035358 0.362507
v 0.017283 0.035358 0.362507
v 0.003961 0.032364 0.363129
v 0.003961 0.032364 0.363129
v 0.003961 0.032364 0.363129
v -0.009689 0.032030 0.363768
v -0.009689 0.032030 0.363768
v -0.009689 0.032030 0.363768
v -0.023142 0.034369 0.364396
v -0.023142 0.034369 0.364396
v -0.023142 0.034369 0.364396
v -0.035881 0.039290 0.364992
v -0.035881 0.039290 0.364992
v -0.035881 0.039290 0.364992
v -0.039443 0.039290 0.288794
v -0.039443 0.039290 0.288794
v -0.039443 0.039290 0.288794
v -0.039443 0.039290 0.288794
v -0.026704 0.034369 0.288199
v -0.026704 0.034369 0.288199
v -0.026704 0.034369 0.288199
v -0.013252 0.032031 0.287570
v -0.013252 0.032031 0.287570
v -0.013252 0.032031 0.287570
v 0.000399 0.032365 0.286932
v 0.000399 0.032365 0.286932
v 0.000399 0.032365 0.286932
v 0.064894 0.045005 0.283917
v 0.064894 0.045005 0.283917
v 0.064894 0.045005 0.283917
v 0.064894 0.045005 0.283917
v 0.064180 0.045005 0.268648
v 0.064180 0.045005 0.268648
v 0.064180 0.045005 0.268648
v -0.078602 0.045005 0.275323
v -0.078602 0.045005 0.275323
v -0.078602 0.045005 0.275323
v -0.079853 0.049951 0.248555
v -0.079853 0.049951 0.248555
v -0.079853 0.049951 0.248555
v -0.003424 0.049951 0.244982
v -0.003424 0.049951 0.244982
v -0.003424 0.049951 0.244982
v -0.003424 0.049951 0.244982
v -0.078602 0.049951 0.275323
v -0.078602 0.049951 0.275323
v -0.078602 0.049951 0.275323
v 0.062929 0.049951 0.241880
v 0.062929 0.049951 0.241880
v 0.062929 0.049951 0.241880
v 0.064180 0.049951 0.268648
v 0.064180 0.049951 0.268648
v 0.064180 0.049951 0.268648
v 0.036650 0.069633 -0.320256
v 0.036650 0.069633 -0.320256
v 0.036650 0.069633 -0.320256
v -0.029703 0.069633 -0.317154
v -0.029703 0.069633 -0.317154
v -0.029703 0.069633 -0.317154
v 0.030120 0.040502 -0.438443
v 0.030120 0.040502 -0.438443
v 0.030120 0.040502 -0.438443
v -0.007986 0.040502 -0.436661
v -0.007986 0.040502 -0.436661
v -0.007986 0.040502 -0.436661
v 0.034685 0.040502 -0.362292
v 0.034685 0.040502 -0.362292
v 0.034685 0.040502 -0.362292
v 0.034685 0.040502 -0.362292
v -0.004424 0.040502 -0.360464
v -0.004424 0.040502 -0.360464
v -0.004424 0.040502 -0.360464
v -0.004424 0.040502 -0.360464
v -0.016488 0.035358 -0.359899
v -0.016488 0.035358 -0.359899
v -0.016488 0.035358 -0.359899
v -0.020051 0.035357 -0.436097
v -0.020051 0.035357 -0.436097
v -0.020051 0.035357 -0.436097
v -0.033373 0.032364 -0.435474
v -0.033373 0.032364 -0.435474
v -0.033373 0.032364 -0.435474
v -0.048945 0.032364 -0.434747
v -0.048945 0.032364 -0.434747
v -0.048945 0.032364 -0.434747
v -0.048945 0.032364 -0.434747
v -0.060475 0.034369 -0.434207
v -0.060475 0.034369 -0.434207
v -0.056913 0.034369 -0.358010
v -0.056913 0.034369 -0.358010
v -0.056913 0.034369 -0.358010
v -0.056913 0.034369 -0.358010
v -0.045383 0.032365 -0.358549
v -0.045383 0.032365 -0.358549
v -0.045383 0.032365 -0.358549
v -0.029811 0.032364 -0.359277
v -0.029811 0.032364 -0.359277
v -0.029811 0.032364 -0.359277
v 0.034685 0.045005 -0.362292
v 0.034685 0.045005 -0.362292
v 0.034685 0.045005 -0.362292
v 0.034685 0.045005 -0.362292
v 0.035398 0.045005 -0.347023
v 0.035398 0.045005 -0.347023
v 0.035398 0.045005 -0.347023
v -0.029703 0.049951 -0.317154
v -0.029703 0.049951 -0.317154
v -0.029703 0.049951 -0.317154
v -0.029703 0.049951 -0.317154
v 0.036650 0.049951 -0.320256
v 0.036650 0.049951 -0.320256
v 0.036650 0.049951 -0.320256
v 0.035398 0.049951 -0.347023
v 0.035398 0.049951 -0.347023
v 0.035398 0.049951 -0.347023
v -0.056199 -0.049951 -0.342741
v -0.056199 -0.049951 -0.342741
v -0.056199 -0.049951 -0.342741
v -0.056913 -0.045005 -0.358010
v -0.056913 -0.045005 -0.358010
v -0.056913 -0.045005 -0.358010
v -0.056913 -0.045005 -0.358010
v -0.056199 0.049951 -0.342741
v -0.056199 0.049951 -0.342741
v -0.056199 0.049951 -0.342741
v -0.056199 -0.045005 -0.342741
v -0.056199 -0.045005 -0.342741
v -0.056199 -0.045005 -0.342741
v -0.056913 0.045005 -0.358010
v -0.056913 0.045005 -0.358010
v -0.056913 0.045005 -0.358010
v -0.056913 0.045005 -0.358010
v -0.054948 -0.049951 -0.315974
v -0.054948 -0.049951 -0.315974
v -0.054948 -0.049951 -0.315974
v -0.056199 0.045005 -0.342741
v -0.056199 0.045005 -0.342741
v -0.056199 0.045005 -0.342741
v -0.056199 0.045005 -0.342741
v -0.054948 0.049951 -0.315974
v -0.054948 0.049951 -0.315974
v -0.054948 0.049951 -0.315974
v -0.054948 0.049951 -0.315974
v -0.007623 -0.069633 0.155156
v -0.007623 -0.069633 0.155156
v 0.058730 -0.069633 0.152055
v 0.058730 -0.069633 0.152055
v -0.007623 0.069633 0.155155
v -0.007623 0.069633 0.155155
v 0.058730 0.069633 0.152055
v 0.058730 0.069633 0.152055
v 0.058730 0.049951 0.152055
v 0.058730 -0.049951 0.152055
v -0.007623 -0.049951 0.155156
v -0.007623 0.049951 0.155156
v 0.051677 -0.069633 0.001182
v 0.051677 -0.069633 0.001182
v 0.051677 0.069633 0.001182
v 0.051677 0.069633 0.001182
v 0.051677 0.049951 0.001181
v -0.014676 -0.049951 0.004283
v -0.014676 -0.069633 0.004283
v -0.014676 -0.069633 0.004283
v -0.014676 0.069633 0.004283
v -0.014676 0.069633 0.004283
v 0.051677 -0.049951 0.001181
v -0.014676 0.049951 0.004283
vn 0.9989 -0.0000 -0.0467
vn -0.0000 -1.0000 -0.0000
vn -0.0244 -0.9997 0.0011
vn 0.1709 -0.9852 -0.0080
vn -0.2188 -0.9757 0.0102
vn -0.2187 -0.9757 0.0102
vn 0.3596 -0.9330 -0.0168
vn 0.5132 -0.8579 -0.0240
vn -0.3914 -0.9200 0.0183
vn -0.3915 -0.9200 0.0183
vn 0.0467 -0.0000 0.9989
vn -0.0467 -0.0000 -0.9989
vn -0.9989 -0.0000 0.0467
vn 0.1709 -0.9853 -0.0080
vn -0.0000 1.0000 -0.0000
vn 0.1709 0.9852 -0.0080
vn -0.0244 0.9997 0.0012
vn 0.1709 0.9853 -0.0080
vn -0.2188 0.9757 0.0102
vn -0.2187 0.9757 0.0102
vn 0.3596 0.9330 -0.0168
vn 0.5132 0.8579 -0.0240
vn -0.3914 0.9200 0.0183
vn 0.0001 1.0000 -0.0000
vn -0.3915 0.9200 0.0183
vn 0.9994 -0.0000 -0.0335
vn 0.9982 -0.0000 -0.0598
vt 0.283025 0.739471
vt 0.243026 0.851950
vt 0.243026 0.739471
vt 0.656165 0.703900
vt 0.566050 0.301400
vt 0.656165 0.301400
vt 0.968973 0.364654
vt 0.989129 0.485894
vt 0.968973 0.485894
vt 0.849805 0.681320
vt 0.746281 0.729018
vt 0.746281 0.681320
vt 0.849805 0.632029
vt 0.746281 0.649132
vt 0.746281 0.632029
vt 0.746281 0.615307
vt 0.849805 0.649132
vt 0.746281 0.665959
vt 0.746281 0.599610
vt 0.849805 0.615307
vt 0.746281 0.587966
vt 0.849805 0.599610
vt 0.849805 0.665959
vt 0.537502 0.846486
vt 0.528350 0.846486
vt 0.528350 0.797515
vt 0.849806 0.587966
vt 0.746281 0.551776
vt 0.870550 0.551775
vt 0.981214 0.722169
vt 0.991266 0.543379
vt 0.991266 0.722169
vt 0.673548 0.818557
vt 0.713546 0.901642
vt 0.673548 0.901642
vt 0.906917 0.730500
vt 0.870550 0.634831
vt 0.906917 0.551775
vt 0.511134 0.703900
vt 0.407294 0.891021
vt 0.407294 0.703900
vt 0.283025 0.000001
vt 0.323023 0.402500
vt 0.283025 0.402500
vt 0.746282 0.796512
vt 0.849806 0.844211
vt 0.746281 0.845466
vt 0.849806 0.764325
vt 0.746282 0.744832
vt 0.849806 0.744832
vt 0.746282 0.730501
vt 0.849806 0.730500
vt 0.849806 0.781152
vt 0.746282 0.764325
vt 0.849806 0.796512
vt 0.973047 0.050620
vt 0.962593 0.065726
vt 0.953441 0.000000
vt 0.999875 0.000000
vt 0.979130 0.114656
vt 0.979130 0.000000
vt 0.969204 0.270207
vt 0.929206 0.353292
vt 0.929206 0.270207
vt 0.709914 0.703900
vt 0.746281 0.786956
vt 0.709914 0.818556
vt 0.656165 0.591421
vt 0.746281 0.703899
vt 0.870550 0.542511
vt 0.870550 0.373918
vt 0.906917 0.364654
vt 0.973487 0.831134
vt 0.993644 0.845466
vt 0.973487 0.845466
vt 0.386549 0.753081
vt 0.283025 0.705383
vt 0.386550 0.704127
vt 0.283025 0.785269
vt 0.386549 0.802372
vt 0.283025 0.802372
vt 0.283025 0.819093
vt 0.386549 0.819093
vt 0.283025 0.768441
vt 0.386549 0.785269
vt 0.283025 0.834790
vt 0.386549 0.834790
vt 0.283025 0.846435
vt 0.386550 0.846434
vt 0.283025 0.753081
vt 0.933835 0.064078
vt 0.944290 0.048971
vt 0.941826 0.130649
vt 0.909599 0.301832
vt 0.755433 0.364654
vt 0.765887 0.301832
vt 0.407294 0.882625
vt 0.537502 0.703900
vt 0.547553 0.882690
vt 0.537502 0.882690
vt 0.969204 0.187121
vt 0.943283 0.447710
vt 0.906917 0.543379
vt 0.657882 0.707654
vt 0.673548 0.832648
vt 0.657882 0.828894
vt 0.869963 0.779454
vt 0.973487 0.731755
vt 0.973487 0.779454
vt 0.869963 0.831134
vt 0.973487 0.811642
vt 0.869963 0.811642
vt 0.973487 0.794814
vt 0.869963 0.794814
vt 0.968973 0.479353
vt 0.959821 0.479353
vt 0.959821 0.430381
vt 0.635008 0.719143
vt 0.656165 0.719142
vt 0.635008 0.840382
vt 0.989948 0.301777
vt 0.989948 0.187121
vt 0.981214 0.626464
vt 0.941216 0.543379
vt 0.981214 0.543379
vt 0.673548 0.786956
vt 0.766438 0.157934
vt 0.746281 0.029186
vt 0.766438 0.029186
vt 0.869962 0.744832
vt 1.000000 0.187121
vt 0.989948 0.301818
vt 0.869962 0.029186
vt 0.927073 0.000000
vt 0.869962 0.157935
vt 0.989129 0.479352
vt 0.999181 0.364654
vt 0.999181 0.479352
vt 0.223823 0.904586
vt 0.059202 0.904586
vt 0.050050 0.885467
vt 0.059202 0.095414
vt 0.223823 0.095414
vt 0.232975 0.114533
vt 0.323023 0.591421
vt 0.526051 0.703900
vt 0.323023 0.703900
vt 0.039998 0.739471
vt 0.039998 0.851950
vt 0.000000 0.739471
vt 0.526051 0.402500
vt 0.566049 0.000001
vt 0.566049 0.402500
vt 0.323023 0.000000
vt 0.526051 0.591421
vt 0.566049 0.703900
vt 0.000000 0.550550
vt 0.039998 0.550550
vt 0.656165 0.402500
vt 0.746281 0.591420
vt 0.283025 0.703900
vt 0.656165 0.000001
vt 0.566049 0.112480
vt 0.566049 0.000000
vt 0.283025 0.550550
vt 0.243026 0.550550
vt 0.243026 0.148050
vt 0.283025 0.148050
vt 0.746281 0.000001
vt 0.656165 0.000000
vt 0.039998 0.148050
vt 0.000000 0.148050
vt 0.566049 0.591420
vt 0.283025 0.591420
vt 0.656165 0.112480
vt 0.283025 0.851950
vt 0.566050 0.703900
vt 0.989129 0.364654
vt 0.849806 0.730273
vt 0.517896 0.782408
vt 0.525887 0.715837
vt 0.511813 0.765725
vt 0.515886 0.731788
vt 0.511134 0.748633
vt 0.870550 0.730500
vt 0.713546 0.818556
vt 0.511134 0.891021
vt 0.746282 0.781152
vt 0.962593 0.114698
vt 0.953441 0.114698
vt 0.975057 0.000000
vt 0.979130 0.014438
vt 0.979130 0.033937
vt 0.999875 0.114656
vt 0.969204 0.353292
vt 0.746281 0.703900
vt 0.746281 0.818556
vt 0.746281 0.542511
vt 0.746281 0.373918
vt 0.870550 0.364654
vt 0.993644 0.831134
vt 0.386549 0.768441
vt 0.944290 0.000000
vt 0.953441 0.142586
vt 0.931826 0.114698
vt 0.927073 0.097853
vt 0.927752 0.080761
vt 0.746281 0.187121
vt 0.929206 0.187121
vt 0.917590 0.235261
vt 0.929206 0.223324
vt 0.757896 0.235261
vt 0.746281 0.223324
vt 0.767897 0.251212
vt 0.907590 0.251212
vt 0.902838 0.268057
vt 0.772649 0.268057
vt 0.903516 0.285150
vt 0.920054 0.316939
vt 0.920054 0.364654
vt 0.771971 0.285150
vt 0.755433 0.316939
vt 0.386550 0.703900
vt 0.283025 0.882625
vt 0.547553 0.703900
vt 0.943283 0.364654
vt 0.943283 0.543379
vt 0.673548 0.703900
vt 0.869962 0.730500
vt 0.869963 0.845466
vt 0.949367 0.415274
vt 0.968973 0.364655
vt 0.943283 0.398592
vt 0.943284 0.379093
vt 0.947357 0.364654
vt 0.548745 0.855624
vt 0.548745 0.703900
vt 0.616908 0.713536
vt 0.600516 0.703900
vt 0.616908 0.845988
vt 0.600516 0.855624
vt 0.656165 0.840382
vt 0.969204 0.301777
vt 0.941216 0.626465
vt 0.673548 0.818556
vt 0.746281 0.157934
vt 0.941216 0.730500
vt 1.000000 0.301818
vt 0.869962 0.009264
vt 0.890707 0.009264
vt 0.890707 0.000000
vt 0.927073 0.187121
vt 0.890707 0.187121
vt 0.890707 0.177857
vt 0.869962 0.177857
vt 0.039998 0.885467
vt 0.243026 0.885467
vt 0.232975 0.885467
vt 0.232975 0.904586
vt 0.223823 1.000000
vt 0.059202 1.000000
vt 0.050050 0.904586
vt 0.243026 0.114533
vt 0.039998 0.114533
vt 0.050050 0.114533
vt 0.050050 0.095414
vt 0.059202 0.000000
vt 0.223823 0.000000
vt 0.232975 0.095414
vt 0.000000 0.851950
vt 0.526051 0.000000
vt 0.746281 0.402500
s 1
usemtl base
f 343/1/1 241/2/1 344/3/1
f 97/4/2 348/5/2 355/6/2
f 123/7/1 15/8/1 277/9/1
f 26/10/2 17/11/2 20/12/2
f 63/13/3 42/14/3 47/15/3
f 49/16/4 61/13/4 45/15/4
f 66/17/5 39/18/6 43/14/6
f 53/19/7 59/20/7 48/16/7
f 2/21/8 54/22/8 52/19/8
f 27/10/9 41/18/10 36/23/9
f 67/24/11 24/25/11 28/26/11
f 30/27/2 34/28/2 74/29/2
f 85/30/11 71/31/11 75/32/11
f 4/33/11 80/34/11 7/35/11
f 84/36/2 82/37/2 90/38/2
f 77/39/12 233/40/12 81/41/12
f 251/42/13 359/43/13 356/44/13
f 112/45/2 100/46/2 107/47/2
f 121/48/2 133/49/2 125/50/2
f 124/50/4 129/51/14 126/52/4
f 117/53/5 135/54/6 119/48/5
f 111/45/9 116/53/9 102/55/9
f 114/56/12 109/57/12 314/58/12
f 143/59/2 312/60/2 137/61/2
f 144/62/12 94/63/12 96/64/12
f 153/65/2 146/66/2 310/67/2
f 342/68/15 162/69/15 158/4/15
f 76/70/13 227/71/13 232/72/13
f 275/73/16 11/74/16 279/75/16
f 180/76/15 171/77/15 176/78/15
f 197/79/17 215/80/17 198/81/17
f 202/82/18 216/80/18 212/83/18
f 192/84/19 217/85/20 196/79/19
f 205/86/21 211/83/21 209/87/21
f 154/88/22 210/87/22 185/89/22
f 182/76/23 194/84/23 173/90/23
f 190/91/11 179/92/11 207/93/11
f 40/94/11 169/95/11 193/96/11
f 184/89/15 224/41/15 228/97/15
f 226/98/11 239/99/11 229/100/11
f 234/64/11 157/101/11 160/62/11
f 243/72/15 235/102/15 237/103/15
f 163/104/12 12/105/12 13/106/12
f 264/107/15 252/108/15 256/109/15
f 287/110/24 274/111/15 276/73/15
f 279/75/16 285/110/18 275/73/16
f 289/112/19 271/113/20 273/111/20
f 262/107/23 270/113/25 268/114/23
f 291/115/12 259/116/12 263/117/12
f 120/118/12 122/119/12 272/120/12
f 322/121/15 295/101/15 293/122/15
f 246/123/12 300/124/12 250/125/12
f 317/67/15 298/126/15 305/65/15
f 280/127/13 168/128/13 127/129/13
f 126/52/4 164/130/4 124/50/4
f 332/124/11 147/36/11 301/103/11
f 318/131/12 152/132/12 309/122/12
f 130/133/13 325/134/13 284/135/13
f 316/136/12 297/137/12 330/138/12
f 175/139/1 25/140/1 73/141/1
f 108/142/1 261/143/1 296/144/1
f 347/145/13 83/146/13 236/147/13
f 241/2/1 345/148/1 344/3/1
f 89/149/1 338/150/1 345/148/1
f 353/151/13 98/152/13 354/153/13
f 299/154/13 353/151/13 359/43/13
f 346/155/13 9/156/13 83/146/13
f 345/148/1 349/157/1 358/158/1
f 351/159/15 341/160/15 342/68/15
f 161/161/13 347/145/13 236/147/13
f 8/162/2 339/163/2 6/164/2
f 350/165/1 344/3/1 352/166/1
f 350/165/1 304/167/1 247/168/1
f 249/169/15 351/159/15 248/170/15
f 352/166/1 150/171/1 304/167/1
f 150/171/1 349/157/1 93/172/1
f 359/43/13 346/155/13 347/145/13
f 353/151/13 337/173/13 346/155/13
f 340/174/13 359/43/13 347/145/13
f 336/175/2 348/5/2 339/163/2
f 343/1/1 159/176/1 241/2/1
f 97/4/2 95/177/2 348/5/2
f 123/7/1 165/178/1 15/8/1
f 26/10/2 23/179/2 17/11/2
f 63/13/3 64/17/3 42/14/3
f 49/16/4 58/20/14 61/13/4
f 66/17/5 37/23/5 39/18/6
f 53/19/7 55/22/7 59/20/7
f 2/21/8 31/27/8 54/22/8
f 27/10/9 21/12/10 41/18/10
f 28/26/11 38/180/11 56/181/11
f 38/180/11 65/182/11 60/183/11
f 65/182/11 62/184/11 60/183/11
f 60/183/11 56/181/11 38/180/11
f 57/181/11 32/98/11 29/26/11
f 32/98/11 70/24/11 29/26/11
f 72/185/2 69/52/2 30/27/2
f 30/27/2 3/21/2 34/28/2
f 74/29/2 72/185/2 30/27/2
f 85/30/11 92/125/11 71/31/11
f 4/33/11 88/186/11 80/34/11
f 78/185/2 82/37/2 84/36/2
f 82/37/2 87/29/2 90/38/2
f 77/39/12 230/187/12 233/40/12
f 251/42/13 299/154/13 359/43/13
f 112/45/2 104/55/2 100/46/2
f 121/48/2 136/54/2 133/49/2
f 124/50/4 131/49/14 129/51/14
f 117/53/5 115/188/6 135/54/6
f 111/45/9 113/188/9 116/53/9
f 109/57/12 106/189/12 139/190/12
f 314/58/12 128/191/12 132/192/12
f 132/192/12 134/193/12 314/58/12
f 134/193/12 114/56/12 314/58/12
f 110/57/12 140/190/12 311/58/12
f 143/59/2 319/194/2 312/60/2
f 144/62/12 149/195/12 94/63/12
f 148/196/2 146/66/2 153/65/2
f 146/66/2 326/197/2 310/67/2
f 342/68/15 341/160/15 162/69/15
f 232/72/13 79/38/13 76/70/13
f 79/38/13 86/29/13 76/70/13
f 76/70/13 33/198/13 188/199/13
f 227/71/13 238/200/13 232/72/13
f 76/70/13 188/199/13 227/71/13
f 275/73/16 14/201/16 11/74/16
f 180/76/15 174/90/15 171/77/15
f 197/79/17 219/85/17 215/80/17
f 202/82/18 200/81/16 216/80/18
f 192/84/19 191/202/20 217/85/20
f 205/86/21 203/82/21 211/83/21
f 154/88/22 206/86/22 210/87/22
f 182/76/23 189/202/23 194/84/23
f 179/92/11 178/203/11 220/58/11
f 223/58/11 183/204/11 181/92/11
f 183/204/11 208/93/11 181/92/11
f 207/93/11 213/205/11 190/91/11
f 213/205/11 214/206/11 218/207/11
f 190/91/11 213/205/11 218/207/11
f 186/208/11 35/209/11 51/210/11
f 35/209/11 1/211/11 51/210/11
f 204/212/11 155/213/11 186/208/11
f 201/214/11 204/212/11 50/215/11
f 204/212/11 186/208/11 51/210/11
f 50/215/11 204/212/11 51/210/11
f 50/215/11 46/216/11 201/214/11
f 201/214/11 46/216/11 199/217/11
f 46/216/11 44/218/11 199/217/11
f 40/94/11 19/219/11 18/220/11
f 199/217/11 44/218/11 195/221/11
f 44/218/11 40/94/11 195/221/11
f 40/94/11 18/220/11 169/95/11
f 169/95/11 172/222/11 193/96/11
f 193/96/11 195/221/11 40/94/11
f 184/89/15 222/223/15 224/41/15
f 228/97/15 187/224/15 184/89/15
f 187/224/15 156/88/15 184/89/15
f 226/98/11 245/225/11 239/99/11
f 234/64/11 240/209/11 157/101/11
f 242/226/15 235/102/15 243/72/15
f 235/102/15 231/227/15 237/103/15
f 163/104/12 166/228/12 12/105/12
f 264/107/15 260/229/15 252/108/15
f 287/110/24 290/112/24 274/111/15
f 279/75/16 282/230/18 285/110/18
f 289/112/19 267/114/19 271/113/20
f 262/107/23 255/109/25 270/113/25
f 263/117/12 266/231/12 323/232/12
f 266/231/12 288/233/12 323/232/12
f 288/233/12 286/234/12 323/232/12
f 286/234/12 281/235/12 323/232/12
f 324/232/12 292/115/12 265/117/12
f 254/236/12 101/237/12 118/238/12
f 101/237/12 103/239/12 118/238/12
f 269/240/12 257/241/12 254/236/12
f 122/119/12 278/242/12 272/120/12
f 272/120/12 269/240/12 120/118/12
f 269/240/12 254/236/12 118/238/12
f 120/118/12 269/240/12 118/238/12
f 322/121/15 331/243/15 295/101/15
f 246/123/12 303/244/12 300/124/12
f 334/245/15 298/126/15 317/67/15
f 298/126/15 302/228/15 305/65/15
f 280/127/13 10/246/13 168/128/13
f 126/52/4 167/229/4 164/130/4
f 332/124/11 327/247/11 147/36/11
f 318/131/12 141/248/12 152/132/12
f 280/127/13 127/129/13 284/135/13
f 127/129/13 130/133/13 284/135/13
f 130/133/13 313/249/13 320/250/13
f 320/250/13 308/251/13 325/134/13
f 325/134/13 333/252/13 284/135/13
f 333/252/13 315/253/13 329/254/13
f 329/254/13 321/255/13 284/135/13
f 335/252/13 328/254/13 283/135/13
f 130/133/13 320/250/13 325/134/13
f 316/136/12 306/178/12 297/137/12
f 91/256/1 89/149/1 73/141/1
f 89/149/1 241/2/1 73/141/1
f 241/2/1 244/257/1 225/258/1
f 225/258/1 221/259/1 175/139/1
f 177/139/26 170/260/26 16/261/26
f 25/140/1 68/262/1 73/141/1
f 177/139/26 16/261/26 22/140/26
f 241/2/1 225/258/1 73/141/1
f 225/258/1 175/139/1 73/141/1
f 307/263/1 304/167/1 296/144/1
f 304/167/1 150/171/1 296/144/1
f 150/171/1 151/264/1 142/265/1
f 142/265/1 138/266/1 108/142/1
f 105/142/27 99/267/27 253/268/27
f 261/143/1 294/269/1 296/144/1
f 105/142/27 253/268/27 258/143/27
f 150/171/1 142/265/1 296/144/1
f 142/265/1 108/142/1 296/144/1
f 347/145/13 346/155/13 83/146/13
f 241/2/1 89/149/1 345/148/1
f 89/149/1 5/270/1 338/150/1
f 353/151/13 145/271/13 98/152/13
f 299/154/13 145/271/13 353/151/13
f 346/155/13 337/173/13 9/156/13
f 345/148/1 338/150/1 349/157/1
f 351/159/15 357/272/15 341/160/15
f 161/161/13 340/174/13 347/145/13
f 8/162/2 336/175/2 339/163/2
f 350/165/1 343/1/1 344/3/1
f 350/165/1 352/166/1 304/167/1
f 249/169/15 357/272/15 351/159/15
f 352/166/1 358/158/1 150/171/1
f 150/171/1 358/158/1 349/157/1
f 359/43/13 353/151/13 346/155/13
f 353/151/13 354/153/13 337/173/13
f 340/174/13 356/44/13 359/43/13
f 336/175/2 355/6/2 348/5/2
