# Blender 3.6.1
# www.blender.org
mtllib base_4.mtl
o base_4
v 0.000549 0.000000 -0.009799
v 0.000549 -0.001117 -0.009736
v 0.000549 -0.002220 -0.009545
v 0.000549 -0.003293 -0.009230
v 0.000549 -0.004324 -0.008794
v 0.000549 -0.005298 -0.008244
v 0.000549 -0.006204 -0.007586
v 0.000549 -0.007028 -0.006829
v 0.000549 -0.007761 -0.005984
v 0.000549 -0.008392 -0.005060
v 0.000549 -0.008914 -0.004071
v 0.000549 -0.008914 -0.004071
v 0.000549 -0.009320 -0.003028
v 0.000549 -0.009605 -0.001946
v 0.000549 -0.009764 -0.000838
v 0.000549 -0.009796 0.000280
v 0.000549 -0.009700 0.001395
v 0.000549 -0.009700 0.001395
v 0.000549 -0.009700 0.001395
v 0.000549 -0.009478 0.002492
v 0.000549 -0.009478 0.002492
v 0.000549 -0.009132 0.003556
v 0.000549 -0.008667 0.004574
v 0.000549 -0.008667 0.004574
v 0.000549 -0.008090 0.005532
v 0.000549 -0.007406 0.006418
v 0.000549 -0.006627 0.007220
v 0.000549 -0.005760 0.007929
v 0.000549 -0.004819 0.008534
v 0.000549 -0.003815 0.009027
v 0.000549 -0.002761 0.009403
v 0.000549 -0.001671 0.009657
v 0.000549 -0.000560 0.009784
v 0.000549 0.000559 0.009784
v 0.000549 0.001671 0.009657
v 0.000549 0.002761 0.009403
v 0.000549 0.003815 0.009027
v 0.000549 0.004819 0.008534
v 0.000549 0.005760 0.007929
v 0.000549 0.005760 0.007929
v 0.000549 0.006626 0.007220
v 0.000549 0.006626 0.007220
v 0.000549 0.007406 0.006418
v 0.000549 0.008089 0.005532
v 0.000549 0.008089 0.005532
v 0.000549 0.008667 0.004574
v 0.000549 0.009132 0.003556
v 0.000549 0.009132 0.003556
v 0.000549 0.009478 0.002492
v 0.000549 0.009478 0.002492
v 0.000549 0.009478 0.002492
v 0.000549 0.009700 0.001395
v 0.000549 0.009796 0.000280
v 0.000549 0.009764 -0.000838
v 0.000549 0.009605 -0.001946
v 0.000549 0.009320 -0.003028
v 0.000549 0.009320 -0.003028
v 0.000549 0.008914 -0.004071
v 0.000549 0.008392 -0.005060
v 0.000549 0.007760 -0.005984
v 0.000549 0.007028 -0.006829
v 0.000549 0.006203 -0.007586
v 0.000549 0.005298 -0.008244
v 0.000549 0.004324 -0.008794
v 0.000549 0.003293 -0.009230
v 0.000549 0.002220 -0.009545
v 0.000549 0.001117 -0.009736
v 0.000549 0.005320 0.008468
v 0.000549 0.005320 0.008468
v 0.000549 0.005320 0.008468
v 0.000549 0.004339 0.009010
v 0.000549 0.004339 0.009010
v 0.000549 0.004339 0.009010
v 0.000549 0.003303 0.009439
v 0.000549 0.003303 0.009439
v 0.000549 0.003303 0.009439
v 0.000549 0.002225 0.009750
v 0.000549 0.002225 0.009750
v 0.000549 0.002225 0.009750
v 0.000549 0.001120 0.009937
v 0.000549 0.001120 0.009937
v 0.000549 0.001120 0.009937
v 0.000549 0.000000 0.010000
v 0.000549 0.000000 0.010000
v 0.000549 0.000000 0.010000
v 0.000549 -0.001120 0.009937
v 0.000549 -0.001120 0.009937
v 0.000549 -0.001120 0.009937
v 0.000549 -0.002225 0.009750
v 0.000549 -0.002225 0.009750
v 0.000549 -0.002225 0.009750
v 0.000549 -0.003303 0.009439
v 0.000549 -0.003303 0.009439
v 0.000549 -0.003303 0.009439
v 0.000549 -0.004339 0.009010
v 0.000549 -0.004339 0.009010
v 0.000549 -0.004339 0.009010
v 0.000549 -0.005320 0.008468
v 0.000549 -0.005320 0.008468
v 0.000549 -0.005320 0.008468
v 0.000549 -0.006235 0.007819
v 0.000549 -0.006235 0.007819
v 0.000549 -0.006235 0.007819
v 0.000549 -0.007071 0.007071
v 0.000549 -0.007071 0.007071
v 0.000549 -0.007071 0.007071
v 0.000549 -0.007071 0.007071
v 0.000549 -0.007818 0.006235
v 0.000549 -0.007818 0.006235
v 0.000549 -0.007818 0.006235
v 0.000549 -0.007818 0.006235
v 0.000549 -0.008467 0.005321
v 0.000549 -0.008467 0.005321
v 0.000549 -0.008467 0.005321
v 0.000549 -0.008467 0.005321
v 0.000549 -0.009010 0.004339
v 0.000549 -0.009010 0.004339
v 0.000549 -0.009010 0.004339
v 0.000549 -0.009010 0.004339
v 0.000549 -0.009439 0.003303
v 0.000549 -0.009439 0.003303
v 0.000549 -0.009439 0.003303
v 0.000549 -0.009439 0.003303
v 0.000549 -0.009749 0.002226
v 0.000549 -0.009749 0.002226
v 0.000549 -0.009749 0.002226
v 0.000549 -0.009749 0.002226
v 0.000549 -0.009937 0.001120
v 0.000549 -0.009937 0.001120
v 0.000549 -0.009937 0.001120
v 0.000549 -0.009937 0.001120
v 0.000549 -0.010000 -0.000000
v 0.000549 -0.010000 -0.000000
v 0.000549 -0.010000 -0.000000
v 0.000549 -0.009937 -0.001119
v 0.000549 -0.009937 -0.001119
v 0.000549 -0.009937 -0.001119
v 0.000549 -0.009749 -0.002225
v 0.000549 -0.009749 -0.002225
v 0.000549 -0.009749 -0.002225
v 0.000549 -0.009439 -0.003302
v 0.000549 -0.009439 -0.003302
v 0.000549 -0.009439 -0.003302
v 0.000549 -0.009439 -0.003302
v 0.000549 -0.009010 -0.004338
v 0.000549 -0.009010 -0.004338
v 0.000549 -0.009010 -0.004338
v 0.000549 -0.009010 -0.004338
v 0.000549 -0.008467 -0.005320
v 0.000549 -0.008467 -0.005320
v 0.000549 -0.008467 -0.005320
v 0.000549 -0.007818 -0.006234
v 0.000549 -0.007818 -0.006234
v 0.000549 -0.007818 -0.006234
v 0.000549 -0.007071 -0.007071
v 0.000549 -0.007071 -0.007071
v 0.000549 -0.007071 -0.007071
v 0.000549 -0.006235 -0.007818
v 0.000549 -0.006235 -0.007818
v 0.000549 -0.006235 -0.007818
v 0.000549 -0.005320 -0.008467
v 0.000549 -0.005320 -0.008467
v 0.000549 -0.005320 -0.008467
v 0.000549 -0.004339 -0.009009
v 0.000549 -0.004339 -0.009009
v 0.000549 -0.004339 -0.009009
v 0.000549 -0.003303 -0.009438
v 0.000549 -0.003303 -0.009438
v 0.000549 -0.003303 -0.009438
v 0.000549 -0.002225 -0.009749
v 0.000549 -0.002225 -0.009749
v 0.000549 -0.002225 -0.009749
v 0.000549 -0.001120 -0.009937
v 0.000549 -0.001120 -0.009937
v 0.000549 -0.001120 -0.009937
v 0.000549 0.000000 -0.009999
v 0.000549 0.000000 -0.009999
v 0.000549 0.000000 -0.009999
v 0.000549 0.001120 -0.009937
v 0.000549 0.001120 -0.009937
v 0.000549 0.001120 -0.009937
v 0.000549 0.002225 -0.009749
v 0.000549 0.002225 -0.009749
v 0.000549 0.002225 -0.009749
v 0.000549 0.003303 -0.009438
v 0.000549 0.003303 -0.009438
v 0.000549 0.003303 -0.009438
v 0.000549 0.004339 -0.009009
v 0.000549 0.004339 -0.009009
v 0.000549 0.004339 -0.009009
v 0.000549 0.005320 -0.008467
v 0.000549 0.005320 -0.008467
v 0.000549 0.005320 -0.008467
v 0.000549 0.006235 -0.007818
v 0.000549 0.006235 -0.007818
v 0.000549 0.006235 -0.007818
v 0.000549 0.007071 -0.007071
v 0.000549 0.007071 -0.007071
v 0.000549 0.007071 -0.007071
v 0.000549 0.007818 -0.006234
v 0.000549 0.007818 -0.006234
v 0.000549 0.007818 -0.006234
v 0.000549 0.008467 -0.005320
v 0.000549 0.008467 -0.005320
v 0.000549 0.008467 -0.005320
v 0.000549 0.009009 -0.004338
v 0.000549 0.009009 -0.004338
v 0.000549 0.009009 -0.004338
v 0.000549 0.009009 -0.004338
v 0.000549 0.009439 -0.003302
v 0.000549 0.009439 -0.003302
v 0.000549 0.009439 -0.003302
v 0.000549 0.009439 -0.003302
v 0.000549 0.009749 -0.002225
v 0.000549 0.009749 -0.002225
v 0.000549 0.009749 -0.002225
v 0.000549 0.009937 -0.001119
v 0.000549 0.009937 -0.001119
v 0.000549 0.009937 -0.001119
v 0.000549 0.010000 -0.000000
v 0.000549 0.010000 -0.000000
v 0.000549 0.010000 -0.000000
v 0.000549 0.009937 0.001120
v 0.000549 0.009937 0.001120
v 0.000549 0.009937 0.001120
v 0.000549 0.009937 0.001120
v 0.000549 0.009749 0.002226
v 0.000549 0.009749 0.002226
v 0.000549 0.009749 0.002226
v 0.000549 0.009749 0.002226
v 0.000549 0.009749 0.002226
v 0.000549 0.009439 0.003303
v 0.000549 0.009439 0.003303
v 0.000549 0.009439 0.003303
v 0.000549 0.009009 0.004339
v 0.000549 0.009009 0.004339
v 0.000549 0.009009 0.004339
v 0.000549 0.009009 0.004339
v 0.000549 0.008467 0.005321
v 0.000549 0.008467 0.005321
v 0.000549 0.008467 0.005321
v 0.000549 0.008467 0.005321
v 0.000549 0.007818 0.006235
v 0.000549 0.007818 0.006235
v 0.000549 0.007818 0.006235
v 0.000549 0.007071 0.007071
v 0.000549 0.007071 0.007071
v 0.000549 0.007071 0.007071
v 0.000549 0.007071 0.007071
v 0.000549 0.007071 0.007071
v 0.000549 0.006235 0.007819
v 0.000549 0.006235 0.007819
v 0.000549 0.006235 0.007819
v 0.000549 0.006235 0.007819
v -0.000401 0.000000 -0.009999
v -0.000401 0.000000 -0.009999
v -0.000401 0.000000 -0.009999
v -0.000401 -0.001120 -0.009937
v -0.000401 -0.001120 -0.009937
v -0.000401 -0.001120 -0.009937
v -0.000401 -0.002225 -0.009749
v -0.000401 -0.002225 -0.009749
v -0.000401 -0.002225 -0.009749
v -0.000401 -0.003303 -0.009438
v -0.000401 -0.003303 -0.009438
v -0.000401 -0.003303 -0.009438
v -0.000401 -0.004339 -0.009009
v -0.000401 -0.004339 -0.009009
v -0.000401 -0.004339 -0.009009
v -0.000401 -0.005320 -0.008467
v -0.000401 -0.005320 -0.008467
v -0.000401 -0.005320 -0.008467
v -0.000401 -0.006235 -0.007818
v -0.000401 -0.006235 -0.007818
v -0.000401 -0.006235 -0.007818
v -0.000401 -0.007071 -0.007071
v -0.000401 -0.007071 -0.007071
v -0.000401 -0.007071 -0.007071
v -0.000401 -0.007818 -0.006234
v -0.000401 -0.007818 -0.006234
v -0.000401 -0.007818 -0.006234
v -0.000401 -0.008467 -0.005320
v -0.000401 -0.008467 -0.005320
v -0.000401 -0.008467 -0.005320
v -0.000401 -0.009010 -0.004338
v -0.000401 -0.009010 -0.004338
v -0.000401 -0.009010 -0.004338
v -0.000401 -0.009439 -0.003302
v -0.000401 -0.009439 -0.003302
v -0.000401 -0.009439 -0.003302
v -0.000401 -0.009749 -0.002225
v -0.000401 -0.009749 -0.002225
v -0.000401 -0.009749 -0.002225
v -0.000401 -0.009937 -0.001119
v -0.000401 -0.009937 -0.001119
v -0.000401 -0.009937 -0.001119
v -0.000401 -0.010000 -0.000000
v -0.000401 -0.010000 -0.000000
v -0.000401 -0.010000 -0.000000
v -0.000401 -0.009937 0.001120
v -0.000401 -0.009937 0.001120
v -0.000401 -0.009937 0.001120
v -0.000401 -0.009749 0.002226
v -0.000401 -0.009749 0.002226
v -0.000401 -0.009749 0.002226
v -0.000401 -0.009439 0.003303
v -0.000401 -0.009439 0.003303
v -0.000401 -0.009439 0.003303
v -0.000401 -0.009010 0.004339
v -0.000401 -0.009010 0.004339
v -0.000401 -0.009010 0.004339
v -0.000401 -0.008467 0.005321
v -0.000401 -0.008467 0.005321
v -0.000401 -0.008467 0.005321
v -0.000401 -0.007818 0.006235
v -0.000401 -0.007818 0.006235
v -0.000401 -0.007818 0.006235
v -0.000401 -0.007071 0.007071
v -0.000401 -0.007071 0.007071
v -0.000401 -0.007071 0.007071
v -0.000401 -0.007071 0.007071
v -0.000401 -0.006235 0.007819
v -0.000401 -0.006235 0.007819
v -0.000401 -0.006235 0.007819
v -0.000401 -0.006235 0.007819
v -0.000401 -0.005320 0.008468
v -0.000401 -0.005320 0.008468
v -0.000401 -0.005320 0.008468
v -0.000401 -0.004339 0.009010
v -0.000401 -0.004339 0.009010
v -0.000401 -0.004339 0.009010
v -0.000401 -0.003303 0.009439
v -0.000401 -0.003303 0.009439
v -0.000401 -0.003303 0.009439
v -0.000401 -0.002225 0.009750
v -0.000401 -0.002225 0.009750
v -0.000401 -0.002225 0.009750
v -0.000401 -0.001120 0.009937
v -0.000401 -0.001120 0.009937
v -0.000401 -0.001120 0.009937
v -0.000401 0.000000 0.010000
v -0.000401 0.000000 0.010000
v -0.000401 0.000000 0.010000
v -0.000401 0.001120 0.009937
v -0.000401 0.001120 0.009937
v -0.000401 0.001120 0.009937
v -0.000401 0.002225 0.009750
v -0.000401 0.002225 0.009750
v -0.000401 0.002225 0.009750
v -0.000401 0.003303 0.009439
v -0.000401 0.003303 0.009439
v -0.000401 0.003303 0.009439
v -0.000401 0.004339 0.009010
v -0.000401 0.004339 0.009010
v -0.000401 0.004339 0.009010
v -0.000401 0.005320 0.008468
v -0.000401 0.005320 0.008468
v -0.000401 0.005320 0.008468
v -0.000401 0.006235 0.007819
v -0.000401 0.006235 0.007819
v -0.000401 0.006235 0.007819
v -0.000401 0.007071 0.007071
v -0.000401 0.007071 0.007071
v -0.000401 0.007071 0.007071
v -0.000401 0.007071 0.007071
v -0.000401 0.007818 0.006235
v -0.000401 0.007818 0.006235
v -0.000401 0.007818 0.006235
v -0.000401 0.007818 0.006235
v -0.000401 0.008467 0.005321
v -0.000401 0.008467 0.005321
v -0.000401 0.008467 0.005321
v -0.000401 0.009009 0.004339
v -0.000401 0.009009 0.004339
v -0.000401 0.009009 0.004339
v -0.000401 0.009439 0.003303
v -0.000401 0.009439 0.003303
v -0.000401 0.009439 0.003303
v -0.000401 0.009749 0.002226
v -0.000401 0.009749 0.002226
v -0.000401 0.009749 0.002226
v -0.000401 0.009937 0.001120
v -0.000401 0.009937 0.001120
v -0.000401 0.009937 0.001120
v -0.000401 0.010000 -0.000000
v -0.000401 0.010000 -0.000000
v -0.000401 0.010000 -0.000000
v -0.000401 0.009937 -0.001119
v -0.000401 0.009937 -0.001119
v -0.000401 0.009937 -0.001119
v -0.000401 0.009749 -0.002225
v -0.000401 0.009749 -0.002225
v -0.000401 0.009749 -0.002225
v -0.000401 0.009439 -0.003302
v -0.000401 0.009439 -0.003302
v -0.000401 0.009439 -0.003302
v -0.000401 0.009009 -0.004338
v -0.000401 0.009009 -0.004338
v -0.000401 0.009009 -0.004338
v -0.000401 0.008467 -0.005320
v -0.000401 0.008467 -0.005320
v -0.000401 0.008467 -0.005320
v -0.000401 0.007818 -0.006234
v -0.000401 0.007818 -0.006234
v -0.000401 0.007818 -0.006234
v -0.000401 0.007071 -0.007071
v -0.000401 0.007071 -0.007071
v -0.000401 0.007071 -0.007071
v -0.000401 0.006235 -0.007818
v -0.000401 0.006235 -0.007818
v -0.000401 0.006235 -0.007818
v -0.000401 0.005320 -0.008467
v -0.000401 0.005320 -0.008467
v -0.000401 0.005320 -0.008467
v -0.000401 0.004339 -0.009009
v -0.000401 0.004339 -0.009009
v -0.000401 0.004339 -0.009009
v -0.000401 0.003303 -0.009438
v -0.000401 0.003303 -0.009438
v -0.000401 0.003303 -0.009438
v -0.000401 0.002225 -0.009749
v -0.000401 0.002225 -0.009749
v -0.000401 0.002225 -0.009749
v -0.000401 0.001120 -0.009937
v -0.000401 0.001120 -0.009937
v -0.000401 0.001120 -0.009937
v -0.000401 0.007934 0.000500
v -0.000401 0.007934 -0.000499
v -0.000401 0.007809 -0.001489
v -0.000401 0.007561 -0.002456
v -0.000401 0.007193 -0.003384
v -0.000401 0.006712 -0.004259
v -0.000401 0.006125 -0.005067
v -0.000401 0.005442 -0.005795
v -0.000401 0.004673 -0.006431
v -0.000401 0.003830 0.006967
v -0.000401 0.004673 0.006432
v -0.000401 0.005442 0.005796
v -0.000401 0.006125 0.005068
v -0.000401 0.006712 0.004260
v -0.000401 0.007193 0.003385
v -0.000401 0.007561 0.002457
v -0.000401 0.007809 0.001490
v -0.000401 0.003830 -0.006966
v -0.000401 0.002926 -0.007391
v -0.000401 0.001977 -0.007700
v -0.000401 0.000996 -0.007887
v -0.000401 0.000000 -0.007949
v -0.000401 -0.000996 -0.007887
v -0.000401 -0.001977 -0.007700
v -0.000401 -0.002927 -0.007391
v -0.000401 -0.003830 -0.006966
v -0.000401 -0.004673 0.006432
v -0.000401 -0.003830 0.006967
v -0.000401 -0.002927 0.007392
v -0.000401 -0.001977 0.007701
v -0.000401 -0.000996 0.007888
v -0.000401 0.000000 0.007950
v -0.000401 0.000996 0.007888
v -0.000401 0.001977 0.007701
v -0.000401 0.002926 0.007392
v -0.000401 -0.007934 -0.000499
v -0.000401 -0.007934 0.000500
v -0.000401 -0.007809 0.001490
v -0.000401 -0.007561 0.002457
v -0.000401 -0.007193 0.003385
v -0.000401 -0.006712 0.004260
v -0.000401 -0.006126 0.005068
v -0.000401 -0.005442 0.005796
v -0.000401 -0.004673 -0.006431
v -0.000401 -0.005442 -0.005795
v -0.000401 -0.006126 -0.005067
v -0.000401 -0.006712 -0.004259
v -0.000401 -0.007193 -0.003384
v -0.000401 -0.007561 -0.002456
v -0.000401 -0.007809 -0.001489
vn -1.0000 -0.0000 -0.0000
vn 1.0000 -0.0000 -0.0000
vn -0.0000 0.6663 -0.7457
vn -0.0000 -0.0562 -0.9984
vn -0.0000 -0.0561 -0.9984
vn -0.0000 -0.1677 -0.9858
vn -0.0000 -0.2769 -0.9609
vn -0.0000 -0.3826 -0.9239
vn -0.0000 -0.3829 -0.9238
vn -0.0000 -0.4836 -0.8753
vn -0.0000 -0.5785 -0.8157
vn -0.0000 -0.6663 -0.7457
vn -0.0000 -0.7456 -0.6664
vn -0.0000 -0.7455 -0.6665
vn -0.0000 -0.8156 -0.5787
vn -0.0000 -0.8753 -0.4836
vn -0.0000 -0.8751 -0.4839
vn -0.0000 -0.9239 -0.3826
vn -0.0000 -0.9238 -0.3829
vn -0.0000 -0.9610 -0.2766
vn -0.0000 -0.9859 -0.1676
vn -0.0000 -0.9984 -0.0559
vn -0.0000 -0.9984 0.0562
vn -0.0000 -0.9859 0.1676
vn -0.0000 -0.9610 0.2766
vn -0.0000 -0.9237 0.3830
vn -0.0000 -0.9239 0.3826
vn -0.0000 -0.8751 0.4839
vn -0.0000 -0.8156 0.5787
vn -0.0000 -0.7457 0.6663
vn -0.0000 -0.6664 0.7456
vn -0.0000 -0.5788 0.8155
vn -0.0000 -0.5785 0.8157
vn -0.0000 -0.4836 0.8753
vn -0.0000 -0.3826 0.9239
vn -0.0000 -0.3829 0.9238
vn -0.0000 -0.2769 0.9609
vn -0.0000 -0.1673 0.9859
vn -0.0000 -0.1674 0.9859
vn -0.0000 -0.0562 0.9984
vn -0.0000 0.0562 0.9984
vn -0.0000 0.1673 0.9859
vn -0.0000 0.2769 0.9609
vn -0.0000 0.2767 0.9609
vn -0.0000 0.3829 0.9238
vn -0.0000 0.3830 0.9237
vn -0.0000 0.4836 0.8753
vn -0.0000 0.5788 0.8155
vn -0.0000 0.5789 0.8154
vn -0.0000 0.6663 0.7457
vn -0.0000 0.7457 0.6663
vn -0.0000 0.8154 0.5790
vn -0.0000 0.8156 0.5786
vn -0.0000 0.8753 0.4835
vn -0.0000 0.8753 0.4836
vn -0.0000 0.9239 0.3827
vn -0.0000 0.9239 0.3826
vn -0.0000 0.9610 0.2766
vn -0.0000 0.9859 0.1676
vn -0.0000 0.9984 0.0562
vn -0.0000 0.9984 -0.0562
vn -0.0000 0.9984 -0.0559
vn -0.0000 0.9859 -0.1676
vn -0.0000 0.9610 -0.2766
vn -0.0000 0.9239 -0.3826
vn -0.0000 0.8753 -0.4836
vn -0.0000 0.8154 -0.5790
vn -0.0000 0.8156 -0.5786
vn -0.0000 0.7456 -0.6664
vn -0.0000 0.5785 -0.8157
vn -0.0000 0.5788 -0.8155
vn -0.0000 0.4836 -0.8753
vn -0.0000 0.3829 -0.9238
vn -0.0000 0.3830 -0.9237
vn -0.0000 0.2769 -0.9609
vn -0.0000 0.2767 -0.9609
vn -0.0000 0.1677 -0.9858
vn -0.0000 0.0562 -0.9984
vn -0.0000 0.0561 -0.9984
vn -0.0000 -0.8156 -0.5786
vn -0.0000 -0.9237 -0.3830
vn -0.0000 -0.9238 0.3829
vn -0.0000 -0.8156 0.5786
vn -0.0000 -0.6663 0.7457
vn -0.0000 0.6664 0.7456
s 1
usemtl lwl
f 390//1 429//1 428//1
f 411//1 434//1 406//1
f 274//1 471//1 470//1
f 397//1 432//1 431//1
f 188//2 65//2 185//2
f 406//1 433//1 404//1
f 337//1 457//1 456//1
f 259//1 448//1 256//1
f 427//1 385//1 428//1
f 395//1 431//1 430//1
f 404//1 432//1 401//1
f 424//1 448//1 447//1
f 315//1 467//1 312//1
f 344//1 458//1 342//1
f 331//1 455//1 454//1
f 202//2 61//2 199//2
f 199//2 62//2 196//2
f 196//2 63//2 192//2
f 192//2 64//2 188//2
f 185//2 66//2 183//2
f 183//2 67//2 181//2
f 181//2 1//2 176//2
f 173//2 1//2 2//2
f 172//2 2//2 3//2
f 168//2 3//2 4//2
f 166//2 4//2 5//2
f 162//2 5//2 6//2
f 159//2 6//2 7//2
f 155//2 7//2 8//2
f 154//2 8//2 9//2
f 409//3 197//3 194//3
f 178//4 260//4 257//5
f 69//2 71//2 37//2
f 37//2 71//2 74//2
f 37//2 74//2 36//2
f 36//2 74//2 78//2
f 36//2 78//2 35//2
f 35//2 78//2 82//2
f 35//2 82//2 34//2
f 34//2 82//2 84//2
f 34//2 84//2 33//2
f 33//2 84//2 86//2
f 33//2 86//2 32//2
f 32//2 86//2 91//2
f 32//2 91//2 31//2
f 31//2 91//2 92//2
f 31//2 92//2 30//2
f 30//2 92//2 96//2
f 30//2 96//2 29//2
f 29//2 96//2 100//2
f 29//2 100//2 28//2
f 28//2 100//2 102//2
f 28//2 102//2 27//2
f 27//2 102//2 105//2
f 27//2 105//2 26//2
f 26//2 105//2 109//2
f 26//2 109//2 25//2
f 25//2 109//2 115//2
f 25//2 115//2 24//2
f 23//2 113//2 117//2
f 24//2 118//2 22//2
f 22//2 118//2 120//2
f 22//2 120//2 20//2
f 21//2 121//2 125//2
f 21//2 125//2 19//2
f 18//2 127//2 130//2
f 17//2 131//2 16//2
f 16//2 131//2 133//2
f 16//2 133//2 15//2
f 15//2 133//2 136//2
f 15//2 136//2 14//2
f 14//2 136//2 139//2
f 14//2 139//2 13//2
f 13//2 139//2 143//2
f 13//2 143//2 12//2
f 11//2 144//2 147//2
f 12//2 145//2 10//2
f 10//2 145//2 151//2
f 10//2 151//2 9//2
f 9//2 151//2 154//2
f 60//2 202//2 59//2
f 59//2 202//2 203//2
f 59//2 203//2 58//2
f 58//2 203//2 206//2
f 58//2 206//2 56//2
f 57//2 207//2 211//2
f 56//2 210//2 55//2
f 55//2 210//2 215//2
f 55//2 215//2 54//2
f 54//2 215//2 219//2
f 54//2 219//2 53//2
f 53//2 219//2 221//2
f 53//2 221//2 52//2
f 52//2 221//2 224//2
f 52//2 224//2 50//2
f 49//2 223//2 229//2
f 51//2 231//2 47//2
f 48//2 230//2 232//2
f 48//2 232//2 46//2
f 46//2 232//2 236//2
f 46//2 236//2 45//2
f 44//2 235//2 241//2
f 45//2 239//2 43//2
f 43//2 239//2 243//2
f 43//2 243//2 41//2
f 41//2 243//2 246//2
f 42//2 250//2 40//2
f 39//2 246//2 253//2
f 39//2 253//2 38//2
f 38//2 253//2 69//2
f 38//2 69//2 37//2
f 262//6 174//6 170//6
f 266//7 171//7 169//7
f 267//8 167//8 165//9
f 270//10 164//10 163//10
f 275//11 161//11 158//11
f 278//12 160//12 156//12
f 279//13 157//14 152//14
f 283//15 153//15 150//15
f 286//16 149//16 148//17
f 290//18 146//18 141//19
f 292//20 142//20 138//20
f 294//21 140//21 137//21
f 297//22 135//22 132//22
f 300//23 134//23 129//23
f 304//24 128//24 126//24
f 307//25 124//25 122//25
f 311//26 123//27 116//27
f 314//28 119//28 114//28
f 316//29 112//29 111//29
f 321//30 110//30 106//30
f 325//31 104//31 101//31
f 328//32 103//32 98//33
f 330//34 99//34 95//34
f 333//35 97//35 94//36
f 335//37 93//37 89//37
f 338//38 90//38 87//39
f 341//40 88//40 83//40
f 345//41 85//41 81//41
f 349//42 80//42 79//42
f 352//43 77//43 75//44
f 355//45 76//45 73//46
f 358//47 72//47 70//47
f 361//48 68//48 254//49
f 364//50 252//50 247//50
f 367//51 248//51 244//51
f 370//52 245//52 242//53
f 375//54 240//54 238//55
f 376//56 237//56 234//57
f 380//58 233//58 227//58
f 383//59 228//59 225//59
f 387//60 226//60 220//60
f 388//61 222//62 217//62
f 391//63 218//63 216//63
f 394//64 214//64 213//64
f 398//65 212//65 209//65
f 402//66 208//66 205//66
f 403//67 204//67 200//68
f 407//69 201//69 198//69
f 413//70 195//70 191//71
f 416//72 193//72 189//72
f 419//73 190//73 187//74
f 422//75 186//75 182//76
f 426//77 184//77 179//77
f 255//78 180//78 177//79
f 428//1 385//1 390//1
f 384//1 443//1 381//1
f 381//1 442//1 377//1
f 308//1 466//1 465//1
f 373//1 440//1 372//1
f 366//1 440//1 439//1
f 362//1 439//1 438//1
f 360//1 438//1 437//1
f 319//1 468//1 315//1
f 309//1 467//1 466//1
f 289//1 474//1 287//1
f 303//1 465//1 464//1
f 302//1 464//1 463//1
f 453//1 327//1 454//1
f 444//1 414//1 415//1
f 334//1 456//1 455//1
f 353//1 461//1 350//1
f 272//1 470//1 452//1
f 454//1 327//1 331//1
f 269//1 451//1 265//1
f 265//1 450//1 261//1
f 261//1 449//1 259//1
f 423//1 447//1 446//1
f 420//1 446//1 445//1
f 415//1 445//1 444//1
f 436//1 353//1 356//1
f 463//1 299//1 302//1
f 296//1 476//1 291//1
f 291//1 475//1 289//1
f 377//1 441//1 373//1
f 287//1 473//1 284//1
f 281//1 473//1 472//1
f 277//1 472//1 471//1
f 452//1 269//1 272//1
f 323//1 469//1 319//1
f 414//1 435//1 411//1
f 350//1 460//1 348//1
f 348//1 459//1 344//1
f 356//1 437//1 436//1
f 339//1 458//1 457//1
f 462//1 299//1 463//1
f 393//1 430//1 429//1
f 390//1 393//1 429//1
f 411//1 435//1 434//1
f 274//1 277//1 471//1
f 397//1 401//1 432//1
f 188//2 64//2 65//2
f 406//1 434//1 433//1
f 337//1 339//1 457//1
f 259//1 449//1 448//1
f 427//1 384//1 385//1
f 395//1 397//1 431//1
f 404//1 433//1 432//1
f 424//1 256//1 448//1
f 315//1 468//1 467//1
f 344//1 459//1 458//1
f 331//1 334//1 455//1
f 202//2 60//2 61//2
f 199//2 61//2 62//2
f 196//2 62//2 63//2
f 192//2 63//2 64//2
f 185//2 65//2 66//2
f 183//2 66//2 67//2
f 181//2 67//2 1//2
f 173//2 176//2 1//2
f 172//2 173//2 2//2
f 168//2 172//2 3//2
f 166//2 168//2 4//2
f 162//2 166//2 5//2
f 159//2 162//2 6//2
f 155//2 159//2 7//2
f 154//2 155//2 8//2
f 409//3 408//3 197//3
f 178//4 175//5 260//4
f 262//6 258//6 174//6
f 266//7 263//7 171//7
f 267//8 264//9 167//8
f 270//10 268//10 164//10
f 275//11 271//11 161//11
f 278//12 273//12 160//12
f 279//13 276//13 157//14
f 283//15 280//80 153//15
f 286//16 282//17 149//16
f 290//18 285//81 146//18
f 292//20 288//20 142//20
f 294//21 293//21 140//21
f 297//22 295//22 135//22
f 300//23 298//23 134//23
f 304//24 301//24 128//24
f 307//25 305//25 124//25
f 311//26 306//82 123//27
f 314//28 310//28 119//28
f 316//29 313//83 112//29
f 320//30 317//30 108//30
f 322//84 318//84 107//84
f 328//32 324//33 103//32
f 330//34 326//34 99//34
f 333//35 329//36 97//35
f 335//37 332//37 93//37
f 338//38 336//38 90//38
f 341//40 340//40 88//40
f 345//41 343//41 85//41
f 349//42 346//42 80//42
f 352//43 347//44 77//43
f 355//45 351//46 76//45
f 358//47 354//47 72//47
f 361//48 357//49 68//48
f 365//85 359//85 251//85
f 369//51 363//51 249//51
f 370//52 368//52 245//52
f 375//54 371//55 240//54
f 376//56 374//57 237//56
f 380//58 378//58 233//58
f 383//59 379//59 228//59
f 387//60 382//60 226//60
f 388//61 386//61 222//62
f 391//63 389//63 218//63
f 394//64 392//64 214//64
f 398//65 396//65 212//65
f 402//66 399//66 208//66
f 403//67 400//67 204//67
f 407//69 405//69 201//69
f 413//70 410//70 195//70
f 416//72 412//72 193//72
f 419//73 417//74 190//73
f 422//75 418//76 186//75
f 426//77 421//77 184//77
f 255//78 425//79 180//78
f 384//1 427//1 443//1
f 381//1 443//1 442//1
f 308//1 309//1 466//1
f 373//1 441//1 440//1
f 366//1 372//1 440//1
f 362//1 366//1 439//1
f 360//1 362//1 438//1
f 319//1 469//1 468//1
f 309//1 312//1 467//1
f 289//1 475//1 474//1
f 303//1 308//1 465//1
f 302//1 303//1 464//1
f 453//1 323//1 327//1
f 334//1 337//1 456//1
f 353//1 436//1 461//1
f 272//1 274//1 470//1
f 269//1 452//1 451//1
f 265//1 451//1 450//1
f 261//1 450//1 449//1
f 423//1 424//1 447//1
f 420//1 423//1 446//1
f 415//1 420//1 445//1
f 296//1 462//1 476//1
f 291//1 476//1 475//1
f 377//1 442//1 441//1
f 287//1 474//1 473//1
f 281//1 284//1 473//1
f 277//1 281//1 472//1
f 323//1 453//1 469//1
f 414//1 444//1 435//1
f 350//1 461//1 460//1
f 348//1 460//1 459//1
f 356//1 360//1 437//1
f 339//1 342//1 458//1
f 462//1 296//1 299//1
f 393//1 395//1 430//1
