# Blender 3.6.1
# www.blender.org
mtllib depth_camera.mtl
o depth_camera
v -0.015200 -0.019602 0.047000
v -0.015200 -0.019602 0.047000
v -0.015200 -0.019602 0.047000
v -0.015200 0.019602 0.047000
v -0.015200 0.019602 0.047000
v -0.015200 0.019602 0.047000
v -0.015200 -0.019602 -0.047000
v -0.015200 -0.019602 -0.047000
v -0.015200 -0.019602 -0.047000
v -0.015200 0.019602 -0.047000
v -0.015200 0.019602 -0.047000
v -0.015200 0.019602 -0.047000
v 0.015200 -0.019602 0.047000
v 0.015200 -0.019602 0.047000
v 0.015200 -0.019602 0.047000
v 0.015200 0.019602 0.047000
v 0.015200 0.019602 0.047000
v 0.015200 0.019602 0.047000
v 0.015200 -0.019602 -0.047000
v 0.015200 -0.019602 -0.047000
v 0.015200 -0.019602 -0.047000
v 0.015200 0.019602 -0.047000
v 0.015200 0.019602 -0.047000
v 0.015200 0.019602 -0.047000
vn -1.0000 -0.0000 -0.0000
vn 1.0000 -0.0000 -0.0000
vn -0.0000 1.0000 -0.0000
vn -0.0000 -0.0000 1.0000
vn -0.0000 -0.0000 -1.0000
vn -0.0000 -1.0000 -0.0000
vt 0.281622 0.705685
vt 0.563243 0.000000
vt 0.563243 0.705685
vt 0.000000 0.705685
vt 0.281622 0.000000
vt 0.781622 0.705685
vt 1.000000 0.000000
vt 1.000000 0.705685
vt 0.344865 1.000000
vt 0.344865 0.705685
vt 0.563243 1.000000
vt 0.781622 0.000000
vt 0.000000 0.000000
vt 0.781622 1.000000
s 1
usemtl depth_camera
f 4/1/1 7/2/1 2/3/1
f 24/4/2 15/5/2 21/1/2
f 10/6/3 17/7/3 23/8/3
f 5/3/4 14/9/4 16/10/4
f 22/6/5 9/11/5 11/3/5
f 19/12/6 1/3/6 8/2/6
f 4/1/1 12/5/1 7/2/1
f 24/4/2 18/13/2 15/5/2
f 10/6/3 6/12/3 17/7/3
f 5/3/4 3/11/4 14/9/4
f 22/6/5 20/14/5 9/11/5
f 19/12/6 13/6/6 1/3/6
