# Blender 3.6.1
# www.blender.org
mtllib handle.mtl
o handle
v -0.028448 0.044330 0.044081
v -0.028448 0.044330 0.044081
v -0.028448 0.044330 0.044081
v -0.028448 0.044330 0.044081
v -0.029471 0.048195 0.046770
v -0.029471 0.048195 0.046770
v -0.029471 0.048195 0.046770
v -0.029471 0.048195 0.046770
v -0.028448 0.044330 -0.044081
v -0.028448 0.044330 -0.044081
v -0.028448 0.044330 -0.044081
v -0.028448 0.044330 -0.044081
v -0.029471 0.048195 -0.046770
v -0.029471 0.048195 -0.046770
v -0.029471 0.048195 -0.046770
v -0.029471 0.048195 -0.046770
v 0.017972 0.056621 0.044081
v 0.017972 0.056621 0.044081
v 0.017972 0.056621 0.044081
v 0.017972 0.056621 0.044081
v 0.016948 0.060485 0.046770
v 0.016948 0.060485 0.046770
v 0.016948 0.060485 0.046770
v 0.016948 0.060485 0.046770
v 0.017972 0.056621 -0.044081
v 0.017972 0.056621 -0.044081
v 0.017972 0.056621 -0.044081
v 0.017972 0.056621 -0.044081
v 0.017972 0.056621 -0.044081
v 0.016948 0.060485 -0.046770
v 0.016948 0.060485 -0.046770
v 0.016948 0.060485 -0.046770
v 0.016948 0.060485 -0.046770
v -0.039221 -0.006933 0.061051
v -0.039221 -0.006933 0.061051
v -0.039221 -0.006933 0.061051
v -0.039221 -0.006933 0.061051
v -0.039221 -0.006933 0.061051
v -0.039083 -0.007454 0.064838
v -0.039083 -0.007454 0.064838
v -0.039083 -0.007454 0.064838
v -0.039083 -0.007454 0.064838
v -0.039083 -0.007454 0.064838
v -0.039083 -0.007454 0.064838
v -0.039083 -0.007454 -0.064838
v -0.039083 -0.007454 -0.064838
v -0.039083 -0.007454 -0.064838
v -0.039083 -0.007454 -0.064838
v -0.039083 -0.007454 -0.064838
v -0.039083 -0.007454 -0.064838
v -0.039221 -0.006933 -0.061051
v -0.039221 -0.006933 -0.061051
v -0.039221 -0.006933 -0.061051
v -0.039221 -0.006933 -0.061051
v 0.036858 0.013210 -0.061051
v 0.036858 0.013210 -0.061051
v 0.036858 0.013210 -0.061051
v 0.036858 0.013210 -0.061051
v 0.036858 0.013210 -0.061051
v 0.036995 0.012689 -0.064838
v 0.036995 0.012689 -0.064838
v 0.036995 0.012689 -0.064838
v 0.036995 0.012689 -0.064838
v 0.036995 0.012689 -0.064838
v 0.036995 0.012689 -0.064838
v 0.036995 0.012689 0.064838
v 0.036995 0.012689 0.064838
v 0.036995 0.012689 0.064838
v 0.036995 0.012689 0.064838
v 0.036995 0.012689 0.064838
v 0.036995 0.012689 0.064838
v 0.036858 0.013210 0.061051
v 0.036858 0.013210 0.061051
v 0.036858 0.013210 0.061051
v 0.036858 0.013210 0.061051
v 0.036858 0.013210 0.061051
v -0.043121 -0.054900 0.061051
v -0.043121 -0.054900 0.061051
v -0.043121 -0.054900 0.061051
v -0.043121 -0.054900 0.061051
v -0.043121 -0.054900 0.061051
v -0.042162 -0.058523 0.064687
v -0.042162 -0.058523 0.064687
v -0.042162 -0.058523 0.064687
v -0.042162 -0.058523 0.064687
v -0.042162 -0.058523 -0.064687
v -0.042162 -0.058523 -0.064687
v -0.042162 -0.058523 -0.064687
v -0.042162 -0.058523 -0.064687
v -0.043121 -0.054900 -0.061051
v -0.043121 -0.054900 -0.061051
v -0.043121 -0.054900 -0.061051
v -0.043121 -0.054900 -0.061051
v -0.043121 -0.054900 -0.061051
v 0.053364 -0.029354 -0.061051
v 0.053364 -0.029354 -0.061051
v 0.053364 -0.029354 -0.061051
v 0.053364 -0.029354 -0.061051
v 0.053364 -0.029354 -0.061051
v 0.054323 -0.032977 -0.064687
v 0.054323 -0.032977 -0.064687
v 0.054323 -0.032977 -0.064687
v 0.054323 -0.032977 -0.064687
v 0.054323 -0.032977 0.064687
v 0.054323 -0.032977 0.064687
v 0.054323 -0.032977 0.064687
v 0.054323 -0.032977 0.064687
v 0.053364 -0.029354 0.061051
v 0.053364 -0.029354 0.061051
v 0.053364 -0.029354 0.061051
v 0.053364 -0.029354 0.061051
v 0.053364 -0.029354 0.061051
v -0.043121 -0.054900 0.042727
v -0.043121 -0.054900 0.042727
v -0.043121 -0.054900 0.042727
v -0.042162 -0.058523 0.042727
v -0.042162 -0.058523 0.042727
v -0.042162 -0.058523 0.042727
v -0.042162 -0.058523 -0.042727
v -0.042162 -0.058523 -0.042727
v -0.042162 -0.058523 -0.042727
v -0.043121 -0.054900 -0.042727
v -0.043121 -0.054900 -0.042727
v -0.043121 -0.054900 -0.042727
v 0.053364 -0.029354 -0.042727
v 0.053364 -0.029354 -0.042727
v 0.053364 -0.029354 -0.042727
v 0.054323 -0.032977 -0.042727
v 0.054323 -0.032977 -0.042727
v 0.054323 -0.032977 -0.042727
v 0.054323 -0.032977 0.042727
v 0.054323 -0.032977 0.042727
v 0.054323 -0.032977 0.042727
v 0.053364 -0.029354 0.042727
v 0.053364 -0.029354 0.042727
v 0.053364 -0.029354 0.042727
v -0.012459 0.033305 -0.053368
v -0.022974 -0.028613 0.061051
v -0.022974 -0.028613 0.061051
v -0.012459 0.033305 0.053368
v -0.012459 0.033305 0.053368
v -0.018354 -0.001408 -0.061051
v -0.018454 -0.001992 0.064838
v -0.012459 0.033305 -0.049429
v -0.012459 0.033305 -0.049429
v -0.012459 0.033305 0.049429
v -0.022974 -0.028613 -0.061051
v -0.022974 -0.028613 -0.061051
v -0.012459 0.033305 0.053368
v -0.018454 -0.001992 -0.064838
v -0.022974 -0.028613 -0.064762
v -0.022974 -0.028613 -0.061051
v -0.022974 -0.028613 0.064762
v -0.022974 -0.028613 0.064762
v 0.005133 0.037963 -0.053368
v 0.005133 0.037963 -0.053368
v -0.022974 -0.028613 0.061051
v -0.022974 -0.028613 0.064762
v 0.017706 0.007582 -0.064838
v 0.027189 -0.015332 -0.064762
v 0.027189 -0.015332 -0.061051
v 0.027189 -0.015332 -0.064762
v 0.027189 -0.015332 -0.064762
v 0.027189 -0.015332 0.061051
v 0.027189 -0.015332 0.064762
v -0.022974 -0.028613 -0.064762
v -0.022974 -0.028613 -0.064762
v -0.018354 -0.001408 0.061051
v -0.018354 -0.001408 0.061051
v -0.012459 0.033305 -0.053368
v -0.012459 0.033305 -0.053368
v -0.018454 -0.001992 0.064838
v -0.018454 -0.001992 0.064838
v -0.012459 0.033305 -0.049429
v -0.012459 0.033305 -0.049429
v 0.005133 0.037963 -0.049429
v 0.005133 0.037963 -0.049429
v 0.005133 0.037963 -0.053368
v 0.005133 0.037963 -0.049429
v 0.005133 0.037963 0.049429
v -0.012459 0.033305 0.049429
v -0.012459 0.033305 0.049429
v 0.005133 0.037963 0.053368
v 0.005133 0.037963 0.049429
v 0.005133 0.037963 0.049429
v -0.018454 -0.001992 -0.064838
v -0.018454 -0.001992 -0.064838
v 0.005133 0.037963 0.053368
v 0.005133 0.037963 0.053368
v 0.017499 0.008085 -0.061051
v -0.018354 -0.001408 -0.061051
v -0.018354 -0.001408 -0.061051
v 0.027189 -0.015332 -0.061051
v 0.027189 -0.015332 -0.061051
v 0.017499 0.008085 0.061051
v 0.017499 0.008085 0.061051
v 0.017499 0.008085 0.061051
v 0.027189 -0.015332 0.061051
v 0.027189 -0.015332 0.061051
v 0.017706 0.007582 0.064838
v 0.017706 0.007582 0.064838
v 0.017706 0.007582 0.064838
v 0.027189 -0.015332 0.064762
v 0.027189 -0.015332 0.064762
v 0.017706 0.007582 -0.064838
v 0.017706 0.007582 -0.064838
v 0.017499 0.008085 -0.061051
v 0.017499 0.008085 -0.061051
v -0.018354 -0.001408 0.061051
v -0.018872 0.039066 -0.046815
v -0.018733 0.038989 0.046855
v -0.018733 0.038989 0.046855
v -0.018733 0.038989 0.046855
v -0.018733 0.038989 0.046855
v -0.018733 0.038989 0.046855
v -0.018733 0.038989 0.046855
v -0.018733 0.038989 0.046855
v 0.012255 0.047307 0.046815
v 0.012255 0.047307 0.046815
v 0.012255 0.047307 0.046815
v 0.012171 0.047170 0.046855
v 0.012171 0.047170 0.046855
v 0.012171 0.047170 0.046855
v 0.012171 0.047170 0.046855
v -0.018872 0.039066 -0.046815
v -0.018872 0.039066 -0.046815
v -0.018872 0.039066 -0.046815
v -0.018731 0.038988 -0.046855
v -0.018731 0.038988 -0.046855
v -0.018731 0.038988 -0.046855
v -0.018731 0.038988 -0.046855
v 0.012171 0.047170 0.046855
v 0.012171 0.047170 -0.046855
v 0.017972 0.056621 -0.044081
v -0.018731 0.038988 0.046855
v -0.018731 0.038988 0.046855
v -0.018731 0.038988 0.046855
v 0.012171 0.047170 -0.046855
v 0.012171 0.047170 -0.046855
v 0.012171 0.047170 -0.046855
v 0.012171 0.047170 -0.046855
v 0.012255 0.047307 0.046815
v -0.018731 0.038988 0.046855
v -0.018731 0.038988 -0.046855
v -0.028448 0.044330 0.044081
v -0.018872 0.039066 -0.046815
v -0.018872 0.039066 -0.046815
v -0.018731 0.038988 0.046855
v -0.018731 0.038988 -0.046855
v -0.018731 0.038988 -0.046855
v -0.028448 0.044330 -0.044081
v 0.017972 0.056621 0.044081
v 0.012173 0.047172 -0.046855
v 0.012173 0.047172 -0.046855
v 0.012173 0.047172 -0.046855
v 0.012173 0.047172 -0.046855
v 0.012173 0.047172 -0.046855
v 0.012173 0.047172 -0.046855
v 0.012173 0.047172 -0.046855
v 0.017972 0.056621 -0.044081
v 0.012255 0.047307 0.046815
v 0.012255 0.047307 0.046815
v 0.012171 0.047170 0.046855
v 0.012171 0.047170 -0.046855
v 0.012171 0.047170 -0.046855
v 0.012173 0.047172 -0.046855
v 0.012173 0.047172 -0.046855
v -0.028448 0.044330 0.044081
vn -0.9667 -0.2559 -0.0000
vn 0.9309 0.3398 0.1341
vn 0.9667 0.2559 -0.0000
vn 0.0873 -0.3295 -0.9401
vn 0.0873 -0.3296 -0.9401
vn 0.6614 -0.7500 0.0005
vn -0.2559 0.9667 -0.0000
vn 0.9322 0.3615 0.0158
vn 0.0008 -0.0030 1.0000
vn 0.0873 -0.3295 0.9401
vn 0.0872 -0.3295 0.9401
vn -0.0850 0.3209 0.9433
vn 0.9135 0.4063 0.0226
vn -0.0850 0.3209 -0.9433
vn -0.9718 0.2263 -0.0665
vn -0.9187 0.0308 -0.3939
vn 0.0008 -0.0030 -1.0000
vn -0.9956 0.0809 -0.0474
vn -0.0000 -0.0000 -1.0000
vn 0.9298 0.3525 -0.1059
vn -0.0000 -0.0000 1.0000
vn -0.9501 0.0564 0.3068
vn 0.2559 -0.9667 -0.0000
vn 0.9240 0.3824 -0.0001
vn 0.9240 0.3824 -0.0000
vn 0.9240 0.3824 0.0001
vn -0.9859 0.1674 -0.0002
vn -0.9859 0.1674 -0.0000
vn -0.9859 0.1674 0.0002
vn 0.8523 -0.5231 -0.0000
vn -0.2035 -0.9791 -0.0000
vn 0.0872 -0.3295 -0.9401
vn -0.2560 0.9667 -0.0001
vn -0.2560 0.9667 -0.0000
vn -0.4818 -0.8763 -0.0000
vn 0.9135 0.4063 -0.0226
vn -0.0564 -0.2718 -0.9607
vn 0.0886 -0.3287 -0.9403
vn 0.8523 -0.5230 -0.0000
vn 0.8533 -0.5215 -0.0000
vn 0.9298 0.3525 0.1059
vn 0.2126 -0.2412 0.9469
vn 0.0873 -0.3296 0.9401
vn 0.0872 -0.3296 0.9401
vn 0.0829 -0.3338 0.9390
vn -0.0850 0.3210 0.9433
vn 0.9309 0.3398 -0.1341
vn -0.0850 0.3210 -0.9433
vn -0.9187 0.0308 0.3939
vn -0.9718 0.2263 0.0665
vn -0.9501 0.0564 -0.3068
vn 0.9322 0.3615 -0.0158
vn -0.9956 0.0809 0.0474
vn -0.4796 -0.8775 -0.0000
vn 0.0868 -0.3277 0.9408
vn 0.0868 -0.3277 -0.9408
vt 0.327175 0.054871
vt 0.315298 0.330766
vt 0.315298 0.063036
vt 0.623511 0.063036
vt 0.476986 0.000000
vt 0.635738 0.054871
vt 0.623511 0.330766
vt 0.659683 0.061447
vt 0.782201 0.015373
vt 0.681900 0.089265
vt 0.407766 0.697023
vt 0.408122 0.981481
vt 0.408117 0.981479
vt 0.000000 0.980962
vt 0.147326 0.696901
vt 0.147326 0.980962
vt 0.476986 0.393802
vt 0.338637 0.382299
vt 0.478637 0.382299
vt 0.229139 0.473376
vt 0.302657 0.393802
vt 0.302657 0.696901
vt 0.675993 0.607635
vt 0.653777 0.635454
vt 0.653777 0.538375
vt 0.000000 0.659827
vt 0.000000 0.514002
vt 0.056188 0.607635
vt 0.383364 0.483067
vt 0.383364 0.538333
vt 0.327175 0.576701
vt 0.156622 0.393802
vt 0.158225 0.382299
vt 0.156622 0.000000
vt 0.302657 1.000000
vt 0.246440 0.696901
vt 0.338637 0.011503
vt 0.327175 0.067147
vt 0.327175 0.000459
vt 0.556314 0.617327
vt 0.556314 0.459743
vt 0.629832 0.393802
vt 0.011134 0.382299
vt 0.859122 0.223525
vt 0.859122 0.065941
vt 0.921147 0.000000
vt 0.853215 0.473376
vt 0.915241 0.393802
vt 0.915241 0.696901
vt 0.011134 0.011503
vt 0.000000 0.000459
vt 0.994094 0.393802
vt 0.982615 0.696901
vt 0.982615 0.393802
vt 1.000000 0.000000
vt 0.988522 0.303099
vt 0.988522 0.000000
vt 0.000000 0.067147
vt 0.327175 0.326655
vt 0.338637 0.326655
vt 0.921147 0.303099
vt 0.000000 0.326655
vt 0.011134 0.326655
vt 0.358874 1.000000
vt 0.659909 0.303099
vt 0.647824 0.358365
vt 0.647824 0.303099
vt 0.635738 0.303099
vt 0.635738 0.358365
vt 0.502702 0.800004
vt 0.518058 0.875340
vt 0.491640 0.803897
vt 0.529120 0.774466
vt 0.532630 0.875203
vt 0.518058 0.770572
vt 0.476244 0.806914
vt 0.491640 0.888029
vt 0.465153 0.810781
vt 0.442883 0.780195
vt 0.453160 0.887574
vt 0.431572 0.777018
vt 0.555863 0.696901
vt 0.567249 0.854485
vt 0.555863 0.854485
vt 0.544476 0.696901
vt 0.544476 0.854485
vt 0.408122 0.707255
vt 0.431572 0.696901
vt 0.431572 0.973977
vt 0.383498 0.696901
vt 0.383498 0.981481
vt 0.383493 0.981479
vt 0.245403 0.696901
vt 0.147326 0.981481
vt 0.653772 0.635458
vt 0.629832 0.659827
vt 0.653430 0.538022
vt 0.659679 0.158531
vt 0.635738 0.182899
vt 0.659337 0.061095
vt 0.000000 0.000000
vt 0.303726 0.404156
vt 0.327175 0.393802
vt 0.327175 0.670878
vt 0.327175 0.338931
vt 0.478637 0.011503
vt 0.635738 0.338931
vt 0.782201 0.254368
vt 0.659683 0.158526
vt 0.681900 0.144531
vt 0.782201 0.188817
vt 0.782201 0.076189
vt 0.635738 0.037074
vt 0.383498 0.973055
vt 0.408122 0.696901
vt 0.000000 0.696901
vt 0.327175 0.393343
vt 0.153857 0.681528
vt 0.229139 0.630960
vt 0.153857 0.620932
vt 0.153857 0.507339
vt 0.153857 0.442533
vt 0.776294 0.681528
vt 0.776294 0.620712
vt 0.776294 0.442533
vt 0.776294 0.508084
vt 0.675993 0.552370
vt 0.629832 0.514002
vt 0.056188 0.552370
vt 0.327175 0.430876
vt 0.481032 0.409175
vt 0.481032 0.469771
vt 0.481032 0.583364
vt 0.481032 0.648170
vt 0.158225 0.011503
vt 0.246440 1.000000
vt 0.338637 0.067147
vt 0.629832 0.696901
vt 0.000000 0.393343
vt 0.853215 0.630960
vt 0.994094 0.696901
vt 1.000000 0.303099
vt 0.011134 0.067147
vt 0.358874 0.696901
vt 0.659909 0.358365
vt 0.506897 0.877569
vt 0.506212 0.699267
vt 0.518058 0.696901
vt 0.533315 0.696901
vt 0.544476 0.699130
vt 0.544476 0.877569
vt 0.480450 0.890110
vt 0.479763 0.699110
vt 0.491640 0.696901
vt 0.441861 0.696901
vt 0.453160 0.698290
vt 0.465153 0.889049
vt 0.567249 0.696901
vt 0.358874 0.973055
vt 0.383142 0.697023
vt 0.245403 0.981481
s 1
usemtl handle
f 5/1/1 12/2/1 1/3/1
f 25/4/2 63/5/2 33/6/2
f 31/6/3 18/7/3 29/4/3
f 222/8/4 76/9/5 180/10/4
f 261/11/6 265/12/6 266/13/6
f 16/14/7 21/15/7 32/16/7
f 71/17/8 112/18/8 73/19/8
f 158/20/9 82/21/9 104/22/9
f 179/23/10 240/24/10 228/25/11
f 24/26/12 8/27/12 183/28/12
f 17/7/13 67/17/13 74/19/13
f 178/29/14 137/30/14 13/31/14
f 9/2/15 50/32/15 54/33/15
f 4/3/16 44/34/16 6/1/16
f 91/35/7 127/36/7 96/22/7
f 98/37/3 128/38/3 103/39/3
f 151/40/17 160/41/17 102/42/17
f 48/32/18 93/43/18 53/33/18
f 157/44/19 164/45/19 110/46/19
f 60/5/20 97/37/20 100/39/20
f 152/47/21 90/48/21 95/49/21
f 39/34/22 78/50/22 84/51/22
f 121/52/21 126/53/21 122/54/21
f 131/55/19 113/56/19 136/57/19
f 81/50/1 118/58/1 83/51/1
f 85/48/23 132/53/23 105/49/23
f 108/18/3 133/59/3 135/60/3
f 101/46/23 119/56/23 86/61/23
f 92/43/1 120/62/1 123/63/1
f 109/22/7 115/64/7 77/35/7
f 155/65/7 174/66/7 176/67/7
f 182/68/7 189/66/7 184/69/7
f 190/70/24 194/71/25 159/72/24
f 195/73/26 188/74/25 202/75/26
f 209/76/27 139/77/28 143/78/27
f 142/79/29 171/80/28 150/81/29
f 162/82/23 148/83/23 167/84/23
f 199/85/23 154/84/23 138/86/23
f 252/87/30 242/88/30 234/89/30
f 250/90/31 243/91/31 216/92/31
f 233/93/23 248/94/23 244/15/23
f 254/95/10 27/96/10 226/97/11
f 214/98/32 2/99/32 220/100/4
f 253/101/33 258/101/33 28/101/34
f 251/102/35 210/103/35 268/104/35
f 5/1/1 15/105/1 12/2/1
f 26/4/36 56/106/36 61/5/36
f 31/6/3 23/107/3 18/7/3
f 38/108/32 2/99/32 214/98/32
f 36/108/37 211/98/37 237/109/37
f 146/110/32 168/111/5 235/109/32
f 168/111/5 38/108/5 235/109/32
f 76/9/5 196/112/5 180/10/4
f 180/10/4 146/110/32 235/109/32
f 223/8/38 218/100/38 75/9/38
f 220/100/4 19/113/4 76/9/4
f 180/10/4 235/109/32 222/8/4
f 267/13/30 260/114/30 262/11/30
f 262/11/39 263/115/40 264/12/40
f 16/14/7 7/116/7 21/15/7
f 66/17/41 107/117/41 111/18/41
f 104/22/9 69/118/9 165/119/9
f 69/118/9 201/120/9 165/119/9
f 172/121/9 40/122/9 158/20/9
f 40/122/9 82/21/9 158/20/9
f 104/22/9 165/119/9 158/20/9
f 59/123/10 27/96/10 259/95/10
f 55/123/42 257/95/42 238/24/42
f 179/23/10 208/124/43 59/123/43
f 51/125/10 192/126/11 226/97/11
f 192/126/11 145/127/44 226/97/11
f 225/97/45 144/127/45 231/25/45
f 179/23/10 59/123/43 240/24/10
f 10/128/11 51/125/10 226/97/11
f 145/127/11 179/23/10 228/25/11
f 8/27/12 43/122/12 149/129/12
f 43/122/12 173/121/46 149/129/12
f 200/120/46 70/118/12 183/28/12
f 70/118/12 24/26/12 183/28/12
f 8/27/12 149/129/12 183/28/12
f 20/7/47 22/107/47 68/17/47
f 30/130/14 65/131/14 178/29/14
f 65/131/14 206/132/48 178/29/14
f 187/133/48 45/134/14 137/30/14
f 45/134/14 13/31/14 137/30/14
f 30/130/14 178/29/14 13/31/14
f 11/2/49 14/105/49 47/32/49
f 3/3/50 34/135/50 42/34/50
f 91/35/7 124/136/7 127/36/7
f 98/37/3 125/137/3 128/38/3
f 89/138/17 49/134/17 151/40/17
f 49/134/17 186/133/17 151/40/17
f 205/132/17 64/131/17 160/41/17
f 64/131/17 102/42/17 160/41/17
f 89/138/17 151/40/17 102/42/17
f 46/32/51 87/139/51 94/43/51
f 79/61/19 37/108/19 157/44/19
f 37/108/19 169/111/19 157/44/19
f 197/112/19 72/9/19 164/45/19
f 72/9/19 110/46/19 164/45/19
f 79/61/19 157/44/19 110/46/19
f 62/5/52 58/106/52 99/37/52
f 95/49/21 57/123/21 161/140/21
f 57/123/21 207/124/21 161/140/21
f 191/126/21 52/125/21 152/47/21
f 52/125/21 90/48/21 152/47/21
f 95/49/21 161/140/21 152/47/21
f 41/34/53 35/135/53 80/50/53
f 121/52/21 129/141/21 126/53/21
f 131/55/19 116/142/19 113/56/19
f 81/50/1 114/143/1 118/58/1
f 85/48/23 117/54/23 132/53/23
f 108/18/3 106/117/3 133/59/3
f 101/46/23 130/57/23 119/56/23
f 92/43/1 88/139/1 120/62/1
f 109/22/7 134/144/7 115/64/7
f 155/65/7 170/145/7 174/66/7
f 182/68/7 141/67/7 189/66/7
f 194/71/25 163/146/25 159/72/24
f 159/72/24 156/147/25 190/70/24
f 156/147/25 177/148/25 190/70/24
f 204/149/25 198/150/25 202/75/26
f 198/150/25 195/73/26 202/75/26
f 195/73/26 185/151/25 188/74/25
f 139/77/28 153/152/28 143/78/27
f 143/78/27 140/153/28 209/76/27
f 140/153/28 181/154/28 209/76/27
f 166/155/28 147/156/28 150/81/29
f 147/156/28 142/79/29 150/81/29
f 142/79/29 175/157/28 171/80/28
f 162/82/23 193/158/23 148/83/23
f 199/85/23 203/82/23 154/84/23
f 217/92/35 245/159/35 247/160/35
f 246/160/54 249/90/54 215/92/54
f 233/93/23 232/161/23 248/94/23
f 27/96/10 10/128/11 226/97/11
f 227/97/55 230/25/55 255/95/55
f 229/25/21 239/24/21 256/95/21
f 2/99/32 19/113/4 220/100/4
f 219/100/56 224/8/56 212/98/56
f 221/8/19 236/109/19 213/98/19
f 253/101/33 241/101/7 258/101/33
