# Blender 3.6.1
# www.blender.org
mtllib lidar.mtl
o lidar
v 0.036806 0.000000 0.000000
v -0.035857 0.000000 -0.000000
v 0.036072 -0.033704 0.037511
v 0.036072 -0.033704 0.037511
v 0.036072 -0.037562 0.033647
v 0.036072 -0.037562 0.033647
v 0.036072 -0.037562 0.033647
v 0.036072 -0.040980 0.029388
v 0.036072 -0.040980 0.029388
v 0.036072 -0.043916 0.024785
v 0.036072 -0.043916 0.024785
v 0.036072 -0.046339 0.019892
v 0.036072 -0.046339 0.019892
v 0.036072 -0.048218 0.014766
v 0.036072 -0.048218 0.014766
v 0.036072 -0.049531 0.009465
v 0.036072 -0.049531 0.009465
v 0.036072 -0.050264 0.004055
v 0.036072 -0.050264 0.004055
v 0.036072 -0.050408 -0.001403
v 0.036072 -0.050408 -0.001403
v 0.036072 -0.049960 -0.006846
v 0.036072 -0.049960 -0.006846
v 0.036072 -0.048928 -0.012207
v 0.036072 -0.048928 -0.012207
v 0.036072 -0.047321 -0.017426
v 0.036072 -0.047321 -0.017426
v 0.036072 -0.045160 -0.022440
v 0.036072 -0.045160 -0.022440
v 0.036072 -0.042469 -0.027191
v 0.036072 -0.042469 -0.027191
v 0.036072 -0.039280 -0.031624
v 0.036072 -0.039280 -0.031624
v 0.036072 -0.035631 -0.035685
v 0.036072 -0.035631 -0.035685
v 0.036072 -0.031564 -0.039328
v 0.036072 -0.031564 -0.039328
v 0.036072 -0.031564 -0.039328
v 0.036072 -0.027126 -0.042510
v 0.036072 -0.027126 -0.042510
v 0.036072 -0.022371 -0.045194
v 0.036072 -0.022371 -0.045194
v 0.036072 -0.017354 -0.047347
v 0.036072 -0.017354 -0.047347
v 0.036072 -0.012132 -0.048947
v 0.036072 -0.012132 -0.048947
v 0.036072 -0.006770 -0.049971
v 0.036072 -0.006770 -0.049971
v 0.036072 -0.001327 -0.050410
v 0.036072 -0.001327 -0.050410
v 0.036072 0.004131 -0.050258
v 0.036072 0.004131 -0.050258
v 0.036072 0.009540 -0.049517
v 0.036072 0.009540 -0.049517
v 0.036072 0.014838 -0.048195
v 0.036072 0.014838 -0.048195
v 0.036072 0.019962 -0.046309
v 0.036072 0.019962 -0.046309
v 0.036072 0.024852 -0.043878
v 0.036072 0.024852 -0.043878
v 0.036072 0.029451 -0.040935
v 0.036072 0.029451 -0.040935
v 0.036072 0.033704 -0.037511
v 0.036072 0.033704 -0.037511
v 0.036072 0.033704 -0.037511
v 0.036072 0.037561 -0.033646
v 0.036072 0.037561 -0.033646
v 0.036072 0.040980 -0.029388
v 0.036072 0.040980 -0.029388
v 0.036072 0.043916 -0.024785
v 0.036072 0.043916 -0.024785
v 0.036072 0.046339 -0.019891
v 0.036072 0.046339 -0.019891
v 0.036072 0.048217 -0.014765
v 0.036072 0.048217 -0.014765
v 0.036072 0.049531 -0.009465
v 0.036072 0.049531 -0.009465
v 0.036072 0.050264 -0.004055
v 0.036072 0.050264 -0.004055
v 0.036072 0.050408 0.001404
v 0.036072 0.050408 0.001404
v 0.036072 0.049961 0.006846
v 0.036072 0.049961 0.006846
v 0.036072 0.048928 0.012207
v 0.036072 0.048928 0.012207
v 0.036072 0.047321 0.017426
v 0.036072 0.047321 0.017426
v 0.036072 0.045160 0.022441
v 0.036072 0.045160 0.022441
v 0.036072 0.042469 0.027191
v 0.036072 0.042469 0.027191
v 0.036072 0.039280 0.031624
v 0.036072 0.039280 0.031624
v 0.036072 0.035631 0.035685
v 0.036072 0.035631 0.035685
v 0.036072 0.035631 0.035685
v 0.036072 0.031563 0.039329
v 0.036072 0.031563 0.039329
v 0.036072 0.027126 0.042510
v 0.036072 0.027126 0.042510
v 0.036072 0.022371 0.045194
v 0.036072 0.022371 0.045194
v 0.036072 0.017354 0.047347
v 0.036072 0.017354 0.047347
v 0.036072 0.012133 0.048947
v 0.036072 0.012133 0.048947
v 0.036072 0.006770 0.049971
v 0.036072 0.006770 0.049971
v 0.036072 0.001327 0.050410
v 0.036072 0.001327 0.050410
v 0.036072 -0.004131 0.050258
v 0.036072 -0.004131 0.050258
v 0.036072 -0.009541 0.049518
v 0.036072 -0.009541 0.049518
v 0.036072 -0.014838 0.048195
v 0.036072 -0.014838 0.048195
v 0.036072 -0.019962 0.046309
v 0.036072 -0.019962 0.046309
v 0.036072 -0.024853 0.043879
v 0.036072 -0.024853 0.043879
v 0.036072 -0.029451 0.040935
v 0.036072 -0.029451 0.040935
v -0.035857 0.030017 -0.041723
v -0.035857 0.030017 -0.041723
v -0.035857 0.025331 -0.044723
v -0.035857 0.025331 -0.044723
v -0.035857 0.020346 -0.047200
v -0.035857 0.020346 -0.047200
v -0.035857 0.015124 -0.049123
v -0.035857 0.015124 -0.049123
v -0.035857 0.009725 -0.050470
v -0.035857 0.009725 -0.050470
v -0.035857 0.004211 -0.051226
v -0.035857 0.004211 -0.051226
v -0.035857 -0.001353 -0.051381
v -0.035857 -0.001353 -0.051381
v -0.035857 -0.006900 -0.050934
v -0.035857 -0.006900 -0.050934
v -0.035857 -0.012366 -0.049889
v -0.035857 -0.012366 -0.049889
v -0.035857 -0.017687 -0.048259
v -0.035857 -0.017687 -0.048259
v -0.035857 -0.022802 -0.046064
v -0.035857 -0.022802 -0.046064
v -0.035857 -0.027648 -0.043329
v -0.035857 -0.027648 -0.043329
v -0.035857 -0.032171 -0.040085
v -0.035857 -0.032171 -0.040085
v -0.035857 -0.032171 -0.040085
v -0.035857 -0.036316 -0.036372
v -0.035857 -0.036316 -0.036372
v -0.035857 -0.040036 -0.032233
v -0.035857 -0.040036 -0.032233
v -0.035857 -0.043286 -0.027715
v -0.035857 -0.043286 -0.027715
v -0.035857 -0.046029 -0.022872
v -0.035857 -0.046029 -0.022872
v -0.035857 -0.048232 -0.017761
v -0.035857 -0.048232 -0.017761
v -0.035857 -0.049870 -0.012442
v -0.035857 -0.049870 -0.012442
v -0.035857 -0.050923 -0.006977
v -0.035857 -0.050923 -0.006977
v -0.035857 -0.051378 -0.001431
v -0.035857 -0.051378 -0.001431
v -0.035857 -0.051232 0.004133
v -0.035857 -0.051232 0.004133
v -0.035857 -0.050485 0.009647
v -0.035857 -0.050485 0.009647
v -0.035857 -0.049146 0.015049
v -0.035857 -0.049146 0.015049
v -0.035857 -0.047231 0.020274
v -0.035857 -0.047231 0.020274
v -0.035857 -0.044762 0.025262
v -0.035857 -0.044762 0.025262
v -0.035857 -0.041768 0.029953
v -0.035857 -0.041768 0.029953
v -0.035857 -0.038285 0.034295
v -0.035857 -0.038285 0.034295
v -0.035857 -0.038285 0.034295
v -0.035857 -0.034352 0.038232
v -0.035857 -0.034352 0.038232
v -0.035857 -0.030017 0.041722
v -0.035857 -0.030017 0.041722
v -0.035857 -0.025331 0.044723
v -0.035857 -0.025331 0.044723
v -0.035857 -0.020346 0.047200
v -0.035857 -0.020346 0.047200
v -0.035857 -0.015123 0.049123
v -0.035857 -0.015123 0.049123
v -0.035857 -0.009724 0.050470
v -0.035857 -0.009724 0.050470
v -0.035857 -0.004210 0.051225
v -0.035857 -0.004210 0.051225
v -0.035857 0.001353 0.051381
v -0.035857 0.001353 0.051381
v -0.035857 0.006900 0.050933
v -0.035857 0.006900 0.050933
v -0.035857 0.012367 0.049888
v -0.035857 0.012367 0.049888
v -0.035857 0.017688 0.048259
v -0.035857 0.017688 0.048259
v -0.035857 0.022802 0.046064
v -0.035857 0.022802 0.046064
v -0.035857 0.027649 0.043329
v -0.035857 0.027649 0.043329
v -0.035857 0.032172 0.040085
v -0.035857 0.032172 0.040085
v -0.035857 0.036317 0.036371
v -0.035857 0.036317 0.036371
v -0.035857 0.036317 0.036371
v -0.035857 0.040037 0.032232
v -0.035857 0.040037 0.032232
v -0.035857 0.043286 0.027714
v -0.035857 0.043286 0.027714
v -0.035857 0.046029 0.022872
v -0.035857 0.046029 0.022872
v -0.035857 0.048232 0.017762
v -0.035857 0.048232 0.017762
v -0.035857 0.049870 0.012442
v -0.035857 0.049870 0.012442
v -0.035857 0.050923 0.006977
v -0.035857 0.050923 0.006977
v -0.035857 0.051379 0.001431
v -0.035857 0.051379 0.001431
v -0.035857 0.051232 -0.004133
v -0.035857 0.051232 -0.004133
v -0.035857 0.050485 -0.009647
v -0.035857 0.050485 -0.009647
v -0.035857 0.049146 -0.015050
v -0.035857 0.049146 -0.015050
v -0.035857 0.047231 -0.020274
v -0.035857 0.047231 -0.020274
v -0.035857 0.044762 -0.025262
v -0.035857 0.044762 -0.025262
v -0.035857 0.041769 -0.029954
v -0.035857 0.041769 -0.029954
v -0.035857 0.038284 -0.034294
v -0.035857 0.038284 -0.034294
v -0.035857 0.034353 -0.038232
v -0.035857 0.034353 -0.038232
v -0.035857 0.034353 -0.038232
vn -1.0000 -0.0000 -0.0000
vn 0.0135 -0.5984 0.8011
vn 0.0135 -0.6545 0.7559
vn 0.0135 -0.5691 0.8222
vn 0.9999 -0.0127 0.0072
vn 0.9999 -0.0134 0.0057
vn 1.0000 -0.0000 -0.0000
vn 0.9999 0.0097 -0.0108
vn 0.9999 0.0108 -0.0097
vn 0.9999 0.0118 -0.0085
vn 0.9999 -0.0043 0.0139
vn 0.9999 -0.0058 0.0134
vn 0.9999 -0.0028 0.0143
vn 0.9999 -0.0012 0.0145
vn 0.9999 0.0139 -0.0043
vn 0.9999 0.0143 -0.0027
vn 0.9999 -0.0020 -0.0144
vn 0.9999 -0.0004 -0.0145
vn 0.9999 0.0035 0.0141
vn 0.9999 0.0020 0.0144
vn 0.9999 0.0065 0.0130
vn 0.9999 0.0050 0.0137
vn 0.9999 0.0141 0.0035
vn 0.9999 0.0137 0.0050
vn 0.9999 0.0091 0.0114
vn 0.9999 0.0078 0.0123
vn 0.9999 -0.0103 -0.0103
vn 0.9999 -0.0091 -0.0113
vn 0.9999 -0.0113 -0.0091
vn 0.9999 0.0123 0.0079
vn 0.9999 0.0113 0.0091
vn 0.9999 0.0130 0.0065
vn 0.9999 0.0144 0.0020
vn 0.9999 -0.0146 -0.0004
vn 0.9999 -0.0144 -0.0020
vn 0.9999 0.0145 -0.0012
vn 0.9999 0.0145 0.0004
vn 0.9999 0.0134 -0.0057
vn 0.9999 0.0127 -0.0071
vn 0.9999 -0.0108 0.0097
vn 0.9999 -0.0118 0.0085
vn 0.9999 0.0085 -0.0118
vn 0.9999 0.0072 -0.0127
vn 0.9999 -0.0072 0.0127
vn 0.9999 0.0028 -0.0143
vn 0.9999 0.0043 -0.0139
vn 0.9999 0.0012 -0.0145
vn 0.9999 -0.0143 0.0027
vn 0.9999 -0.0145 0.0012
vn 0.9999 -0.0078 -0.0123
vn 0.9999 -0.0065 -0.0130
vn 0.9999 0.0103 0.0103
vn 0.9999 -0.0130 -0.0065
vn 0.9999 -0.0123 -0.0078
vn 0.9999 -0.0141 -0.0035
vn 0.9999 -0.0137 -0.0050
vn 0.9999 -0.0050 -0.0137
vn 0.9999 -0.0035 -0.0141
vn 0.9999 -0.0139 0.0043
vn 0.9999 -0.0097 0.0108
vn 0.9999 -0.0085 0.0118
vn 0.0135 -0.7675 -0.6409
vn 0.0135 -0.7193 -0.6946
vn 0.0135 -0.7902 -0.6126
vn 0.0135 -0.6938 -0.7201
vn 0.0135 -0.6672 -0.7448
vn 0.0135 -0.9257 0.3779
vn 0.0135 -0.9506 0.3102
vn 0.0135 -0.9114 0.4112
vn 0.0135 -0.9989 -0.0457
vn 0.0135 -0.9930 -0.1176
vn 0.0135 -0.9999 -0.0095
vn 0.0135 -0.9979 0.0626
vn 0.0135 -0.9950 0.0987
vn 0.0135 -0.6814 0.7318
vn 0.0135 -0.7075 0.7065
vn 0.0135 0.9611 -0.2757
vn 0.0135 0.9785 -0.2057
vn 0.0135 0.9506 -0.3102
vn 0.0135 -0.0084 -0.9999
vn 0.0135 0.0637 -0.9979
vn 0.0135 -0.0446 -0.9989
vn 0.0135 0.9853 -0.1701
vn 0.0135 0.9950 -0.0986
vn 0.0135 -0.5083 0.8611
vn 0.0135 -0.4767 0.8789
vn 0.0135 -0.2067 0.9783
vn 0.0135 -0.2766 0.9609
vn 0.0135 -0.1712 0.9851
vn 0.0135 -0.3111 0.9503
vn 0.0135 -0.3789 0.9253
vn 0.0135 -0.8324 -0.5540
vn 0.0135 0.3273 0.9448
vn 0.0135 0.2583 0.9660
vn 0.0135 0.3612 0.9324
vn 0.0135 0.5983 -0.8011
vn 0.0135 0.6270 -0.7789
vn 0.0135 0.5690 -0.8223
vn 0.0135 0.0085 0.9999
vn 0.0135 -0.0636 0.9979
vn 0.0135 0.0446 0.9989
vn 0.0135 -0.9853 0.1701
vn 0.0135 -0.9785 0.2056
vn 0.0135 -0.9881 -0.1533
vn 0.0135 -0.9744 -0.2242
vn 0.0135 -0.7799 0.6258
vn 0.0135 -0.8018 0.5974
vn 0.0135 -0.7798 0.6258
vn 0.0135 -0.2406 -0.9705
vn 0.0135 -0.1343 -0.9909
vn 0.0135 -0.1342 -0.9909
vn 0.0135 0.6119 0.7909
vn 0.0135 0.5532 0.8330
vn 0.0135 0.6400 0.7682
vn 0.0135 0.9989 0.0456
vn 0.0135 0.9930 0.1175
vn 0.0135 0.9999 0.0096
vn 0.0135 -0.8794 0.4759
vn 0.0135 -0.8617 0.5073
vn 0.0135 0.9320 0.3622
vn 0.0135 0.9034 0.4285
vn 0.0135 0.9445 0.3283
vn 0.0135 0.9979 -0.0626
vn 0.0135 -0.4275 -0.9039
vn 0.0135 -0.3612 -0.9324
vn 0.0135 -0.4599 -0.8879
vn 0.0135 0.6672 0.7447
vn 0.0135 0.7675 0.6409
vn 0.0135 0.7437 0.6684
vn 0.0135 0.7902 0.6126
vn 0.0135 0.8324 0.5540
vn 0.0135 0.8518 0.5237
vn 0.0135 0.8874 0.4609
vn 0.0135 0.4122 -0.9110
vn 0.0135 0.4768 -0.8789
vn 0.0135 0.3790 -0.9253
vn 0.0135 0.7565 -0.6538
vn 0.0135 0.8017 -0.5976
vn 0.0135 0.7325 -0.6807
vn 0.0135 0.4275 0.9039
vn 0.0135 0.4599 0.8879
vn 0.0135 0.9881 0.1533
vn 0.0135 0.9744 0.2242
vn 0.0135 0.7076 -0.7065
vn 0.0135 0.7077 -0.7064
vn 0.0135 0.8228 -0.5681
vn 0.0135 0.8708 -0.4914
vn 0.0135 0.9188 -0.3944
vn 0.0135 -0.9657 -0.2593
vn 0.0135 -0.9445 -0.3283
vn 0.0135 -0.9320 -0.3622
vn 0.0135 -0.9034 -0.4285
vn 0.0135 0.3111 -0.9503
vn 0.0135 0.2766 -0.9609
vn 0.0135 0.5082 -0.8611
vn 0.0135 -0.8229 0.5681
vn 0.0135 -0.3273 -0.9448
vn 0.0135 0.2067 -0.9783
vn 0.0135 0.1712 -0.9851
vn 0.0135 0.9657 0.2594
vn 0.0135 0.0997 -0.9949
vn 0.0135 -0.5228 -0.8524
vn 0.0135 -0.5532 -0.8329
vn 0.0135 -0.5827 -0.8126
vn 0.0135 -0.9612 0.2757
vn 0.0135 0.1165 0.9931
vn 0.0135 0.1523 0.9882
vn 0.0135 -0.0997 0.9949
vn 0.0135 0.5228 0.8524
vn 0.0135 0.2232 0.9747
vn 0.0135 -0.4121 0.9110
vn 0.0135 -0.8873 -0.4609
vn 0.0135 -0.8518 -0.5237
vn 0.9999 0.0058 -0.0134
vn 0.9999 0.0004 0.0146
vn 0.0135 -0.6672 -0.7447
vn 0.0135 -0.7075 0.7066
vt 0.100518 0.385472
vt 0.081866 0.372858
vt 0.207814 0.207594
vt 0.408348 0.263131
vt 0.401153 0.284432
vt 0.333763 0.042330
vt 0.350938 0.056882
vt 0.413193 0.241179
vt 0.007281 0.152057
vt 0.014476 0.130755
vt 0.350938 0.358306
vt 0.333763 0.372858
vt 0.315111 0.385472
vt 0.002436 0.241179
vt 0.000000 0.218833
vt 0.408348 0.152057
vt 0.413193 0.174009
vt 0.035556 0.324093
vt 0.023938 0.304833
vt 0.064691 0.358306
vt 0.049194 0.341987
vt 0.120427 0.396001
vt 0.141362 0.404321
vt 0.163075 0.410334
vt 0.207814 0.415188
vt 0.185313 0.413971
vt 0.014476 0.284432
vt 0.007281 0.263131
vt 0.274267 0.404321
vt 0.252554 0.410334
vt 0.295202 0.396001
vt 0.100518 0.029716
vt 0.120427 0.019187
vt 0.064691 0.056882
vt 0.081866 0.042330
vt 0.366435 0.341987
vt 0.035556 0.091095
vt 0.049194 0.073200
vt 0.391691 0.304833
vt 0.380073 0.324093
vt 0.023938 0.110355
vt 0.002436 0.174009
vt 0.415629 0.218833
vt 0.000000 0.196355
vt 0.401153 0.130755
vt 0.391691 0.110355
vt 0.207814 0.000000
vt 0.230316 0.001217
vt 0.366435 0.073200
vt 0.380073 0.091095
vt 0.252554 0.004853
vt 0.274267 0.010867
vt 0.295202 0.019187
vt 0.315111 0.029716
vt 0.185313 0.001217
vt 0.163075 0.004853
vt 0.141362 0.010867
vt 0.415629 0.196355
vt 0.230316 0.413971
vt 0.000508 0.449401
vt 0.291968 0.434045
vt 0.291777 0.451601
vt 0.641595 0.406151
vt 0.619518 0.407345
vt 0.619518 0.203673
vt 0.533781 0.018824
vt 0.554320 0.010662
vt 0.575624 0.004762
vt 0.775143 0.335527
vt 0.759939 0.351538
vt 0.788523 0.317971
vt 0.799921 0.299075
vt 0.641595 0.001194
vt 0.663413 0.004762
vt 0.422772 0.149185
vt 0.429832 0.128286
vt 0.821017 0.236623
vt 0.816264 0.258161
vt 0.823407 0.192646
vt 0.823407 0.214699
vt 0.743088 0.041530
vt 0.759938 0.055807
vt 0.816264 0.149184
vt 0.821017 0.170722
vt 0.429832 0.279060
vt 0.422772 0.258161
vt 0.439115 0.299075
vt 0.788523 0.089374
vt 0.799921 0.108271
vt 0.775143 0.071818
vt 0.724788 0.029154
vt 0.533782 0.388521
vt 0.514248 0.378191
vt 0.684716 0.010662
vt 0.705255 0.018824
vt 0.619518 0.000000
vt 0.597441 0.001194
vt 0.685297 0.396684
vt 0.663413 0.402584
vt 0.514248 0.029154
vt 0.495948 0.041530
vt 0.743088 0.365815
vt 0.450513 0.089374
vt 0.463893 0.071818
vt 0.439115 0.108271
vt 0.575624 0.402584
vt 0.554321 0.396684
vt 0.418019 0.236623
vt 0.415629 0.214699
vt 0.809205 0.128285
vt 0.463893 0.335528
vt 0.450514 0.317971
vt 0.495949 0.365815
vt 0.479098 0.351538
vt 0.415629 0.192646
vt 0.418019 0.170722
vt 0.597442 0.406151
vt 0.705255 0.388521
vt 0.724788 0.378191
vt 0.968549 0.409074
vt 0.983098 0.696870
vt 0.966464 0.696681
vt 0.985503 0.409266
vt 0.998267 0.697085
vt 0.766040 0.408910
vt 0.786744 0.696389
vt 0.767781 0.696521
vt 0.847522 0.408572
vt 0.868618 0.696189
vt 0.847723 0.696189
vt 0.826350 0.408606
vt 0.826951 0.696223
vt 0.000704 0.431506
vt 0.292767 0.418034
vt 0.415733 0.613595
vt 0.706941 0.591008
vt 0.707009 0.612546
vt 0.840809 0.708770
vt 0.865017 0.999312
vt 0.841040 0.999312
vt 0.415664 0.591642
vt 0.706907 0.569084
vt 0.000342 0.468661
vt 0.291614 0.470498
vt 0.000035 0.532315
vt 0.291380 0.511411
vt 0.291312 0.532949
vt 0.000104 0.510363
vt 0.291481 0.490513
vt 0.950300 0.408910
vt 0.000207 0.642738
vt 0.291380 0.620388
vt 0.291481 0.641287
vt 0.979690 0.709277
vt 0.996386 1.000000
vt 0.977298 0.999809
vt 0.000000 0.577139
vt 0.291278 0.554873
vt 0.291278 0.576926
vt 0.805551 0.408674
vt 0.806545 0.696290
vt 0.868819 0.408572
vt 0.889390 0.696223
vt 0.715376 0.409485
vt 0.733243 0.696871
vt 0.717492 0.697085
vt 0.793787 0.999413
vt 0.816514 0.708804
vt 0.817203 0.999346
vt 0.000703 0.700293
vt 0.291777 0.680198
vt 0.291968 0.697755
vt 0.415629 0.546819
vt 0.706941 0.525107
vt 0.706907 0.547031
vt 0.747792 0.409074
vt 0.749877 0.696681
vt 0.415836 0.481219
vt 0.707243 0.462655
vt 0.707110 0.482670
vt 0.415629 0.569296
vt 0.747307 0.709111
vt 0.771065 0.999514
vt 0.749304 0.999647
vt 0.000925 0.716612
vt 0.292186 0.713765
vt 0.416332 0.423664
vt 0.707815 0.410192
vt 0.707597 0.426203
vt 0.416137 0.441559
vt 0.707406 0.443759
vt 0.415971 0.460819
vt 0.936570 0.708976
vt 0.956753 0.999647
vt 0.934992 0.999514
vt 0.416332 0.692451
vt 0.707406 0.672356
vt 0.707597 0.689912
vt 0.000342 0.663138
vt 0.291614 0.661302
vt 0.415664 0.524473
vt 0.707009 0.503569
vt 0.416554 0.708770
vt 0.707815 0.705923
vt 0.416138 0.674556
vt 0.707243 0.653459
vt 0.415836 0.634896
vt 0.707110 0.633444
vt 0.889991 0.408606
vt 0.909796 0.696290
vt 0.910790 0.408674
vt 0.929597 0.696389
vt 0.913411 0.708874
vt 0.912270 0.999413
vt 0.958750 0.709111
vt 0.730838 0.409266
vt 0.769487 0.708976
vt 0.889543 0.708804
vt 0.888854 0.999346
vt 0.415733 0.502520
vt 0.865248 0.708770
vt 0.726366 0.709277
vt 0.728759 0.999809
vt 0.706911 0.709471
vt 0.709671 1.000000
vt 0.785369 0.408776
vt 0.000035 0.599485
vt 0.291312 0.598850
vt 0.000000 0.554661
vt 0.000508 0.682399
vt 0.000104 0.621437
vt 0.000207 0.489061
vt 0.930972 0.408776
vt 0.948560 0.696521
vt 0.479098 0.055807
vt 0.809205 0.279059
vt 1.000964 0.409485
vt 0.000925 0.415188
vt 0.999146 0.709471
vt 0.792646 0.708874
vt 0.416554 0.407345
vt 0.415971 0.655296
s 1
usemtl lidar
f 212/1/1 215/2/1 2/3/1
f 177/4/1 180/5/1 2/3/1
f 155/6/1 156/7/1 2/3/1
f 175/8/1 177/4/1 2/3/1
f 237/9/1 238/10/1 2/3/1
f 187/11/1 190/12/1 2/3/1
f 190/12/1 192/13/1 2/3/1
f 228/14/1 230/15/1 2/3/1
f 167/16/1 168/17/1 2/3/1
f 220/18/1 222/19/1 2/3/1
f 217/20/1 219/21/1 2/3/1
f 215/2/1 217/20/1 2/3/1
f 211/22/1 212/1/1 2/3/1
f 208/23/1 211/22/1 2/3/1
f 206/24/1 208/23/1 2/3/1
f 219/21/1 220/18/1 2/3/1
f 202/25/1 204/26/1 2/3/1
f 222/19/1 224/27/1 2/3/1
f 224/27/1 227/28/1 2/3/1
f 196/29/1 198/30/1 2/3/1
f 193/31/1 196/29/1 2/3/1
f 131/32/1 134/33/1 2/3/1
f 127/34/1 130/35/1 2/3/1
f 185/36/1 187/11/1 2/3/1
f 123/37/1 126/38/1 2/3/1
f 2/3/1 181/39/1 183/40/1
f 238/10/1 242/41/1 2/3/1
f 126/38/1 127/34/1 2/3/1
f 234/42/1 237/9/1 2/3/1
f 173/43/1 175/8/1 2/3/1
f 230/15/1 233/44/1 2/3/1
f 164/45/1 167/16/1 2/3/1
f 162/46/1 164/45/1 2/3/1
f 141/47/1 144/48/1 2/3/1
f 159/49/1 160/50/1 2/3/1
f 145/51/1 147/52/1 2/3/1
f 147/52/1 151/53/1 2/3/1
f 153/54/1 155/6/1 2/3/1
f 151/53/1 153/54/1 2/3/1
f 144/48/1 145/51/1 2/3/1
f 140/55/1 141/47/1 2/3/1
f 137/56/1 140/55/1 2/3/1
f 135/57/1 137/56/1 2/3/1
f 168/17/1 170/58/1 2/3/1
f 170/58/1 173/43/1 2/3/1
f 130/35/1 131/32/1 2/3/1
f 180/5/1 181/39/1 2/3/1
f 2/3/1 242/41/1 123/37/1
f 227/28/1 228/14/1 2/3/1
f 204/26/1 206/24/1 2/3/1
f 160/50/1 162/46/1 2/3/1
f 200/59/1 202/25/1 2/3/1
f 192/13/1 193/31/1 2/3/1
f 134/33/1 135/57/1 2/3/1
f 156/7/1 159/49/1 2/3/1
f 198/30/1 200/59/1 2/3/1
f 233/44/1 234/42/1 2/3/1
f 183/40/1 185/36/1 2/3/1
f 184/60/2 3/61/3 122/62/4
f 11/63/5 13/64/6 1/65/7
f 63/66/8 67/67/9 1/65/7
f 67/67/9 69/68/10 1/65/7
f 115/69/11 117/70/12 1/65/7
f 114/71/13 115/69/11 1/65/7
f 112/72/14 114/71/13 1/65/7
f 75/73/15 76/74/16 1/65/7
f 47/75/17 50/76/18 1/65/7
f 106/77/19 108/78/20 1/65/7
f 102/79/21 103/80/22 1/65/7
f 84/81/23 87/82/24 1/65/7
f 97/83/25 99/84/26 1/65/7
f 35/85/27 38/86/28 1/65/7
f 32/87/29 35/85/27 1/65/7
f 91/88/30 92/89/31 1/65/7
f 88/90/32 91/88/30 1/65/7
f 87/82/24 88/90/32 1/65/7
f 82/91/33 84/81/23 1/65/7
f 20/92/34 23/93/35 1/65/7
f 78/94/36 81/95/37 1/65/7
f 72/96/38 75/73/15 1/65/7
f 69/68/10 70/97/39 1/65/7
f 7/98/40 8/99/41 1/65/7
f 1/65/7 61/100/42 63/66/8
f 59/101/43 61/100/42 1/65/7
f 117/70/12 120/102/44 1/65/7
f 8/99/41 11/63/5 1/65/7
f 54/103/45 55/104/46 1/65/7
f 50/76/18 51/105/47 1/65/7
f 16/106/48 18/107/49 1/65/7
f 18/107/49 20/92/34 1/65/7
f 103/80/22 106/77/19 1/65/7
f 40/108/50 41/109/51 1/65/7
f 92/89/31 94/110/52 1/65/7
f 29/111/53 30/112/54 1/65/7
f 38/86/28 40/108/50 1/65/7
f 25/113/55 27/114/56 1/65/7
f 41/109/51 43/115/57 1/65/7
f 43/115/57 46/116/58 1/65/7
f 76/74/16 78/94/36 1/65/7
f 15/117/59 16/106/48 1/65/7
f 51/105/47 54/103/45 1/65/7
f 70/97/39 72/96/38 1/65/7
f 4/118/60 7/98/40 1/65/7
f 1/65/7 121/119/61 4/118/60
f 152/120/62 34/121/63 33/122/64
f 150/123/65 37/124/66 34/121/63
f 172/125/67 14/126/68 12/127/69
f 165/128/70 22/129/71 21/130/72
f 166/131/73 21/130/72 19/132/74
f 182/133/75 5/134/76 3/61/3
f 231/135/77 77/136/78 74/137/79
f 136/138/80 52/139/81 49/140/82
f 229/141/83 79/142/84 77/136/78
f 186/143/85 122/62/4 119/144/86
f 191/145/87 116/146/88 113/147/89
f 189/148/90 118/149/91 116/146/88
f 33/122/64 154/150/92 152/120/62
f 201/151/93 105/152/94 104/153/95
f 124/154/96 64/155/97 62/156/98
f 195/157/99 111/158/100 109/159/101
f 169/160/102 19/132/74 17/161/103
f 163/162/104 24/163/105 22/129/71
f 179/164/106 9/165/107 6/166/108
f 45/167/109 138/168/110 48/169/111
f 207/170/112 100/171/113 98/172/114
f 225/173/115 83/174/116 80/175/117
f 174/176/118 12/127/69 10/177/119
f 218/178/120 89/179/121 86/180/122
f 226/181/123 80/175/117 79/142/84
f 143/182/124 44/183/125 42/184/126
f 209/185/127 98/172/114 95/186/127
f 213/187/128 96/188/129 93/189/130
f 214/190/131 93/189/130 90/191/132
f 216/192/133 90/191/132 89/179/121
f 128/193/134 60/194/135 58/195/136
f 239/196/137 68/197/138 66/198/139
f 203/199/140 104/153/95 101/200/141
f 223/201/142 85/202/143 83/174/116
f 241/203/144 66/198/139 65/204/145
f 236/205/146 71/206/147 68/197/138
f 71/206/147 232/207/148 73/208/148
f 161/209/149 26/210/150 24/163/105
f 158/211/151 28/212/152 26/210/150
f 129/213/153 58/195/136 56/214/154
f 138/168/110 49/140/82 48/169/111
f 125/215/155 62/156/98 60/194/135
f 176/216/156 10/177/119 9/165/107
f 142/217/157 45/167/109 44/183/125
f 132/218/158 56/214/154 53/219/159
f 221/220/160 86/180/122 85/202/143
f 133/221/161 53/219/159 52/139/81
f 232/207/148 74/137/79 73/208/148
f 146/222/162 42/184/126 39/223/163
f 148/224/164 39/223/163 36/225/164
f 171/226/165 17/161/103 14/126/68
f 197/227/166 109/159/101 107/228/167
f 194/229/168 113/147/89 111/158/100
f 205/230/169 101/200/141 100/171/113
f 199/231/170 107/228/167 105/152/94
f 188/232/171 119/144/86 118/149/91
f 157/233/172 31/234/173 28/212/152
f 99/84/26 102/79/21 1/65/7
f 27/114/56 29/111/53 1/65/7
f 57/235/174 59/101/43 1/65/7
f 120/102/44 121/119/61 1/65/7
f 55/104/46 57/235/174 1/65/7
f 81/95/37 82/91/33 1/65/7
f 46/116/58 47/75/17 1/65/7
f 94/110/52 97/83/25 1/65/7
f 30/112/54 32/87/29 1/65/7
f 108/78/20 110/236/175 1/65/7
f 13/64/6 15/117/59 1/65/7
f 23/93/35 25/113/55 1/65/7
f 110/236/175 112/72/14 1/65/7
f 184/60/2 182/133/75 3/61/3
f 152/120/62 150/123/65 34/121/63
f 150/123/65 149/237/176 37/124/66
f 172/125/67 171/226/165 14/126/68
f 165/128/70 163/162/104 22/129/71
f 166/131/73 165/128/70 21/130/72
f 182/133/75 178/238/177 5/134/76
f 231/135/77 229/141/83 77/136/78
f 136/138/80 133/221/161 52/139/81
f 229/141/83 226/181/123 79/142/84
f 186/143/85 184/60/2 122/62/4
f 191/145/87 189/148/90 116/146/88
f 189/148/90 188/232/171 118/149/91
f 33/122/64 31/234/173 154/150/92
f 201/151/93 199/231/170 105/152/94
f 124/154/96 240/239/97 64/155/97
f 195/157/99 194/229/168 111/158/100
f 169/160/102 166/131/73 19/132/74
f 163/162/104 161/209/149 24/163/105
f 179/164/106 176/216/156 9/165/107
f 45/167/109 139/240/109 138/168/110
f 207/170/112 205/230/169 100/171/113
f 225/173/115 223/201/142 83/174/116
f 174/176/118 172/125/67 12/127/69
f 218/178/120 216/192/133 89/179/121
f 226/181/123 225/173/115 80/175/117
f 143/182/124 142/217/157 44/183/125
f 209/185/127 207/170/112 98/172/114
f 213/187/128 210/241/129 96/188/129
f 214/190/131 213/187/128 93/189/130
f 216/192/133 214/190/131 90/191/132
f 128/193/134 125/215/155 60/194/135
f 239/196/137 236/205/146 68/197/138
f 203/199/140 201/151/93 104/153/95
f 223/201/142 221/220/160 85/202/143
f 241/203/144 239/196/137 66/198/139
f 236/205/146 235/242/147 71/206/147
f 71/206/147 235/242/147 232/207/148
f 161/209/149 158/211/151 26/210/150
f 158/211/151 157/233/172 28/212/152
f 129/213/153 128/193/134 58/195/136
f 138/168/110 136/138/80 49/140/82
f 125/215/155 124/154/96 62/156/98
f 176/216/156 174/176/118 10/177/119
f 142/217/157 139/240/109 45/167/109
f 132/218/158 129/213/153 56/214/154
f 221/220/160 218/178/120 86/180/122
f 133/221/161 132/218/158 53/219/159
f 232/207/148 231/135/77 74/137/79
f 146/222/162 143/182/124 42/184/126
f 148/224/164 146/222/162 39/223/163
f 171/226/165 169/160/102 17/161/103
f 197/227/166 195/157/99 109/159/101
f 194/229/168 191/145/87 113/147/89
f 205/230/169 203/199/140 101/200/141
f 199/231/170 197/227/166 107/228/167
f 188/232/171 186/143/85 119/144/86
f 157/233/172 154/150/92 31/234/173
