# Blender 3.6.1
# www.blender.org
mtllib wide_angle_camera.mtl
o wide_angle_camera
v -0.015090 -0.019874 0.023384
v -0.015090 -0.019874 0.023384
v -0.015090 -0.019874 0.023384
v -0.008371 -0.019863 -0.029263
v -0.008371 -0.019863 -0.029263
v -0.008371 -0.019863 -0.029263
v -0.008348 0.019895 -0.029252
v -0.008348 0.019895 -0.029252
v -0.008348 0.019895 -0.029252
v -0.015067 0.019884 0.023395
v -0.015067 0.019884 0.023395
v -0.015067 0.019884 0.023395
v -0.011948 0.019882 0.023793
v -0.011948 0.019882 0.023793
v -0.011948 0.019882 0.023793
v -0.005229 0.019893 -0.028854
v -0.005229 0.019893 -0.028854
v -0.005229 0.019893 -0.028854
v -0.005253 -0.019865 -0.028865
v -0.005253 -0.019865 -0.028865
v -0.005253 -0.019865 -0.028865
v -0.011972 -0.019876 0.023782
v -0.011972 -0.019876 0.023782
v -0.011972 -0.019876 0.023782
v -0.007440 0.017517 -0.011547
v -0.007440 0.017517 -0.011547
v -0.007460 -0.017497 -0.011557
v -0.007460 -0.017497 -0.011557
v 0.008865 0.017507 -0.009466
v 0.008865 0.017507 -0.009466
v 0.008845 -0.017507 -0.009476
v 0.008845 -0.017507 -0.009476
v 0.008845 -0.017507 -0.009476
v 0.008845 -0.017507 -0.009476
v -0.015068 0.017067 0.023394
v -0.015068 0.017067 0.023394
v -0.015089 -0.017057 0.023385
v -0.015089 -0.017057 0.023385
v -0.008370 -0.017046 -0.029262
v -0.008370 -0.017046 -0.029262
v -0.008350 0.017078 -0.029253
v -0.008350 0.017078 -0.029253
v 0.017131 -0.010175 -0.006911
v 0.017131 -0.010175 -0.006911
v 0.017131 -0.010175 -0.006911
v 0.017143 0.010165 -0.006905
v 0.017143 0.010165 -0.006905
v 0.017143 0.010165 -0.006905
v 0.013342 0.010159 0.022883
v 0.013342 0.010159 0.022883
v 0.013342 0.010159 0.022883
v 0.013330 -0.010181 0.022878
v 0.013330 -0.010181 0.022878
v 0.013330 -0.010181 0.022878
v -0.005251 -0.017048 -0.028864
v -0.005251 -0.017048 -0.028864
v -0.005231 0.017076 -0.028855
v -0.005231 0.017076 -0.028855
v -0.011950 0.017065 0.023792
v -0.011950 0.017065 0.023792
v -0.011970 -0.017059 0.023783
v -0.011970 -0.017059 0.023783
v 0.014108 -0.010174 -0.007296
v 0.014108 -0.010174 -0.007296
v 0.014108 -0.010174 -0.007296
v 0.014108 -0.010174 -0.007296
v 0.014120 0.010166 -0.007291
v 0.014120 0.010166 -0.007291
v 0.014120 0.010166 -0.007291
v 0.014120 0.010166 -0.007291
v 0.010318 0.010161 0.022497
v 0.010318 0.010161 0.022497
v 0.010318 0.010161 0.022497
v 0.010318 0.010161 0.022497
v 0.010306 -0.010179 0.022492
v 0.010306 -0.010179 0.022492
v 0.010306 -0.010179 0.022492
v 0.010306 -0.010179 0.022492
v -0.011621 0.015511 0.021205
v -0.011621 0.015511 0.021205
v -0.011621 0.015511 0.021205
v -0.011639 -0.015503 0.021196
v -0.011639 -0.015503 0.021196
v -0.011639 -0.015503 0.021196
v 0.014294 -0.015510 -0.008780
v 0.014294 -0.015510 -0.008780
v 0.014294 -0.015510 -0.008780
v 0.014312 0.015504 -0.008771
v 0.014312 0.015504 -0.008771
v 0.014312 0.015504 -0.008771
v 0.010132 0.015497 0.023981
v 0.010132 0.015497 0.023981
v 0.010132 0.015497 0.023981
v 0.010114 -0.015517 0.023972
v 0.010114 -0.015517 0.023972
v 0.010114 -0.015517 0.023972
v 0.008846 -0.015507 -0.009475
v 0.008846 -0.015507 -0.009475
v 0.008864 0.015507 -0.009467
v 0.008864 0.015507 -0.009467
v 0.008864 0.015507 -0.009467
v 0.008864 0.015507 -0.009467
v 0.004684 0.015501 0.023286
v 0.004684 0.015501 0.023286
v 0.004684 0.015501 0.023286
v 0.004684 0.015501 0.023286
v 0.004666 -0.015513 0.023277
v 0.004666 -0.015513 0.023277
v 0.004666 -0.015513 0.023277
v 0.004666 -0.015513 0.023277
v -0.005560 -0.015494 -0.026436
v -0.005560 -0.015494 -0.026436
v -0.005560 -0.015494 -0.026436
v -0.005542 0.015520 -0.026428
v -0.005542 0.015520 -0.026428
v -0.005542 0.015520 -0.026428
v 0.010745 -0.015504 -0.024355
v 0.010745 -0.015504 -0.024355
v 0.010745 -0.015504 -0.024355
v 0.010763 0.015510 -0.024347
v 0.010763 0.015510 -0.024347
v 0.010763 0.015510 -0.024347
v -0.008642 -0.019864 -0.027145
v -0.008642 -0.019864 -0.027145
v -0.008618 0.019894 -0.027134
v -0.008618 0.019894 -0.027134
v 0.013957 0.014995 0.018087
v 0.013957 0.014995 0.018087
v 0.013957 0.014995 0.018087
v 0.013957 0.014995 0.018087
v 0.016534 0.014999 -0.002106
v 0.016534 0.014999 -0.002106
v 0.016534 0.014999 -0.002106
v 0.016534 0.014999 -0.002106
v 0.013939 -0.015015 0.018078
v 0.013939 -0.015015 0.018078
v 0.013939 -0.015015 0.018078
v 0.013939 -0.015015 0.018078
v 0.013939 -0.015015 0.018078
v 0.016516 -0.015011 -0.002114
v 0.016516 -0.015011 -0.002114
v 0.016516 -0.015011 -0.002114
v 0.016516 -0.015011 -0.002114
v -0.010221 0.019885 0.010258
v -0.010221 0.019885 0.010258
v -0.005500 0.019892 -0.026736
v -0.005500 0.019892 -0.026736
v -0.010244 -0.019873 0.010247
v -0.010244 -0.019873 0.010247
v -0.005523 -0.019866 -0.026747
v -0.005523 -0.019866 -0.026747
v 0.010916 -0.015014 0.017692
v 0.010916 -0.015014 0.017692
v 0.010916 -0.015014 0.017692
v 0.013492 -0.015010 -0.002500
v 0.013492 -0.015010 -0.002500
v 0.013492 -0.015010 -0.002500
v 0.013492 -0.015010 -0.002500
v 0.013510 0.015000 -0.002492
v 0.013510 0.015000 -0.002492
v 0.013510 0.015000 -0.002492
v 0.010933 0.014996 0.017701
v 0.010933 0.014996 0.017701
v 0.010933 0.014996 0.017701
v -0.011366 0.017511 0.019222
v -0.011366 0.017511 0.019222
v -0.011366 0.017511 0.019222
v -0.007693 0.017517 -0.009563
v -0.007693 0.017517 -0.009563
v -0.011387 -0.017503 0.019212
v -0.011387 -0.017503 0.019212
v -0.011387 -0.017503 0.019212
v -0.007713 -0.017497 -0.009573
v -0.007713 -0.017497 -0.009573
v 0.010366 -0.017516 0.021988
v 0.010366 -0.017516 0.021988
v 0.010366 -0.017516 0.021988
v 0.010366 -0.017516 0.021988
v 0.014039 -0.017511 -0.006797
v 0.014039 -0.017511 -0.006797
v 0.014039 -0.017511 -0.006797
v 0.014060 0.017503 -0.006787
v 0.014060 0.017503 -0.006787
v 0.014060 0.017503 -0.006787
v 0.014060 0.017503 -0.006787
v 0.010386 0.017498 0.021998
v 0.010386 0.017498 0.021998
v 0.010386 0.017498 0.021998
v 0.010386 0.017498 0.021998
v 0.004918 -0.017513 0.021293
v 0.004918 -0.017513 0.021293
v 0.008591 -0.017507 -0.007492
v 0.008612 0.017507 -0.007482
v 0.008612 0.017507 -0.007482
v 0.008612 0.017507 -0.007482
v 0.004939 0.017501 0.021302
v 0.004939 0.017501 0.021302
v -0.008640 -0.017047 -0.027144
v -0.008620 0.017077 -0.027135
v 0.010511 0.017510 -0.022363
v 0.010511 0.017510 -0.022363
v 0.010511 0.017510 -0.022363
v -0.005794 0.017520 -0.024443
v -0.005794 0.017520 -0.024443
v -0.005794 0.017520 -0.024443
v 0.010490 -0.017504 -0.022372
v 0.010490 -0.017504 -0.022372
v 0.010490 -0.017504 -0.022372
v -0.005814 -0.017494 -0.024453
v -0.005814 -0.017494 -0.024453
v -0.005814 -0.017494 -0.024453
v 0.010510 0.015510 -0.022363
v 0.010492 -0.015504 -0.022372
vn -0.9920 0.0006 -0.1266
vn 0.1266 0.0002 -0.9920
vn 0.0006 1.0000 0.0003
vn -0.0006 -1.0000 -0.0003
vn -0.1266 -0.0002 0.9920
vn -0.0891 0.7071 0.7015
vn 0.0899 0.7074 -0.7011
vn 0.0899 0.7072 -0.7012
vn 0.9920 -0.0006 0.1266
vn 0.0891 -0.7070 -0.7016
vn -0.0891 0.7070 0.7016
vn -0.0899 -0.7072 0.7012
vn -0.0899 -0.7074 0.7011
vn 0.0891 -0.7071 -0.7015
vn 0.3336 -0.6848 -0.6479
vt 0.680740 0.438807
vt 0.377867 0.017653
vt 0.680740 0.017653
vt 0.673801 0.671333
vt 0.646780 0.654713
vt 0.674663 0.654872
vt 0.912365 0.000000
vt 0.940273 0.017653
vt 0.912365 0.017653
vt 0.904361 0.292345
vt 0.855658 0.292405
vt 0.855106 0.280716
vt 0.972091 0.462223
vt 1.000000 0.485510
vt 0.972091 0.485510
vt 0.940273 0.438807
vt 0.912365 0.325989
vt 0.999786 0.039994
vt 0.972739 0.000003
vt 0.999787 0.000000
vt 0.999787 0.208290
vt 0.972739 0.248281
vt 0.972739 0.208290
vt 0.206987 0.562835
vt 0.352869 0.579367
vt 0.206987 0.579367
vt 0.352869 0.438807
vt 0.206987 0.455341
vt 0.206987 0.438807
vt 0.589726 0.707613
vt 0.645919 0.711763
vt 0.628168 0.728300
vt 0.352869 0.455344
vt 0.409062 0.459494
vt 0.366132 0.499470
vt 0.133141 0.438807
vt 0.150890 0.455344
vt 0.133141 0.455344
vt 0.158239 0.579367
vt 0.133141 0.728299
vt 0.133141 0.711763
vt 0.150890 0.711763
vt 0.851520 0.204710
vt 0.705738 0.181505
vt 0.851487 0.181325
vt 0.713775 0.000180
vt 0.859524 0.000000
vt 0.705738 0.727044
vt 0.754485 0.983463
vt 0.705738 0.983463
vt 0.000000 0.728300
vt 0.017747 0.711763
vt 0.017747 0.728300
vt 0.904328 0.268959
vt 0.863661 0.087697
vt 0.912364 0.087634
vt 0.900367 0.727044
vt 0.754485 0.710506
vt 0.900367 0.710506
vt 0.754485 0.727044
vt 0.900367 0.983463
vt 0.927415 0.918650
vt 0.900367 0.750483
vt 0.927415 0.750483
vt 0.967297 0.118911
vt 0.945716 0.000002
vt 0.972739 0.000000
vt 0.377867 0.438807
vt 0.352869 0.017653
vt 0.754485 1.000000
vt 0.972092 0.767648
vt 1.000000 0.790934
vt 0.972092 0.790934
vt 1.000000 0.767648
vt 0.366132 0.667637
vt 0.705738 1.000000
vt 0.705738 0.710506
vt 0.632656 0.499470
vt 0.632656 0.667637
vt 0.685099 0.455427
vt 0.658078 0.438807
vt 0.685961 0.438965
vt 0.657217 0.455268
vt 0.377867 0.000000
vt 0.680740 0.000000
vt 0.705738 0.017653
vt 0.705738 0.000000
vt 0.409062 0.707613
vt 0.352869 0.711763
vt 0.206987 0.819283
vt 0.158239 0.819283
vt 0.912364 0.461982
vt 0.645919 0.455344
vt 0.589726 0.459494
vt 0.628168 0.438807
vt 0.370620 0.728300
vt 0.709357 0.280896
vt 0.863661 0.462043
vt 0.709908 0.292585
vt 0.352869 0.819283
vt 0.972739 0.039994
vt 0.972739 0.294463
vt 0.940273 0.175458
vt 0.967296 0.175457
vt 0.352869 0.000000
vt 0.682835 0.901900
vt 0.658078 0.981534
vt 0.646408 0.683660
vt 0.705740 0.502217
vt 0.748653 0.462223
vt 0.972091 0.502217
vt 0.674291 0.683819
vt 0.645919 0.671175
vt 0.017747 0.455344
vt 0.017747 0.438807
vt 0.352869 0.455341
vt 0.352869 0.562835
vt 0.927415 0.710506
vt 0.900367 0.710507
vt 0.940274 0.118913
vt 0.331817 0.036767
vt 0.327871 0.000000
vt 0.038803 0.020233
vt 0.314066 0.020233
vt 0.021050 0.036767
vt 0.024998 0.000000
vt 0.000000 0.017652
vt 0.000000 0.000000
vt 0.021050 0.160793
vt 0.021050 0.144262
vt 0.021050 0.400710
vt 0.000000 0.325989
vt 0.024998 0.438807
vt 0.000000 0.438807
vt 0.314066 0.417241
vt 0.038803 0.417242
vt 0.331819 0.400710
vt 0.327871 0.438807
vt 0.352869 0.325989
vt 0.331819 0.160793
vt 0.352869 0.017652
vt 0.331819 0.144262
vt 0.705738 0.438807
vt 0.940273 0.000000
vt 0.855624 0.269022
vt 1.000000 0.462223
vt 0.912365 0.438807
vt 0.999787 0.248283
vt 0.370620 0.438807
vt 0.158239 0.562831
vt 0.705771 0.204890
vt 0.900367 0.918650
vt 0.900367 1.000000
vt 0.717912 0.462223
vt 0.945716 0.294462
vt 0.685961 0.981693
vt 0.929178 0.462223
vt 0.972091 0.670513
vt 0.705738 0.670513
vt 0.929178 0.710506
vt 0.748653 0.710506
s 1
usemtl wide_angle_camera
f 38/1/1 199/2/1 198/3/1
f 19/4/2 40/5/2 55/6/2
f 18/7/3 125/8/3 146/9/3
f 179/10/4 192/11/4 34/12/4
f 15/13/5 35/14/5 59/15/5
f 12/16/3 145/17/3 125/8/3
f 128/18/6 73/19/6 50/20/6
f 131/21/7 70/22/7 159/23/7
f 30/24/3 168/25/3 193/26/3
f 115/27/8 201/28/8 120/29/8
f 160/30/9 89/31/9 184/32/9
f 94/33/9 153/34/9 75/35/9
f 207/36/9 117/37/9 213/38/9
f 182/39/8 101/24/8 194/26/8
f 200/40/9 212/41/9 122/42/9
f 208/43/10 111/44/10 119/45/10
f 213/38/9 122/42/9 212/41/9
f 118/45/2 114/46/2 121/47/2
f 92/48/5 110/49/5 95/50/5
f 195/51/9 102/52/9 29/53/9
f 85/54/2 99/55/2 90/56/2
f 79/57/11 196/58/11 165/59/11
f 103/60/5 84/61/5 108/49/5
f 51/62/5 77/63/5 54/64/5
f 43/65/2 67/66/2 46/67/2
f 36/68/1 126/69/1 199/2/1
f 82/61/12 190/70/12 107/49/12
f 62/71/5 1/72/5 23/73/5
f 59/15/5 37/74/5 62/71/5
f 72/75/9 94/33/9 75/35/9
f 177/76/12 107/49/12 190/70/12
f 187/77/11 106/60/11 91/48/11
f 63/78/9 89/31/9 69/79/9
f 57/80/2 7/81/2 17/82/2
f 55/6/2 42/83/2 57/80/2
f 198/3/1 41/84/1 39/85/1
f 124/86/1 39/85/1 6/87/1
f 164/88/9 93/89/9 72/75/9
f 185/39/3 197/90/3 188/91/3
f 176/92/4 192/11/4 179/10/4
f 87/93/9 157/94/9 180/95/9
f 153/34/9 180/95/9 157/94/9
f 164/88/9 184/32/9 186/96/9
f 192/11/4 28/97/4 34/12/4
f 191/98/4 173/99/4 192/11/4
f 193/26/3 167/100/3 197/90/3
f 132/21/3 163/101/3 129/18/3
f 135/102/4 158/103/4 143/104/4
f 199/2/1 8/105/1 41/84/1
f 148/106/4 2/107/4 123/108/4
f 142/109/9 45/110/9 134/111/9
f 150/112/4 4/113/4 21/4/4
f 98/114/9 212/41/9 102/52/9
f 102/52/9 200/40/9 29/53/9
f 28/97/4 206/43/4 34/12/4
f 31/115/9 213/38/9 98/114/9
f 30/24/3 203/116/3 25/117/3
f 136/118/13 76/63/13 154/119/13
f 141/104/14 65/120/14 44/65/14
f 205/121/9 58/122/9 16/105/9
f 112/123/9 58/122/9 116/124/9
f 211/125/9 56/126/9 112/123/9
f 211/125/9 151/127/9 20/128/9
f 174/129/9 151/127/9 27/130/9
f 171/131/9 149/132/9 174/129/9
f 171/131/9 61/133/9 22/134/9
f 80/135/9 61/133/9 83/136/9
f 166/137/9 60/138/9 80/135/9
f 166/137/9 144/139/9 14/27/9
f 169/140/9 147/141/9 144/139/9
f 205/121/9 147/141/9 26/142/9
f 3/143/1 198/3/1 124/86/1
f 38/1/1 36/68/1 199/2/1
f 19/4/2 5/113/2 40/5/2
f 18/7/3 9/144/3 125/8/3
f 97/145/2 85/54/2 33/12/2
f 86/54/15 181/10/15 32/12/15
f 15/13/5 10/146/5 35/14/5
f 13/147/3 145/17/3 12/16/3
f 145/17/3 146/9/3 125/8/3
f 127/18/6 162/101/6 71/19/6
f 133/21/7 48/148/7 68/22/7
f 30/24/3 25/117/3 168/25/3
f 115/27/8 204/116/8 201/28/8
f 160/30/9 69/79/9 89/31/9
f 94/33/9 175/149/9 153/34/9
f 183/39/8 88/150/8 100/24/8
f 208/43/10 210/151/10 111/44/10
f 213/38/9 117/37/9 122/42/9
f 118/45/2 113/44/2 114/46/2
f 92/48/5 104/60/5 110/49/5
f 85/54/2 97/145/2 99/55/2
f 79/57/11 105/60/11 196/58/11
f 103/60/5 81/57/5 84/61/5
f 51/62/5 74/152/5 77/63/5
f 43/65/2 64/120/2 67/66/2
f 36/68/1 11/27/1 126/69/1
f 82/61/12 172/153/12 190/70/12
f 62/71/5 37/74/5 1/72/5
f 59/15/5 35/14/5 37/74/5
f 72/75/9 93/89/9 94/33/9
f 178/76/12 96/50/12 109/49/12
f 189/77/11 196/58/11 105/60/11
f 63/78/9 87/93/9 89/31/9
f 57/80/2 42/83/2 7/81/2
f 55/6/2 40/5/2 42/83/2
f 198/3/1 199/2/1 41/84/1
f 124/86/1 198/3/1 39/85/1
f 164/88/9 186/96/9 93/89/9
f 185/39/3 193/26/3 197/90/3
f 176/92/4 191/98/4 192/11/4
f 87/93/9 63/78/9 157/94/9
f 153/34/9 175/149/9 180/95/9
f 164/88/9 160/30/9 184/32/9
f 192/11/4 173/99/4 28/97/4
f 191/98/4 170/154/4 173/99/4
f 193/26/3 168/25/3 167/100/3
f 132/21/3 161/23/3 163/101/3
f 138/102/4 152/155/4 156/103/4
f 199/2/1 126/69/1 8/105/1
f 123/108/4 150/112/4 148/106/4
f 148/106/4 24/156/4 2/107/4
f 45/110/9 47/157/9 134/111/9
f 134/111/9 130/158/9 139/159/9
f 130/158/9 49/160/9 139/159/9
f 49/160/9 53/161/9 139/159/9
f 139/159/9 142/109/9 134/111/9
f 150/112/4 123/108/4 4/113/4
f 98/114/9 213/38/9 212/41/9
f 102/52/9 212/41/9 200/40/9
f 28/97/4 209/151/4 206/43/4
f 31/115/9 207/36/9 213/38/9
f 30/24/3 202/28/3 203/116/3
f 137/118/13 52/64/13 78/63/13
f 140/104/14 155/103/14 66/120/14
f 205/121/9 116/124/9 58/122/9
f 112/123/9 56/126/9 58/122/9
f 211/125/9 20/128/9 56/126/9
f 211/125/9 27/130/9 151/127/9
f 174/129/9 149/132/9 151/127/9
f 171/131/9 22/134/9 149/132/9
f 171/131/9 83/136/9 61/133/9
f 80/135/9 60/138/9 61/133/9
f 166/137/9 14/27/9 60/138/9
f 166/137/9 169/140/9 144/139/9
f 169/140/9 26/142/9 147/141/9
f 205/121/9 16/105/9 147/141/9
f 3/143/1 38/1/1 198/3/1
